M48
; DRILL file {KiCad 9.0.7} date 2026-03-22T14:19:08+0100
; FORMAT={-:-/ absolute / metric / decimal}
; #@! TF.CreationDate,2026-03-22T14:19:08+01:00
; #@! TF.GenerationSoftware,Kicad,Pcbnew,9.0.7
; #@! TF.FileFunction,Plated,1,6,PTH
FMAT,2
METRIC
; #@! TA.AperFunction,Plated,PTH,ViaDrill
T1C0.300
; #@! TA.AperFunction,Plated,PTH,ComponentDrill
T2C0.500
; #@! TA.AperFunction,Plated,PTH,ComponentDrill
T3C0.600
; #@! TA.AperFunction,Plated,PTH,ComponentDrill
T4C1.000
; #@! TA.AperFunction,Plated,PTH,ComponentDrill
T5C3.200
%
G90
G05
T1
X76.0Y-88.8
X76.0Y-89.8
X76.0Y-91.0
X76.05Y-96.6
X76.05Y-97.35
X76.05Y-98.3
X76.485Y-84.19
X76.485Y-84.89
X76.485Y-95.11
X76.485Y-95.81
X76.85Y-83.15
X76.9Y-96.6
X77.185Y-84.19
X77.185Y-84.89
X77.185Y-95.11
X77.185Y-95.81
X77.885Y-84.19
X77.885Y-84.89
X77.885Y-95.11
X77.885Y-95.81
X78.8Y-86.0
X78.8Y-86.6
X78.8Y-93.5
X78.8Y-94.1
X79.1Y-88.8
X79.1Y-91.3
X79.2Y-85.0
X79.4Y-86.0
X79.4Y-86.6
X79.4Y-93.5
X79.4Y-94.1
X80.3Y-75.8
X80.415Y-84.19
X80.415Y-84.89
X80.415Y-95.11
X80.415Y-95.81
X81.1Y-104.0
X81.115Y-84.19
X81.115Y-84.89
X81.115Y-95.11
X81.115Y-95.81
X81.69Y-86.8
X81.69Y-93.2
X81.8Y-75.8
X81.8Y-96.7
X81.815Y-84.19
X81.815Y-84.89
X81.815Y-95.11
X81.815Y-95.81
X82.0Y-104.0
X82.5Y-83.2
X82.7Y-90.4
X82.7Y-91.0
X82.7Y-102.9
X83.4Y-94.56
X83.4Y-102.1
X83.5Y-95.65
X83.65Y-97.015
X83.7Y-86.5
X83.7Y-89.2
X83.8Y-82.6
X83.8Y-84.55
X83.8Y-87.8
X84.115Y-93.415
X84.25Y-75.8
X84.4Y-104.2
X84.5Y-90.4
X84.6Y-101.0
X84.6Y-101.8
X84.665Y-92.865
X84.7Y-94.4
X84.7Y-95.0
X84.75Y-103.25
X84.9Y-76.224
X84.9Y-76.825
X84.9Y-99.4
X85.2Y-96.998
X85.2Y-97.968
X85.25Y-88.65
X85.3Y-94.4
X85.3Y-95.0
X85.4Y-99.0
X85.4Y-99.8
X85.4Y-101.0
X85.4Y-101.8
X85.5Y-76.224
X85.5Y-76.825
X85.5Y-87.25
X85.55Y-95.75
X85.6Y-103.068
X85.6Y-103.668
X85.75Y-79.45
X85.85Y-80.85
X85.9Y-94.4
X85.9Y-95.0
X86.0Y-97.5
X86.2Y-103.068
X86.2Y-103.668
X86.25Y-95.75
X86.389Y-91.339
X86.4Y-89.5
X86.45Y-93.9
X86.6Y-101.0
X86.6Y-101.8
X86.9Y-77.3
X87.0Y-103.2
X87.1Y-91.5
X87.142Y-92.2
X87.142Y-92.9
X87.142Y-93.6
X87.15Y-87.2
X87.312Y-75.888
X87.4Y-99.093
X87.4Y-99.893
X87.4Y-101.0
X87.4Y-101.8
X88.05Y-78.65
X88.343Y-81.9
X88.38Y-96.979
X88.7Y-91.888
X88.8Y-92.388
X88.8Y-95.4
X88.95Y-75.8
X89.0Y-79.1
X89.007Y-86.2
X89.007Y-88.0
X89.05Y-97.45
X89.08Y-87.1
X89.25Y-83.25
X89.3Y-85.05
X89.3Y-96.0
X89.4Y-101.0
X89.4Y-101.8
X89.404Y-98.104
X89.8Y-85.75
X89.8Y-97.707
X89.9Y-77.2
X89.9Y-88.05
X90.0Y-79.1
X90.15Y-85.0
X90.15Y-89.537
X90.15Y-90.837
X90.15Y-92.138
X90.15Y-93.438
X90.15Y-94.737
X90.35Y-98.1
X90.45Y-86.6
X90.6Y-100.99
X90.6Y-101.79
X90.725Y-96.35
X90.85Y-85.0
X90.95Y-104.05
X91.0Y-75.8
X91.0Y-77.05
X91.0Y-79.1
X91.0Y-88.1
X91.0Y-97.9
X91.15Y-85.75
X91.35Y-96.35
X91.45Y-89.537
X91.45Y-90.837
X91.45Y-92.138
X91.45Y-93.438
X91.45Y-94.737
X91.6Y-103.068
X91.6Y-103.668
X91.7Y-86.593
X92.0Y-77.0
X92.0Y-79.15
X92.0Y-96.3
X92.2Y-103.068
X92.2Y-103.668
X92.6Y-96.992
X92.6Y-100.99
X92.6Y-101.79
X92.65Y-96.3
X92.75Y-89.537
X92.75Y-90.837
X92.75Y-92.138
X92.75Y-93.438
X92.75Y-94.737
X92.85Y-75.75
X93.0Y-99.0
X93.0Y-99.8
X93.05Y-77.1
X93.1Y-79.2
X93.1Y-86.35
X93.4Y-96.2
X93.4Y-97.775
X93.9Y-103.8
X93.942Y-86.55
X94.0Y-96.2
X94.0Y-100.4
X94.05Y-89.537
X94.05Y-90.837
X94.05Y-92.138
X94.05Y-93.438
X94.05Y-94.737
X94.1Y-96.96
X94.3Y-79.6
X94.3Y-81.1
X94.4Y-87.7
X94.5Y-76.224
X94.5Y-76.825
X95.0Y-99.1
X95.1Y-76.224
X95.1Y-76.825
X95.15Y-100.98
X95.15Y-104.15
X95.16Y-101.84
X95.35Y-89.537
X95.35Y-90.837
X95.35Y-92.138
X95.35Y-93.438
X95.35Y-94.737
X95.6Y-97.775
X95.75Y-95.8
X95.85Y-87.2
X96.0Y-81.7
X96.1Y-88.25
X96.1Y-89.1
X96.3Y-95.25
X96.45Y-87.65
X96.5Y-104.15
X96.63Y-93.89
X96.74Y-93.38
X96.75Y-101.7
X96.908Y-95.062
X97.15Y-93.75
X97.2Y-103.0
X97.4Y-104.2
X97.45Y-84.25
X97.692Y-87.8
X97.9Y-75.95
X98.3Y-104.15
X98.5Y-88.567
X98.5Y-89.267
X98.5Y-89.968
X98.5Y-90.667
X98.5Y-91.6
X98.8Y-93.65
X99.3Y-91.8
X99.45Y-84.25
X100.1Y-93.1
X100.4Y-94.8
X100.55Y-93.6
X101.0Y-95.35
X101.05Y-88.6
X101.05Y-89.2
X101.05Y-89.8
X101.1Y-87.4
X101.25Y-91.35
X101.55Y-94.95
X101.65Y-88.6
X101.65Y-89.2
X101.65Y-89.8
X101.9Y-91.3
X102.02Y-87.4
X102.25Y-95.1
X102.4Y-92.75
X102.492Y-90.9
X102.5Y-83.55
X102.5Y-84.35
X102.6Y-85.8
X102.6Y-86.776
X103.0Y-96.6
X103.05Y-94.95
X103.15Y-82.7
X103.3Y-83.55
X103.3Y-84.35
X103.87Y-89.11
X103.95Y-81.6
X104.0Y-80.6
X104.0Y-82.7
X104.0Y-96.6
X104.0Y-97.6
X104.0Y-98.7
T2
X77.6Y-80.0
X77.6Y-100.0
X78.303Y-78.303
X78.303Y-81.697
X78.303Y-98.303
X78.303Y-101.697
X80.0Y-77.6
X80.0Y-82.4
X80.0Y-97.6
X80.0Y-102.4
X81.697Y-78.303
X81.697Y-81.697
X81.697Y-98.303
X81.697Y-101.697
X82.4Y-80.0
X82.4Y-100.0
X97.6Y-80.0
X97.6Y-100.0
X98.303Y-78.303
X98.303Y-81.697
X98.303Y-98.303
X98.303Y-101.697
X100.0Y-77.6
X100.0Y-82.4
X100.0Y-97.6
X100.0Y-102.4
X101.697Y-78.303
X101.697Y-81.697
X101.697Y-98.303
X101.697Y-101.697
X102.4Y-80.0
X102.4Y-100.0
T4
X80.8Y-74.5
X83.1Y-74.5
X83.1Y-105.5
X85.4Y-74.5
X85.4Y-105.5
X87.7Y-74.5
X87.7Y-105.5
X90.0Y-74.5
X90.0Y-105.5
X92.3Y-74.5
X92.3Y-105.5
X94.6Y-74.5
X94.6Y-105.5
X96.9Y-74.5
X96.9Y-105.5
X99.2Y-74.5
T5
X80.0Y-80.0
X80.0Y-100.0
X100.0Y-80.0
X100.0Y-100.0
T3
G00X77.335Y-85.68
M15
G01X76.535Y-85.68
M16
G05
G00X77.335Y-94.32
M15
G01X76.535Y-94.32
M16
G05
G00X81.665Y-85.68
M15
G01X80.565Y-85.68
M16
G05
G00X81.665Y-94.32
M15
G01X80.565Y-94.32
M16
G05
M30
