%TF.GenerationSoftware,KiCad,Pcbnew,9.0.7*%
%TF.CreationDate,2026-03-23T12:25:18+01:00*%
%TF.ProjectId,MINIREX_G4,4d494e49-5245-4585-9f47-342e6b696361,rev?*%
%TF.SameCoordinates,Original*%
%TF.FileFunction,Copper,L6,Bot*%
%TF.FilePolarity,Positive*%
%FSLAX46Y46*%
G04 Gerber Fmt 4.6, Leading zero omitted, Abs format (unit mm)*
G04 Created by KiCad (PCBNEW 9.0.7) date 2026-03-23 12:25:18*
%MOMM*%
%LPD*%
G01*
G04 APERTURE LIST*
G04 Aperture macros list*
%AMRoundRect*
0 Rectangle with rounded corners*
0 $1 Rounding radius*
0 $2 $3 $4 $5 $6 $7 $8 $9 X,Y pos of 4 corners*
0 Add a 4 corners polygon primitive as box body*
4,1,4,$2,$3,$4,$5,$6,$7,$8,$9,$2,$3,0*
0 Add four circle primitives for the rounded corners*
1,1,$1+$1,$2,$3*
1,1,$1+$1,$4,$5*
1,1,$1+$1,$6,$7*
1,1,$1+$1,$8,$9*
0 Add four rect primitives between the rounded corners*
20,1,$1+$1,$2,$3,$4,$5,0*
20,1,$1+$1,$4,$5,$6,$7,0*
20,1,$1+$1,$6,$7,$8,$9,0*
20,1,$1+$1,$8,$9,$2,$3,0*%
G04 Aperture macros list end*
%TA.AperFunction,ComponentPad*%
%ADD10R,1.500000X1.500000*%
%TD*%
%TA.AperFunction,HeatsinkPad*%
%ADD11O,2.100000X1.000000*%
%TD*%
%TA.AperFunction,HeatsinkPad*%
%ADD12O,1.800000X1.000000*%
%TD*%
%TA.AperFunction,ComponentPad*%
%ADD13C,0.800000*%
%TD*%
%TA.AperFunction,ComponentPad*%
%ADD14C,6.400000*%
%TD*%
%TA.AperFunction,SMDPad,CuDef*%
%ADD15RoundRect,0.225000X-0.525000X-0.525000X0.525000X-0.525000X0.525000X0.525000X-0.525000X0.525000X0*%
%TD*%
%TA.AperFunction,SMDPad,CuDef*%
%ADD16C,1.000000*%
%TD*%
%TA.AperFunction,SMDPad,CuDef*%
%ADD17RoundRect,0.225000X-0.525000X0.525000X-0.525000X-0.525000X0.525000X-0.525000X0.525000X0.525000X0*%
%TD*%
%TA.AperFunction,SMDPad,CuDef*%
%ADD18RoundRect,0.225000X0.525000X0.525000X-0.525000X0.525000X-0.525000X-0.525000X0.525000X-0.525000X0*%
%TD*%
%TA.AperFunction,ViaPad*%
%ADD19C,0.400000*%
%TD*%
%TA.AperFunction,Conductor*%
%ADD20C,0.500000*%
%TD*%
G04 APERTURE END LIST*
D10*
%TO.P,M3,1,1*%
%TO.N,Net-(J2-Pad4)*%
X90000000Y-74500000D03*
%TD*%
%TO.P,GND9,1,1*%
%TO.N,GND*%
X92300000Y-105500000D03*
%TD*%
%TO.P,Rx4,1,1*%
%TO.N,Rx4*%
X90000000Y-105500000D03*
%TD*%
%TO.P,5v1,1,1*%
%TO.N,+5V*%
X83100000Y-105500000D03*
%TD*%
%TO.P,ADC_CURR1,1,1*%
%TO.N,ESC_Curr*%
X94600000Y-74500000D03*
%TD*%
%TO.P,M2,1,1*%
%TO.N,Net-(J2-Pad5)*%
X87700000Y-74500000D03*
%TD*%
%TO.P,Tx3,1,1*%
%TO.N,Tx3*%
X99200000Y-74500000D03*
%TD*%
%TO.P,VBAT+1,1,1*%
%TO.N,VBAT+*%
X83100000Y-74500000D03*
%TD*%
%TO.P,tx4,1,1*%
%TO.N,Tx4*%
X87700000Y-105500000D03*
%TD*%
%TO.P,M4,1,1*%
%TO.N,Net-(J2-Pad3)*%
X92300000Y-74500000D03*
%TD*%
D11*
%TO.P,J1,S1,SHIELD*%
%TO.N,GND*%
X81115000Y-85680000D03*
D12*
X76935000Y-85680000D03*
D11*
X81115000Y-94320000D03*
D12*
X76935000Y-94320000D03*
%TD*%
D10*
%TO.P,rx1,1,1*%
%TO.N,Rx1*%
X94600000Y-105500000D03*
%TD*%
%TO.P,M1,1,1*%
%TO.N,Net-(J2-Pad6)*%
X85400000Y-74500000D03*
%TD*%
%TO.P,gnd3,1,1*%
%TO.N,GND*%
X85400000Y-105500000D03*
%TD*%
%TO.P,gnd1,1,1*%
%TO.N,GND*%
X80800000Y-74500000D03*
%TD*%
D13*
%TO.P,Mounting_hole4,1,1*%
%TO.N,GND*%
X77600000Y-100000000D03*
X78302944Y-98302944D03*
X78302944Y-101697056D03*
X80000000Y-97600000D03*
D14*
X80000000Y-100000000D03*
D13*
X80000000Y-102400000D03*
X81697056Y-98302944D03*
X81697056Y-101697056D03*
X82400000Y-100000000D03*
%TD*%
D10*
%TO.P,tx1,1,1*%
%TO.N,Tx1*%
X96900000Y-105500000D03*
%TD*%
D13*
%TO.P,Mounting_hole2,1,1*%
%TO.N,GND*%
X77600000Y-80000000D03*
X78302944Y-78302944D03*
X78302944Y-81697056D03*
X80000000Y-77600000D03*
D14*
X80000000Y-80000000D03*
D13*
X80000000Y-82400000D03*
X81697056Y-78302944D03*
X81697056Y-81697056D03*
X82400000Y-80000000D03*
%TD*%
%TO.P,Mounting_hole1,1,1*%
%TO.N,GND*%
X97600000Y-100000000D03*
X98302944Y-98302944D03*
X98302944Y-101697056D03*
X100000000Y-97600000D03*
D14*
X100000000Y-100000000D03*
D13*
X100000000Y-102400000D03*
X101697056Y-98302944D03*
X101697056Y-101697056D03*
X102400000Y-100000000D03*
%TD*%
D10*
%TO.P,Rx3,1,1*%
%TO.N,Rx3*%
X96900000Y-74500000D03*
%TD*%
D13*
%TO.P,Mounting_hole3,1,1*%
%TO.N,GND*%
X97600000Y-80000000D03*
X98302944Y-78302944D03*
X98302944Y-81697056D03*
X100000000Y-77600000D03*
D14*
X100000000Y-80000000D03*
D13*
X100000000Y-82400000D03*
X101697056Y-78302944D03*
X101697056Y-81697056D03*
X102400000Y-80000000D03*
%TD*%
D15*
%TO.P,+4.5V2,1,1*%
%TO.N,4.5V*%
X85000000Y-101400000D03*
%TD*%
D16*
%TO.P,SWCLK1,1,1*%
%TO.N,SWCLK*%
X88000000Y-94300000D03*
%TD*%
D17*
%TO.P,LED1,1,1*%
%TO.N,Net-(LED1-Pad1)*%
X89000000Y-99400000D03*
%TD*%
D15*
%TO.P,GND2,1,1*%
%TO.N,GND*%
X87000000Y-101400000D03*
%TD*%
D18*
%TO.P,RX2,1,1*%
%TO.N,Rx2*%
X95000000Y-101410000D03*
%TD*%
%TO.P,USBDM1,1,1*%
%TO.N,Net-(D1-K_1)*%
X79100000Y-88800000D03*
%TD*%
%TO.P,TX2,1,1*%
%TO.N,Tx2*%
X93000000Y-101390000D03*
%TD*%
D17*
%TO.P,+5V2,1,1*%
%TO.N,+5V*%
X85000000Y-99400000D03*
%TD*%
%TO.P,BUZ-1,1,1*%
%TO.N,BUZ-*%
X91000000Y-99400000D03*
%TD*%
D18*
%TO.P,USB5V1,1,1*%
%TO.N,VUSB*%
X79100000Y-86300000D03*
%TD*%
D17*
%TO.P,+5V1,1,1*%
%TO.N,+5V*%
X93000000Y-99400000D03*
%TD*%
D18*
%TO.P,USBGND1,1,1*%
%TO.N,GND*%
X79100000Y-93800000D03*
%TD*%
D17*
%TO.P,GND4,1,1*%
%TO.N,GND*%
X87000000Y-99400000D03*
%TD*%
D18*
%TO.P,PIO1,1,1*%
%TO.N,PIO*%
X95000000Y-99400000D03*
%TD*%
%TO.P,SDA1,1,1*%
%TO.N,I2C2_SDA*%
X91000000Y-101390000D03*
%TD*%
%TO.P,SCL1,1,1*%
%TO.N,I2C2_SCL*%
X89000000Y-101400000D03*
%TD*%
D16*
%TO.P,SWDIO1,1,1*%
%TO.N,SWDIO*%
X88000000Y-95700000D03*
%TD*%
D18*
%TO.P,USBDP1,1,1*%
%TO.N,Net-(D1-K_2)*%
X79100000Y-91300000D03*
%TD*%
D19*
%TO.N,GND*%
X89800000Y-85750000D03*
X92600000Y-96992500D03*
X80415000Y-84190000D03*
X101000000Y-95350000D03*
X90450000Y-86600000D03*
X94050000Y-93437500D03*
X93050000Y-77100000D03*
X84900000Y-76224500D03*
X80300000Y-75800000D03*
X91600000Y-103068000D03*
X83500000Y-95650000D03*
X102492500Y-90900000D03*
X103950000Y-81600000D03*
X86600000Y-101800000D03*
X92200000Y-103668000D03*
X91000000Y-75800000D03*
X76485000Y-84190000D03*
X83400000Y-94560000D03*
X82700000Y-102900000D03*
X76000000Y-91000000D03*
X87400000Y-101800000D03*
X79400000Y-94100000D03*
X85500000Y-87250000D03*
X95600000Y-97775000D03*
X85500000Y-76224500D03*
X94050000Y-90837500D03*
X104000000Y-82700000D03*
X91150000Y-85750000D03*
X81815000Y-84890000D03*
X76000000Y-89800000D03*
X84750000Y-103250000D03*
X101050000Y-89200000D03*
X100400000Y-94800000D03*
X77185000Y-95810000D03*
X86200000Y-103668000D03*
X81690000Y-93200000D03*
X85250000Y-88650000D03*
X76000000Y-88800000D03*
X88342500Y-81900000D03*
X88050000Y-78650000D03*
X76050000Y-96600000D03*
X93100000Y-79200000D03*
X90150000Y-93437500D03*
X89000000Y-79100000D03*
X81800000Y-96700000D03*
X84500000Y-90400000D03*
X84250000Y-75800000D03*
X98800000Y-93650000D03*
X91450000Y-94737500D03*
X87311984Y-75888016D03*
X87000000Y-103200000D03*
X96500000Y-104150000D03*
X81115000Y-95810000D03*
X96750000Y-101700000D03*
X84700000Y-94400000D03*
X91450000Y-89537500D03*
X80415000Y-95110000D03*
X89250000Y-83250000D03*
X77885000Y-84890000D03*
X92000000Y-79150000D03*
X87400000Y-99893000D03*
X77885000Y-95810000D03*
X89900000Y-77200000D03*
X103150000Y-82700000D03*
X93900000Y-103800000D03*
X104000000Y-98700000D03*
X92200000Y-103068000D03*
X76050000Y-98300000D03*
X85300000Y-94400000D03*
X85900000Y-94400000D03*
X88950000Y-75800000D03*
X90950000Y-104050000D03*
X91450000Y-92137500D03*
X84700000Y-95000000D03*
X89300000Y-85050000D03*
X97200000Y-103000000D03*
X97150000Y-93750000D03*
X92850000Y-75750000D03*
X104000000Y-97600000D03*
X81800000Y-75800000D03*
X92750000Y-89537500D03*
X76050000Y-97350000D03*
X84400000Y-104200000D03*
X95150000Y-104150000D03*
X85200000Y-97967500D03*
X85600000Y-103668000D03*
X94300000Y-79600000D03*
X77185000Y-84190000D03*
X83800000Y-84550000D03*
X104000000Y-96600000D03*
X79200000Y-85000000D03*
X94050000Y-94737500D03*
X94050000Y-92137500D03*
X81815000Y-95810000D03*
X78800000Y-94100000D03*
X94500000Y-76224500D03*
X81815000Y-95110000D03*
X79400000Y-93500000D03*
X76485000Y-84890000D03*
X85850000Y-80850000D03*
X98298544Y-104060000D03*
X81115000Y-84890000D03*
X77885000Y-95110000D03*
X101250000Y-91350000D03*
X99450000Y-84250000D03*
X90850000Y-85000000D03*
X94050000Y-89537500D03*
X89050000Y-97450000D03*
X101050000Y-89800000D03*
X101050000Y-88600000D03*
X76900000Y-96600000D03*
X80415000Y-84890000D03*
X104000000Y-80600000D03*
X77185000Y-95110000D03*
X103870000Y-89110000D03*
X81100000Y-104000000D03*
X83800000Y-82600000D03*
X81115000Y-84190000D03*
X85750000Y-79450000D03*
X101650000Y-89200000D03*
X91000000Y-77050000D03*
X91450000Y-93437500D03*
X77885000Y-84190000D03*
X94400000Y-87700000D03*
X80415000Y-95810000D03*
X101650000Y-88600000D03*
X90350000Y-98100000D03*
X90150000Y-85000000D03*
X94500000Y-76824500D03*
X103000000Y-96600000D03*
X86600000Y-101000000D03*
X76485000Y-95810000D03*
X93400000Y-97775000D03*
X90150000Y-89537500D03*
X102250000Y-95100000D03*
X86450000Y-93900000D03*
X98500000Y-91600000D03*
X81115000Y-95110000D03*
X91600000Y-103668000D03*
X87400000Y-101000000D03*
X83700000Y-86500000D03*
X84900000Y-76824500D03*
X86200000Y-103068000D03*
X92750000Y-94737500D03*
X85500000Y-76824500D03*
X91000000Y-79100000D03*
X97450000Y-84250000D03*
X96000000Y-81700000D03*
X92000000Y-77000000D03*
X95350000Y-93437500D03*
X86388909Y-91338909D03*
X87150000Y-87200000D03*
X90150000Y-92137500D03*
X85600000Y-103068000D03*
X77185000Y-84890000D03*
X95350000Y-90837500D03*
X92750000Y-92137500D03*
X85300000Y-95000000D03*
X81815000Y-84190000D03*
X90000000Y-79100000D03*
X82500000Y-83200000D03*
X83400000Y-102100000D03*
X97400000Y-104200000D03*
X97900000Y-75950000D03*
X90150000Y-94737500D03*
X87400000Y-99093000D03*
X102400000Y-92750000D03*
X101650000Y-89800000D03*
X95350000Y-89537500D03*
X86900000Y-77300000D03*
X102020000Y-87400000D03*
X91700000Y-86592500D03*
X82000000Y-104000000D03*
X92750000Y-93437500D03*
X81690000Y-86800000D03*
X76485000Y-95110000D03*
X91450000Y-90837500D03*
X95100000Y-76224500D03*
X95350000Y-92137500D03*
X90150000Y-90837500D03*
X95100000Y-76824500D03*
X78800000Y-93500000D03*
X85900000Y-95000000D03*
X76850000Y-83150000D03*
X95350000Y-94737500D03*
X86000000Y-97500000D03*
X92750000Y-90837500D03*
X101100000Y-87400000D03*
X94300000Y-81100000D03*
%TO.N,4.5V*%
X102600000Y-85800000D03*
X84665000Y-92865000D03*
X84600000Y-101800000D03*
X84115000Y-93415000D03*
X85400000Y-101800000D03*
X102600000Y-86776032D03*
X85400000Y-101000000D03*
X84600000Y-101000000D03*
%TO.N,3.3VMCU*%
X89007500Y-88000000D03*
X83700000Y-89200000D03*
X85550000Y-95750000D03*
X89080000Y-87100000D03*
X96300000Y-95250000D03*
X86250000Y-95750000D03*
X95750000Y-95800000D03*
%TO.N,/BOOT0*%
X94100000Y-96960000D03*
X94000000Y-100400000D03*
%TO.N,Net-(J2-Pad3)*%
X98500000Y-88567500D03*
%TO.N,ADC_VBAT*%
X93942500Y-86550000D03*
X89007500Y-86200000D03*
%TO.N,Net-(J2-Pad4)*%
X98500000Y-89267500D03*
%TO.N,+5V*%
X93000000Y-99000000D03*
X102500000Y-84350000D03*
X103300000Y-84350000D03*
X85400000Y-99800000D03*
X85400000Y-99000000D03*
X103300000Y-83550000D03*
X102500000Y-83550000D03*
X84900000Y-99400000D03*
X93000000Y-99800000D03*
%TO.N,Tx2*%
X92000000Y-96300000D03*
X92600000Y-101790000D03*
X92600000Y-100990000D03*
%TO.N,Rx2*%
X95160000Y-101840000D03*
X95150000Y-100980000D03*
X92650000Y-96300000D03*
%TO.N,Tx1*%
X93400000Y-96200000D03*
%TO.N,SWDIO*%
X88800000Y-95400000D03*
%TO.N,Tx3*%
X91000000Y-88100000D03*
%TO.N,SWCLK*%
X89300000Y-96000000D03*
%TO.N,VUSB*%
X78800000Y-86000000D03*
X78800000Y-86600000D03*
X79400000Y-86000000D03*
X79400000Y-86600000D03*
%TO.N,Rx3*%
X89900000Y-88050000D03*
%TO.N,I2C2_SDA*%
X90600000Y-101790000D03*
X88700000Y-91887500D03*
X90600000Y-100990000D03*
%TO.N,FLASH_SPI_CLK{slash}SPI2*%
X83800000Y-87800000D03*
X86400000Y-89500000D03*
%TO.N,I2C2_SCL*%
X89400000Y-101800000D03*
X88800000Y-92387500D03*
X89400000Y-101000000D03*
%TO.N,Net-(LED1-Pad1)*%
X89800000Y-97707500D03*
X89403750Y-98103750D03*
%TO.N,PIO*%
X96100000Y-89100000D03*
X95000000Y-99100000D03*
%TO.N,BUZ-*%
X91000000Y-97900000D03*
%TO.N,IMU_CLK_EXTI*%
X96908393Y-95061676D03*
X101900000Y-91300000D03*
%TO.N,ESC_Curr*%
X93100000Y-86350000D03*
%TO.N,GYRO_CS{slash}SPI1*%
X96740000Y-93380000D03*
X99300000Y-91800000D03*
%TO.N,GYROEXTI*%
X96630000Y-93890000D03*
X103050000Y-94950000D03*
%TO.N,Net-(J2-Pad5)*%
X98500000Y-89967500D03*
%TO.N,Rx1*%
X94000000Y-96200000D03*
%TO.N,GYRO_MISO{slash}SPI1*%
X101550000Y-94950000D03*
X96100000Y-88250000D03*
%TO.N,GYRO_MOSI{slash}SPI1*%
X95850000Y-87200000D03*
X100550000Y-93600000D03*
%TO.N,Rx4*%
X91350000Y-96350000D03*
%TO.N,GYRO_SPI_CLK{slash}SPI1*%
X100100000Y-93100000D03*
X96450000Y-87650000D03*
%TO.N,Tx4*%
X90725000Y-96350000D03*
%TO.N,Net-(J2-Pad6)*%
X98500000Y-90667500D03*
%TO.N,Net-(LEDBLUE1-A)*%
X83650000Y-97015000D03*
X87142500Y-92200000D03*
%TO.N,Net-(LEDGREEN1-A)*%
X87100000Y-91500000D03*
X85200000Y-96997500D03*
%TO.N,Net-(LEDRED4-A)*%
X88380158Y-96978825D03*
X97692500Y-87800000D03*
%TO.N,Net-(D1-K_2)*%
X87142500Y-93600000D03*
X82700000Y-91000000D03*
X79100000Y-91300000D03*
%TO.N,Net-(D1-K_1)*%
X87142500Y-92900000D03*
X82700000Y-90400000D03*
X79100000Y-88800000D03*
%TD*%
D20*
%TO.N,SWDIO*%
X88500000Y-95700000D02*
X88800000Y-95400000D01*
X88000000Y-95700000D02*
X88500000Y-95700000D01*
%TO.N,SWCLK*%
X88700000Y-94300000D02*
X89450000Y-95050000D01*
X89450000Y-95050000D02*
X89450000Y-95850000D01*
X89450000Y-95850000D02*
X89300000Y-96000000D01*
X88000000Y-94300000D02*
X88700000Y-94300000D01*
%TD*%
%TA.AperFunction,Conductor*%
%TO.N,GND*%
G36*
X81559191Y-73769407D02*
G01*
X81595155Y-73818907D01*
X81600000Y-73849500D01*
X81600000Y-75400000D01*
X81600001Y-75400000D01*
X82325242Y-75400000D01*
X82334951Y-75400477D01*
X82335176Y-75400499D01*
X82335180Y-75400500D01*
X82335184Y-75400500D01*
X83864816Y-75400500D01*
X83864820Y-75400500D01*
X83864823Y-75400499D01*
X83865060Y-75400476D01*
X83874761Y-75400000D01*
X84625239Y-75400000D01*
X84634940Y-75400476D01*
X84635176Y-75400499D01*
X84635180Y-75400500D01*
X84635184Y-75400500D01*
X86164816Y-75400500D01*
X86164820Y-75400500D01*
X86164823Y-75400499D01*
X86165060Y-75400476D01*
X86174761Y-75400000D01*
X86925239Y-75400000D01*
X86934940Y-75400476D01*
X86935176Y-75400499D01*
X86935180Y-75400500D01*
X86935184Y-75400500D01*
X88464816Y-75400500D01*
X88464820Y-75400500D01*
X88464823Y-75400499D01*
X88465060Y-75400476D01*
X88474761Y-75400000D01*
X89225239Y-75400000D01*
X89234940Y-75400476D01*
X89235176Y-75400499D01*
X89235180Y-75400500D01*
X89235184Y-75400500D01*
X90764816Y-75400500D01*
X90764820Y-75400500D01*
X90764823Y-75400499D01*
X90765060Y-75400476D01*
X90774761Y-75400000D01*
X91525239Y-75400000D01*
X91534940Y-75400476D01*
X91535176Y-75400499D01*
X91535180Y-75400500D01*
X91535184Y-75400500D01*
X93064816Y-75400500D01*
X93064820Y-75400500D01*
X93064823Y-75400499D01*
X93065060Y-75400476D01*
X93074761Y-75400000D01*
X93825239Y-75400000D01*
X93834940Y-75400476D01*
X93835176Y-75400499D01*
X93835180Y-75400500D01*
X93835184Y-75400500D01*
X95364816Y-75400500D01*
X95364820Y-75400500D01*
X95364823Y-75400499D01*
X95365060Y-75400476D01*
X95374761Y-75400000D01*
X96125239Y-75400000D01*
X96134940Y-75400476D01*
X96135176Y-75400499D01*
X96135180Y-75400500D01*
X96135184Y-75400500D01*
X97664816Y-75400500D01*
X97664820Y-75400500D01*
X97664823Y-75400499D01*
X97665060Y-75400476D01*
X97674761Y-75400000D01*
X98425239Y-75400000D01*
X98434940Y-75400476D01*
X98435176Y-75400499D01*
X98435180Y-75400500D01*
X99850500Y-75400500D01*
X99908691Y-75419407D01*
X99944655Y-75468907D01*
X99949500Y-75499500D01*
X99949500Y-75549828D01*
X99987634Y-75641894D01*
X99987635Y-75641895D01*
X99987636Y-75641897D01*
X100058103Y-75712364D01*
X100058104Y-75712364D01*
X100058105Y-75712365D01*
X100150171Y-75750500D01*
X100150172Y-75750500D01*
X100249828Y-75750500D01*
X100455830Y-75750500D01*
X100497564Y-75750500D01*
X100502422Y-75750619D01*
X100862679Y-75768317D01*
X100872319Y-75769267D01*
X101226687Y-75821833D01*
X101236193Y-75823723D01*
X101583715Y-75910773D01*
X101592986Y-75913585D01*
X101930296Y-76034276D01*
X101939265Y-76037991D01*
X102263112Y-76191159D01*
X102271675Y-76195737D01*
X102578935Y-76379902D01*
X102587013Y-76385299D01*
X102874755Y-76598703D01*
X102882265Y-76604867D01*
X103043234Y-76750760D01*
X103147698Y-76845441D01*
X103154563Y-76852306D01*
X103395132Y-77117734D01*
X103401296Y-77125244D01*
X103614700Y-77412986D01*
X103620097Y-77421064D01*
X103804262Y-77728324D01*
X103808842Y-77736892D01*
X103962006Y-78060731D01*
X103965724Y-78069707D01*
X104086410Y-78407000D01*
X104089230Y-78416297D01*
X104176273Y-78763795D01*
X104178168Y-78773324D01*
X104230730Y-79127666D01*
X104231683Y-79137334D01*
X104249381Y-79497577D01*
X104249500Y-79502435D01*
X104249500Y-100557736D01*
X104249383Y-100562548D01*
X104232022Y-100919315D01*
X104231088Y-100928891D01*
X104179526Y-101279903D01*
X104177667Y-101289343D01*
X104092274Y-101633698D01*
X104089507Y-101642913D01*
X103971090Y-101977353D01*
X103967441Y-101986256D01*
X103817125Y-102307607D01*
X103812630Y-102316114D01*
X103631820Y-102621372D01*
X103626520Y-102629402D01*
X103416940Y-102915655D01*
X103410886Y-102923133D01*
X103174501Y-103187699D01*
X103167749Y-103194554D01*
X102906804Y-103434918D01*
X102899419Y-103441085D01*
X102616370Y-103654986D01*
X102608421Y-103660407D01*
X102305946Y-103845820D01*
X102297509Y-103850444D01*
X101978465Y-104005621D01*
X101969617Y-104009404D01*
X101637016Y-104132876D01*
X101627845Y-104135782D01*
X101284824Y-104226387D01*
X101275413Y-104228389D01*
X100925235Y-104285265D01*
X100915674Y-104286345D01*
X100560249Y-104309047D01*
X100555438Y-104309237D01*
X97899192Y-104349483D01*
X97898127Y-104349500D01*
X97850172Y-104349500D01*
X97848351Y-104350254D01*
X97846546Y-104350281D01*
X97846382Y-104350284D01*
X97803025Y-104369016D01*
X97803024Y-104369015D01*
X97802282Y-104369335D01*
X97758103Y-104387636D01*
X97756710Y-104389028D01*
X97754902Y-104389810D01*
X97754901Y-104389810D01*
X97754898Y-104389812D01*
X97722089Y-104423631D01*
X97721040Y-104424696D01*
X97687633Y-104458105D01*
X97686183Y-104460275D01*
X97686147Y-104460330D01*
X97685565Y-104461200D01*
X97668131Y-104505160D01*
X97667570Y-104506543D01*
X97657409Y-104531074D01*
X97656008Y-104534461D01*
X97654384Y-104538381D01*
X97614649Y-104584909D01*
X97562918Y-104599500D01*
X96135180Y-104599500D01*
X96135176Y-104599500D01*
X96134940Y-104599524D01*
X96125239Y-104600000D01*
X95374761Y-104600000D01*
X95365060Y-104599524D01*
X95364823Y-104599500D01*
X95364820Y-104599500D01*
X93835180Y-104599500D01*
X93835172Y-104599500D01*
X93791279Y-104608232D01*
X93791276Y-104608233D01*
X93749104Y-104636412D01*
X93690215Y-104653020D01*
X93632812Y-104631842D01*
X93624099Y-104624100D01*
X93600000Y-104600001D01*
X93600000Y-104600000D01*
X93100000Y-104600000D01*
X93100000Y-104600001D01*
X93100000Y-106150500D01*
X93081093Y-106208691D01*
X93031593Y-106244655D01*
X93001000Y-106249500D01*
X91599000Y-106249500D01*
X91540809Y-106230593D01*
X91504845Y-106181093D01*
X91500000Y-106150500D01*
X91500000Y-104600001D01*
X91500000Y-104600000D01*
X90800000Y-104600000D01*
X90774763Y-104600000D01*
X90765064Y-104599524D01*
X90764820Y-104599500D01*
X89235180Y-104599500D01*
X89235176Y-104599500D01*
X89234940Y-104599524D01*
X89225239Y-104600000D01*
X88474761Y-104600000D01*
X88465060Y-104599524D01*
X88464823Y-104599500D01*
X88464820Y-104599500D01*
X86935180Y-104599500D01*
X86935176Y-104599500D01*
X86934940Y-104599524D01*
X86925239Y-104600000D01*
X86200000Y-104600000D01*
X86200000Y-104600001D01*
X86200000Y-106150500D01*
X86181093Y-106208691D01*
X86131593Y-106244655D01*
X86101000Y-106249500D01*
X84699000Y-106249500D01*
X84640809Y-106230593D01*
X84604845Y-106181093D01*
X84600000Y-106150500D01*
X84600000Y-104600001D01*
X84600000Y-104600000D01*
X83900000Y-104600000D01*
X83874763Y-104600000D01*
X83865064Y-104599524D01*
X83864820Y-104599500D01*
X82449500Y-104599500D01*
X82391309Y-104580593D01*
X82355345Y-104531093D01*
X82350500Y-104500500D01*
X82350500Y-104450171D01*
X82312365Y-104358105D01*
X82312364Y-104358104D01*
X82312364Y-104358103D01*
X82241897Y-104287636D01*
X82241895Y-104287635D01*
X82241894Y-104287634D01*
X82149829Y-104249500D01*
X82149828Y-104249500D01*
X79502436Y-104249500D01*
X79497578Y-104249381D01*
X79137334Y-104231683D01*
X79127666Y-104230730D01*
X78773324Y-104178168D01*
X78763795Y-104176273D01*
X78416297Y-104089230D01*
X78407000Y-104086410D01*
X78069707Y-103965724D01*
X78060731Y-103962006D01*
X77736892Y-103808842D01*
X77728324Y-103804262D01*
X77421064Y-103620097D01*
X77412986Y-103614700D01*
X77125244Y-103401296D01*
X77117734Y-103395132D01*
X76922650Y-103218319D01*
X76852301Y-103154558D01*
X76845441Y-103147698D01*
X76750760Y-103043234D01*
X76604867Y-102882265D01*
X76598703Y-102874755D01*
X76385299Y-102587013D01*
X76379902Y-102578935D01*
X76222373Y-102316114D01*
X76195735Y-102271671D01*
X76191157Y-102263107D01*
X76135869Y-102146211D01*
X76037991Y-101939265D01*
X76034275Y-101930292D01*
X75913585Y-101592986D01*
X75910773Y-101583715D01*
X75823723Y-101236193D01*
X75821833Y-101226687D01*
X75769267Y-100872319D01*
X75768317Y-100862679D01*
X75750619Y-100502422D01*
X75750500Y-100497564D01*
X75750500Y-98839367D01*
X84099500Y-98839367D01*
X84099500Y-99960636D01*
X84099741Y-99963962D01*
X84100000Y-99971118D01*
X84100000Y-100828884D01*
X84099741Y-100836041D01*
X84099500Y-100839363D01*
X84099500Y-100839364D01*
X84099500Y-101960636D01*
X84103233Y-101986256D01*
X84110134Y-102033626D01*
X84115023Y-102043626D01*
X84165174Y-102146211D01*
X84253789Y-102234826D01*
X84366375Y-102289866D01*
X84439364Y-102300500D01*
X84439367Y-102300500D01*
X85560632Y-102300500D01*
X85560636Y-102300500D01*
X85633625Y-102289866D01*
X85746211Y-102234826D01*
X85834826Y-102146211D01*
X85889866Y-102033625D01*
X85900500Y-101960636D01*
X85900500Y-100839364D01*
X85900499Y-100839363D01*
X85900259Y-100836041D01*
X85900000Y-100828884D01*
X85900000Y-99971118D01*
X85900259Y-99963962D01*
X85900500Y-99960636D01*
X85900500Y-98839367D01*
X88099500Y-98839367D01*
X88099500Y-99960636D01*
X88099741Y-99963962D01*
X88100000Y-99971118D01*
X88100000Y-100828884D01*
X88099741Y-100836041D01*
X88099500Y-100839363D01*
X88099500Y-100839364D01*
X88099500Y-101960636D01*
X88103233Y-101986256D01*
X88110134Y-102033626D01*
X88115023Y-102043626D01*
X88165174Y-102146211D01*
X88253789Y-102234826D01*
X88366375Y-102289866D01*
X88439364Y-102300500D01*
X88439367Y-102300500D01*
X89560634Y-102300500D01*
X89560636Y-102300500D01*
X89560637Y-102300499D01*
X89563959Y-102300259D01*
X89571116Y-102300000D01*
X94360119Y-102300000D01*
X94374391Y-102301034D01*
X94382240Y-102302177D01*
X94439364Y-102310500D01*
X94439367Y-102310500D01*
X95560632Y-102310500D01*
X95560636Y-102310500D01*
X95633625Y-102299866D01*
X95746211Y-102244826D01*
X95834826Y-102156211D01*
X95889866Y-102043625D01*
X95900500Y-101970636D01*
X95900500Y-100849364D01*
X95900499Y-100849363D01*
X95900259Y-100846041D01*
X95900000Y-100838884D01*
X95900000Y-99971118D01*
X95900259Y-99963962D01*
X95900500Y-99960636D01*
X95900500Y-98839367D01*
X95900500Y-98839364D01*
X95889866Y-98766375D01*
X95834826Y-98653789D01*
X95746211Y-98565174D01*
X95633625Y-98510134D01*
X95633626Y-98510134D01*
X95615377Y-98507475D01*
X95560636Y-98499500D01*
X94439364Y-98499500D01*
X94439362Y-98499500D01*
X94436041Y-98499741D01*
X94428884Y-98500000D01*
X93571116Y-98500000D01*
X93563959Y-98499741D01*
X93560637Y-98499500D01*
X93560636Y-98499500D01*
X93560634Y-98499500D01*
X92551015Y-98499500D01*
X92492824Y-98480593D01*
X92470072Y-98457502D01*
X91499999Y-97079998D01*
X91446183Y-97091493D01*
X91385326Y-97085157D01*
X91373977Y-97079210D01*
X91326854Y-97050485D01*
X91303549Y-97043642D01*
X91259811Y-97030799D01*
X91259807Y-97030798D01*
X91259806Y-97030798D01*
X91216004Y-97024500D01*
X91216000Y-97024500D01*
X90774000Y-97024500D01*
X90744992Y-97027618D01*
X90740935Y-97028055D01*
X90689436Y-97039259D01*
X90689435Y-97039259D01*
X90620659Y-97073686D01*
X90615510Y-97077127D01*
X90614512Y-97075634D01*
X90576903Y-97093806D01*
X89788224Y-97242780D01*
X89769849Y-97244500D01*
X89654178Y-97244500D01*
X89644899Y-97245086D01*
X89634579Y-97245739D01*
X89603598Y-97249673D01*
X89543473Y-97270420D01*
X89483476Y-97306240D01*
X89449087Y-97334109D01*
X89449085Y-97334111D01*
X88367604Y-98502108D01*
X88338443Y-98523787D01*
X88253794Y-98565170D01*
X88253792Y-98565172D01*
X88253790Y-98565173D01*
X88253789Y-98565174D01*
X88165174Y-98653789D01*
X88165173Y-98653790D01*
X88110134Y-98766373D01*
X88099500Y-98839367D01*
X85900500Y-98839367D01*
X85900500Y-98839364D01*
X85889866Y-98766375D01*
X85834826Y-98653789D01*
X85746211Y-98565174D01*
X85633625Y-98510134D01*
X85633626Y-98510134D01*
X85615377Y-98507475D01*
X85560636Y-98499500D01*
X84439364Y-98499500D01*
X84395570Y-98505880D01*
X84366373Y-98510134D01*
X84253790Y-98565173D01*
X84165173Y-98653790D01*
X84110134Y-98766373D01*
X84099500Y-98839367D01*
X75750500Y-98839367D01*
X75750500Y-96968856D01*
X83299500Y-96968856D01*
X83299500Y-97061144D01*
X83323386Y-97150288D01*
X83323387Y-97150290D01*
X83323599Y-97150658D01*
X83369531Y-97230212D01*
X83434788Y-97295469D01*
X83514712Y-97341614D01*
X83603856Y-97365500D01*
X83603858Y-97365500D01*
X83696142Y-97365500D01*
X83696144Y-97365500D01*
X83785288Y-97341614D01*
X83865212Y-97295469D01*
X83930469Y-97230212D01*
X83976614Y-97150288D01*
X84000500Y-97061144D01*
X84000500Y-96968856D01*
X83995811Y-96951356D01*
X84849500Y-96951356D01*
X84849500Y-97043644D01*
X84873386Y-97132788D01*
X84919531Y-97212712D01*
X84984788Y-97277969D01*
X85064712Y-97324114D01*
X85153856Y-97348000D01*
X85153858Y-97348000D01*
X85246142Y-97348000D01*
X85246144Y-97348000D01*
X85335288Y-97324114D01*
X85415212Y-97277969D01*
X85480469Y-97212712D01*
X85526614Y-97132788D01*
X85550500Y-97043644D01*
X85550500Y-96951356D01*
X85545496Y-96932681D01*
X88029658Y-96932681D01*
X88029658Y-97024969D01*
X88053544Y-97114113D01*
X88053545Y-97114115D01*
X88074643Y-97150658D01*
X88099689Y-97194037D01*
X88164946Y-97259294D01*
X88244870Y-97305439D01*
X88334014Y-97329325D01*
X88334016Y-97329325D01*
X88426300Y-97329325D01*
X88426302Y-97329325D01*
X88515446Y-97305439D01*
X88595370Y-97259294D01*
X88660627Y-97194037D01*
X88706772Y-97114113D01*
X88730658Y-97024969D01*
X88730658Y-96932681D01*
X88706772Y-96843537D01*
X88660627Y-96763613D01*
X88595370Y-96698356D01*
X88581744Y-96690489D01*
X88515448Y-96652212D01*
X88515447Y-96652211D01*
X88515446Y-96652211D01*
X88426302Y-96628325D01*
X88334014Y-96628325D01*
X88244870Y-96652211D01*
X88244869Y-96652211D01*
X88244867Y-96652212D01*
X88164948Y-96698354D01*
X88099687Y-96763615D01*
X88053545Y-96843534D01*
X88053544Y-96843536D01*
X88053544Y-96843537D01*
X88029658Y-96932681D01*
X85545496Y-96932681D01*
X85526614Y-96862212D01*
X85480469Y-96782288D01*
X85415212Y-96717031D01*
X85365598Y-96688386D01*
X85335290Y-96670887D01*
X85335289Y-96670886D01*
X85335288Y-96670886D01*
X85246144Y-96647000D01*
X85153856Y-96647000D01*
X85064712Y-96670886D01*
X85064711Y-96670886D01*
X85064709Y-96670887D01*
X84984790Y-96717029D01*
X84919529Y-96782290D01*
X84873387Y-96862209D01*
X84873386Y-96862211D01*
X84873386Y-96862212D01*
X84849500Y-96951356D01*
X83995811Y-96951356D01*
X83976614Y-96879712D01*
X83930469Y-96799788D01*
X83865212Y-96734531D01*
X83834898Y-96717029D01*
X83785290Y-96688387D01*
X83785289Y-96688386D01*
X83785288Y-96688386D01*
X83696144Y-96664500D01*
X83603856Y-96664500D01*
X83514712Y-96688386D01*
X83514711Y-96688386D01*
X83514709Y-96688387D01*
X83434790Y-96734529D01*
X83369529Y-96799790D01*
X83323387Y-96879709D01*
X83323386Y-96879711D01*
X83323386Y-96879712D01*
X83299500Y-96968856D01*
X75750500Y-96968856D01*
X75750500Y-95703856D01*
X85199500Y-95703856D01*
X85199500Y-95796144D01*
X85220498Y-95874508D01*
X85223387Y-95885290D01*
X85243156Y-95919531D01*
X85269531Y-95965212D01*
X85334788Y-96030469D01*
X85414712Y-96076614D01*
X85503856Y-96100500D01*
X85503858Y-96100500D01*
X85596142Y-96100500D01*
X85596144Y-96100500D01*
X85685288Y-96076614D01*
X85765212Y-96030469D01*
X85829998Y-95965682D01*
X85884513Y-95937907D01*
X85944945Y-95947478D01*
X85970000Y-95965681D01*
X86034788Y-96030469D01*
X86114712Y-96076614D01*
X86203856Y-96100500D01*
X86203858Y-96100500D01*
X86296142Y-96100500D01*
X86296144Y-96100500D01*
X86385288Y-96076614D01*
X86465212Y-96030469D01*
X86530469Y-95965212D01*
X86576614Y-95885288D01*
X86600500Y-95796144D01*
X86600500Y-95703856D01*
X86576614Y-95614712D01*
X86530469Y-95534788D01*
X86465212Y-95469531D01*
X86457731Y-95465212D01*
X86385290Y-95423387D01*
X86385289Y-95423386D01*
X86385288Y-95423386D01*
X86296144Y-95399500D01*
X86203856Y-95399500D01*
X86114712Y-95423386D01*
X86114711Y-95423386D01*
X86114709Y-95423387D01*
X86034790Y-95469529D01*
X86034788Y-95469530D01*
X86034788Y-95469531D01*
X85970001Y-95534317D01*
X85915487Y-95562093D01*
X85855055Y-95552522D01*
X85829999Y-95534318D01*
X85765212Y-95469531D01*
X85757731Y-95465212D01*
X85685290Y-95423387D01*
X85685289Y-95423386D01*
X85685288Y-95423386D01*
X85596144Y-95399500D01*
X85503856Y-95399500D01*
X85414712Y-95423386D01*
X85414711Y-95423386D01*
X85414709Y-95423387D01*
X85334790Y-95469529D01*
X85269529Y-95534790D01*
X85223387Y-95614709D01*
X85223386Y-95614711D01*
X85223386Y-95614712D01*
X85199500Y-95703856D01*
X75750500Y-95703856D01*
X75750500Y-93368856D01*
X83764500Y-93368856D01*
X83764500Y-93461144D01*
X83779978Y-93518907D01*
X83788387Y-93550290D01*
X83827669Y-93618328D01*
X83834531Y-93630212D01*
X83899788Y-93695469D01*
X83979712Y-93741614D01*
X84068856Y-93765500D01*
X84068858Y-93765500D01*
X84161142Y-93765500D01*
X84161144Y-93765500D01*
X84250288Y-93741614D01*
X84330212Y-93695469D01*
X84395469Y-93630212D01*
X84441614Y-93550288D01*
X84465500Y-93461144D01*
X84465500Y-93368856D01*
X84453748Y-93324997D01*
X84456949Y-93263896D01*
X84495454Y-93216346D01*
X84554554Y-93200510D01*
X84574995Y-93203747D01*
X84618856Y-93215500D01*
X84618857Y-93215500D01*
X84711142Y-93215500D01*
X84711144Y-93215500D01*
X84800288Y-93191614D01*
X84880212Y-93145469D01*
X84945469Y-93080212D01*
X84991614Y-93000288D01*
X85015500Y-92911144D01*
X85015500Y-92818856D01*
X84991614Y-92729712D01*
X84945469Y-92649788D01*
X84880212Y-92584531D01*
X84800288Y-92538386D01*
X84711144Y-92514500D01*
X84618856Y-92514500D01*
X84529712Y-92538386D01*
X84529711Y-92538386D01*
X84529709Y-92538387D01*
X84449790Y-92584529D01*
X84384529Y-92649790D01*
X84338387Y-92729709D01*
X84338386Y-92729711D01*
X84338386Y-92729712D01*
X84314500Y-92818856D01*
X84314500Y-92911144D01*
X84326252Y-92955002D01*
X84323049Y-93016104D01*
X84284544Y-93063654D01*
X84225443Y-93079489D01*
X84205004Y-93076252D01*
X84161144Y-93064500D01*
X84068856Y-93064500D01*
X83979712Y-93088386D01*
X83979711Y-93088386D01*
X83979709Y-93088387D01*
X83899790Y-93134529D01*
X83834529Y-93199790D01*
X83788387Y-93279709D01*
X83788386Y-93279711D01*
X83788386Y-93279712D01*
X83764500Y-93368856D01*
X75750500Y-93368856D01*
X75750500Y-92827399D01*
X80139500Y-92827399D01*
X80139500Y-92952601D01*
X80171905Y-93073536D01*
X80234505Y-93181964D01*
X80323036Y-93270495D01*
X80431464Y-93333095D01*
X80552399Y-93365500D01*
X80552401Y-93365500D01*
X80677599Y-93365500D01*
X80677601Y-93365500D01*
X80798536Y-93333095D01*
X80906964Y-93270495D01*
X80995495Y-93181964D01*
X81058095Y-93073536D01*
X81090500Y-92952601D01*
X81090500Y-92827399D01*
X81058095Y-92706464D01*
X80995495Y-92598036D01*
X80906964Y-92509505D01*
X80798536Y-92446905D01*
X80677601Y-92414500D01*
X80552399Y-92414500D01*
X80480954Y-92433644D01*
X80431463Y-92446905D01*
X80323036Y-92509505D01*
X80234505Y-92598036D01*
X80171905Y-92706463D01*
X80163455Y-92738000D01*
X80139500Y-92827399D01*
X75750500Y-92827399D01*
X75750500Y-90739364D01*
X78199500Y-90739364D01*
X78199500Y-91860636D01*
X78208007Y-91919027D01*
X78210134Y-91933626D01*
X78265173Y-92046209D01*
X78265174Y-92046211D01*
X78353789Y-92134826D01*
X78466375Y-92189866D01*
X78539364Y-92200500D01*
X78539367Y-92200500D01*
X79660632Y-92200500D01*
X79660636Y-92200500D01*
X79733625Y-92189866D01*
X79846211Y-92134826D01*
X79934826Y-92046211D01*
X79989866Y-91933625D01*
X80000500Y-91860636D01*
X80000500Y-91453856D01*
X86749500Y-91453856D01*
X86749500Y-91546144D01*
X86773386Y-91635288D01*
X86773387Y-91635290D01*
X86773388Y-91635292D01*
X86786735Y-91658408D01*
X86800000Y-91707910D01*
X86800000Y-92123999D01*
X86792000Y-92153856D01*
X86792000Y-92246144D01*
X86800000Y-92276000D01*
X86800000Y-92810965D01*
X86796627Y-92836586D01*
X86792000Y-92853853D01*
X86792000Y-92853856D01*
X86792000Y-92946144D01*
X86793730Y-92952601D01*
X86796627Y-92963411D01*
X86800000Y-92989034D01*
X86800000Y-93510965D01*
X86796627Y-93536586D01*
X86792000Y-93553853D01*
X86792000Y-93646143D01*
X86808263Y-93706841D01*
X86810460Y-93717246D01*
X87095948Y-95552522D01*
X87150000Y-95900000D01*
X87600000Y-96300000D01*
X87728999Y-96300000D01*
X87766884Y-96307536D01*
X87790302Y-96317236D01*
X87810256Y-96325501D01*
X87935931Y-96350500D01*
X87935932Y-96350500D01*
X88064068Y-96350500D01*
X88064069Y-96350500D01*
X88189744Y-96325501D01*
X88220896Y-96312597D01*
X88233116Y-96307536D01*
X88271001Y-96300000D01*
X88993791Y-96300000D01*
X89048209Y-96317681D01*
X89048467Y-96317236D01*
X89050562Y-96318445D01*
X89051982Y-96318907D01*
X89054061Y-96320460D01*
X89054091Y-96320483D01*
X89145408Y-96373205D01*
X89145406Y-96373205D01*
X89145410Y-96373206D01*
X89145412Y-96373207D01*
X89247273Y-96400500D01*
X89247275Y-96400500D01*
X89352725Y-96400500D01*
X89352727Y-96400500D01*
X89454588Y-96373207D01*
X89454590Y-96373205D01*
X89454592Y-96373205D01*
X89545908Y-96320483D01*
X89545908Y-96320482D01*
X89545913Y-96320480D01*
X89562537Y-96303856D01*
X90374500Y-96303856D01*
X90374500Y-96396144D01*
X90398386Y-96485288D01*
X90444531Y-96565212D01*
X90509788Y-96630469D01*
X90589712Y-96676614D01*
X90678856Y-96700500D01*
X90678858Y-96700500D01*
X90771142Y-96700500D01*
X90771144Y-96700500D01*
X90771145Y-96700499D01*
X90776030Y-96699856D01*
X90786343Y-96699043D01*
X91238275Y-96687149D01*
X91266493Y-96690488D01*
X91303856Y-96700500D01*
X91303857Y-96700500D01*
X91396143Y-96700500D01*
X91396144Y-96700500D01*
X91457278Y-96684118D01*
X91480279Y-96680781D01*
X92626108Y-96650628D01*
X92671547Y-96660342D01*
X93900000Y-97250000D01*
X93900000Y-97249999D01*
X93904287Y-97252057D01*
X93910943Y-97255569D01*
X93964712Y-97286614D01*
X94053856Y-97310500D01*
X94053858Y-97310500D01*
X94146142Y-97310500D01*
X94146144Y-97310500D01*
X94235288Y-97286614D01*
X94315212Y-97240469D01*
X94380469Y-97175212D01*
X94426614Y-97095288D01*
X94450500Y-97006144D01*
X94450500Y-96913856D01*
X94448600Y-96906764D01*
X94451197Y-96857183D01*
X94351847Y-96261080D01*
X94350500Y-96244805D01*
X94350500Y-96153857D01*
X94350500Y-96153856D01*
X94326614Y-96064712D01*
X94280469Y-95984788D01*
X94215212Y-95919531D01*
X94186107Y-95902727D01*
X94135290Y-95873387D01*
X94135289Y-95873386D01*
X94135288Y-95873386D01*
X94046144Y-95849500D01*
X93953856Y-95849500D01*
X93953850Y-95849500D01*
X93951890Y-95850026D01*
X93930981Y-95853286D01*
X93546724Y-95871583D01*
X93516394Y-95868322D01*
X93446146Y-95849500D01*
X93446144Y-95849500D01*
X93353856Y-95849500D01*
X93283611Y-95868322D01*
X93264708Y-95873387D01*
X93264706Y-95873388D01*
X93263557Y-95874052D01*
X93262001Y-95874508D01*
X93258712Y-95875871D01*
X93258565Y-95875517D01*
X93218772Y-95887200D01*
X90849996Y-96000000D01*
X90839998Y-96002613D01*
X90839127Y-95999282D01*
X90796224Y-96005738D01*
X90786847Y-96003707D01*
X90771146Y-95999500D01*
X90771144Y-95999500D01*
X90678856Y-95999500D01*
X90589712Y-96023386D01*
X90589711Y-96023386D01*
X90589709Y-96023387D01*
X90509790Y-96069529D01*
X90444529Y-96134790D01*
X90398387Y-96214709D01*
X90398386Y-96214711D01*
X90398386Y-96214712D01*
X90374500Y-96303856D01*
X89562537Y-96303856D01*
X89770480Y-96095913D01*
X89779397Y-96080469D01*
X89823205Y-96004592D01*
X89823205Y-96004590D01*
X89823207Y-96004588D01*
X89850500Y-95902727D01*
X89850500Y-95797273D01*
X89850500Y-95753856D01*
X95399500Y-95753856D01*
X95399500Y-95846144D01*
X95419164Y-95919531D01*
X95423387Y-95935290D01*
X95468502Y-96013431D01*
X95469531Y-96015212D01*
X95534788Y-96080469D01*
X95614712Y-96126614D01*
X95703856Y-96150500D01*
X95703858Y-96150500D01*
X95796142Y-96150500D01*
X95796144Y-96150500D01*
X95885288Y-96126614D01*
X95965212Y-96080469D01*
X96030469Y-96015212D01*
X96076614Y-95935288D01*
X96100500Y-95846144D01*
X96100500Y-95753856D01*
X96088748Y-95709997D01*
X96091949Y-95648896D01*
X96130454Y-95601346D01*
X96189554Y-95585510D01*
X96209995Y-95588747D01*
X96253856Y-95600500D01*
X96253857Y-95600500D01*
X96346142Y-95600500D01*
X96346144Y-95600500D01*
X96435288Y-95576614D01*
X96515212Y-95530469D01*
X96580469Y-95465212D01*
X96612437Y-95409841D01*
X96657906Y-95368902D01*
X96718756Y-95362506D01*
X96747673Y-95373606D01*
X96773105Y-95388290D01*
X96862249Y-95412176D01*
X96862251Y-95412176D01*
X96954535Y-95412176D01*
X96954537Y-95412176D01*
X97043681Y-95388290D01*
X97123605Y-95342145D01*
X97188862Y-95276888D01*
X97235007Y-95196964D01*
X97258893Y-95107820D01*
X97258893Y-95015532D01*
X97235007Y-94926388D01*
X97221998Y-94903856D01*
X101199500Y-94903856D01*
X101199500Y-94996144D01*
X101223386Y-95085288D01*
X101223387Y-95085290D01*
X101240372Y-95114709D01*
X101269531Y-95165212D01*
X101334788Y-95230469D01*
X101414712Y-95276614D01*
X101503856Y-95300500D01*
X101503858Y-95300500D01*
X101596142Y-95300500D01*
X101596144Y-95300500D01*
X101685288Y-95276614D01*
X101765212Y-95230469D01*
X101830469Y-95165212D01*
X101876614Y-95085288D01*
X101900500Y-94996144D01*
X101900500Y-94903856D01*
X102699500Y-94903856D01*
X102699500Y-94996144D01*
X102723386Y-95085288D01*
X102723387Y-95085290D01*
X102740372Y-95114709D01*
X102769531Y-95165212D01*
X102834788Y-95230469D01*
X102914712Y-95276614D01*
X103003856Y-95300500D01*
X103003858Y-95300500D01*
X103096142Y-95300500D01*
X103096144Y-95300500D01*
X103185288Y-95276614D01*
X103265212Y-95230469D01*
X103330469Y-95165212D01*
X103376614Y-95085288D01*
X103400500Y-94996144D01*
X103400500Y-94903856D01*
X103376614Y-94814712D01*
X103330469Y-94734788D01*
X103265212Y-94669531D01*
X103185288Y-94623386D01*
X103096144Y-94599500D01*
X103003856Y-94599500D01*
X102914712Y-94623386D01*
X102914711Y-94623386D01*
X102914709Y-94623387D01*
X102834790Y-94669529D01*
X102769529Y-94734790D01*
X102723387Y-94814709D01*
X102723386Y-94814711D01*
X102723386Y-94814712D01*
X102699500Y-94903856D01*
X101900500Y-94903856D01*
X101876614Y-94814712D01*
X101830469Y-94734788D01*
X101765212Y-94669531D01*
X101685288Y-94623386D01*
X101596144Y-94599500D01*
X101503856Y-94599500D01*
X101414712Y-94623386D01*
X101414711Y-94623386D01*
X101414709Y-94623387D01*
X101334790Y-94669529D01*
X101269529Y-94734790D01*
X101223387Y-94814709D01*
X101223386Y-94814711D01*
X101223386Y-94814712D01*
X101199500Y-94903856D01*
X97221998Y-94903856D01*
X97188862Y-94846464D01*
X97123605Y-94781207D01*
X97043681Y-94735062D01*
X96954537Y-94711176D01*
X96862249Y-94711176D01*
X96773105Y-94735062D01*
X96773104Y-94735062D01*
X96773102Y-94735063D01*
X96693183Y-94781205D01*
X96627923Y-94846465D01*
X96595955Y-94901834D01*
X96550484Y-94942774D01*
X96489634Y-94949168D01*
X96460718Y-94938068D01*
X96435290Y-94923387D01*
X96435289Y-94923386D01*
X96435288Y-94923386D01*
X96346144Y-94899500D01*
X96253856Y-94899500D01*
X96164712Y-94923386D01*
X96164711Y-94923386D01*
X96164709Y-94923387D01*
X96084790Y-94969529D01*
X96019529Y-95034790D01*
X95973387Y-95114709D01*
X95973386Y-95114711D01*
X95973386Y-95114712D01*
X95949500Y-95203856D01*
X95949500Y-95296144D01*
X95961252Y-95340002D01*
X95958049Y-95401104D01*
X95919544Y-95448654D01*
X95860443Y-95464489D01*
X95840004Y-95461252D01*
X95796144Y-95449500D01*
X95703856Y-95449500D01*
X95614712Y-95473386D01*
X95614711Y-95473386D01*
X95614709Y-95473387D01*
X95534790Y-95519529D01*
X95469529Y-95584790D01*
X95423387Y-95664709D01*
X95423386Y-95664711D01*
X95423386Y-95664712D01*
X95399500Y-95753856D01*
X89850500Y-95753856D01*
X89850500Y-94997273D01*
X89837967Y-94950500D01*
X89823207Y-94895412D01*
X89823205Y-94895409D01*
X89823205Y-94895407D01*
X89811255Y-94874711D01*
X89811254Y-94874710D01*
X89800270Y-94855685D01*
X89800000Y-94850000D01*
X89792103Y-94841539D01*
X89770480Y-94804087D01*
X89677569Y-94711176D01*
X89571692Y-94605298D01*
X89569322Y-94602845D01*
X89231133Y-94240500D01*
X89100000Y-94100000D01*
X89099998Y-94099999D01*
X89087052Y-94096762D01*
X89081791Y-94095447D01*
X89035802Y-94069409D01*
X88945913Y-93979520D01*
X88945910Y-93979518D01*
X88945908Y-93979516D01*
X88854594Y-93926795D01*
X88854590Y-93926794D01*
X88854588Y-93926793D01*
X88752727Y-93899500D01*
X88752725Y-93899500D01*
X88560452Y-93899500D01*
X88502261Y-93880593D01*
X88490448Y-93870503D01*
X88463801Y-93843856D01*
X96279500Y-93843856D01*
X96279500Y-93936144D01*
X96291123Y-93979520D01*
X96303387Y-94025290D01*
X96343893Y-94095448D01*
X96349531Y-94105212D01*
X96414788Y-94170469D01*
X96494712Y-94216614D01*
X96583856Y-94240500D01*
X96583858Y-94240500D01*
X96676142Y-94240500D01*
X96676144Y-94240500D01*
X96765288Y-94216614D01*
X96845212Y-94170469D01*
X96910469Y-94105212D01*
X96956614Y-94025288D01*
X96980500Y-93936144D01*
X96980500Y-93843856D01*
X96956614Y-93754712D01*
X96956613Y-93754710D01*
X96956612Y-93754706D01*
X96954130Y-93748714D01*
X96956989Y-93747529D01*
X96946853Y-93700141D01*
X96971668Y-93644213D01*
X96975302Y-93640378D01*
X97020469Y-93595212D01*
X97066614Y-93515288D01*
X97090500Y-93426144D01*
X97090500Y-93333856D01*
X97066614Y-93244712D01*
X97020469Y-93164788D01*
X96955212Y-93099531D01*
X96935910Y-93088387D01*
X96876102Y-93053856D01*
X99749500Y-93053856D01*
X99749500Y-93146144D01*
X99772128Y-93230593D01*
X99773387Y-93235290D01*
X99800429Y-93282128D01*
X99819531Y-93315212D01*
X99884788Y-93380469D01*
X99964712Y-93426614D01*
X100053856Y-93450500D01*
X100053858Y-93450500D01*
X100100500Y-93450500D01*
X100158691Y-93469407D01*
X100194655Y-93518907D01*
X100199500Y-93549500D01*
X100199500Y-93553856D01*
X100199500Y-93646144D01*
X100218552Y-93717246D01*
X100223387Y-93735290D01*
X100234600Y-93754712D01*
X100269531Y-93815212D01*
X100334788Y-93880469D01*
X100414712Y-93926614D01*
X100503856Y-93950500D01*
X100503858Y-93950500D01*
X100596142Y-93950500D01*
X100596144Y-93950500D01*
X100685288Y-93926614D01*
X100765212Y-93880469D01*
X100830469Y-93815212D01*
X100876614Y-93735288D01*
X100900500Y-93646144D01*
X100900500Y-93553856D01*
X100876614Y-93464712D01*
X100830469Y-93384788D01*
X100765212Y-93319531D01*
X100757731Y-93315212D01*
X100685290Y-93273387D01*
X100685289Y-93273386D01*
X100685288Y-93273386D01*
X100596144Y-93249500D01*
X100549500Y-93249500D01*
X100491309Y-93230593D01*
X100455345Y-93181093D01*
X100450500Y-93150500D01*
X100450500Y-93053857D01*
X100450374Y-93053386D01*
X100426614Y-92964712D01*
X100380469Y-92884788D01*
X100315212Y-92819531D01*
X100235288Y-92773386D01*
X100146144Y-92749500D01*
X100053856Y-92749500D01*
X99964712Y-92773386D01*
X99964711Y-92773386D01*
X99964709Y-92773387D01*
X99884790Y-92819529D01*
X99819529Y-92884790D01*
X99773387Y-92964709D01*
X99773386Y-92964711D01*
X99773386Y-92964712D01*
X99749500Y-93053856D01*
X96876102Y-93053856D01*
X96875290Y-93053387D01*
X96875289Y-93053386D01*
X96875288Y-93053386D01*
X96786144Y-93029500D01*
X96693856Y-93029500D01*
X96604712Y-93053386D01*
X96604711Y-93053386D01*
X96604709Y-93053387D01*
X96524790Y-93099529D01*
X96459529Y-93164790D01*
X96413387Y-93244709D01*
X96413386Y-93244711D01*
X96413386Y-93244712D01*
X96389500Y-93333856D01*
X96389500Y-93426144D01*
X96399834Y-93464712D01*
X96413387Y-93515293D01*
X96415870Y-93521286D01*
X96413021Y-93522465D01*
X96423139Y-93569925D01*
X96398286Y-93625835D01*
X96394679Y-93629639D01*
X96349531Y-93674786D01*
X96349529Y-93674789D01*
X96303387Y-93754709D01*
X96303386Y-93754711D01*
X96303386Y-93754712D01*
X96279500Y-93843856D01*
X88463801Y-93843856D01*
X88414677Y-93794731D01*
X88414672Y-93794727D01*
X88414669Y-93794724D01*
X88354787Y-93754712D01*
X88308133Y-93723538D01*
X88308125Y-93723534D01*
X88189747Y-93674500D01*
X88189745Y-93674499D01*
X88189744Y-93674499D01*
X88064069Y-93649500D01*
X87935931Y-93649500D01*
X87935925Y-93649500D01*
X87880571Y-93660511D01*
X87819810Y-93653319D01*
X87778886Y-93618329D01*
X87583332Y-93324998D01*
X87516627Y-93224940D01*
X87500000Y-93170025D01*
X87500000Y-91841356D01*
X88349500Y-91841356D01*
X88349500Y-91933644D01*
X88373386Y-92022788D01*
X88373387Y-92022790D01*
X88412714Y-92090906D01*
X88419531Y-92102712D01*
X88454680Y-92137861D01*
X88482456Y-92192376D01*
X88474048Y-92245459D01*
X88475870Y-92246214D01*
X88473387Y-92252206D01*
X88467012Y-92276000D01*
X88449500Y-92341356D01*
X88449500Y-92433644D01*
X88473386Y-92522788D01*
X88473387Y-92522790D01*
X88482391Y-92538386D01*
X88519531Y-92602712D01*
X88584788Y-92667969D01*
X88664712Y-92714114D01*
X88753856Y-92738000D01*
X88753858Y-92738000D01*
X88846142Y-92738000D01*
X88846144Y-92738000D01*
X88935288Y-92714114D01*
X89015212Y-92667969D01*
X89080469Y-92602712D01*
X89126614Y-92522788D01*
X89150500Y-92433644D01*
X89150500Y-92341356D01*
X89126614Y-92252212D01*
X89080469Y-92172288D01*
X89045318Y-92137137D01*
X89017543Y-92082623D01*
X89025950Y-92029537D01*
X89024130Y-92028783D01*
X89026607Y-92022799D01*
X89026614Y-92022788D01*
X89050500Y-91933644D01*
X89050500Y-91841356D01*
X89027055Y-91753856D01*
X98949500Y-91753856D01*
X98949500Y-91846144D01*
X98973386Y-91935288D01*
X99019531Y-92015212D01*
X99084788Y-92080469D01*
X99164712Y-92126614D01*
X99253856Y-92150500D01*
X99253858Y-92150500D01*
X99346142Y-92150500D01*
X99346144Y-92150500D01*
X99435288Y-92126614D01*
X99515212Y-92080469D01*
X99580469Y-92015212D01*
X99626614Y-91935288D01*
X99650500Y-91846144D01*
X99650500Y-91753856D01*
X99626614Y-91664712D01*
X99580469Y-91584788D01*
X99515212Y-91519531D01*
X99507731Y-91515212D01*
X99435290Y-91473387D01*
X99435289Y-91473386D01*
X99435288Y-91473386D01*
X99346144Y-91449500D01*
X99253856Y-91449500D01*
X99164712Y-91473386D01*
X99164711Y-91473386D01*
X99164709Y-91473387D01*
X99084790Y-91519529D01*
X99019529Y-91584790D01*
X98973387Y-91664709D01*
X98973386Y-91664711D01*
X98973386Y-91664712D01*
X98949500Y-91753856D01*
X89027055Y-91753856D01*
X89026614Y-91752212D01*
X88980469Y-91672288D01*
X88915212Y-91607031D01*
X88876690Y-91584790D01*
X88835290Y-91560887D01*
X88835289Y-91560886D01*
X88835288Y-91560886D01*
X88746144Y-91537000D01*
X88653856Y-91537000D01*
X88564712Y-91560886D01*
X88564711Y-91560886D01*
X88564709Y-91560887D01*
X88484790Y-91607029D01*
X88419529Y-91672290D01*
X88373387Y-91752209D01*
X88373386Y-91752211D01*
X88373386Y-91752212D01*
X88349500Y-91841356D01*
X87500000Y-91841356D01*
X87500000Y-91253856D01*
X101549500Y-91253856D01*
X101549500Y-91346144D01*
X101573386Y-91435288D01*
X101619531Y-91515212D01*
X101684788Y-91580469D01*
X101764712Y-91626614D01*
X101853856Y-91650500D01*
X101853858Y-91650500D01*
X101946142Y-91650500D01*
X101946144Y-91650500D01*
X102035288Y-91626614D01*
X102115212Y-91580469D01*
X102180469Y-91515212D01*
X102226614Y-91435288D01*
X102250500Y-91346144D01*
X102250500Y-91253856D01*
X102226614Y-91164712D01*
X102180469Y-91084788D01*
X102115212Y-91019531D01*
X102112560Y-91018000D01*
X102035290Y-90973387D01*
X102035289Y-90973386D01*
X102035288Y-90973386D01*
X101946144Y-90949500D01*
X101853856Y-90949500D01*
X101764712Y-90973386D01*
X101764711Y-90973386D01*
X101764709Y-90973387D01*
X101684790Y-91019529D01*
X101619529Y-91084790D01*
X101573387Y-91164709D01*
X101573386Y-91164711D01*
X101573386Y-91164712D01*
X101549500Y-91253856D01*
X87500000Y-91253856D01*
X87500000Y-91200001D01*
X87500000Y-91200000D01*
X87499999Y-91200000D01*
X87307912Y-91200000D01*
X87258412Y-91186736D01*
X87235291Y-91173387D01*
X87235293Y-91173387D01*
X87200702Y-91164118D01*
X87146144Y-91149500D01*
X87053856Y-91149500D01*
X86999297Y-91164118D01*
X86964707Y-91173387D01*
X86941588Y-91186736D01*
X86892088Y-91200000D01*
X86800000Y-91200000D01*
X86800000Y-91200001D01*
X86800000Y-91292088D01*
X86795149Y-91310189D01*
X86795146Y-91322706D01*
X86791930Y-91332591D01*
X86773386Y-91364712D01*
X86749500Y-91453856D01*
X80000500Y-91453856D01*
X80000500Y-90739364D01*
X79989866Y-90666375D01*
X79934826Y-90553789D01*
X79846211Y-90465174D01*
X79733625Y-90410134D01*
X79733626Y-90410134D01*
X79715377Y-90407475D01*
X79660636Y-90399500D01*
X78539364Y-90399500D01*
X78495570Y-90405880D01*
X78466373Y-90410134D01*
X78353790Y-90465173D01*
X78265173Y-90553790D01*
X78210134Y-90666373D01*
X78207491Y-90684513D01*
X78199500Y-90739364D01*
X75750500Y-90739364D01*
X75750500Y-90353856D01*
X82349500Y-90353856D01*
X82349500Y-90446144D01*
X82373386Y-90535288D01*
X82419531Y-90615212D01*
X82434317Y-90629998D01*
X82462093Y-90684513D01*
X82452522Y-90744945D01*
X82434318Y-90770000D01*
X82419531Y-90784788D01*
X82419529Y-90784790D01*
X82373387Y-90864709D01*
X82373386Y-90864711D01*
X82373386Y-90864712D01*
X82349500Y-90953856D01*
X82349500Y-91046144D01*
X82373386Y-91135288D01*
X82373387Y-91135290D01*
X82390372Y-91164709D01*
X82419531Y-91215212D01*
X82484788Y-91280469D01*
X82564712Y-91326614D01*
X82653856Y-91350500D01*
X82653858Y-91350500D01*
X82746142Y-91350500D01*
X82746144Y-91350500D01*
X82835288Y-91326614D01*
X82915212Y-91280469D01*
X82980469Y-91215212D01*
X83026614Y-91135288D01*
X83050500Y-91046144D01*
X83050500Y-90953856D01*
X83026614Y-90864712D01*
X82980469Y-90784788D01*
X82965682Y-90770001D01*
X82937907Y-90715487D01*
X82947478Y-90655055D01*
X82965681Y-90629999D01*
X82980469Y-90615212D01*
X83026614Y-90535288D01*
X83050500Y-90446144D01*
X83050500Y-90353856D01*
X83026614Y-90264712D01*
X82980469Y-90184788D01*
X82915212Y-90119531D01*
X82886216Y-90102790D01*
X82835290Y-90073387D01*
X82835289Y-90073386D01*
X82835288Y-90073386D01*
X82746144Y-90049500D01*
X82653856Y-90049500D01*
X82564712Y-90073386D01*
X82564711Y-90073386D01*
X82564709Y-90073387D01*
X82484790Y-90119529D01*
X82419529Y-90184790D01*
X82373387Y-90264709D01*
X82373386Y-90264711D01*
X82373386Y-90264712D01*
X82349500Y-90353856D01*
X75750500Y-90353856D01*
X75750500Y-88239364D01*
X78199500Y-88239364D01*
X78199500Y-89360636D01*
X78205641Y-89402788D01*
X78210134Y-89433626D01*
X78265140Y-89546142D01*
X78265174Y-89546211D01*
X78353789Y-89634826D01*
X78466375Y-89689866D01*
X78539364Y-89700500D01*
X78539367Y-89700500D01*
X79660632Y-89700500D01*
X79660636Y-89700500D01*
X79733625Y-89689866D01*
X79846211Y-89634826D01*
X79934826Y-89546211D01*
X79989866Y-89433625D01*
X80000500Y-89360636D01*
X80000500Y-89153856D01*
X83349500Y-89153856D01*
X83349500Y-89246144D01*
X83367586Y-89313642D01*
X83373387Y-89335290D01*
X83409516Y-89397867D01*
X83419531Y-89415212D01*
X83484788Y-89480469D01*
X83564712Y-89526614D01*
X83653856Y-89550500D01*
X83653858Y-89550500D01*
X83746142Y-89550500D01*
X83746144Y-89550500D01*
X83835288Y-89526614D01*
X83915212Y-89480469D01*
X83941825Y-89453856D01*
X86049500Y-89453856D01*
X86049500Y-89546144D01*
X86073386Y-89635288D01*
X86073387Y-89635290D01*
X86104896Y-89689865D01*
X86119531Y-89715212D01*
X86184788Y-89780469D01*
X86264712Y-89826614D01*
X86353856Y-89850500D01*
X86353858Y-89850500D01*
X86446142Y-89850500D01*
X86446144Y-89850500D01*
X86535288Y-89826614D01*
X86615212Y-89780469D01*
X86680469Y-89715212D01*
X86726614Y-89635288D01*
X86750500Y-89546144D01*
X86750500Y-89453856D01*
X86726614Y-89364712D01*
X86680469Y-89284788D01*
X86615212Y-89219531D01*
X86535288Y-89173386D01*
X86446144Y-89149500D01*
X86353856Y-89149500D01*
X86264712Y-89173386D01*
X86264711Y-89173386D01*
X86264709Y-89173387D01*
X86184790Y-89219529D01*
X86119529Y-89284790D01*
X86073387Y-89364709D01*
X86073386Y-89364711D01*
X86073386Y-89364712D01*
X86049500Y-89453856D01*
X83941825Y-89453856D01*
X83980469Y-89415212D01*
X83987641Y-89402790D01*
X83990484Y-89397867D01*
X83990484Y-89397866D01*
X84000528Y-89380469D01*
X84026614Y-89335288D01*
X84050500Y-89246144D01*
X84050500Y-89153856D01*
X84026614Y-89064712D01*
X83980469Y-88984788D01*
X83915212Y-88919531D01*
X83911694Y-88917500D01*
X83835290Y-88873387D01*
X83835289Y-88873386D01*
X83835288Y-88873386D01*
X83746144Y-88849500D01*
X83653856Y-88849500D01*
X83564712Y-88873386D01*
X83564711Y-88873386D01*
X83564709Y-88873387D01*
X83484790Y-88919529D01*
X83419529Y-88984790D01*
X83373387Y-89064709D01*
X83373386Y-89064711D01*
X83373386Y-89064712D01*
X83349500Y-89153856D01*
X80000500Y-89153856D01*
X80000500Y-88239364D01*
X79989866Y-88166375D01*
X79934826Y-88053789D01*
X79846211Y-87965174D01*
X79733625Y-87910134D01*
X79733626Y-87910134D01*
X79715377Y-87907475D01*
X79660636Y-87899500D01*
X78539364Y-87899500D01*
X78495570Y-87905880D01*
X78466373Y-87910134D01*
X78353790Y-87965173D01*
X78265173Y-88053790D01*
X78210134Y-88166373D01*
X78207378Y-88185290D01*
X78199500Y-88239364D01*
X75750500Y-88239364D01*
X75750500Y-87753856D01*
X83449500Y-87753856D01*
X83449500Y-87846144D01*
X83472095Y-87930469D01*
X83473387Y-87935290D01*
X83510695Y-87999909D01*
X83519531Y-88015212D01*
X83584788Y-88080469D01*
X83664712Y-88126614D01*
X83753856Y-88150500D01*
X83753858Y-88150500D01*
X83846142Y-88150500D01*
X83846144Y-88150500D01*
X83935288Y-88126614D01*
X84015212Y-88080469D01*
X84080469Y-88015212D01*
X84115894Y-87953856D01*
X88657000Y-87953856D01*
X88657000Y-88046144D01*
X88680886Y-88135288D01*
X88727031Y-88215212D01*
X88792288Y-88280469D01*
X88872212Y-88326614D01*
X88961356Y-88350500D01*
X88961358Y-88350500D01*
X89053642Y-88350500D01*
X89053644Y-88350500D01*
X89142788Y-88326614D01*
X89222712Y-88280469D01*
X89287969Y-88215212D01*
X89334114Y-88135288D01*
X89358000Y-88046144D01*
X89358000Y-88003856D01*
X89549500Y-88003856D01*
X89549500Y-88096144D01*
X89573386Y-88185288D01*
X89573387Y-88185290D01*
X89605486Y-88240887D01*
X89619531Y-88265212D01*
X89684788Y-88330469D01*
X89764712Y-88376614D01*
X89853856Y-88400500D01*
X89853858Y-88400500D01*
X89946142Y-88400500D01*
X89946144Y-88400500D01*
X90035288Y-88376614D01*
X90115212Y-88330469D01*
X90180469Y-88265212D01*
X90226614Y-88185288D01*
X90250500Y-88096144D01*
X90250500Y-88053856D01*
X90649500Y-88053856D01*
X90649500Y-88146144D01*
X90668006Y-88215209D01*
X90673387Y-88235290D01*
X90708520Y-88296142D01*
X90719531Y-88315212D01*
X90784788Y-88380469D01*
X90864712Y-88426614D01*
X90953856Y-88450500D01*
X90953858Y-88450500D01*
X91046142Y-88450500D01*
X91046144Y-88450500D01*
X91135288Y-88426614D01*
X91215212Y-88380469D01*
X91280469Y-88315212D01*
X91326614Y-88235288D01*
X91350500Y-88146144D01*
X91350500Y-88053856D01*
X91326614Y-87964712D01*
X91280469Y-87884788D01*
X91215212Y-87819531D01*
X91164959Y-87790517D01*
X91135290Y-87773387D01*
X91135289Y-87773386D01*
X91135288Y-87773386D01*
X91046144Y-87749500D01*
X90953856Y-87749500D01*
X90864712Y-87773386D01*
X90864711Y-87773386D01*
X90864709Y-87773387D01*
X90784790Y-87819529D01*
X90719529Y-87884790D01*
X90673387Y-87964709D01*
X90673386Y-87964711D01*
X90673386Y-87964712D01*
X90649500Y-88053856D01*
X90250500Y-88053856D01*
X90250500Y-88003856D01*
X90226614Y-87914712D01*
X90180469Y-87834788D01*
X90115212Y-87769531D01*
X90088064Y-87753857D01*
X90035290Y-87723387D01*
X90035289Y-87723386D01*
X90035288Y-87723386D01*
X89946144Y-87699500D01*
X89853856Y-87699500D01*
X89764712Y-87723386D01*
X89764711Y-87723386D01*
X89764709Y-87723387D01*
X89684790Y-87769529D01*
X89619529Y-87834790D01*
X89573387Y-87914709D01*
X89555277Y-87982293D01*
X89555276Y-87982296D01*
X89549500Y-88003856D01*
X89358000Y-88003856D01*
X89358000Y-87953856D01*
X89334114Y-87864712D01*
X89287969Y-87784788D01*
X89222712Y-87719531D01*
X89182205Y-87696144D01*
X89142790Y-87673387D01*
X89142789Y-87673386D01*
X89142788Y-87673386D01*
X89053644Y-87649500D01*
X88961356Y-87649500D01*
X88872212Y-87673386D01*
X88872211Y-87673386D01*
X88872209Y-87673387D01*
X88792290Y-87719529D01*
X88727029Y-87784790D01*
X88680887Y-87864709D01*
X88680886Y-87864711D01*
X88680886Y-87864712D01*
X88657000Y-87953856D01*
X84115894Y-87953856D01*
X84126614Y-87935288D01*
X84132128Y-87914712D01*
X84140145Y-87884788D01*
X84150500Y-87846144D01*
X84150500Y-87753856D01*
X84126614Y-87664712D01*
X84080469Y-87584788D01*
X84015212Y-87519531D01*
X84006865Y-87514712D01*
X83935290Y-87473387D01*
X83935289Y-87473386D01*
X83935288Y-87473386D01*
X83846144Y-87449500D01*
X83753856Y-87449500D01*
X83664712Y-87473386D01*
X83664711Y-87473386D01*
X83664709Y-87473387D01*
X83584790Y-87519529D01*
X83519529Y-87584790D01*
X83473387Y-87664709D01*
X83473386Y-87664711D01*
X83473386Y-87664712D01*
X83449500Y-87753856D01*
X75750500Y-87753856D01*
X75750500Y-85739364D01*
X78199500Y-85739364D01*
X78199500Y-86860636D01*
X78206884Y-86911320D01*
X78210134Y-86933626D01*
X78226943Y-86968009D01*
X78265174Y-87046211D01*
X78353789Y-87134826D01*
X78466375Y-87189866D01*
X78539364Y-87200500D01*
X78539367Y-87200500D01*
X79660632Y-87200500D01*
X79660636Y-87200500D01*
X79733625Y-87189866D01*
X79846211Y-87134826D01*
X79934826Y-87046211D01*
X79951559Y-87011982D01*
X79994103Y-86968009D01*
X80054368Y-86957439D01*
X80109337Y-86984312D01*
X80138012Y-87038361D01*
X80139500Y-87055463D01*
X80139500Y-87172601D01*
X80171905Y-87293536D01*
X80234505Y-87401964D01*
X80323036Y-87490495D01*
X80431464Y-87553095D01*
X80552399Y-87585500D01*
X80552401Y-87585500D01*
X80677599Y-87585500D01*
X80677601Y-87585500D01*
X80798536Y-87553095D01*
X80906964Y-87490495D01*
X80995495Y-87401964D01*
X81058095Y-87293536D01*
X81090500Y-87172601D01*
X81090500Y-87053856D01*
X88729500Y-87053856D01*
X88729500Y-87146144D01*
X88753386Y-87235288D01*
X88753387Y-87235290D01*
X88790459Y-87299500D01*
X88799531Y-87315212D01*
X88864788Y-87380469D01*
X88944712Y-87426614D01*
X89033856Y-87450500D01*
X89033858Y-87450500D01*
X89126142Y-87450500D01*
X89126144Y-87450500D01*
X89215288Y-87426614D01*
X89295212Y-87380469D01*
X89360469Y-87315212D01*
X89406614Y-87235288D01*
X89428434Y-87153856D01*
X95499500Y-87153856D01*
X95499500Y-87246144D01*
X95523386Y-87335288D01*
X95523387Y-87335290D01*
X95561881Y-87401963D01*
X95569531Y-87415212D01*
X95634788Y-87480469D01*
X95714712Y-87526614D01*
X95803856Y-87550500D01*
X95803858Y-87550500D01*
X95896142Y-87550500D01*
X95896144Y-87550500D01*
X95974878Y-87529403D01*
X95996294Y-87530525D01*
X96017524Y-87527505D01*
X96026188Y-87532092D01*
X96035978Y-87532606D01*
X96052642Y-87546100D01*
X96071597Y-87556137D01*
X96074798Y-87564042D01*
X96083528Y-87571111D01*
X96098513Y-87611084D01*
X96099500Y-87618020D01*
X96099500Y-87696144D01*
X96123202Y-87784603D01*
X96124044Y-87790517D01*
X96119759Y-87815061D01*
X96118455Y-87839942D01*
X96114580Y-87844726D01*
X96113522Y-87850791D01*
X96095631Y-87868127D01*
X96079950Y-87887492D01*
X96071989Y-87891036D01*
X96069582Y-87893369D01*
X96065420Y-87893961D01*
X96051656Y-87900089D01*
X95997095Y-87914709D01*
X95964708Y-87923387D01*
X95884790Y-87969529D01*
X95819529Y-88034790D01*
X95773387Y-88114709D01*
X95773386Y-88114711D01*
X95773386Y-88114712D01*
X95749500Y-88203856D01*
X95749500Y-88296144D01*
X95773386Y-88385288D01*
X95819531Y-88465212D01*
X95884788Y-88530469D01*
X95884790Y-88530470D01*
X95964712Y-88576614D01*
X95975011Y-88579374D01*
X96026325Y-88612698D01*
X96048251Y-88669820D01*
X96032415Y-88728920D01*
X95984865Y-88767425D01*
X95975011Y-88770626D01*
X95964712Y-88773385D01*
X95884790Y-88819529D01*
X95819529Y-88884790D01*
X95773387Y-88964709D01*
X95773386Y-88964711D01*
X95773386Y-88964712D01*
X95749500Y-89053856D01*
X95749500Y-89146144D01*
X95773386Y-89235288D01*
X95773387Y-89235290D01*
X95818625Y-89313644D01*
X95819531Y-89315212D01*
X95884788Y-89380469D01*
X95964712Y-89426614D01*
X96053856Y-89450500D01*
X96053858Y-89450500D01*
X96146142Y-89450500D01*
X96146144Y-89450500D01*
X96235288Y-89426614D01*
X96315212Y-89380469D01*
X96380469Y-89315212D01*
X96426614Y-89235288D01*
X96450500Y-89146144D01*
X96450500Y-89053856D01*
X96426614Y-88964712D01*
X96380469Y-88884788D01*
X96315212Y-88819531D01*
X96315209Y-88819529D01*
X96235289Y-88773386D01*
X96230700Y-88772156D01*
X96224989Y-88770626D01*
X96173675Y-88737303D01*
X96151748Y-88680182D01*
X96167583Y-88621081D01*
X96215133Y-88582576D01*
X96224984Y-88579374D01*
X96235288Y-88576614D01*
X96315212Y-88530469D01*
X96324325Y-88521356D01*
X98149500Y-88521356D01*
X98149500Y-88613644D01*
X98167329Y-88680182D01*
X98173387Y-88702790D01*
X98214146Y-88773386D01*
X98219531Y-88782712D01*
X98284317Y-88847498D01*
X98312093Y-88902013D01*
X98302522Y-88962445D01*
X98284318Y-88987500D01*
X98219531Y-89052288D01*
X98219529Y-89052290D01*
X98173387Y-89132209D01*
X98173386Y-89132211D01*
X98173386Y-89132212D01*
X98149500Y-89221356D01*
X98149500Y-89313644D01*
X98173386Y-89402788D01*
X98173387Y-89402790D01*
X98218236Y-89480470D01*
X98219531Y-89482712D01*
X98284317Y-89547498D01*
X98312093Y-89602013D01*
X98302522Y-89662445D01*
X98284318Y-89687500D01*
X98219531Y-89752288D01*
X98219529Y-89752290D01*
X98173387Y-89832209D01*
X98173386Y-89832211D01*
X98173386Y-89832212D01*
X98149500Y-89921356D01*
X98149500Y-90013644D01*
X98173386Y-90102788D01*
X98173387Y-90102790D01*
X98183051Y-90119529D01*
X98219531Y-90182712D01*
X98284317Y-90247498D01*
X98312093Y-90302013D01*
X98302522Y-90362445D01*
X98284318Y-90387500D01*
X98235511Y-90436308D01*
X98219529Y-90452290D01*
X98173387Y-90532209D01*
X98173386Y-90532211D01*
X98173386Y-90532212D01*
X98149500Y-90621356D01*
X98149500Y-90713644D01*
X98173386Y-90802788D01*
X98173387Y-90802790D01*
X98209138Y-90864712D01*
X98219531Y-90882712D01*
X98284788Y-90947969D01*
X98364712Y-90994114D01*
X98453856Y-91018000D01*
X98453858Y-91018000D01*
X98546142Y-91018000D01*
X98546144Y-91018000D01*
X98635288Y-90994114D01*
X98715212Y-90947969D01*
X98780469Y-90882712D01*
X98826614Y-90802788D01*
X98850500Y-90713644D01*
X98850500Y-90621356D01*
X98826614Y-90532212D01*
X98780469Y-90452288D01*
X98715682Y-90387501D01*
X98687907Y-90332987D01*
X98697478Y-90272555D01*
X98715681Y-90247499D01*
X98780469Y-90182712D01*
X98826614Y-90102788D01*
X98850500Y-90013644D01*
X98850500Y-89921356D01*
X98826614Y-89832212D01*
X98780469Y-89752288D01*
X98715682Y-89687501D01*
X98687907Y-89632987D01*
X98697478Y-89572555D01*
X98715681Y-89547499D01*
X98780469Y-89482712D01*
X98826614Y-89402788D01*
X98850500Y-89313644D01*
X98850500Y-89221356D01*
X98826614Y-89132212D01*
X98780469Y-89052288D01*
X98715682Y-88987501D01*
X98687907Y-88932987D01*
X98697478Y-88872555D01*
X98715681Y-88847499D01*
X98780469Y-88782712D01*
X98826614Y-88702788D01*
X98850500Y-88613644D01*
X98850500Y-88521356D01*
X98826614Y-88432212D01*
X98780469Y-88352288D01*
X98715212Y-88287031D01*
X98703848Y-88280470D01*
X98635290Y-88240887D01*
X98635289Y-88240886D01*
X98635288Y-88240886D01*
X98546144Y-88217000D01*
X98453856Y-88217000D01*
X98364712Y-88240886D01*
X98364711Y-88240886D01*
X98364709Y-88240887D01*
X98284790Y-88287029D01*
X98219529Y-88352290D01*
X98173387Y-88432209D01*
X98173386Y-88432211D01*
X98173386Y-88432212D01*
X98149500Y-88521356D01*
X96324325Y-88521356D01*
X96380469Y-88465212D01*
X96426614Y-88385288D01*
X96450500Y-88296144D01*
X96450500Y-88203856D01*
X96428341Y-88121157D01*
X96431544Y-88060057D01*
X96470049Y-88012508D01*
X96498340Y-87999911D01*
X96585288Y-87976614D01*
X96665212Y-87930469D01*
X96730469Y-87865212D01*
X96776614Y-87785288D01*
X96785036Y-87753856D01*
X97342000Y-87753856D01*
X97342000Y-87846144D01*
X97364595Y-87930469D01*
X97365887Y-87935290D01*
X97403195Y-87999909D01*
X97412031Y-88015212D01*
X97477288Y-88080469D01*
X97557212Y-88126614D01*
X97646356Y-88150500D01*
X97646358Y-88150500D01*
X97738642Y-88150500D01*
X97738644Y-88150500D01*
X97827788Y-88126614D01*
X97907712Y-88080469D01*
X97972969Y-88015212D01*
X98019114Y-87935288D01*
X98043000Y-87846144D01*
X98043000Y-87753856D01*
X98019114Y-87664712D01*
X97972969Y-87584788D01*
X97907712Y-87519531D01*
X97899365Y-87514712D01*
X97827790Y-87473387D01*
X97827789Y-87473386D01*
X97827788Y-87473386D01*
X97738644Y-87449500D01*
X97646356Y-87449500D01*
X97557212Y-87473386D01*
X97557211Y-87473386D01*
X97557209Y-87473387D01*
X97477290Y-87519529D01*
X97412029Y-87584790D01*
X97365887Y-87664709D01*
X97365886Y-87664711D01*
X97365886Y-87664712D01*
X97342000Y-87753856D01*
X96785036Y-87753856D01*
X96800500Y-87696144D01*
X96800500Y-87603856D01*
X96776614Y-87514712D01*
X96730469Y-87434788D01*
X96665212Y-87369531D01*
X96605902Y-87335288D01*
X96585290Y-87323387D01*
X96585289Y-87323386D01*
X96585288Y-87323386D01*
X96496144Y-87299500D01*
X96403856Y-87299500D01*
X96381029Y-87305616D01*
X96325122Y-87320596D01*
X96264021Y-87317393D01*
X96216471Y-87278887D01*
X96200500Y-87224969D01*
X96200500Y-87153857D01*
X96200500Y-87153856D01*
X96176614Y-87064712D01*
X96130469Y-86984788D01*
X96065212Y-86919531D01*
X96050990Y-86911320D01*
X95985290Y-86873387D01*
X95985289Y-86873386D01*
X95985288Y-86873386D01*
X95896144Y-86849500D01*
X95803856Y-86849500D01*
X95714712Y-86873386D01*
X95714711Y-86873386D01*
X95714709Y-86873387D01*
X95634790Y-86919529D01*
X95569529Y-86984790D01*
X95523387Y-87064709D01*
X95523386Y-87064711D01*
X95523386Y-87064712D01*
X95499500Y-87153856D01*
X89428434Y-87153856D01*
X89430500Y-87146144D01*
X89430500Y-87053856D01*
X89406614Y-86964712D01*
X89360469Y-86884788D01*
X89295212Y-86819531D01*
X89215288Y-86773386D01*
X89126144Y-86749500D01*
X89033856Y-86749500D01*
X88944712Y-86773386D01*
X88944711Y-86773386D01*
X88944709Y-86773387D01*
X88864790Y-86819529D01*
X88799529Y-86884790D01*
X88753387Y-86964709D01*
X88753386Y-86964711D01*
X88753386Y-86964712D01*
X88729500Y-87053856D01*
X81090500Y-87053856D01*
X81090500Y-87047399D01*
X81058095Y-86926464D01*
X80995495Y-86818036D01*
X80906964Y-86729505D01*
X80798536Y-86666905D01*
X80677601Y-86634500D01*
X80552399Y-86634500D01*
X80471775Y-86656103D01*
X80431463Y-86666905D01*
X80323036Y-86729505D01*
X80234505Y-86818036D01*
X80185235Y-86903374D01*
X80139767Y-86944314D01*
X80078917Y-86950710D01*
X80025929Y-86920117D01*
X80001042Y-86864222D01*
X80000500Y-86853873D01*
X80000500Y-86153856D01*
X88657000Y-86153856D01*
X88657000Y-86246144D01*
X88679924Y-86331696D01*
X88680887Y-86335290D01*
X88726740Y-86414709D01*
X88727031Y-86415212D01*
X88792288Y-86480469D01*
X88872212Y-86526614D01*
X88961356Y-86550500D01*
X88961358Y-86550500D01*
X89053642Y-86550500D01*
X89053644Y-86550500D01*
X89142788Y-86526614D01*
X89222712Y-86480469D01*
X89287969Y-86415212D01*
X89334114Y-86335288D01*
X89342536Y-86303856D01*
X92749500Y-86303856D01*
X92749500Y-86396144D01*
X92773386Y-86485288D01*
X92819531Y-86565212D01*
X92884788Y-86630469D01*
X92964712Y-86676614D01*
X93053856Y-86700500D01*
X93053858Y-86700500D01*
X93146142Y-86700500D01*
X93146144Y-86700500D01*
X93235288Y-86676614D01*
X93315212Y-86630469D01*
X93380469Y-86565212D01*
X93407264Y-86518803D01*
X93452733Y-86477862D01*
X93513583Y-86471466D01*
X93566571Y-86502059D01*
X93591458Y-86557955D01*
X93592000Y-86568303D01*
X93592000Y-86596144D01*
X93613562Y-86676614D01*
X93615887Y-86685290D01*
X93652959Y-86749500D01*
X93662031Y-86765212D01*
X93727288Y-86830469D01*
X93807212Y-86876614D01*
X93896356Y-86900500D01*
X93896358Y-86900500D01*
X93988642Y-86900500D01*
X93988644Y-86900500D01*
X94077788Y-86876614D01*
X94157712Y-86830469D01*
X94222969Y-86765212D01*
X94243364Y-86729888D01*
X102249500Y-86729888D01*
X102249500Y-86822176D01*
X102270487Y-86900500D01*
X102273387Y-86911322D01*
X102315804Y-86984790D01*
X102319531Y-86991244D01*
X102384788Y-87056501D01*
X102464712Y-87102646D01*
X102553856Y-87126532D01*
X102553858Y-87126532D01*
X102646142Y-87126532D01*
X102646144Y-87126532D01*
X102735288Y-87102646D01*
X102815212Y-87056501D01*
X102880469Y-86991244D01*
X102926614Y-86911320D01*
X102950500Y-86822176D01*
X102950500Y-86729888D01*
X102926614Y-86640744D01*
X102880469Y-86560820D01*
X102815212Y-86495563D01*
X102735288Y-86449418D01*
X102646144Y-86425532D01*
X102553856Y-86425532D01*
X102464712Y-86449418D01*
X102464711Y-86449418D01*
X102464709Y-86449419D01*
X102384790Y-86495561D01*
X102319529Y-86560822D01*
X102273387Y-86640741D01*
X102273386Y-86640743D01*
X102273386Y-86640744D01*
X102249500Y-86729888D01*
X94243364Y-86729888D01*
X94269114Y-86685288D01*
X94293000Y-86596144D01*
X94293000Y-86503856D01*
X94269114Y-86414712D01*
X94222969Y-86334788D01*
X94157712Y-86269531D01*
X94117205Y-86246144D01*
X94077790Y-86223387D01*
X94077789Y-86223386D01*
X94077788Y-86223386D01*
X93988644Y-86199500D01*
X93896356Y-86199500D01*
X93807212Y-86223386D01*
X93807211Y-86223386D01*
X93807209Y-86223387D01*
X93727290Y-86269529D01*
X93662029Y-86334790D01*
X93635236Y-86381197D01*
X93589766Y-86422137D01*
X93528916Y-86428532D01*
X93475928Y-86397939D01*
X93451042Y-86342043D01*
X93450500Y-86331696D01*
X93450500Y-86303857D01*
X93450500Y-86303856D01*
X93426614Y-86214712D01*
X93380469Y-86134788D01*
X93315212Y-86069531D01*
X93306865Y-86064712D01*
X93235290Y-86023387D01*
X93235289Y-86023386D01*
X93235288Y-86023386D01*
X93146144Y-85999500D01*
X93053856Y-85999500D01*
X92964712Y-86023386D01*
X92964711Y-86023386D01*
X92964709Y-86023387D01*
X92884790Y-86069529D01*
X92819529Y-86134790D01*
X92773387Y-86214709D01*
X92773386Y-86214711D01*
X92773386Y-86214712D01*
X92749500Y-86303856D01*
X89342536Y-86303856D01*
X89358000Y-86246144D01*
X89358000Y-86153856D01*
X89334114Y-86064712D01*
X89287969Y-85984788D01*
X89222712Y-85919531D01*
X89142788Y-85873386D01*
X89053644Y-85849500D01*
X88961356Y-85849500D01*
X88872212Y-85873386D01*
X88872211Y-85873386D01*
X88872209Y-85873387D01*
X88792290Y-85919529D01*
X88727029Y-85984790D01*
X88680887Y-86064709D01*
X88680886Y-86064711D01*
X88680886Y-86064712D01*
X88657000Y-86153856D01*
X80000500Y-86153856D01*
X80000500Y-85753856D01*
X102249500Y-85753856D01*
X102249500Y-85846144D01*
X102269164Y-85919531D01*
X102273387Y-85935290D01*
X102310459Y-85999500D01*
X102319531Y-86015212D01*
X102384788Y-86080469D01*
X102464712Y-86126614D01*
X102553856Y-86150500D01*
X102553858Y-86150500D01*
X102646142Y-86150500D01*
X102646144Y-86150500D01*
X102735288Y-86126614D01*
X102815212Y-86080469D01*
X102880469Y-86015212D01*
X102926614Y-85935288D01*
X102950500Y-85846144D01*
X102950500Y-85753856D01*
X102926614Y-85664712D01*
X102880469Y-85584788D01*
X102815212Y-85519531D01*
X102735288Y-85473386D01*
X102646144Y-85449500D01*
X102553856Y-85449500D01*
X102464712Y-85473386D01*
X102464711Y-85473386D01*
X102464709Y-85473387D01*
X102384790Y-85519529D01*
X102319529Y-85584790D01*
X102273387Y-85664709D01*
X102273386Y-85664711D01*
X102273386Y-85664712D01*
X102249500Y-85753856D01*
X80000500Y-85753856D01*
X80000500Y-85739367D01*
X80000500Y-85739364D01*
X79989866Y-85666375D01*
X79934826Y-85553789D01*
X79846211Y-85465174D01*
X79733625Y-85410134D01*
X79733626Y-85410134D01*
X79715377Y-85407475D01*
X79660636Y-85399500D01*
X78539364Y-85399500D01*
X78495570Y-85405880D01*
X78466373Y-85410134D01*
X78353790Y-85465173D01*
X78265173Y-85553790D01*
X78210134Y-85666373D01*
X78210134Y-85666375D01*
X78199500Y-85739364D01*
X75750500Y-85739364D01*
X75750500Y-83503856D01*
X102149500Y-83503856D01*
X102149500Y-83596144D01*
X102173386Y-83685288D01*
X102219531Y-83765212D01*
X102284788Y-83830469D01*
X102284790Y-83830470D01*
X102343321Y-83864264D01*
X102384261Y-83909734D01*
X102390656Y-83970584D01*
X102360063Y-84023572D01*
X102343321Y-84035736D01*
X102284790Y-84069529D01*
X102219529Y-84134790D01*
X102173387Y-84214709D01*
X102173386Y-84214711D01*
X102173386Y-84214712D01*
X102149500Y-84303856D01*
X102149500Y-84396144D01*
X102173386Y-84485288D01*
X102219531Y-84565212D01*
X102284788Y-84630469D01*
X102364712Y-84676614D01*
X102453856Y-84700500D01*
X102453858Y-84700500D01*
X102546142Y-84700500D01*
X102546144Y-84700500D01*
X102635288Y-84676614D01*
X102715212Y-84630469D01*
X102780469Y-84565212D01*
X102814264Y-84506679D01*
X102859733Y-84465738D01*
X102920584Y-84459342D01*
X102973572Y-84489935D01*
X102985736Y-84506679D01*
X103019527Y-84565207D01*
X103019529Y-84565209D01*
X103019531Y-84565212D01*
X103084788Y-84630469D01*
X103164712Y-84676614D01*
X103253856Y-84700500D01*
X103253858Y-84700500D01*
X103346142Y-84700500D01*
X103346144Y-84700500D01*
X103435288Y-84676614D01*
X103515212Y-84630469D01*
X103580469Y-84565212D01*
X103626614Y-84485288D01*
X103650500Y-84396144D01*
X103650500Y-84303856D01*
X103626614Y-84214712D01*
X103580469Y-84134788D01*
X103515212Y-84069531D01*
X103515209Y-84069529D01*
X103515207Y-84069527D01*
X103456679Y-84035736D01*
X103415738Y-83990267D01*
X103409342Y-83929416D01*
X103439935Y-83876428D01*
X103456679Y-83864264D01*
X103515207Y-83830472D01*
X103515207Y-83830471D01*
X103515212Y-83830469D01*
X103580469Y-83765212D01*
X103626614Y-83685288D01*
X103650500Y-83596144D01*
X103650500Y-83503856D01*
X103626614Y-83414712D01*
X103580469Y-83334788D01*
X103515212Y-83269531D01*
X103435288Y-83223386D01*
X103346144Y-83199500D01*
X103253856Y-83199500D01*
X103164712Y-83223386D01*
X103164711Y-83223386D01*
X103164709Y-83223387D01*
X103084790Y-83269529D01*
X103019529Y-83334790D01*
X102985736Y-83393321D01*
X102940266Y-83434261D01*
X102879416Y-83440656D01*
X102826428Y-83410063D01*
X102814264Y-83393321D01*
X102780470Y-83334790D01*
X102780469Y-83334788D01*
X102715212Y-83269531D01*
X102635288Y-83223386D01*
X102546144Y-83199500D01*
X102453856Y-83199500D01*
X102364712Y-83223386D01*
X102364711Y-83223386D01*
X102364709Y-83223387D01*
X102284790Y-83269529D01*
X102219529Y-83334790D01*
X102173387Y-83414709D01*
X102173386Y-83414711D01*
X102173386Y-83414712D01*
X102149500Y-83503856D01*
X75750500Y-83503856D01*
X75750500Y-79502435D01*
X75750619Y-79497577D01*
X75760154Y-79303488D01*
X75768317Y-79137318D01*
X75769267Y-79127682D01*
X75821833Y-78773308D01*
X75823722Y-78763810D01*
X75910774Y-78416278D01*
X75913583Y-78407019D01*
X76034279Y-78069696D01*
X76037988Y-78060741D01*
X76191163Y-77736879D01*
X76195730Y-77728336D01*
X76379907Y-77421055D01*
X76385293Y-77412994D01*
X76598703Y-77125242D01*
X76604867Y-77117734D01*
X76625180Y-77095322D01*
X76845451Y-76852290D01*
X76852290Y-76845451D01*
X77117735Y-76604865D01*
X77125244Y-76598703D01*
X77270152Y-76491232D01*
X77412994Y-76385293D01*
X77421055Y-76379907D01*
X77728336Y-76195730D01*
X77736879Y-76191163D01*
X78060741Y-76037988D01*
X78069696Y-76034279D01*
X78407019Y-75913583D01*
X78416278Y-75910774D01*
X78763810Y-75823722D01*
X78773308Y-75821833D01*
X79127682Y-75769267D01*
X79137318Y-75768317D01*
X79497578Y-75750619D01*
X79502436Y-75750500D01*
X79849829Y-75750500D01*
X79907885Y-75726451D01*
X79941897Y-75712364D01*
X80012364Y-75641897D01*
X80050500Y-75549828D01*
X80050500Y-73849500D01*
X80069407Y-73791309D01*
X80118907Y-73755345D01*
X80149500Y-73750500D01*
X81501000Y-73750500D01*
X81559191Y-73769407D01*
G37*
%TD.AperFunction*%
%TD*%
%TA.AperFunction,Conductor*%
%TO.N,Net-(LED1-Pad1)*%
G36*
X90015677Y-97419685D02*
G01*
X90036319Y-97436319D01*
X90098452Y-97498452D01*
X90107484Y-97514993D01*
X90120586Y-97528543D01*
X90131095Y-97558233D01*
X90131937Y-97559775D01*
X90132363Y-97561815D01*
X90147592Y-97637960D01*
X90150000Y-97662278D01*
X90150000Y-97752956D01*
X90130315Y-97819995D01*
X90113682Y-97840636D01*
X90069534Y-97884784D01*
X90069526Y-97884794D01*
X90023388Y-97964706D01*
X90023387Y-97964709D01*
X89999500Y-98053856D01*
X89999500Y-98153474D01*
X89979815Y-98220513D01*
X89973785Y-98229078D01*
X89650000Y-98649999D01*
X89650000Y-99876000D01*
X89630315Y-99943039D01*
X89577511Y-99988794D01*
X89526000Y-100000000D01*
X88474000Y-100000000D01*
X88406961Y-99980315D01*
X88361206Y-99927511D01*
X88350000Y-99876000D01*
X88350000Y-98798591D01*
X88369685Y-98731552D01*
X88383009Y-98714349D01*
X89379667Y-97637960D01*
X89563192Y-97439753D01*
X89623183Y-97403936D01*
X89654178Y-97400000D01*
X89948638Y-97400000D01*
X90015677Y-97419685D01*
G37*
%TD.AperFunction*%
%TD*%
%TA.AperFunction,Conductor*%
%TO.N,BUZ-*%
G36*
X91283039Y-97199685D02*
G01*
X91328794Y-97252489D01*
X91340000Y-97304000D01*
X91340000Y-98110000D01*
X91652329Y-98630549D01*
X91670000Y-98694345D01*
X91670000Y-99906000D01*
X91650315Y-99973039D01*
X91597511Y-100018794D01*
X91546000Y-100030000D01*
X90424000Y-100030000D01*
X90356961Y-100010315D01*
X90311206Y-99957511D01*
X90300000Y-99906000D01*
X90300000Y-98718456D01*
X90305539Y-98699591D01*
X90306134Y-98679939D01*
X90318904Y-98654075D01*
X90319685Y-98651417D01*
X90321760Y-98648292D01*
X90333938Y-98630547D01*
X90450516Y-98460676D01*
X90490745Y-98423462D01*
X90565212Y-98380469D01*
X90630469Y-98315212D01*
X90676614Y-98235288D01*
X90700500Y-98146144D01*
X90700500Y-98053856D01*
X90676614Y-97964712D01*
X90666613Y-97947390D01*
X90650000Y-97885389D01*
X90650000Y-97304000D01*
X90669685Y-97236961D01*
X90722489Y-97191206D01*
X90774000Y-97180000D01*
X91216000Y-97180000D01*
X91283039Y-97199685D01*
G37*
%TD.AperFunction*%
%TD*%
M02*
