%TF.GenerationSoftware,KiCad,Pcbnew,9.0.7*%
%TF.CreationDate,2026-03-22T14:19:19+01:00*%
%TF.ProjectId,MINIREX_G4,4d494e49-5245-4585-9f47-342e6b696361,rev?*%
%TF.SameCoordinates,Original*%
%TF.FileFunction,Legend,Top*%
%TF.FilePolarity,Positive*%
%FSLAX46Y46*%
G04 Gerber Fmt 4.6, Leading zero omitted, Abs format (unit mm)*
G04 Created by KiCad (PCBNEW 9.0.7) date 2026-03-22 14:19:19*
%MOMM*%
%LPD*%
G01*
G04 APERTURE LIST*
%ADD10C,0.300000*%
%ADD11C,0.100000*%
%ADD12C,0.120000*%
%ADD13C,0.200000*%
%ADD14C,0.250000*%
G04 APERTURE END LIST*
D10*
X87600000Y-90700000D02*
X87600000Y-89600000D01*
D11*
X88100000Y-89900000D02*
X87100000Y-89900000D01*
X87600000Y-89400000D01*
X88100000Y-89900000D01*
G36*
X88100000Y-89900000D02*
G01*
X87100000Y-89900000D01*
X87600000Y-89400000D01*
X88100000Y-89900000D01*
G37*
%TO.C,S1*%
X93950000Y-102730000D02*
X93950000Y-102730000D01*
X93950000Y-102730000D02*
X93950000Y-100230000D01*
X96150000Y-102730000D02*
X96150000Y-102730000D01*
X96150000Y-102730000D02*
X96150000Y-100230000D01*
X93950000Y-100230000D02*
X93950000Y-102730000D01*
X93950000Y-100230000D02*
X93950000Y-100230000D01*
X96150000Y-100230000D02*
X96150000Y-102730000D01*
X96150000Y-100230000D02*
X96150000Y-100230000D01*
%TO.C,Q2*%
X91820000Y-98000000D02*
X91820000Y-98000000D01*
X91720000Y-98000000D02*
X91720000Y-98000000D01*
X91820000Y-98000000D02*
G75*
G02*
X91720000Y-98000000I-50000J0D01*
G01*
X91720000Y-98000000D02*
G75*
G02*
X91820000Y-98000000I50000J0D01*
G01*
D12*
%TO.C,C17*%
X96715000Y-85461252D02*
X96715000Y-84938748D01*
X98185000Y-85461252D02*
X98185000Y-84938748D01*
D11*
%TO.C,LEDRED3*%
X86800000Y-98590000D02*
G75*
G02*
X86700000Y-98590000I-50000J0D01*
G01*
X86700000Y-98590000D02*
G75*
G02*
X86800000Y-98590000I50000J0D01*
G01*
%TO.C,LEDBLUE1*%
X83700000Y-98590000D02*
G75*
G02*
X83600000Y-98590000I-50000J0D01*
G01*
X83600000Y-98590000D02*
G75*
G02*
X83700000Y-98590000I50000J0D01*
G01*
D12*
%TO.C,C3*%
X102597836Y-87070000D02*
X102382164Y-87070000D01*
X102597836Y-87790000D02*
X102382164Y-87790000D01*
D11*
%TO.C,LEDGREEN1*%
X85250000Y-98572500D02*
G75*
G02*
X85150000Y-98572500I-50000J0D01*
G01*
X85150000Y-98572500D02*
G75*
G02*
X85250000Y-98572500I50000J0D01*
G01*
%TO.C,LEDRED4*%
X88400000Y-98572500D02*
G75*
G02*
X88300000Y-98572500I-50000J0D01*
G01*
X88300000Y-98572500D02*
G75*
G02*
X88400000Y-98572500I50000J0D01*
G01*
%TO.C,Y2*%
X99450000Y-92050000D02*
X98150000Y-92050000D01*
X99450000Y-95250000D02*
X98150000Y-95250000D01*
D13*
X100160000Y-94930000D02*
X100160000Y-94930000D01*
X100160000Y-95130000D02*
X100160000Y-95130000D01*
X100160000Y-94930000D02*
G75*
G02*
X100160000Y-95130000I0J-100000D01*
G01*
X100160000Y-95130000D02*
G75*
G02*
X100160000Y-94930000I0J100000D01*
G01*
%TO.C,IC2*%
X87375000Y-82450000D02*
X88625000Y-82450000D01*
X88975000Y-82600000D02*
X89525000Y-82600000D01*
X88975000Y-85500000D02*
X88975000Y-82600000D01*
X89525000Y-82600000D02*
X89525000Y-85500000D01*
X89525000Y-85500000D02*
X88975000Y-85500000D01*
D11*
%TO.C,D1*%
X83140000Y-90480000D02*
X83140000Y-90480000D01*
X83140000Y-90580000D02*
X83140000Y-90580000D01*
X83140000Y-90480000D02*
G75*
G02*
X83140000Y-90580000I0J-50000D01*
G01*
X83140000Y-90580000D02*
G75*
G02*
X83140000Y-90480000I0J50000D01*
G01*
D12*
%TO.C,C6*%
X96792164Y-96490000D02*
X97007836Y-96490000D01*
X96792164Y-97210000D02*
X97007836Y-97210000D01*
%TO.C,J1*%
X78110000Y-85330000D02*
X79810000Y-85330000D01*
X78110000Y-94670000D02*
X79810000Y-94670000D01*
%TO.C,C21*%
X103510000Y-89697836D02*
X103510000Y-89482164D01*
X104230000Y-89697836D02*
X104230000Y-89482164D01*
D11*
%TO.C,IC1*%
X101050000Y-91600000D02*
X101300000Y-91600000D01*
X101050000Y-92300000D02*
X101050000Y-91600000D01*
X101050000Y-94600000D02*
X101050000Y-93900000D01*
X101300000Y-94600000D02*
X101050000Y-94600000D01*
X101500000Y-95000000D02*
X101500000Y-95000000D01*
X101600000Y-95000000D02*
X101600000Y-95000000D01*
X103400000Y-94600000D02*
X103550000Y-94600000D01*
X103550000Y-91600000D02*
X103300000Y-91600000D01*
X103550000Y-92300000D02*
X103550000Y-91600000D01*
X103550000Y-94600000D02*
X103550000Y-93900000D01*
X101500000Y-95000000D02*
G75*
G02*
X101600000Y-95000000I50000J0D01*
G01*
X101600000Y-95000000D02*
G75*
G02*
X101500000Y-95000000I-50000J0D01*
G01*
D13*
%TO.C,D10*%
X102560000Y-86782000D02*
X102560000Y-84270000D01*
X103840000Y-85930000D02*
X103840000Y-84270000D01*
D12*
%TO.C,C13*%
X85011252Y-83815000D02*
X84488748Y-83815000D01*
X85011252Y-85285000D02*
X84488748Y-85285000D01*
%TO.C,U2*%
X89140000Y-88527500D02*
X89615000Y-88527500D01*
X89140000Y-89002500D02*
X89140000Y-88527500D01*
X89140000Y-95747500D02*
X89140000Y-95272500D01*
X89615000Y-95747500D02*
X89140000Y-95747500D01*
X95885000Y-88527500D02*
X96360000Y-88527500D01*
X96360000Y-88527500D02*
X96360000Y-89002500D01*
X96360000Y-95272500D02*
X96360000Y-95747500D01*
X96360000Y-95747500D02*
X95885000Y-95747500D01*
X97220000Y-95127500D02*
X96890000Y-94887500D01*
X97220000Y-94647500D01*
X97220000Y-95127500D01*
G36*
X97220000Y-95127500D02*
G01*
X96890000Y-94887500D01*
X97220000Y-94647500D01*
X97220000Y-95127500D01*
G37*
D14*
%TO.C,IC5*%
X100100000Y-88050000D02*
G75*
G02*
X99850000Y-88050000I-125000J0D01*
G01*
X99850000Y-88050000D02*
G75*
G02*
X100100000Y-88050000I125000J0D01*
G01*
D13*
%TO.C,FB1*%
X100900000Y-85200000D02*
X101900000Y-85200000D01*
D12*
%TO.C,C23*%
X100727836Y-87040000D02*
X100512164Y-87040000D01*
X100727836Y-87760000D02*
X100512164Y-87760000D01*
%TO.C,C2*%
X86940000Y-95492164D02*
X86940000Y-95707836D01*
X87660000Y-95492164D02*
X87660000Y-95707836D01*
D14*
%TO.C,IC3*%
X87845000Y-88790000D02*
G75*
G02*
X87595000Y-88790000I-125000J0D01*
G01*
X87595000Y-88790000D02*
G75*
G02*
X87845000Y-88790000I125000J0D01*
G01*
D12*
%TO.C,C14*%
X88707836Y-86740000D02*
X88492164Y-86740000D01*
X88707836Y-87460000D02*
X88492164Y-87460000D01*
%TO.C,C1*%
X83040000Y-93972164D02*
X83040000Y-94187836D01*
X83760000Y-93972164D02*
X83760000Y-94187836D01*
%TO.C,C5*%
X83690000Y-80707836D02*
X83690000Y-80492164D01*
X84410000Y-80707836D02*
X84410000Y-80492164D01*
D13*
%TO.C,L1*%
X93900000Y-82600000D02*
X93900000Y-85600000D01*
D14*
%TO.C,IC4*%
X84275000Y-96075000D02*
G75*
G02*
X84025000Y-96075000I-125000J0D01*
G01*
X84025000Y-96075000D02*
G75*
G02*
X84275000Y-96075000I125000J0D01*
G01*
D12*
%TO.C,C4*%
X85021252Y-81855000D02*
X84498748Y-81855000D01*
X85021252Y-83325000D02*
X84498748Y-83325000D01*
D13*
%TO.C,D11*%
X85630000Y-91560000D02*
X83970000Y-91560000D01*
X86482000Y-92840000D02*
X83970000Y-92840000D01*
D12*
%TO.C,C8*%
X98715000Y-85461252D02*
X98715000Y-84938748D01*
X100185000Y-85461252D02*
X100185000Y-84938748D01*
%TD*%
M02*
