%TF.GenerationSoftware,KiCad,Pcbnew,9.0.7*%
%TF.CreationDate,2026-03-23T12:25:18+01:00*%
%TF.ProjectId,MINIREX_G4,4d494e49-5245-4585-9f47-342e6b696361,rev?*%
%TF.SameCoordinates,Original*%
%TF.FileFunction,Paste,Top*%
%TF.FilePolarity,Positive*%
%FSLAX46Y46*%
G04 Gerber Fmt 4.6, Leading zero omitted, Abs format (unit mm)*
G04 Created by KiCad (PCBNEW 9.0.7) date 2026-03-23 12:25:18*
%MOMM*%
%LPD*%
G01*
G04 APERTURE LIST*
G04 Aperture macros list*
%AMRoundRect*
0 Rectangle with rounded corners*
0 $1 Rounding radius*
0 $2 $3 $4 $5 $6 $7 $8 $9 X,Y pos of 4 corners*
0 Add a 4 corners polygon primitive as box body*
4,1,4,$2,$3,$4,$5,$6,$7,$8,$9,$2,$3,0*
0 Add four circle primitives for the rounded corners*
1,1,$1+$1,$2,$3*
1,1,$1+$1,$4,$5*
1,1,$1+$1,$6,$7*
1,1,$1+$1,$8,$9*
0 Add four rect primitives between the rounded corners*
20,1,$1+$1,$2,$3,$4,$5,0*
20,1,$1+$1,$4,$5,$6,$7,0*
20,1,$1+$1,$6,$7,$8,$9,0*
20,1,$1+$1,$8,$9,$2,$3,0*%
G04 Aperture macros list end*
%ADD10R,1.500000X0.550000*%
%ADD11R,0.400000X0.250000*%
%ADD12R,0.400000X0.700000*%
%ADD13RoundRect,0.250000X0.475000X-0.250000X0.475000X0.250000X-0.475000X0.250000X-0.475000X-0.250000X0*%
%ADD14RoundRect,0.090000X-0.139000X-0.090000X0.139000X-0.090000X0.139000X0.090000X-0.139000X0.090000X0*%
%ADD15RoundRect,0.090000X0.139000X0.090000X-0.139000X0.090000X-0.139000X-0.090000X0.139000X-0.090000X0*%
%ADD16R,0.600000X1.550000*%
%ADD17R,1.200000X1.800000*%
%ADD18RoundRect,0.090000X0.090000X-0.139000X0.090000X0.139000X-0.090000X0.139000X-0.090000X-0.139000X0*%
%ADD19RoundRect,0.147500X0.172500X-0.147500X0.172500X0.147500X-0.172500X0.147500X-0.172500X-0.147500X0*%
%ADD20RoundRect,0.140000X0.140000X0.170000X-0.140000X0.170000X-0.140000X-0.170000X0.140000X-0.170000X0*%
%ADD21R,1.900000X0.400000*%
%ADD22R,1.250000X0.600000*%
%ADD23RoundRect,0.090000X-0.090000X0.139000X-0.090000X-0.139000X0.090000X-0.139000X0.090000X0.139000X0*%
%ADD24R,0.350000X0.225000*%
%ADD25R,0.350000X0.600000*%
%ADD26RoundRect,0.140000X-0.140000X-0.170000X0.140000X-0.170000X0.140000X0.170000X-0.140000X0.170000X0*%
%ADD27RoundRect,0.150000X-0.425000X0.150000X-0.425000X-0.150000X0.425000X-0.150000X0.425000X0.150000X0*%
%ADD28RoundRect,0.075000X-0.500000X0.075000X-0.500000X-0.075000X0.500000X-0.075000X0.500000X0.075000X0*%
%ADD29O,2.100000X1.000000*%
%ADD30O,1.800000X1.000000*%
%ADD31RoundRect,0.140000X0.170000X-0.140000X0.170000X0.140000X-0.170000X0.140000X-0.170000X-0.140000X0*%
%ADD32R,0.300000X0.600000*%
%ADD33R,0.600000X0.300000*%
%ADD34R,0.550000X1.085000*%
%ADD35RoundRect,0.250000X0.250000X0.475000X-0.250000X0.475000X-0.250000X-0.475000X0.250000X-0.475000X0*%
%ADD36RoundRect,0.250000X0.315000X0.315000X-0.315000X0.315000X-0.315000X-0.315000X0.315000X-0.315000X0*%
%ADD37RoundRect,0.062500X0.375000X0.062500X-0.375000X0.062500X-0.375000X-0.062500X0.375000X-0.062500X0*%
%ADD38RoundRect,0.062500X0.062500X0.375000X-0.062500X0.375000X-0.062500X-0.375000X0.062500X-0.375000X0*%
%ADD39R,0.650000X0.300000*%
%ADD40R,1.020000X1.550000*%
%ADD41R,1.400000X1.200000*%
%ADD42RoundRect,0.140000X-0.170000X0.140000X-0.170000X-0.140000X0.170000X-0.140000X0.170000X0.140000X0*%
%ADD43R,0.850000X0.300000*%
%ADD44R,0.300000X1.700000*%
%ADD45R,1.700000X3.400000*%
%ADD46R,0.300000X0.650000*%
%ADD47R,1.550000X1.020000*%
%ADD48R,1.085000X0.550000*%
G04 APERTURE END LIST*
D10*
%TO.C,S1*%
X95050000Y-103105000D03*
X95050000Y-99855000D03*
%TD*%
D11*
%TO.C,Q2*%
X91740000Y-97645000D03*
X91740000Y-97195000D03*
D12*
X91040000Y-97420000D03*
%TD*%
D13*
%TO.C,C17*%
X97450000Y-86150000D03*
X97450000Y-84250000D03*
%TD*%
D14*
%TO.C,R8*%
X93917500Y-86550000D03*
X94782500Y-86550000D03*
%TD*%
D15*
%TO.C,R21*%
X98532500Y-87800000D03*
X97667500Y-87800000D03*
%TD*%
D14*
%TO.C,C27*%
X93917500Y-87250000D03*
X94782500Y-87250000D03*
%TD*%
D16*
%TO.C,J2*%
X93500000Y-80400500D03*
X92500000Y-80400500D03*
X91500000Y-80400500D03*
X90500000Y-80400500D03*
X89500000Y-80400500D03*
X88500000Y-80400500D03*
X87500000Y-80400500D03*
X86500000Y-80400500D03*
D17*
X94800000Y-76524500D03*
X85200000Y-76524500D03*
%TD*%
D14*
%TO.C,R10*%
X85067500Y-91050000D03*
X85932500Y-91050000D03*
%TD*%
D18*
%TO.C,R41*%
X92600000Y-97832500D03*
X92600000Y-96967500D03*
%TD*%
D15*
%TO.C,R15*%
X100432500Y-90900000D03*
X99567500Y-90900000D03*
%TD*%
%TO.C,R44*%
X98525000Y-88567500D03*
X97660000Y-88567500D03*
%TD*%
D19*
%TO.C,LEDRED3*%
X86750000Y-97985000D03*
X86750000Y-97015000D03*
%TD*%
D14*
%TO.C,R7*%
X88167500Y-86200000D03*
X89032500Y-86200000D03*
%TD*%
D18*
%TO.C,R56*%
X89800000Y-97732500D03*
X89800000Y-96867500D03*
%TD*%
D15*
%TO.C,R45*%
X98525000Y-89267500D03*
X97660000Y-89267500D03*
%TD*%
D19*
%TO.C,LEDBLUE1*%
X83650000Y-97985000D03*
X83650000Y-97015000D03*
%TD*%
D15*
%TO.C,R5*%
X87982500Y-91500000D03*
X87117500Y-91500000D03*
%TD*%
D14*
%TO.C,C12*%
X90117500Y-81900000D03*
X90982500Y-81900000D03*
%TD*%
D20*
%TO.C,C3*%
X102970000Y-87430000D03*
X102010000Y-87430000D03*
%TD*%
D15*
%TO.C,R2*%
X95275000Y-81750000D03*
X94410000Y-81750000D03*
%TD*%
D19*
%TO.C,LEDGREEN1*%
X85200000Y-97967500D03*
X85200000Y-96997500D03*
%TD*%
%TO.C,LEDRED4*%
X88350000Y-97967500D03*
X88350000Y-96997500D03*
%TD*%
D21*
%TO.C,Y2*%
X98800000Y-94850000D03*
X98800000Y-93650000D03*
X98800000Y-92450000D03*
%TD*%
D22*
%TO.C,IC2*%
X88000000Y-83100000D03*
X88000000Y-84050000D03*
X88000000Y-85000000D03*
X90500000Y-85000000D03*
X90500000Y-84050000D03*
X90500000Y-83100000D03*
%TD*%
D15*
%TO.C,C19*%
X98532500Y-91367500D03*
X97667500Y-91367500D03*
%TD*%
%TO.C,C22*%
X103232500Y-95800000D03*
X102367500Y-95800000D03*
%TD*%
D23*
%TO.C,C7*%
X95600000Y-96935000D03*
X95600000Y-97800000D03*
%TD*%
D15*
%TO.C,R11*%
X89182500Y-81900000D03*
X88317500Y-81900000D03*
%TD*%
%TO.C,R6*%
X87982500Y-92200000D03*
X87117500Y-92200000D03*
%TD*%
D24*
%TO.C,D1*%
X83525000Y-90525000D03*
X83525000Y-90875000D03*
D25*
X84175000Y-90700000D03*
%TD*%
D16*
%TO.C,J3*%
X86400000Y-99493000D03*
X87400000Y-99493000D03*
X88400000Y-99493000D03*
X89400000Y-99493000D03*
X90400000Y-99493000D03*
X91400000Y-99493000D03*
D17*
X85900000Y-103368000D03*
X91900000Y-103368000D03*
%TD*%
D14*
%TO.C,R1*%
X83467500Y-85900000D03*
X84332500Y-85900000D03*
%TD*%
D18*
%TO.C,C10*%
X89900000Y-87432500D03*
X89900000Y-86567500D03*
%TD*%
%TO.C,C18*%
X93400000Y-97800000D03*
X93400000Y-96935000D03*
%TD*%
D26*
%TO.C,C6*%
X96420000Y-96850000D03*
X97380000Y-96850000D03*
%TD*%
D27*
%TO.C,J1*%
X81690000Y-86800000D03*
X81690000Y-87600000D03*
D28*
X81690000Y-88750000D03*
X81690000Y-89750000D03*
X81690000Y-90250000D03*
X81690000Y-91250000D03*
D27*
X81690000Y-92400000D03*
X81690000Y-93200000D03*
X81690000Y-93200000D03*
X81690000Y-92400000D03*
D28*
X81690000Y-91750000D03*
X81690000Y-90750000D03*
X81690000Y-89250000D03*
X81690000Y-88250000D03*
D27*
X81690000Y-87600000D03*
X81690000Y-86800000D03*
D29*
X81115000Y-85680000D03*
D30*
X76935000Y-85680000D03*
D29*
X81115000Y-94320000D03*
D30*
X76935000Y-94320000D03*
%TD*%
D18*
%TO.C,C24*%
X91000000Y-87432500D03*
X91000000Y-86567500D03*
%TD*%
D14*
%TO.C,R9*%
X88167500Y-88000000D03*
X89032500Y-88000000D03*
%TD*%
D31*
%TO.C,C21*%
X103870000Y-90070000D03*
X103870000Y-89110000D03*
%TD*%
D32*
%TO.C,IC1*%
X101550000Y-94250000D03*
X102050000Y-94250000D03*
X102550000Y-94250000D03*
X103050000Y-94250000D03*
D33*
X103200000Y-93600000D03*
X103200000Y-93100000D03*
X103200000Y-92600000D03*
D32*
X103050000Y-91950000D03*
X102550000Y-91950000D03*
X102050000Y-91950000D03*
X101550000Y-91950000D03*
D33*
X101400000Y-92600000D03*
X101400000Y-93100000D03*
X101400000Y-93600000D03*
%TD*%
D14*
%TO.C,R61*%
X87117500Y-93600000D03*
X87982500Y-93600000D03*
%TD*%
%TO.C,R13*%
X87117500Y-92900000D03*
X87982500Y-92900000D03*
%TD*%
D34*
%TO.C,D10*%
X103200000Y-86240000D03*
X103200000Y-83960000D03*
%TD*%
D35*
%TO.C,C13*%
X85700000Y-84550000D03*
X83800000Y-84550000D03*
%TD*%
D15*
%TO.C,C9*%
X87982500Y-94300000D03*
X87117500Y-94300000D03*
%TD*%
D14*
%TO.C,C25*%
X83567500Y-89700000D03*
X84432500Y-89700000D03*
%TD*%
D15*
%TO.C,R46*%
X98525000Y-89967500D03*
X97660000Y-89967500D03*
%TD*%
D36*
%TO.C,U2*%
X94850000Y-94237500D03*
X94850000Y-92837500D03*
X94850000Y-91437500D03*
X94850000Y-90037500D03*
X93450000Y-94237500D03*
X93450000Y-92837500D03*
X93450000Y-91437500D03*
X93450000Y-90037500D03*
X92050000Y-94237500D03*
X92050000Y-92837500D03*
X92050000Y-91437500D03*
X92050000Y-90037500D03*
X90650000Y-94237500D03*
X90650000Y-92837500D03*
X90650000Y-91437500D03*
X90650000Y-90037500D03*
D37*
X96187500Y-94887500D03*
X96187500Y-94387500D03*
X96187500Y-93887500D03*
X96187500Y-93387500D03*
X96187500Y-92887500D03*
X96187500Y-92387500D03*
X96187500Y-91887500D03*
X96187500Y-91387500D03*
X96187500Y-90887500D03*
X96187500Y-90387500D03*
X96187500Y-89887500D03*
X96187500Y-89387500D03*
D38*
X95500000Y-88700000D03*
X95000000Y-88700000D03*
X94500000Y-88700000D03*
X94000000Y-88700000D03*
X93500000Y-88700000D03*
X93000000Y-88700000D03*
X92500000Y-88700000D03*
X92000000Y-88700000D03*
X91500000Y-88700000D03*
X91000000Y-88700000D03*
X90500000Y-88700000D03*
X90000000Y-88700000D03*
D37*
X89312500Y-89387500D03*
X89312500Y-89887500D03*
X89312500Y-90387500D03*
X89312500Y-90887500D03*
X89312500Y-91387500D03*
X89312500Y-91887500D03*
X89312500Y-92387500D03*
X89312500Y-92887500D03*
X89312500Y-93387500D03*
X89312500Y-93887500D03*
X89312500Y-94387500D03*
X89312500Y-94887500D03*
D38*
X90000000Y-95575000D03*
X90500000Y-95575000D03*
X91000000Y-95575000D03*
X91500000Y-95575000D03*
X92000000Y-95575000D03*
X92500000Y-95575000D03*
X93000000Y-95575000D03*
X93500000Y-95575000D03*
X94000000Y-95575000D03*
X94500000Y-95575000D03*
X95000000Y-95575000D03*
X95500000Y-95575000D03*
%TD*%
D39*
%TO.C,IC5*%
X100300000Y-88700000D03*
X100300000Y-89200000D03*
X100300000Y-89700000D03*
X102400000Y-89700000D03*
X102400000Y-89200000D03*
X102400000Y-88700000D03*
D40*
X101350000Y-89200000D03*
%TD*%
D41*
%TO.C,FB1*%
X101400000Y-86050000D03*
X101400000Y-84350000D03*
%TD*%
D23*
%TO.C,R17*%
X94800000Y-96935000D03*
X94800000Y-97800000D03*
%TD*%
%TO.C,R14*%
X93100000Y-86567500D03*
X93100000Y-87432500D03*
%TD*%
D14*
%TO.C,C11*%
X97567500Y-96000000D03*
X98432500Y-96000000D03*
%TD*%
D20*
%TO.C,C23*%
X101100000Y-87400000D03*
X100140000Y-87400000D03*
%TD*%
D42*
%TO.C,C2*%
X87300000Y-95120000D03*
X87300000Y-96080000D03*
%TD*%
D43*
%TO.C,IC3*%
X86700000Y-88800000D03*
X86700000Y-88300000D03*
X86700000Y-87800000D03*
X86700000Y-87300000D03*
X83800000Y-87300000D03*
X83800000Y-87800000D03*
X83800000Y-88300000D03*
X83800000Y-88800000D03*
D44*
X85250000Y-88050000D03*
%TD*%
D20*
%TO.C,C14*%
X89080000Y-87100000D03*
X88120000Y-87100000D03*
%TD*%
D42*
%TO.C,C1*%
X83400000Y-93600000D03*
X83400000Y-94560000D03*
%TD*%
D31*
%TO.C,C5*%
X84050000Y-81080000D03*
X84050000Y-80120000D03*
%TD*%
D45*
%TO.C,L1*%
X92550000Y-84100000D03*
X95250000Y-84100000D03*
%TD*%
D46*
%TO.C,IC4*%
X84800000Y-95750000D03*
X85300000Y-95750000D03*
X85800000Y-95750000D03*
X85800000Y-93650000D03*
X85300000Y-93650000D03*
X84800000Y-93650000D03*
D47*
X85300000Y-94700000D03*
%TD*%
D35*
%TO.C,C4*%
X85710000Y-82590000D03*
X83810000Y-82590000D03*
%TD*%
D23*
%TO.C,C16*%
X91700000Y-86567500D03*
X91700000Y-87432500D03*
%TD*%
D18*
%TO.C,C26*%
X92400000Y-87432500D03*
X92400000Y-86567500D03*
%TD*%
D48*
%TO.C,D11*%
X85940000Y-92200000D03*
X83660000Y-92200000D03*
%TD*%
D15*
%TO.C,C20*%
X103332500Y-90900000D03*
X102467500Y-90900000D03*
%TD*%
%TO.C,R47*%
X98525000Y-90667500D03*
X97660000Y-90667500D03*
%TD*%
D23*
%TO.C,R22*%
X88150000Y-95167500D03*
X88150000Y-96032500D03*
%TD*%
%TO.C,R3*%
X94100000Y-96935000D03*
X94100000Y-97800000D03*
%TD*%
D13*
%TO.C,C8*%
X99450000Y-86150000D03*
X99450000Y-84250000D03*
%TD*%
M02*
