%TF.GenerationSoftware,KiCad,Pcbnew,9.0.7*%
%TF.CreationDate,2026-03-23T12:25:18+01:00*%
%TF.ProjectId,MINIREX_G4,4d494e49-5245-4585-9f47-342e6b696361,rev?*%
%TF.SameCoordinates,Original*%
%TF.FileFunction,Legend,Bot*%
%TF.FilePolarity,Positive*%
%FSLAX46Y46*%
G04 Gerber Fmt 4.6, Leading zero omitted, Abs format (unit mm)*
G04 Created by KiCad (PCBNEW 9.0.7) date 2026-03-23 12:25:18*
%MOMM*%
%LPD*%
G01*
G04 APERTURE LIST*
%ADD10C,0.175000*%
%ADD11C,0.125000*%
%ADD12C,0.250000*%
%ADD13C,0.000000*%
G04 APERTURE END LIST*
D10*
X77518202Y-91705233D02*
X77518202Y-91005233D01*
X77518202Y-91005233D02*
X77351535Y-91005233D01*
X77351535Y-91005233D02*
X77251535Y-91038566D01*
X77251535Y-91038566D02*
X77184869Y-91105233D01*
X77184869Y-91105233D02*
X77151535Y-91171900D01*
X77151535Y-91171900D02*
X77118202Y-91305233D01*
X77118202Y-91305233D02*
X77118202Y-91405233D01*
X77118202Y-91405233D02*
X77151535Y-91538566D01*
X77151535Y-91538566D02*
X77184869Y-91605233D01*
X77184869Y-91605233D02*
X77251535Y-91671900D01*
X77251535Y-91671900D02*
X77351535Y-91705233D01*
X77351535Y-91705233D02*
X77518202Y-91705233D01*
X76818202Y-91438566D02*
X76284869Y-91438566D01*
X77518202Y-89105233D02*
X77518202Y-88405233D01*
X77518202Y-88405233D02*
X77351535Y-88405233D01*
X77351535Y-88405233D02*
X77251535Y-88438566D01*
X77251535Y-88438566D02*
X77184869Y-88505233D01*
X77184869Y-88505233D02*
X77151535Y-88571900D01*
X77151535Y-88571900D02*
X77118202Y-88705233D01*
X77118202Y-88705233D02*
X77118202Y-88805233D01*
X77118202Y-88805233D02*
X77151535Y-88938566D01*
X77151535Y-88938566D02*
X77184869Y-89005233D01*
X77184869Y-89005233D02*
X77251535Y-89071900D01*
X77251535Y-89071900D02*
X77351535Y-89105233D01*
X77351535Y-89105233D02*
X77518202Y-89105233D01*
X76818202Y-88838566D02*
X76284869Y-88838566D01*
X76551535Y-89105233D02*
X76551535Y-88571900D01*
D11*
X93267690Y-98170144D02*
X93267690Y-97884430D01*
X92767690Y-98027287D02*
X93267690Y-98027287D01*
X92767690Y-97765383D02*
X93101023Y-97503478D01*
X93101023Y-97765383D02*
X92767690Y-97503478D01*
X93220071Y-97336811D02*
X93243880Y-97313002D01*
X93243880Y-97313002D02*
X93267690Y-97265383D01*
X93267690Y-97265383D02*
X93267690Y-97146335D01*
X93267690Y-97146335D02*
X93243880Y-97098716D01*
X93243880Y-97098716D02*
X93220071Y-97074907D01*
X93220071Y-97074907D02*
X93172452Y-97051097D01*
X93172452Y-97051097D02*
X93124833Y-97051097D01*
X93124833Y-97051097D02*
X93053404Y-97074907D01*
X93053404Y-97074907D02*
X92767690Y-97360621D01*
X92767690Y-97360621D02*
X92767690Y-97051097D01*
X93267690Y-96217765D02*
X93267690Y-96455860D01*
X93267690Y-96455860D02*
X93029595Y-96479669D01*
X93029595Y-96479669D02*
X93053404Y-96455860D01*
X93053404Y-96455860D02*
X93077214Y-96408241D01*
X93077214Y-96408241D02*
X93077214Y-96289193D01*
X93077214Y-96289193D02*
X93053404Y-96241574D01*
X93053404Y-96241574D02*
X93029595Y-96217765D01*
X93029595Y-96217765D02*
X92981976Y-96193955D01*
X92981976Y-96193955D02*
X92862928Y-96193955D01*
X92862928Y-96193955D02*
X92815309Y-96217765D01*
X92815309Y-96217765D02*
X92791500Y-96241574D01*
X92791500Y-96241574D02*
X92767690Y-96289193D01*
X92767690Y-96289193D02*
X92767690Y-96408241D01*
X92767690Y-96408241D02*
X92791500Y-96455860D01*
X92791500Y-96455860D02*
X92815309Y-96479669D01*
X93267690Y-96051098D02*
X92767690Y-95884432D01*
X92767690Y-95884432D02*
X93267690Y-95717765D01*
X87967690Y-104170144D02*
X87967690Y-103884430D01*
X87467690Y-104027287D02*
X87967690Y-104027287D01*
X87467690Y-103765383D02*
X87801023Y-103503478D01*
X87801023Y-103765383D02*
X87467690Y-103503478D01*
X87801023Y-103098716D02*
X87467690Y-103098716D01*
X87991500Y-103217764D02*
X87634357Y-103336811D01*
X87634357Y-103336811D02*
X87634357Y-103027288D01*
X87243880Y-97936811D02*
X87267690Y-97984430D01*
X87267690Y-97984430D02*
X87267690Y-98055859D01*
X87267690Y-98055859D02*
X87243880Y-98127287D01*
X87243880Y-98127287D02*
X87196261Y-98174906D01*
X87196261Y-98174906D02*
X87148642Y-98198716D01*
X87148642Y-98198716D02*
X87053404Y-98222525D01*
X87053404Y-98222525D02*
X86981976Y-98222525D01*
X86981976Y-98222525D02*
X86886738Y-98198716D01*
X86886738Y-98198716D02*
X86839119Y-98174906D01*
X86839119Y-98174906D02*
X86791500Y-98127287D01*
X86791500Y-98127287D02*
X86767690Y-98055859D01*
X86767690Y-98055859D02*
X86767690Y-98008240D01*
X86767690Y-98008240D02*
X86791500Y-97936811D01*
X86791500Y-97936811D02*
X86815309Y-97913002D01*
X86815309Y-97913002D02*
X86981976Y-97913002D01*
X86981976Y-97913002D02*
X86981976Y-98008240D01*
X87101023Y-97698716D02*
X86767690Y-97698716D01*
X87053404Y-97698716D02*
X87077214Y-97674906D01*
X87077214Y-97674906D02*
X87101023Y-97627287D01*
X87101023Y-97627287D02*
X87101023Y-97555859D01*
X87101023Y-97555859D02*
X87077214Y-97508240D01*
X87077214Y-97508240D02*
X87029595Y-97484430D01*
X87029595Y-97484430D02*
X86767690Y-97484430D01*
X86767690Y-97032049D02*
X87267690Y-97032049D01*
X86791500Y-97032049D02*
X86767690Y-97079668D01*
X86767690Y-97079668D02*
X86767690Y-97174906D01*
X86767690Y-97174906D02*
X86791500Y-97222525D01*
X86791500Y-97222525D02*
X86815309Y-97246335D01*
X86815309Y-97246335D02*
X86862928Y-97270144D01*
X86862928Y-97270144D02*
X87005785Y-97270144D01*
X87005785Y-97270144D02*
X87053404Y-97246335D01*
X87053404Y-97246335D02*
X87077214Y-97222525D01*
X87077214Y-97222525D02*
X87101023Y-97174906D01*
X87101023Y-97174906D02*
X87101023Y-97079668D01*
X87101023Y-97079668D02*
X87077214Y-97032049D01*
X87243880Y-96151097D02*
X87267690Y-96198716D01*
X87267690Y-96198716D02*
X87267690Y-96270145D01*
X87267690Y-96270145D02*
X87243880Y-96341573D01*
X87243880Y-96341573D02*
X87196261Y-96389192D01*
X87196261Y-96389192D02*
X87148642Y-96413002D01*
X87148642Y-96413002D02*
X87053404Y-96436811D01*
X87053404Y-96436811D02*
X86981976Y-96436811D01*
X86981976Y-96436811D02*
X86886738Y-96413002D01*
X86886738Y-96413002D02*
X86839119Y-96389192D01*
X86839119Y-96389192D02*
X86791500Y-96341573D01*
X86791500Y-96341573D02*
X86767690Y-96270145D01*
X86767690Y-96270145D02*
X86767690Y-96222526D01*
X86767690Y-96222526D02*
X86791500Y-96151097D01*
X86791500Y-96151097D02*
X86815309Y-96127288D01*
X86815309Y-96127288D02*
X86981976Y-96127288D01*
X86981976Y-96127288D02*
X86981976Y-96222526D01*
X87101023Y-95913002D02*
X86767690Y-95913002D01*
X87053404Y-95913002D02*
X87077214Y-95889192D01*
X87077214Y-95889192D02*
X87101023Y-95841573D01*
X87101023Y-95841573D02*
X87101023Y-95770145D01*
X87101023Y-95770145D02*
X87077214Y-95722526D01*
X87077214Y-95722526D02*
X87029595Y-95698716D01*
X87029595Y-95698716D02*
X86767690Y-95698716D01*
X86767690Y-95246335D02*
X87267690Y-95246335D01*
X86791500Y-95246335D02*
X86767690Y-95293954D01*
X86767690Y-95293954D02*
X86767690Y-95389192D01*
X86767690Y-95389192D02*
X86791500Y-95436811D01*
X86791500Y-95436811D02*
X86815309Y-95460621D01*
X86815309Y-95460621D02*
X86862928Y-95484430D01*
X86862928Y-95484430D02*
X87005785Y-95484430D01*
X87005785Y-95484430D02*
X87053404Y-95460621D01*
X87053404Y-95460621D02*
X87077214Y-95436811D01*
X87077214Y-95436811D02*
X87101023Y-95389192D01*
X87101023Y-95389192D02*
X87101023Y-95293954D01*
X87101023Y-95293954D02*
X87077214Y-95246335D01*
X97167690Y-104170144D02*
X97167690Y-103884430D01*
X96667690Y-104027287D02*
X97167690Y-104027287D01*
X96667690Y-103765383D02*
X97001023Y-103503478D01*
X97001023Y-103765383D02*
X96667690Y-103503478D01*
X96667690Y-103051097D02*
X96667690Y-103336811D01*
X96667690Y-103193954D02*
X97167690Y-103193954D01*
X97167690Y-103193954D02*
X97096261Y-103241573D01*
X97096261Y-103241573D02*
X97048642Y-103289192D01*
X97048642Y-103289192D02*
X97024833Y-103336811D01*
X92532309Y-75601283D02*
X92032309Y-75601283D01*
X92032309Y-75601283D02*
X92389452Y-75767950D01*
X92389452Y-75767950D02*
X92032309Y-75934616D01*
X92032309Y-75934616D02*
X92532309Y-75934616D01*
X92198976Y-76386998D02*
X92532309Y-76386998D01*
X92008500Y-76267950D02*
X92365642Y-76148903D01*
X92365642Y-76148903D02*
X92365642Y-76458426D01*
X94367690Y-103813002D02*
X94605785Y-103979668D01*
X94367690Y-104098716D02*
X94867690Y-104098716D01*
X94867690Y-104098716D02*
X94867690Y-103908240D01*
X94867690Y-103908240D02*
X94843880Y-103860621D01*
X94843880Y-103860621D02*
X94820071Y-103836811D01*
X94820071Y-103836811D02*
X94772452Y-103813002D01*
X94772452Y-103813002D02*
X94701023Y-103813002D01*
X94701023Y-103813002D02*
X94653404Y-103836811D01*
X94653404Y-103836811D02*
X94629595Y-103860621D01*
X94629595Y-103860621D02*
X94605785Y-103908240D01*
X94605785Y-103908240D02*
X94605785Y-104098716D01*
X94367690Y-103646335D02*
X94701023Y-103384430D01*
X94701023Y-103646335D02*
X94367690Y-103384430D01*
X94367690Y-102932049D02*
X94367690Y-103217763D01*
X94367690Y-103074906D02*
X94867690Y-103074906D01*
X94867690Y-103074906D02*
X94796261Y-103122525D01*
X94796261Y-103122525D02*
X94748642Y-103170144D01*
X94748642Y-103170144D02*
X94724833Y-103217763D01*
X85632309Y-75601283D02*
X85132309Y-75601283D01*
X85132309Y-75601283D02*
X85489452Y-75767950D01*
X85489452Y-75767950D02*
X85132309Y-75934616D01*
X85132309Y-75934616D02*
X85632309Y-75934616D01*
X85632309Y-76434617D02*
X85632309Y-76148903D01*
X85632309Y-76291760D02*
X85132309Y-76291760D01*
X85132309Y-76291760D02*
X85203738Y-76244141D01*
X85203738Y-76244141D02*
X85251357Y-76196522D01*
X85251357Y-76196522D02*
X85275166Y-76148903D01*
X98932309Y-75529855D02*
X98932309Y-75815569D01*
X99432309Y-75672712D02*
X98932309Y-75672712D01*
X99432309Y-75934616D02*
X99098976Y-76196521D01*
X99098976Y-75934616D02*
X99432309Y-76196521D01*
X98932309Y-76339378D02*
X98932309Y-76648902D01*
X98932309Y-76648902D02*
X99122785Y-76482235D01*
X99122785Y-76482235D02*
X99122785Y-76553664D01*
X99122785Y-76553664D02*
X99146595Y-76601283D01*
X99146595Y-76601283D02*
X99170404Y-76625092D01*
X99170404Y-76625092D02*
X99218023Y-76648902D01*
X99218023Y-76648902D02*
X99337071Y-76648902D01*
X99337071Y-76648902D02*
X99384690Y-76625092D01*
X99384690Y-76625092D02*
X99408500Y-76601283D01*
X99408500Y-76601283D02*
X99432309Y-76553664D01*
X99432309Y-76553664D02*
X99432309Y-76410807D01*
X99432309Y-76410807D02*
X99408500Y-76363188D01*
X99408500Y-76363188D02*
X99384690Y-76339378D01*
X82832309Y-75529855D02*
X83332309Y-75696521D01*
X83332309Y-75696521D02*
X82832309Y-75863188D01*
X83332309Y-76029854D02*
X82832309Y-76029854D01*
X83022785Y-76029854D02*
X82998976Y-76077473D01*
X82998976Y-76077473D02*
X82998976Y-76172711D01*
X82998976Y-76172711D02*
X83022785Y-76220330D01*
X83022785Y-76220330D02*
X83046595Y-76244140D01*
X83046595Y-76244140D02*
X83094214Y-76267949D01*
X83094214Y-76267949D02*
X83237071Y-76267949D01*
X83237071Y-76267949D02*
X83284690Y-76244140D01*
X83284690Y-76244140D02*
X83308500Y-76220330D01*
X83308500Y-76220330D02*
X83332309Y-76172711D01*
X83332309Y-76172711D02*
X83332309Y-76077473D01*
X83332309Y-76077473D02*
X83308500Y-76029854D01*
X83332309Y-76696521D02*
X83070404Y-76696521D01*
X83070404Y-76696521D02*
X83022785Y-76672711D01*
X83022785Y-76672711D02*
X82998976Y-76625092D01*
X82998976Y-76625092D02*
X82998976Y-76529854D01*
X82998976Y-76529854D02*
X83022785Y-76482235D01*
X83308500Y-76696521D02*
X83332309Y-76648902D01*
X83332309Y-76648902D02*
X83332309Y-76529854D01*
X83332309Y-76529854D02*
X83308500Y-76482235D01*
X83308500Y-76482235D02*
X83260880Y-76458426D01*
X83260880Y-76458426D02*
X83213261Y-76458426D01*
X83213261Y-76458426D02*
X83165642Y-76482235D01*
X83165642Y-76482235D02*
X83141833Y-76529854D01*
X83141833Y-76529854D02*
X83141833Y-76648902D01*
X83141833Y-76648902D02*
X83118023Y-76696521D01*
X82998976Y-76863188D02*
X82998976Y-77053664D01*
X82832309Y-76934616D02*
X83260880Y-76934616D01*
X83260880Y-76934616D02*
X83308500Y-76958426D01*
X83308500Y-76958426D02*
X83332309Y-77006045D01*
X83332309Y-77006045D02*
X83332309Y-77053664D01*
D10*
X77151535Y-92588566D02*
X77218202Y-92555233D01*
X77218202Y-92555233D02*
X77318202Y-92555233D01*
X77318202Y-92555233D02*
X77418202Y-92588566D01*
X77418202Y-92588566D02*
X77484869Y-92655233D01*
X77484869Y-92655233D02*
X77518202Y-92721900D01*
X77518202Y-92721900D02*
X77551535Y-92855233D01*
X77551535Y-92855233D02*
X77551535Y-92955233D01*
X77551535Y-92955233D02*
X77518202Y-93088566D01*
X77518202Y-93088566D02*
X77484869Y-93155233D01*
X77484869Y-93155233D02*
X77418202Y-93221900D01*
X77418202Y-93221900D02*
X77318202Y-93255233D01*
X77318202Y-93255233D02*
X77251535Y-93255233D01*
X77251535Y-93255233D02*
X77151535Y-93221900D01*
X77151535Y-93221900D02*
X77118202Y-93188566D01*
X77118202Y-93188566D02*
X77118202Y-92955233D01*
X77118202Y-92955233D02*
X77251535Y-92955233D01*
X76818202Y-92788566D02*
X76818202Y-93255233D01*
X76818202Y-92855233D02*
X76784869Y-92821900D01*
X76784869Y-92821900D02*
X76718202Y-92788566D01*
X76718202Y-92788566D02*
X76618202Y-92788566D01*
X76618202Y-92788566D02*
X76551535Y-92821900D01*
X76551535Y-92821900D02*
X76518202Y-92888566D01*
X76518202Y-92888566D02*
X76518202Y-93255233D01*
X75884869Y-93255233D02*
X75884869Y-92555233D01*
X75884869Y-93221900D02*
X75951536Y-93255233D01*
X75951536Y-93255233D02*
X76084869Y-93255233D01*
X76084869Y-93255233D02*
X76151536Y-93221900D01*
X76151536Y-93221900D02*
X76184869Y-93188566D01*
X76184869Y-93188566D02*
X76218202Y-93121900D01*
X76218202Y-93121900D02*
X76218202Y-92921900D01*
X76218202Y-92921900D02*
X76184869Y-92855233D01*
X76184869Y-92855233D02*
X76151536Y-92821900D01*
X76151536Y-92821900D02*
X76084869Y-92788566D01*
X76084869Y-92788566D02*
X75951536Y-92788566D01*
X75951536Y-92788566D02*
X75884869Y-92821900D01*
D12*
X99654675Y-85302568D02*
X98654675Y-85302568D01*
X98654675Y-85302568D02*
X98654675Y-85540663D01*
X98654675Y-85540663D02*
X98702294Y-85683520D01*
X98702294Y-85683520D02*
X98797532Y-85778758D01*
X98797532Y-85778758D02*
X98892770Y-85826377D01*
X98892770Y-85826377D02*
X99083246Y-85873996D01*
X99083246Y-85873996D02*
X99226103Y-85873996D01*
X99226103Y-85873996D02*
X99416579Y-85826377D01*
X99416579Y-85826377D02*
X99511817Y-85778758D01*
X99511817Y-85778758D02*
X99607056Y-85683520D01*
X99607056Y-85683520D02*
X99654675Y-85540663D01*
X99654675Y-85540663D02*
X99654675Y-85302568D01*
X99607056Y-86683520D02*
X99654675Y-86588282D01*
X99654675Y-86588282D02*
X99654675Y-86397806D01*
X99654675Y-86397806D02*
X99607056Y-86302568D01*
X99607056Y-86302568D02*
X99511817Y-86254949D01*
X99511817Y-86254949D02*
X99130865Y-86254949D01*
X99130865Y-86254949D02*
X99035627Y-86302568D01*
X99035627Y-86302568D02*
X98988008Y-86397806D01*
X98988008Y-86397806D02*
X98988008Y-86588282D01*
X98988008Y-86588282D02*
X99035627Y-86683520D01*
X99035627Y-86683520D02*
X99130865Y-86731139D01*
X99130865Y-86731139D02*
X99226103Y-86731139D01*
X99226103Y-86731139D02*
X99321341Y-86254949D01*
X99607056Y-87112092D02*
X99654675Y-87207330D01*
X99654675Y-87207330D02*
X99654675Y-87397806D01*
X99654675Y-87397806D02*
X99607056Y-87493044D01*
X99607056Y-87493044D02*
X99511817Y-87540663D01*
X99511817Y-87540663D02*
X99464198Y-87540663D01*
X99464198Y-87540663D02*
X99368960Y-87493044D01*
X99368960Y-87493044D02*
X99321341Y-87397806D01*
X99321341Y-87397806D02*
X99321341Y-87254949D01*
X99321341Y-87254949D02*
X99273722Y-87159711D01*
X99273722Y-87159711D02*
X99178484Y-87112092D01*
X99178484Y-87112092D02*
X99130865Y-87112092D01*
X99130865Y-87112092D02*
X99035627Y-87159711D01*
X99035627Y-87159711D02*
X98988008Y-87254949D01*
X98988008Y-87254949D02*
X98988008Y-87397806D01*
X98988008Y-87397806D02*
X99035627Y-87493044D01*
X99654675Y-87969235D02*
X98988008Y-87969235D01*
X98654675Y-87969235D02*
X98702294Y-87921616D01*
X98702294Y-87921616D02*
X98749913Y-87969235D01*
X98749913Y-87969235D02*
X98702294Y-88016854D01*
X98702294Y-88016854D02*
X98654675Y-87969235D01*
X98654675Y-87969235D02*
X98749913Y-87969235D01*
X98988008Y-88873996D02*
X99797532Y-88873996D01*
X99797532Y-88873996D02*
X99892770Y-88826377D01*
X99892770Y-88826377D02*
X99940389Y-88778758D01*
X99940389Y-88778758D02*
X99988008Y-88683520D01*
X99988008Y-88683520D02*
X99988008Y-88540663D01*
X99988008Y-88540663D02*
X99940389Y-88445425D01*
X99607056Y-88873996D02*
X99654675Y-88778758D01*
X99654675Y-88778758D02*
X99654675Y-88588282D01*
X99654675Y-88588282D02*
X99607056Y-88493044D01*
X99607056Y-88493044D02*
X99559436Y-88445425D01*
X99559436Y-88445425D02*
X99464198Y-88397806D01*
X99464198Y-88397806D02*
X99178484Y-88397806D01*
X99178484Y-88397806D02*
X99083246Y-88445425D01*
X99083246Y-88445425D02*
X99035627Y-88493044D01*
X99035627Y-88493044D02*
X98988008Y-88588282D01*
X98988008Y-88588282D02*
X98988008Y-88778758D01*
X98988008Y-88778758D02*
X99035627Y-88873996D01*
X98988008Y-89350187D02*
X99654675Y-89350187D01*
X99083246Y-89350187D02*
X99035627Y-89397806D01*
X99035627Y-89397806D02*
X98988008Y-89493044D01*
X98988008Y-89493044D02*
X98988008Y-89635901D01*
X98988008Y-89635901D02*
X99035627Y-89731139D01*
X99035627Y-89731139D02*
X99130865Y-89778758D01*
X99130865Y-89778758D02*
X99654675Y-89778758D01*
X99607056Y-90635901D02*
X99654675Y-90540663D01*
X99654675Y-90540663D02*
X99654675Y-90350187D01*
X99654675Y-90350187D02*
X99607056Y-90254949D01*
X99607056Y-90254949D02*
X99511817Y-90207330D01*
X99511817Y-90207330D02*
X99130865Y-90207330D01*
X99130865Y-90207330D02*
X99035627Y-90254949D01*
X99035627Y-90254949D02*
X98988008Y-90350187D01*
X98988008Y-90350187D02*
X98988008Y-90540663D01*
X98988008Y-90540663D02*
X99035627Y-90635901D01*
X99035627Y-90635901D02*
X99130865Y-90683520D01*
X99130865Y-90683520D02*
X99226103Y-90683520D01*
X99226103Y-90683520D02*
X99321341Y-90207330D01*
X99654675Y-91540663D02*
X98654675Y-91540663D01*
X99607056Y-91540663D02*
X99654675Y-91445425D01*
X99654675Y-91445425D02*
X99654675Y-91254949D01*
X99654675Y-91254949D02*
X99607056Y-91159711D01*
X99607056Y-91159711D02*
X99559436Y-91112092D01*
X99559436Y-91112092D02*
X99464198Y-91064473D01*
X99464198Y-91064473D02*
X99178484Y-91064473D01*
X99178484Y-91064473D02*
X99083246Y-91112092D01*
X99083246Y-91112092D02*
X99035627Y-91159711D01*
X99035627Y-91159711D02*
X98988008Y-91254949D01*
X98988008Y-91254949D02*
X98988008Y-91445425D01*
X98988008Y-91445425D02*
X99035627Y-91540663D01*
X99654675Y-92778759D02*
X98654675Y-92778759D01*
X99035627Y-92778759D02*
X98988008Y-92873997D01*
X98988008Y-92873997D02*
X98988008Y-93064473D01*
X98988008Y-93064473D02*
X99035627Y-93159711D01*
X99035627Y-93159711D02*
X99083246Y-93207330D01*
X99083246Y-93207330D02*
X99178484Y-93254949D01*
X99178484Y-93254949D02*
X99464198Y-93254949D01*
X99464198Y-93254949D02*
X99559436Y-93207330D01*
X99559436Y-93207330D02*
X99607056Y-93159711D01*
X99607056Y-93159711D02*
X99654675Y-93064473D01*
X99654675Y-93064473D02*
X99654675Y-92873997D01*
X99654675Y-92873997D02*
X99607056Y-92778759D01*
X98988008Y-93588283D02*
X99654675Y-93826378D01*
X98988008Y-94064473D02*
X99654675Y-93826378D01*
X99654675Y-93826378D02*
X99892770Y-93731140D01*
X99892770Y-93731140D02*
X99940389Y-93683521D01*
X99940389Y-93683521D02*
X99988008Y-93588283D01*
X99559436Y-95207331D02*
X99607056Y-95254950D01*
X99607056Y-95254950D02*
X99654675Y-95207331D01*
X99654675Y-95207331D02*
X99607056Y-95159712D01*
X99607056Y-95159712D02*
X99559436Y-95207331D01*
X99559436Y-95207331D02*
X99654675Y-95207331D01*
X99035627Y-95207331D02*
X99083246Y-95254950D01*
X99083246Y-95254950D02*
X99130865Y-95207331D01*
X99130865Y-95207331D02*
X99083246Y-95159712D01*
X99083246Y-95159712D02*
X99035627Y-95207331D01*
X99035627Y-95207331D02*
X99130865Y-95207331D01*
X101264619Y-85302568D02*
X100264619Y-85302568D01*
X100264619Y-85302568D02*
X100978904Y-85635901D01*
X100978904Y-85635901D02*
X100264619Y-85969234D01*
X100264619Y-85969234D02*
X101264619Y-85969234D01*
X101169380Y-86445425D02*
X101217000Y-86493044D01*
X101217000Y-86493044D02*
X101264619Y-86445425D01*
X101264619Y-86445425D02*
X101217000Y-86397806D01*
X101217000Y-86397806D02*
X101169380Y-86445425D01*
X101169380Y-86445425D02*
X101264619Y-86445425D01*
X101264619Y-86921615D02*
X100264619Y-86921615D01*
X100264619Y-86921615D02*
X100264619Y-87302567D01*
X100264619Y-87302567D02*
X100312238Y-87397805D01*
X100312238Y-87397805D02*
X100359857Y-87445424D01*
X100359857Y-87445424D02*
X100455095Y-87493043D01*
X100455095Y-87493043D02*
X100597952Y-87493043D01*
X100597952Y-87493043D02*
X100693190Y-87445424D01*
X100693190Y-87445424D02*
X100740809Y-87397805D01*
X100740809Y-87397805D02*
X100788428Y-87302567D01*
X100788428Y-87302567D02*
X100788428Y-86921615D01*
X101264619Y-88064472D02*
X101217000Y-87969234D01*
X101217000Y-87969234D02*
X101169380Y-87921615D01*
X101169380Y-87921615D02*
X101074142Y-87873996D01*
X101074142Y-87873996D02*
X100788428Y-87873996D01*
X100788428Y-87873996D02*
X100693190Y-87921615D01*
X100693190Y-87921615D02*
X100645571Y-87969234D01*
X100645571Y-87969234D02*
X100597952Y-88064472D01*
X100597952Y-88064472D02*
X100597952Y-88207329D01*
X100597952Y-88207329D02*
X100645571Y-88302567D01*
X100645571Y-88302567D02*
X100693190Y-88350186D01*
X100693190Y-88350186D02*
X100788428Y-88397805D01*
X100788428Y-88397805D02*
X101074142Y-88397805D01*
X101074142Y-88397805D02*
X101169380Y-88350186D01*
X101169380Y-88350186D02*
X101217000Y-88302567D01*
X101217000Y-88302567D02*
X101264619Y-88207329D01*
X101264619Y-88207329D02*
X101264619Y-88064472D01*
X101264619Y-88826377D02*
X100597952Y-88826377D01*
X100693190Y-88826377D02*
X100645571Y-88873996D01*
X100645571Y-88873996D02*
X100597952Y-88969234D01*
X100597952Y-88969234D02*
X100597952Y-89112091D01*
X100597952Y-89112091D02*
X100645571Y-89207329D01*
X100645571Y-89207329D02*
X100740809Y-89254948D01*
X100740809Y-89254948D02*
X101264619Y-89254948D01*
X100740809Y-89254948D02*
X100645571Y-89302567D01*
X100645571Y-89302567D02*
X100597952Y-89397805D01*
X100597952Y-89397805D02*
X100597952Y-89540662D01*
X100597952Y-89540662D02*
X100645571Y-89635901D01*
X100645571Y-89635901D02*
X100740809Y-89683520D01*
X100740809Y-89683520D02*
X101264619Y-89683520D01*
X101264619Y-90159710D02*
X100597952Y-90159710D01*
X100693190Y-90159710D02*
X100645571Y-90207329D01*
X100645571Y-90207329D02*
X100597952Y-90302567D01*
X100597952Y-90302567D02*
X100597952Y-90445424D01*
X100597952Y-90445424D02*
X100645571Y-90540662D01*
X100645571Y-90540662D02*
X100740809Y-90588281D01*
X100740809Y-90588281D02*
X101264619Y-90588281D01*
X100740809Y-90588281D02*
X100645571Y-90635900D01*
X100645571Y-90635900D02*
X100597952Y-90731138D01*
X100597952Y-90731138D02*
X100597952Y-90873995D01*
X100597952Y-90873995D02*
X100645571Y-90969234D01*
X100645571Y-90969234D02*
X100740809Y-91016853D01*
X100740809Y-91016853D02*
X101264619Y-91016853D01*
X101217000Y-91873995D02*
X101264619Y-91778757D01*
X101264619Y-91778757D02*
X101264619Y-91588281D01*
X101264619Y-91588281D02*
X101217000Y-91493043D01*
X101217000Y-91493043D02*
X101121761Y-91445424D01*
X101121761Y-91445424D02*
X100740809Y-91445424D01*
X100740809Y-91445424D02*
X100645571Y-91493043D01*
X100645571Y-91493043D02*
X100597952Y-91588281D01*
X100597952Y-91588281D02*
X100597952Y-91778757D01*
X100597952Y-91778757D02*
X100645571Y-91873995D01*
X100645571Y-91873995D02*
X100740809Y-91921614D01*
X100740809Y-91921614D02*
X100836047Y-91921614D01*
X100836047Y-91921614D02*
X100931285Y-91445424D01*
X101264619Y-92350186D02*
X100597952Y-92350186D01*
X100788428Y-92350186D02*
X100693190Y-92397805D01*
X100693190Y-92397805D02*
X100645571Y-92445424D01*
X100645571Y-92445424D02*
X100597952Y-92540662D01*
X100597952Y-92540662D02*
X100597952Y-92635900D01*
X100597952Y-92873996D02*
X101264619Y-93112091D01*
X100597952Y-93350186D02*
X101264619Y-93112091D01*
X101264619Y-93112091D02*
X101502714Y-93016853D01*
X101502714Y-93016853D02*
X101550333Y-92969234D01*
X101550333Y-92969234D02*
X101597952Y-92873996D01*
D11*
X85543880Y-103836811D02*
X85567690Y-103884430D01*
X85567690Y-103884430D02*
X85567690Y-103955859D01*
X85567690Y-103955859D02*
X85543880Y-104027287D01*
X85543880Y-104027287D02*
X85496261Y-104074906D01*
X85496261Y-104074906D02*
X85448642Y-104098716D01*
X85448642Y-104098716D02*
X85353404Y-104122525D01*
X85353404Y-104122525D02*
X85281976Y-104122525D01*
X85281976Y-104122525D02*
X85186738Y-104098716D01*
X85186738Y-104098716D02*
X85139119Y-104074906D01*
X85139119Y-104074906D02*
X85091500Y-104027287D01*
X85091500Y-104027287D02*
X85067690Y-103955859D01*
X85067690Y-103955859D02*
X85067690Y-103908240D01*
X85067690Y-103908240D02*
X85091500Y-103836811D01*
X85091500Y-103836811D02*
X85115309Y-103813002D01*
X85115309Y-103813002D02*
X85281976Y-103813002D01*
X85281976Y-103813002D02*
X85281976Y-103908240D01*
X85401023Y-103598716D02*
X85067690Y-103598716D01*
X85353404Y-103598716D02*
X85377214Y-103574906D01*
X85377214Y-103574906D02*
X85401023Y-103527287D01*
X85401023Y-103527287D02*
X85401023Y-103455859D01*
X85401023Y-103455859D02*
X85377214Y-103408240D01*
X85377214Y-103408240D02*
X85329595Y-103384430D01*
X85329595Y-103384430D02*
X85067690Y-103384430D01*
X85067690Y-102932049D02*
X85567690Y-102932049D01*
X85091500Y-102932049D02*
X85067690Y-102979668D01*
X85067690Y-102979668D02*
X85067690Y-103074906D01*
X85067690Y-103074906D02*
X85091500Y-103122525D01*
X85091500Y-103122525D02*
X85115309Y-103146335D01*
X85115309Y-103146335D02*
X85162928Y-103170144D01*
X85162928Y-103170144D02*
X85305785Y-103170144D01*
X85305785Y-103170144D02*
X85353404Y-103146335D01*
X85353404Y-103146335D02*
X85377214Y-103122525D01*
X85377214Y-103122525D02*
X85401023Y-103074906D01*
X85401023Y-103074906D02*
X85401023Y-102979668D01*
X85401023Y-102979668D02*
X85377214Y-102932049D01*
X92543880Y-103836811D02*
X92567690Y-103884430D01*
X92567690Y-103884430D02*
X92567690Y-103955859D01*
X92567690Y-103955859D02*
X92543880Y-104027287D01*
X92543880Y-104027287D02*
X92496261Y-104074906D01*
X92496261Y-104074906D02*
X92448642Y-104098716D01*
X92448642Y-104098716D02*
X92353404Y-104122525D01*
X92353404Y-104122525D02*
X92281976Y-104122525D01*
X92281976Y-104122525D02*
X92186738Y-104098716D01*
X92186738Y-104098716D02*
X92139119Y-104074906D01*
X92139119Y-104074906D02*
X92091500Y-104027287D01*
X92091500Y-104027287D02*
X92067690Y-103955859D01*
X92067690Y-103955859D02*
X92067690Y-103908240D01*
X92067690Y-103908240D02*
X92091500Y-103836811D01*
X92091500Y-103836811D02*
X92115309Y-103813002D01*
X92115309Y-103813002D02*
X92281976Y-103813002D01*
X92281976Y-103813002D02*
X92281976Y-103908240D01*
X92401023Y-103598716D02*
X92067690Y-103598716D01*
X92353404Y-103598716D02*
X92377214Y-103574906D01*
X92377214Y-103574906D02*
X92401023Y-103527287D01*
X92401023Y-103527287D02*
X92401023Y-103455859D01*
X92401023Y-103455859D02*
X92377214Y-103408240D01*
X92377214Y-103408240D02*
X92329595Y-103384430D01*
X92329595Y-103384430D02*
X92067690Y-103384430D01*
X92067690Y-102932049D02*
X92567690Y-102932049D01*
X92091500Y-102932049D02*
X92067690Y-102979668D01*
X92067690Y-102979668D02*
X92067690Y-103074906D01*
X92067690Y-103074906D02*
X92091500Y-103122525D01*
X92091500Y-103122525D02*
X92115309Y-103146335D01*
X92115309Y-103146335D02*
X92162928Y-103170144D01*
X92162928Y-103170144D02*
X92305785Y-103170144D01*
X92305785Y-103170144D02*
X92353404Y-103146335D01*
X92353404Y-103146335D02*
X92377214Y-103122525D01*
X92377214Y-103122525D02*
X92401023Y-103074906D01*
X92401023Y-103074906D02*
X92401023Y-102979668D01*
X92401023Y-102979668D02*
X92377214Y-102932049D01*
X87932309Y-75601283D02*
X87432309Y-75601283D01*
X87432309Y-75601283D02*
X87789452Y-75767950D01*
X87789452Y-75767950D02*
X87432309Y-75934616D01*
X87432309Y-75934616D02*
X87932309Y-75934616D01*
X87479928Y-76148903D02*
X87456119Y-76172712D01*
X87456119Y-76172712D02*
X87432309Y-76220331D01*
X87432309Y-76220331D02*
X87432309Y-76339379D01*
X87432309Y-76339379D02*
X87456119Y-76386998D01*
X87456119Y-76386998D02*
X87479928Y-76410807D01*
X87479928Y-76410807D02*
X87527547Y-76434617D01*
X87527547Y-76434617D02*
X87575166Y-76434617D01*
X87575166Y-76434617D02*
X87646595Y-76410807D01*
X87646595Y-76410807D02*
X87932309Y-76125093D01*
X87932309Y-76125093D02*
X87932309Y-76434617D01*
X94784690Y-75886997D02*
X94808500Y-75863188D01*
X94808500Y-75863188D02*
X94832309Y-75791759D01*
X94832309Y-75791759D02*
X94832309Y-75744140D01*
X94832309Y-75744140D02*
X94808500Y-75672712D01*
X94808500Y-75672712D02*
X94760880Y-75625093D01*
X94760880Y-75625093D02*
X94713261Y-75601283D01*
X94713261Y-75601283D02*
X94618023Y-75577474D01*
X94618023Y-75577474D02*
X94546595Y-75577474D01*
X94546595Y-75577474D02*
X94451357Y-75601283D01*
X94451357Y-75601283D02*
X94403738Y-75625093D01*
X94403738Y-75625093D02*
X94356119Y-75672712D01*
X94356119Y-75672712D02*
X94332309Y-75744140D01*
X94332309Y-75744140D02*
X94332309Y-75791759D01*
X94332309Y-75791759D02*
X94356119Y-75863188D01*
X94356119Y-75863188D02*
X94379928Y-75886997D01*
X94498976Y-76315569D02*
X94832309Y-76315569D01*
X94498976Y-76101283D02*
X94760880Y-76101283D01*
X94760880Y-76101283D02*
X94808500Y-76125093D01*
X94808500Y-76125093D02*
X94832309Y-76172712D01*
X94832309Y-76172712D02*
X94832309Y-76244140D01*
X94832309Y-76244140D02*
X94808500Y-76291759D01*
X94808500Y-76291759D02*
X94784690Y-76315569D01*
X94832309Y-76553664D02*
X94498976Y-76553664D01*
X94594214Y-76553664D02*
X94546595Y-76577474D01*
X94546595Y-76577474D02*
X94522785Y-76601283D01*
X94522785Y-76601283D02*
X94498976Y-76648902D01*
X94498976Y-76648902D02*
X94498976Y-76696521D01*
X94832309Y-76863188D02*
X94498976Y-76863188D01*
X94594214Y-76863188D02*
X94546595Y-76886998D01*
X94546595Y-76886998D02*
X94522785Y-76910807D01*
X94522785Y-76910807D02*
X94498976Y-76958426D01*
X94498976Y-76958426D02*
X94498976Y-77006045D01*
D10*
X77134869Y-86855233D02*
X77468202Y-86855233D01*
X77468202Y-86855233D02*
X77501535Y-87188566D01*
X77501535Y-87188566D02*
X77468202Y-87155233D01*
X77468202Y-87155233D02*
X77401535Y-87121900D01*
X77401535Y-87121900D02*
X77234869Y-87121900D01*
X77234869Y-87121900D02*
X77168202Y-87155233D01*
X77168202Y-87155233D02*
X77134869Y-87188566D01*
X77134869Y-87188566D02*
X77101535Y-87255233D01*
X77101535Y-87255233D02*
X77101535Y-87421900D01*
X77101535Y-87421900D02*
X77134869Y-87488566D01*
X77134869Y-87488566D02*
X77168202Y-87521900D01*
X77168202Y-87521900D02*
X77234869Y-87555233D01*
X77234869Y-87555233D02*
X77401535Y-87555233D01*
X77401535Y-87555233D02*
X77468202Y-87521900D01*
X77468202Y-87521900D02*
X77501535Y-87488566D01*
X76901535Y-86855233D02*
X76668202Y-87555233D01*
X76668202Y-87555233D02*
X76434868Y-86855233D01*
D11*
X90232309Y-75601283D02*
X89732309Y-75601283D01*
X89732309Y-75601283D02*
X90089452Y-75767950D01*
X90089452Y-75767950D02*
X89732309Y-75934616D01*
X89732309Y-75934616D02*
X90232309Y-75934616D01*
X89732309Y-76125093D02*
X89732309Y-76434617D01*
X89732309Y-76434617D02*
X89922785Y-76267950D01*
X89922785Y-76267950D02*
X89922785Y-76339379D01*
X89922785Y-76339379D02*
X89946595Y-76386998D01*
X89946595Y-76386998D02*
X89970404Y-76410807D01*
X89970404Y-76410807D02*
X90018023Y-76434617D01*
X90018023Y-76434617D02*
X90137071Y-76434617D01*
X90137071Y-76434617D02*
X90184690Y-76410807D01*
X90184690Y-76410807D02*
X90208500Y-76386998D01*
X90208500Y-76386998D02*
X90232309Y-76339379D01*
X90232309Y-76339379D02*
X90232309Y-76196522D01*
X90232309Y-76196522D02*
X90208500Y-76148903D01*
X90208500Y-76148903D02*
X90184690Y-76125093D01*
X85001023Y-97984430D02*
X84667690Y-97984430D01*
X85191500Y-98103478D02*
X84834357Y-98222525D01*
X84834357Y-98222525D02*
X84834357Y-97913002D01*
X84715309Y-97722526D02*
X84691500Y-97698716D01*
X84691500Y-97698716D02*
X84667690Y-97722526D01*
X84667690Y-97722526D02*
X84691500Y-97746335D01*
X84691500Y-97746335D02*
X84715309Y-97722526D01*
X84715309Y-97722526D02*
X84667690Y-97722526D01*
X85167690Y-97246336D02*
X85167690Y-97484431D01*
X85167690Y-97484431D02*
X84929595Y-97508240D01*
X84929595Y-97508240D02*
X84953404Y-97484431D01*
X84953404Y-97484431D02*
X84977214Y-97436812D01*
X84977214Y-97436812D02*
X84977214Y-97317764D01*
X84977214Y-97317764D02*
X84953404Y-97270145D01*
X84953404Y-97270145D02*
X84929595Y-97246336D01*
X84929595Y-97246336D02*
X84881976Y-97222526D01*
X84881976Y-97222526D02*
X84762928Y-97222526D01*
X84762928Y-97222526D02*
X84715309Y-97246336D01*
X84715309Y-97246336D02*
X84691500Y-97270145D01*
X84691500Y-97270145D02*
X84667690Y-97317764D01*
X84667690Y-97317764D02*
X84667690Y-97436812D01*
X84667690Y-97436812D02*
X84691500Y-97484431D01*
X84691500Y-97484431D02*
X84715309Y-97508240D01*
X85167690Y-97079669D02*
X84667690Y-96913003D01*
X84667690Y-96913003D02*
X85167690Y-96746336D01*
X85167690Y-95960623D02*
X85167690Y-96198718D01*
X85167690Y-96198718D02*
X84929595Y-96222527D01*
X84929595Y-96222527D02*
X84953404Y-96198718D01*
X84953404Y-96198718D02*
X84977214Y-96151099D01*
X84977214Y-96151099D02*
X84977214Y-96032051D01*
X84977214Y-96032051D02*
X84953404Y-95984432D01*
X84953404Y-95984432D02*
X84929595Y-95960623D01*
X84929595Y-95960623D02*
X84881976Y-95936813D01*
X84881976Y-95936813D02*
X84762928Y-95936813D01*
X84762928Y-95936813D02*
X84715309Y-95960623D01*
X84715309Y-95960623D02*
X84691500Y-95984432D01*
X84691500Y-95984432D02*
X84667690Y-96032051D01*
X84667690Y-96032051D02*
X84667690Y-96151099D01*
X84667690Y-96151099D02*
X84691500Y-96198718D01*
X84691500Y-96198718D02*
X84715309Y-96222527D01*
X85167690Y-95793956D02*
X84667690Y-95627290D01*
X84667690Y-95627290D02*
X85167690Y-95460623D01*
X97132309Y-75886997D02*
X96894214Y-75720331D01*
X97132309Y-75601283D02*
X96632309Y-75601283D01*
X96632309Y-75601283D02*
X96632309Y-75791759D01*
X96632309Y-75791759D02*
X96656119Y-75839378D01*
X96656119Y-75839378D02*
X96679928Y-75863188D01*
X96679928Y-75863188D02*
X96727547Y-75886997D01*
X96727547Y-75886997D02*
X96798976Y-75886997D01*
X96798976Y-75886997D02*
X96846595Y-75863188D01*
X96846595Y-75863188D02*
X96870404Y-75839378D01*
X96870404Y-75839378D02*
X96894214Y-75791759D01*
X96894214Y-75791759D02*
X96894214Y-75601283D01*
X97132309Y-76053664D02*
X96798976Y-76315569D01*
X96798976Y-76053664D02*
X97132309Y-76315569D01*
X96632309Y-76458426D02*
X96632309Y-76767950D01*
X96632309Y-76767950D02*
X96822785Y-76601283D01*
X96822785Y-76601283D02*
X96822785Y-76672712D01*
X96822785Y-76672712D02*
X96846595Y-76720331D01*
X96846595Y-76720331D02*
X96870404Y-76744140D01*
X96870404Y-76744140D02*
X96918023Y-76767950D01*
X96918023Y-76767950D02*
X97037071Y-76767950D01*
X97037071Y-76767950D02*
X97084690Y-76744140D01*
X97084690Y-76744140D02*
X97108500Y-76720331D01*
X97108500Y-76720331D02*
X97132309Y-76672712D01*
X97132309Y-76672712D02*
X97132309Y-76529855D01*
X97132309Y-76529855D02*
X97108500Y-76482236D01*
X97108500Y-76482236D02*
X97084690Y-76458426D01*
X90791500Y-98222525D02*
X90767690Y-98151097D01*
X90767690Y-98151097D02*
X90767690Y-98032049D01*
X90767690Y-98032049D02*
X90791500Y-97984430D01*
X90791500Y-97984430D02*
X90815309Y-97960621D01*
X90815309Y-97960621D02*
X90862928Y-97936811D01*
X90862928Y-97936811D02*
X90910547Y-97936811D01*
X90910547Y-97936811D02*
X90958166Y-97960621D01*
X90958166Y-97960621D02*
X90981976Y-97984430D01*
X90981976Y-97984430D02*
X91005785Y-98032049D01*
X91005785Y-98032049D02*
X91029595Y-98127287D01*
X91029595Y-98127287D02*
X91053404Y-98174906D01*
X91053404Y-98174906D02*
X91077214Y-98198716D01*
X91077214Y-98198716D02*
X91124833Y-98222525D01*
X91124833Y-98222525D02*
X91172452Y-98222525D01*
X91172452Y-98222525D02*
X91220071Y-98198716D01*
X91220071Y-98198716D02*
X91243880Y-98174906D01*
X91243880Y-98174906D02*
X91267690Y-98127287D01*
X91267690Y-98127287D02*
X91267690Y-98008240D01*
X91267690Y-98008240D02*
X91243880Y-97936811D01*
X90767690Y-97508240D02*
X91267690Y-97508240D01*
X90791500Y-97508240D02*
X90767690Y-97555859D01*
X90767690Y-97555859D02*
X90767690Y-97651097D01*
X90767690Y-97651097D02*
X90791500Y-97698716D01*
X90791500Y-97698716D02*
X90815309Y-97722526D01*
X90815309Y-97722526D02*
X90862928Y-97746335D01*
X90862928Y-97746335D02*
X91005785Y-97746335D01*
X91005785Y-97746335D02*
X91053404Y-97722526D01*
X91053404Y-97722526D02*
X91077214Y-97698716D01*
X91077214Y-97698716D02*
X91101023Y-97651097D01*
X91101023Y-97651097D02*
X91101023Y-97555859D01*
X91101023Y-97555859D02*
X91077214Y-97508240D01*
X90767690Y-97055859D02*
X91029595Y-97055859D01*
X91029595Y-97055859D02*
X91077214Y-97079669D01*
X91077214Y-97079669D02*
X91101023Y-97127288D01*
X91101023Y-97127288D02*
X91101023Y-97222526D01*
X91101023Y-97222526D02*
X91077214Y-97270145D01*
X90791500Y-97055859D02*
X90767690Y-97103478D01*
X90767690Y-97103478D02*
X90767690Y-97222526D01*
X90767690Y-97222526D02*
X90791500Y-97270145D01*
X90791500Y-97270145D02*
X90839119Y-97293954D01*
X90839119Y-97293954D02*
X90886738Y-97293954D01*
X90886738Y-97293954D02*
X90934357Y-97270145D01*
X90934357Y-97270145D02*
X90958166Y-97222526D01*
X90958166Y-97222526D02*
X90958166Y-97103478D01*
X90958166Y-97103478D02*
X90981976Y-97055859D01*
X91220071Y-96841573D02*
X91243880Y-96817764D01*
X91243880Y-96817764D02*
X91267690Y-96770145D01*
X91267690Y-96770145D02*
X91267690Y-96651097D01*
X91267690Y-96651097D02*
X91243880Y-96603478D01*
X91243880Y-96603478D02*
X91220071Y-96579669D01*
X91220071Y-96579669D02*
X91172452Y-96555859D01*
X91172452Y-96555859D02*
X91124833Y-96555859D01*
X91124833Y-96555859D02*
X91053404Y-96579669D01*
X91053404Y-96579669D02*
X90767690Y-96865383D01*
X90767690Y-96865383D02*
X90767690Y-96555859D01*
X91029595Y-95793955D02*
X91005785Y-95722527D01*
X91005785Y-95722527D02*
X90981976Y-95698717D01*
X90981976Y-95698717D02*
X90934357Y-95674908D01*
X90934357Y-95674908D02*
X90862928Y-95674908D01*
X90862928Y-95674908D02*
X90815309Y-95698717D01*
X90815309Y-95698717D02*
X90791500Y-95722527D01*
X90791500Y-95722527D02*
X90767690Y-95770146D01*
X90767690Y-95770146D02*
X90767690Y-95960622D01*
X90767690Y-95960622D02*
X91267690Y-95960622D01*
X91267690Y-95960622D02*
X91267690Y-95793955D01*
X91267690Y-95793955D02*
X91243880Y-95746336D01*
X91243880Y-95746336D02*
X91220071Y-95722527D01*
X91220071Y-95722527D02*
X91172452Y-95698717D01*
X91172452Y-95698717D02*
X91124833Y-95698717D01*
X91124833Y-95698717D02*
X91077214Y-95722527D01*
X91077214Y-95722527D02*
X91053404Y-95746336D01*
X91053404Y-95746336D02*
X91029595Y-95793955D01*
X91029595Y-95793955D02*
X91029595Y-95960622D01*
X91101023Y-95246336D02*
X90767690Y-95246336D01*
X91101023Y-95460622D02*
X90839119Y-95460622D01*
X90839119Y-95460622D02*
X90791500Y-95436812D01*
X90791500Y-95436812D02*
X90767690Y-95389193D01*
X90767690Y-95389193D02*
X90767690Y-95317765D01*
X90767690Y-95317765D02*
X90791500Y-95270146D01*
X90791500Y-95270146D02*
X90815309Y-95246336D01*
X91101023Y-95055860D02*
X91101023Y-94793955D01*
X91101023Y-94793955D02*
X90767690Y-95055860D01*
X90767690Y-95055860D02*
X90767690Y-94793955D01*
X90958166Y-94603479D02*
X90958166Y-94222527D01*
X83367690Y-103860621D02*
X83367690Y-104098716D01*
X83367690Y-104098716D02*
X83129595Y-104122525D01*
X83129595Y-104122525D02*
X83153404Y-104098716D01*
X83153404Y-104098716D02*
X83177214Y-104051097D01*
X83177214Y-104051097D02*
X83177214Y-103932049D01*
X83177214Y-103932049D02*
X83153404Y-103884430D01*
X83153404Y-103884430D02*
X83129595Y-103860621D01*
X83129595Y-103860621D02*
X83081976Y-103836811D01*
X83081976Y-103836811D02*
X82962928Y-103836811D01*
X82962928Y-103836811D02*
X82915309Y-103860621D01*
X82915309Y-103860621D02*
X82891500Y-103884430D01*
X82891500Y-103884430D02*
X82867690Y-103932049D01*
X82867690Y-103932049D02*
X82867690Y-104051097D01*
X82867690Y-104051097D02*
X82891500Y-104098716D01*
X82891500Y-104098716D02*
X82915309Y-104122525D01*
X83367690Y-103693954D02*
X82867690Y-103527288D01*
X82867690Y-103527288D02*
X83367690Y-103360621D01*
X88791500Y-98222525D02*
X88767690Y-98151097D01*
X88767690Y-98151097D02*
X88767690Y-98032049D01*
X88767690Y-98032049D02*
X88791500Y-97984430D01*
X88791500Y-97984430D02*
X88815309Y-97960621D01*
X88815309Y-97960621D02*
X88862928Y-97936811D01*
X88862928Y-97936811D02*
X88910547Y-97936811D01*
X88910547Y-97936811D02*
X88958166Y-97960621D01*
X88958166Y-97960621D02*
X88981976Y-97984430D01*
X88981976Y-97984430D02*
X89005785Y-98032049D01*
X89005785Y-98032049D02*
X89029595Y-98127287D01*
X89029595Y-98127287D02*
X89053404Y-98174906D01*
X89053404Y-98174906D02*
X89077214Y-98198716D01*
X89077214Y-98198716D02*
X89124833Y-98222525D01*
X89124833Y-98222525D02*
X89172452Y-98222525D01*
X89172452Y-98222525D02*
X89220071Y-98198716D01*
X89220071Y-98198716D02*
X89243880Y-98174906D01*
X89243880Y-98174906D02*
X89267690Y-98127287D01*
X89267690Y-98127287D02*
X89267690Y-98008240D01*
X89267690Y-98008240D02*
X89243880Y-97936811D01*
X88791500Y-97508240D02*
X88767690Y-97555859D01*
X88767690Y-97555859D02*
X88767690Y-97651097D01*
X88767690Y-97651097D02*
X88791500Y-97698716D01*
X88791500Y-97698716D02*
X88815309Y-97722526D01*
X88815309Y-97722526D02*
X88862928Y-97746335D01*
X88862928Y-97746335D02*
X89005785Y-97746335D01*
X89005785Y-97746335D02*
X89053404Y-97722526D01*
X89053404Y-97722526D02*
X89077214Y-97698716D01*
X89077214Y-97698716D02*
X89101023Y-97651097D01*
X89101023Y-97651097D02*
X89101023Y-97555859D01*
X89101023Y-97555859D02*
X89077214Y-97508240D01*
X88767690Y-97222526D02*
X88791500Y-97270145D01*
X88791500Y-97270145D02*
X88839119Y-97293955D01*
X88839119Y-97293955D02*
X89267690Y-97293955D01*
X89220071Y-97055859D02*
X89243880Y-97032050D01*
X89243880Y-97032050D02*
X89267690Y-96984431D01*
X89267690Y-96984431D02*
X89267690Y-96865383D01*
X89267690Y-96865383D02*
X89243880Y-96817764D01*
X89243880Y-96817764D02*
X89220071Y-96793955D01*
X89220071Y-96793955D02*
X89172452Y-96770145D01*
X89172452Y-96770145D02*
X89124833Y-96770145D01*
X89124833Y-96770145D02*
X89053404Y-96793955D01*
X89053404Y-96793955D02*
X88767690Y-97079669D01*
X88767690Y-97079669D02*
X88767690Y-96770145D01*
X88767690Y-95936813D02*
X88767690Y-96174908D01*
X88767690Y-96174908D02*
X89267690Y-96174908D01*
X89029595Y-95770146D02*
X89029595Y-95603479D01*
X88767690Y-95532051D02*
X88767690Y-95770146D01*
X88767690Y-95770146D02*
X89267690Y-95770146D01*
X89267690Y-95770146D02*
X89267690Y-95532051D01*
X88767690Y-95317765D02*
X89267690Y-95317765D01*
X89267690Y-95317765D02*
X89267690Y-95198717D01*
X89267690Y-95198717D02*
X89243880Y-95127289D01*
X89243880Y-95127289D02*
X89196261Y-95079670D01*
X89196261Y-95079670D02*
X89148642Y-95055860D01*
X89148642Y-95055860D02*
X89053404Y-95032051D01*
X89053404Y-95032051D02*
X88981976Y-95032051D01*
X88981976Y-95032051D02*
X88886738Y-95055860D01*
X88886738Y-95055860D02*
X88839119Y-95079670D01*
X88839119Y-95079670D02*
X88791500Y-95127289D01*
X88791500Y-95127289D02*
X88767690Y-95198717D01*
X88767690Y-95198717D02*
X88767690Y-95317765D01*
X80556119Y-75863188D02*
X80532309Y-75815569D01*
X80532309Y-75815569D02*
X80532309Y-75744140D01*
X80532309Y-75744140D02*
X80556119Y-75672712D01*
X80556119Y-75672712D02*
X80603738Y-75625093D01*
X80603738Y-75625093D02*
X80651357Y-75601283D01*
X80651357Y-75601283D02*
X80746595Y-75577474D01*
X80746595Y-75577474D02*
X80818023Y-75577474D01*
X80818023Y-75577474D02*
X80913261Y-75601283D01*
X80913261Y-75601283D02*
X80960880Y-75625093D01*
X80960880Y-75625093D02*
X81008500Y-75672712D01*
X81008500Y-75672712D02*
X81032309Y-75744140D01*
X81032309Y-75744140D02*
X81032309Y-75791759D01*
X81032309Y-75791759D02*
X81008500Y-75863188D01*
X81008500Y-75863188D02*
X80984690Y-75886997D01*
X80984690Y-75886997D02*
X80818023Y-75886997D01*
X80818023Y-75886997D02*
X80818023Y-75791759D01*
X80698976Y-76101283D02*
X81032309Y-76101283D01*
X80746595Y-76101283D02*
X80722785Y-76125093D01*
X80722785Y-76125093D02*
X80698976Y-76172712D01*
X80698976Y-76172712D02*
X80698976Y-76244140D01*
X80698976Y-76244140D02*
X80722785Y-76291759D01*
X80722785Y-76291759D02*
X80770404Y-76315569D01*
X80770404Y-76315569D02*
X81032309Y-76315569D01*
X81032309Y-76767950D02*
X80532309Y-76767950D01*
X81008500Y-76767950D02*
X81032309Y-76720331D01*
X81032309Y-76720331D02*
X81032309Y-76625093D01*
X81032309Y-76625093D02*
X81008500Y-76577474D01*
X81008500Y-76577474D02*
X80984690Y-76553664D01*
X80984690Y-76553664D02*
X80937071Y-76529855D01*
X80937071Y-76529855D02*
X80794214Y-76529855D01*
X80794214Y-76529855D02*
X80746595Y-76553664D01*
X80746595Y-76553664D02*
X80722785Y-76577474D01*
X80722785Y-76577474D02*
X80698976Y-76625093D01*
X80698976Y-76625093D02*
X80698976Y-76720331D01*
X80698976Y-76720331D02*
X80722785Y-76767950D01*
X94767690Y-97913002D02*
X95005785Y-98079668D01*
X94767690Y-98198716D02*
X95267690Y-98198716D01*
X95267690Y-98198716D02*
X95267690Y-98008240D01*
X95267690Y-98008240D02*
X95243880Y-97960621D01*
X95243880Y-97960621D02*
X95220071Y-97936811D01*
X95220071Y-97936811D02*
X95172452Y-97913002D01*
X95172452Y-97913002D02*
X95101023Y-97913002D01*
X95101023Y-97913002D02*
X95053404Y-97936811D01*
X95053404Y-97936811D02*
X95029595Y-97960621D01*
X95029595Y-97960621D02*
X95005785Y-98008240D01*
X95005785Y-98008240D02*
X95005785Y-98198716D01*
X94767690Y-97746335D02*
X95101023Y-97484430D01*
X95101023Y-97746335D02*
X94767690Y-97484430D01*
X95220071Y-97317763D02*
X95243880Y-97293954D01*
X95243880Y-97293954D02*
X95267690Y-97246335D01*
X95267690Y-97246335D02*
X95267690Y-97127287D01*
X95267690Y-97127287D02*
X95243880Y-97079668D01*
X95243880Y-97079668D02*
X95220071Y-97055859D01*
X95220071Y-97055859D02*
X95172452Y-97032049D01*
X95172452Y-97032049D02*
X95124833Y-97032049D01*
X95124833Y-97032049D02*
X95053404Y-97055859D01*
X95053404Y-97055859D02*
X94767690Y-97341573D01*
X94767690Y-97341573D02*
X94767690Y-97032049D01*
X94767690Y-96436812D02*
X95267690Y-96436812D01*
X95267690Y-96436812D02*
X95267690Y-96246336D01*
X95267690Y-96246336D02*
X95243880Y-96198717D01*
X95243880Y-96198717D02*
X95220071Y-96174907D01*
X95220071Y-96174907D02*
X95172452Y-96151098D01*
X95172452Y-96151098D02*
X95101023Y-96151098D01*
X95101023Y-96151098D02*
X95053404Y-96174907D01*
X95053404Y-96174907D02*
X95029595Y-96198717D01*
X95029595Y-96198717D02*
X95005785Y-96246336D01*
X95005785Y-96246336D02*
X95005785Y-96436812D01*
X94767690Y-95936812D02*
X95267690Y-95936812D01*
X95267690Y-95603479D02*
X95267690Y-95508241D01*
X95267690Y-95508241D02*
X95243880Y-95460622D01*
X95243880Y-95460622D02*
X95196261Y-95413003D01*
X95196261Y-95413003D02*
X95101023Y-95389193D01*
X95101023Y-95389193D02*
X94934357Y-95389193D01*
X94934357Y-95389193D02*
X94839119Y-95413003D01*
X94839119Y-95413003D02*
X94791500Y-95460622D01*
X94791500Y-95460622D02*
X94767690Y-95508241D01*
X94767690Y-95508241D02*
X94767690Y-95603479D01*
X94767690Y-95603479D02*
X94791500Y-95651098D01*
X94791500Y-95651098D02*
X94839119Y-95698717D01*
X94839119Y-95698717D02*
X94934357Y-95722526D01*
X94934357Y-95722526D02*
X95101023Y-95722526D01*
X95101023Y-95722526D02*
X95196261Y-95698717D01*
X95196261Y-95698717D02*
X95243880Y-95651098D01*
X95243880Y-95651098D02*
X95267690Y-95603479D01*
X87767690Y-93284430D02*
X88267690Y-93284430D01*
X87791500Y-93284430D02*
X87767690Y-93332049D01*
X87767690Y-93332049D02*
X87767690Y-93427287D01*
X87767690Y-93427287D02*
X87791500Y-93474906D01*
X87791500Y-93474906D02*
X87815309Y-93498716D01*
X87815309Y-93498716D02*
X87862928Y-93522525D01*
X87862928Y-93522525D02*
X88005785Y-93522525D01*
X88005785Y-93522525D02*
X88053404Y-93498716D01*
X88053404Y-93498716D02*
X88077214Y-93474906D01*
X88077214Y-93474906D02*
X88101023Y-93427287D01*
X88101023Y-93427287D02*
X88101023Y-93332049D01*
X88101023Y-93332049D02*
X88077214Y-93284430D01*
X87767690Y-93046335D02*
X88101023Y-93046335D01*
X88267690Y-93046335D02*
X88243880Y-93070144D01*
X88243880Y-93070144D02*
X88220071Y-93046335D01*
X88220071Y-93046335D02*
X88243880Y-93022525D01*
X88243880Y-93022525D02*
X88267690Y-93046335D01*
X88267690Y-93046335D02*
X88220071Y-93046335D01*
X87767690Y-92736811D02*
X87791500Y-92784430D01*
X87791500Y-92784430D02*
X87815309Y-92808240D01*
X87815309Y-92808240D02*
X87862928Y-92832049D01*
X87862928Y-92832049D02*
X88005785Y-92832049D01*
X88005785Y-92832049D02*
X88053404Y-92808240D01*
X88053404Y-92808240D02*
X88077214Y-92784430D01*
X88077214Y-92784430D02*
X88101023Y-92736811D01*
X88101023Y-92736811D02*
X88101023Y-92665383D01*
X88101023Y-92665383D02*
X88077214Y-92617764D01*
X88077214Y-92617764D02*
X88053404Y-92593954D01*
X88053404Y-92593954D02*
X88005785Y-92570145D01*
X88005785Y-92570145D02*
X87862928Y-92570145D01*
X87862928Y-92570145D02*
X87815309Y-92593954D01*
X87815309Y-92593954D02*
X87791500Y-92617764D01*
X87791500Y-92617764D02*
X87767690Y-92665383D01*
X87767690Y-92665383D02*
X87767690Y-92736811D01*
X87791500Y-91760621D02*
X87767690Y-91808240D01*
X87767690Y-91808240D02*
X87767690Y-91903478D01*
X87767690Y-91903478D02*
X87791500Y-91951097D01*
X87791500Y-91951097D02*
X87815309Y-91974907D01*
X87815309Y-91974907D02*
X87862928Y-91998716D01*
X87862928Y-91998716D02*
X88005785Y-91998716D01*
X88005785Y-91998716D02*
X88053404Y-91974907D01*
X88053404Y-91974907D02*
X88077214Y-91951097D01*
X88077214Y-91951097D02*
X88101023Y-91903478D01*
X88101023Y-91903478D02*
X88101023Y-91808240D01*
X88101023Y-91808240D02*
X88077214Y-91760621D01*
X87767690Y-91474907D02*
X87791500Y-91522526D01*
X87791500Y-91522526D02*
X87839119Y-91546336D01*
X87839119Y-91546336D02*
X88267690Y-91546336D01*
X87767690Y-91284431D02*
X88267690Y-91284431D01*
X87958166Y-91236812D02*
X87767690Y-91093955D01*
X88101023Y-91093955D02*
X87910547Y-91284431D01*
X89767690Y-103813002D02*
X90005785Y-103979668D01*
X89767690Y-104098716D02*
X90267690Y-104098716D01*
X90267690Y-104098716D02*
X90267690Y-103908240D01*
X90267690Y-103908240D02*
X90243880Y-103860621D01*
X90243880Y-103860621D02*
X90220071Y-103836811D01*
X90220071Y-103836811D02*
X90172452Y-103813002D01*
X90172452Y-103813002D02*
X90101023Y-103813002D01*
X90101023Y-103813002D02*
X90053404Y-103836811D01*
X90053404Y-103836811D02*
X90029595Y-103860621D01*
X90029595Y-103860621D02*
X90005785Y-103908240D01*
X90005785Y-103908240D02*
X90005785Y-104098716D01*
X89767690Y-103646335D02*
X90101023Y-103384430D01*
X90101023Y-103646335D02*
X89767690Y-103384430D01*
X90101023Y-102979668D02*
X89767690Y-102979668D01*
X90291500Y-103098716D02*
X89934357Y-103217763D01*
X89934357Y-103217763D02*
X89934357Y-102908240D01*
D13*
%TO.C,G\u002A\u002A\u002A*%
G36*
X85254174Y-82806642D02*
G01*
X85275892Y-82816578D01*
X85278979Y-82821220D01*
X85294292Y-82848429D01*
X85318673Y-82894331D01*
X85349490Y-82953923D01*
X85384107Y-83022198D01*
X85395301Y-83044339D01*
X85438105Y-83125354D01*
X85479408Y-83195706D01*
X85523583Y-83261597D01*
X85575005Y-83329233D01*
X85638047Y-83404818D01*
X85717084Y-83494557D01*
X85766735Y-83551211D01*
X85810651Y-83605415D01*
X85837491Y-83645405D01*
X85849311Y-83674328D01*
X85848166Y-83695332D01*
X85844613Y-83699580D01*
X85819282Y-83714568D01*
X85775841Y-83733417D01*
X85721065Y-83753051D01*
X85662654Y-83773775D01*
X85528694Y-83836057D01*
X85415802Y-83911322D01*
X85326167Y-83997941D01*
X85261979Y-84094288D01*
X85251800Y-84113990D01*
X85230828Y-84151804D01*
X85215996Y-84174914D01*
X85200535Y-84189277D01*
X85184865Y-84187467D01*
X85166882Y-84164462D01*
X85142849Y-84117318D01*
X85132960Y-84095641D01*
X85077201Y-83942752D01*
X85036433Y-83772513D01*
X85012021Y-83591968D01*
X85005330Y-83408162D01*
X85005933Y-83380218D01*
X85013791Y-83265891D01*
X85031729Y-83158914D01*
X85061907Y-83048982D01*
X85106485Y-82925793D01*
X85154705Y-82803401D01*
X85208913Y-82802179D01*
X85217003Y-82802169D01*
X85254174Y-82806642D01*
G37*
G36*
X94654693Y-82658660D02*
G01*
X94686398Y-82675058D01*
X94701978Y-82696843D01*
X94704272Y-82706115D01*
X94715567Y-82740212D01*
X94733784Y-82789924D01*
X94756328Y-82848034D01*
X94759759Y-82856685D01*
X94805162Y-82979335D01*
X94837342Y-83086948D01*
X94858145Y-83188385D01*
X94869417Y-83292503D01*
X94873002Y-83408162D01*
X94871854Y-83482766D01*
X94867818Y-83566127D01*
X94861523Y-83640563D01*
X94853635Y-83696144D01*
X94844126Y-83738626D01*
X94825023Y-83810570D01*
X94801716Y-83888808D01*
X94776918Y-83964760D01*
X94753341Y-84029849D01*
X94733697Y-84075495D01*
X94716565Y-84109268D01*
X94680136Y-84066693D01*
X94673968Y-84059394D01*
X94644096Y-84022978D01*
X94605353Y-83974728D01*
X94564513Y-83923059D01*
X94557800Y-83914549D01*
X94502872Y-83850343D01*
X94448639Y-83799535D01*
X94389255Y-83758666D01*
X94318874Y-83724278D01*
X94231651Y-83692914D01*
X94121740Y-83661114D01*
X94110840Y-83657928D01*
X94074016Y-83641242D01*
X94060544Y-83623020D01*
X94060560Y-83621661D01*
X94066546Y-83592343D01*
X94084243Y-83551902D01*
X94115004Y-83498144D01*
X94160178Y-83428872D01*
X94221116Y-83341891D01*
X94299167Y-83235006D01*
X94368722Y-83132161D01*
X94459329Y-82967673D01*
X94536797Y-82788322D01*
X94547866Y-82760202D01*
X94570591Y-82709112D01*
X94590630Y-82672139D01*
X94604630Y-82655836D01*
X94619533Y-82652987D01*
X94654693Y-82658660D01*
G37*
G36*
X89993948Y-80374558D02*
G01*
X90012486Y-80390613D01*
X90052007Y-80438661D01*
X90096834Y-80507053D01*
X90144600Y-80591249D01*
X90192939Y-80686712D01*
X90239482Y-80788904D01*
X90281864Y-80893287D01*
X90317718Y-80995322D01*
X90343285Y-81076120D01*
X90361896Y-81138521D01*
X90374899Y-81188925D01*
X90384061Y-81235045D01*
X90391151Y-81284594D01*
X90397937Y-81345286D01*
X90399194Y-81357967D01*
X90400623Y-81402661D01*
X90391985Y-81428474D01*
X90369069Y-81437564D01*
X90327661Y-81432095D01*
X90263549Y-81414226D01*
X90137206Y-81383200D01*
X90005202Y-81369920D01*
X89884807Y-81380278D01*
X89864474Y-81384181D01*
X89804710Y-81395895D01*
X89763993Y-81404715D01*
X89735032Y-81412539D01*
X89710538Y-81421266D01*
X89683220Y-81432797D01*
X89643219Y-81446916D01*
X89598628Y-81454930D01*
X89565739Y-81452439D01*
X89551963Y-81439087D01*
X89551232Y-81430527D01*
X89549980Y-81360398D01*
X89557511Y-81281413D01*
X89574627Y-81184570D01*
X89582760Y-81152664D01*
X89599375Y-81097575D01*
X89620915Y-81031444D01*
X89644504Y-80962825D01*
X89667267Y-80900267D01*
X89686330Y-80852323D01*
X89687799Y-80848927D01*
X89708853Y-80802547D01*
X89737218Y-80742829D01*
X89770081Y-80675393D01*
X89804626Y-80605858D01*
X89838039Y-80539842D01*
X89867505Y-80482964D01*
X89890209Y-80440845D01*
X89903337Y-80419103D01*
X89907851Y-80413603D01*
X89938028Y-80388088D01*
X89970308Y-80373313D01*
X89993948Y-80374558D01*
G37*
G36*
X90438471Y-88498242D02*
G01*
X90434060Y-88580757D01*
X90419090Y-88650125D01*
X90389880Y-88716058D01*
X90342741Y-88789790D01*
X90340336Y-88793086D01*
X90301770Y-88832854D01*
X90247234Y-88875209D01*
X90186734Y-88913101D01*
X90130272Y-88939483D01*
X90127340Y-88940502D01*
X90061711Y-88953951D01*
X89982206Y-88957521D01*
X89901262Y-88951373D01*
X89831314Y-88935665D01*
X89831009Y-88935561D01*
X89731705Y-88887786D01*
X89646265Y-88818743D01*
X89579379Y-88733190D01*
X89535737Y-88635885D01*
X89522169Y-88560940D01*
X89520468Y-88475038D01*
X89530167Y-88391087D01*
X89550675Y-88321576D01*
X89581102Y-88263733D01*
X89586709Y-88256696D01*
X89973926Y-88256696D01*
X89975139Y-88266238D01*
X89984595Y-88292662D01*
X90007409Y-88314470D01*
X90050397Y-88338997D01*
X90079574Y-88355400D01*
X90124151Y-88392509D01*
X90158390Y-88444204D01*
X90175841Y-88474490D01*
X90201024Y-88503812D01*
X90226279Y-88512599D01*
X90250136Y-88507859D01*
X90273824Y-88484196D01*
X90281847Y-88445335D01*
X90274479Y-88396535D01*
X90251994Y-88343054D01*
X90214666Y-88290151D01*
X90169873Y-88251034D01*
X90113065Y-88219625D01*
X90055517Y-88201848D01*
X90006949Y-88201837D01*
X89989544Y-88207508D01*
X89974535Y-88223614D01*
X89973926Y-88256696D01*
X89586709Y-88256696D01*
X89651659Y-88175174D01*
X89740250Y-88106819D01*
X89843193Y-88061214D01*
X89956803Y-88040904D01*
X90023830Y-88040580D01*
X90128561Y-88058404D01*
X90221316Y-88100844D01*
X90306038Y-88169348D01*
X90312536Y-88175910D01*
X90373351Y-88247472D01*
X90412257Y-88319200D01*
X90432786Y-88399865D01*
X90435414Y-88445335D01*
X90438471Y-88498242D01*
G37*
G36*
X85944120Y-83941034D02*
G01*
X86063194Y-83960330D01*
X86197212Y-83994509D01*
X86343193Y-84042918D01*
X86498157Y-84104910D01*
X86515521Y-84112399D01*
X86596705Y-84146860D01*
X86676804Y-84180077D01*
X86747398Y-84208592D01*
X86800064Y-84228943D01*
X86855776Y-84252755D01*
X86949382Y-84304866D01*
X87037086Y-84367145D01*
X87107633Y-84432154D01*
X87133519Y-84462243D01*
X87189633Y-84535370D01*
X87251151Y-84623572D01*
X87313507Y-84719696D01*
X87372136Y-84816588D01*
X87422471Y-84907098D01*
X87459947Y-84984071D01*
X87506614Y-85091272D01*
X87396193Y-85147671D01*
X87355297Y-85169075D01*
X87284536Y-85207436D01*
X87207400Y-85250403D01*
X87134581Y-85292073D01*
X87115145Y-85303348D01*
X87054295Y-85337582D01*
X87009859Y-85359648D01*
X86975473Y-85371972D01*
X86944773Y-85376978D01*
X86911395Y-85377089D01*
X86906354Y-85376911D01*
X86808532Y-85386920D01*
X86715944Y-85423576D01*
X86625820Y-85487952D01*
X86579088Y-85524766D01*
X86527086Y-85558716D01*
X86483950Y-85580055D01*
X86462246Y-85587858D01*
X86409943Y-85606679D01*
X86345385Y-85629925D01*
X86277835Y-85654259D01*
X86264292Y-85659301D01*
X86201584Y-85684959D01*
X86121400Y-85720326D01*
X86030006Y-85762524D01*
X85933671Y-85808675D01*
X85838662Y-85855902D01*
X85792059Y-85879373D01*
X85710398Y-85919630D01*
X85638639Y-85953900D01*
X85580699Y-85980369D01*
X85540496Y-85997223D01*
X85521946Y-86002645D01*
X85520780Y-86002343D01*
X85505531Y-85985277D01*
X85484711Y-85946272D01*
X85460351Y-85890571D01*
X85434483Y-85823418D01*
X85409137Y-85750056D01*
X85386347Y-85675727D01*
X85368143Y-85605676D01*
X85353180Y-85515011D01*
X85344821Y-85396963D01*
X85343847Y-85254168D01*
X85350283Y-85086016D01*
X85364151Y-84891894D01*
X85385476Y-84671192D01*
X85414282Y-84423299D01*
X85418686Y-84390580D01*
X85438041Y-84290646D01*
X85465116Y-84209280D01*
X85502286Y-84138807D01*
X85525834Y-84106307D01*
X85596296Y-84037392D01*
X85681885Y-83982011D01*
X85773271Y-83946776D01*
X85842969Y-83937270D01*
X85944120Y-83941034D01*
G37*
G36*
X93732936Y-83849919D02*
G01*
X93794161Y-83862360D01*
X93820357Y-83867511D01*
X93874307Y-83875323D01*
X93941670Y-83883137D01*
X94013657Y-83889852D01*
X94052094Y-83893173D01*
X94119409Y-83900885D01*
X94169604Y-83910642D01*
X94210703Y-83924263D01*
X94250730Y-83943566D01*
X94300751Y-83975161D01*
X94349543Y-84019497D01*
X94390933Y-84075811D01*
X94426552Y-84147466D01*
X94458034Y-84237824D01*
X94487009Y-84350246D01*
X94515111Y-84488094D01*
X94523873Y-84535216D01*
X94537976Y-84610782D01*
X94548633Y-84666674D01*
X94557082Y-84708642D01*
X94564563Y-84742435D01*
X94572313Y-84773800D01*
X94581572Y-84808486D01*
X94593578Y-84852242D01*
X94611352Y-84927096D01*
X94628888Y-85034630D01*
X94638029Y-85140508D01*
X94638138Y-85236318D01*
X94628576Y-85313649D01*
X94626696Y-85322016D01*
X94616133Y-85366901D01*
X94605137Y-85408165D01*
X94591967Y-85450856D01*
X94574884Y-85500022D01*
X94552150Y-85560712D01*
X94522024Y-85637973D01*
X94482768Y-85736855D01*
X94453642Y-85808970D01*
X94425474Y-85876741D01*
X94402308Y-85930380D01*
X94385973Y-85965655D01*
X94378298Y-85978340D01*
X94368464Y-85974972D01*
X94338855Y-85961409D01*
X94298129Y-85941011D01*
X94193214Y-85887119D01*
X94038441Y-85809570D01*
X93904234Y-85745134D01*
X93788082Y-85692653D01*
X93687476Y-85650969D01*
X93599903Y-85618922D01*
X93528206Y-85593990D01*
X93467736Y-85570305D01*
X93422819Y-85548275D01*
X93386989Y-85524679D01*
X93353782Y-85496296D01*
X93336888Y-85480765D01*
X93276437Y-85432048D01*
X93220210Y-85401785D01*
X93158452Y-85385810D01*
X93081406Y-85379954D01*
X93064119Y-85379482D01*
X93024513Y-85377294D01*
X92990843Y-85372023D01*
X92956916Y-85361436D01*
X92916540Y-85343299D01*
X92863524Y-85315378D01*
X92791676Y-85275440D01*
X92733068Y-85243074D01*
X92662728Y-85205168D01*
X92592108Y-85167918D01*
X92526318Y-85133958D01*
X92470465Y-85105922D01*
X92429658Y-85086443D01*
X92409006Y-85078154D01*
X92409999Y-85072984D01*
X92418221Y-85046784D01*
X92432571Y-85004333D01*
X92450724Y-84952274D01*
X92470353Y-84897249D01*
X92489130Y-84845902D01*
X92504729Y-84804874D01*
X92506066Y-84801499D01*
X92533408Y-84739250D01*
X92566970Y-84671985D01*
X92602417Y-84607600D01*
X92635417Y-84553990D01*
X92661634Y-84519051D01*
X92686511Y-84494626D01*
X92730158Y-84454809D01*
X92785662Y-84405876D01*
X92847542Y-84352548D01*
X92910314Y-84299546D01*
X92968498Y-84251589D01*
X93016610Y-84213400D01*
X93118901Y-84135445D01*
X93234182Y-84050378D01*
X93332789Y-83981977D01*
X93417553Y-83928963D01*
X93491310Y-83890056D01*
X93556893Y-83863978D01*
X93617136Y-83849449D01*
X93674872Y-83845189D01*
X93732936Y-83849919D01*
G37*
G36*
X93728227Y-86446711D02*
G01*
X93751683Y-86456470D01*
X93795130Y-86474977D01*
X93852729Y-86499734D01*
X93918641Y-86528241D01*
X94087847Y-86601640D01*
X94058640Y-86658890D01*
X94054162Y-86667302D01*
X94033035Y-86704511D01*
X94000465Y-86760034D01*
X93959122Y-86829386D01*
X93911672Y-86908080D01*
X93860784Y-86991630D01*
X93824596Y-87050937D01*
X93721808Y-87222288D01*
X93633306Y-87375482D01*
X93557305Y-87514571D01*
X93492020Y-87643603D01*
X93435665Y-87766630D01*
X93386457Y-87887701D01*
X93342609Y-88010868D01*
X93302337Y-88140181D01*
X93263856Y-88279690D01*
X93225380Y-88433446D01*
X93225275Y-88433884D01*
X93202342Y-88522157D01*
X93173191Y-88623863D01*
X93139554Y-88733855D01*
X93103166Y-88846981D01*
X93065760Y-88958092D01*
X93029069Y-89062039D01*
X92994826Y-89153671D01*
X92964767Y-89227839D01*
X92940622Y-89279393D01*
X92924972Y-89305856D01*
X92901895Y-89336038D01*
X92884937Y-89347788D01*
X92884644Y-89347748D01*
X92868251Y-89338882D01*
X92830640Y-89315666D01*
X92774283Y-89279744D01*
X92701653Y-89232764D01*
X92615225Y-89176371D01*
X92517471Y-89112211D01*
X92410865Y-89041931D01*
X92297879Y-88967177D01*
X92180987Y-88889595D01*
X92062663Y-88810831D01*
X91945379Y-88732531D01*
X91831608Y-88656342D01*
X91723824Y-88583909D01*
X91624501Y-88516879D01*
X91536111Y-88456898D01*
X91461127Y-88405612D01*
X91402023Y-88364668D01*
X91361272Y-88335711D01*
X91341347Y-88320387D01*
X91335180Y-88314568D01*
X91295917Y-88264424D01*
X91271022Y-88201423D01*
X91257440Y-88118198D01*
X91256113Y-88101432D01*
X91259499Y-87996729D01*
X91283160Y-87905286D01*
X91326000Y-87831679D01*
X91332515Y-87824596D01*
X91369908Y-87792875D01*
X91432394Y-87747444D01*
X91519844Y-87688387D01*
X91632126Y-87615791D01*
X91769111Y-87529738D01*
X91930668Y-87430315D01*
X92116667Y-87317606D01*
X92182958Y-87277478D01*
X92246842Y-87238348D01*
X92298195Y-87206393D01*
X92332953Y-87184144D01*
X92347052Y-87174132D01*
X92349642Y-87171593D01*
X92371129Y-87156079D01*
X92404649Y-87135026D01*
X92429119Y-87120368D01*
X92475392Y-87092537D01*
X92536800Y-87055538D01*
X92608323Y-87012396D01*
X92684944Y-86966133D01*
X92726370Y-86941347D01*
X92808898Y-86893797D01*
X92872602Y-86859942D01*
X92915829Y-86840632D01*
X92936928Y-86836714D01*
X92941853Y-86838237D01*
X92973288Y-86843065D01*
X93022572Y-86847373D01*
X93081406Y-86850377D01*
X93125522Y-86851272D01*
X93188655Y-86848312D01*
X93245828Y-86837842D01*
X93311384Y-86817831D01*
X93315448Y-86816432D01*
X93375449Y-86793713D01*
X93431041Y-86769373D01*
X93470664Y-86748448D01*
X93489368Y-86735584D01*
X93546550Y-86685879D01*
X93602547Y-86624502D01*
X93649650Y-86560488D01*
X93680151Y-86502874D01*
X93692357Y-86474134D01*
X93709722Y-86449080D01*
X93727220Y-86446318D01*
X93728227Y-86446711D01*
G37*
G36*
X86254394Y-86454060D02*
G01*
X86269505Y-86485107D01*
X86290193Y-86528123D01*
X86298232Y-86543807D01*
X86347765Y-86617088D01*
X86413247Y-86687568D01*
X86443213Y-86714254D01*
X86492687Y-86751036D01*
X86546182Y-86778775D01*
X86615869Y-86804493D01*
X86662425Y-86818811D01*
X86780065Y-86844956D01*
X86886009Y-86853760D01*
X86975072Y-86844642D01*
X86976722Y-86844260D01*
X87000184Y-86839471D01*
X87021933Y-86837824D01*
X87045240Y-86840830D01*
X87073375Y-86849995D01*
X87109609Y-86866828D01*
X87157214Y-86892838D01*
X87219461Y-86929531D01*
X87299621Y-86978417D01*
X87400964Y-87041004D01*
X87439469Y-87064826D01*
X87551329Y-87133979D01*
X87663281Y-87203123D01*
X87771230Y-87269732D01*
X87871080Y-87331281D01*
X87958735Y-87385243D01*
X88030098Y-87429095D01*
X88081074Y-87460309D01*
X88123175Y-87486391D01*
X88178737Y-87521369D01*
X88234212Y-87556737D01*
X88249322Y-87566395D01*
X88310716Y-87605054D01*
X88380682Y-87648462D01*
X88446846Y-87688926D01*
X88515518Y-87733388D01*
X88597244Y-87796864D01*
X88655789Y-87857256D01*
X88688825Y-87912416D01*
X88690773Y-87918589D01*
X88697548Y-87957652D01*
X88702294Y-88013079D01*
X88704082Y-88074980D01*
X88702896Y-88133390D01*
X88697549Y-88184042D01*
X88685495Y-88228170D01*
X88664186Y-88268859D01*
X88631077Y-88309198D01*
X88583621Y-88352271D01*
X88519271Y-88401167D01*
X88435482Y-88458972D01*
X88329705Y-88528772D01*
X88274647Y-88564869D01*
X88186087Y-88623252D01*
X88082257Y-88691962D01*
X87968018Y-88767762D01*
X87848231Y-88847417D01*
X87727755Y-88927691D01*
X87611451Y-89005349D01*
X87504178Y-89077154D01*
X87410797Y-89139870D01*
X87336168Y-89190262D01*
X87295196Y-89217821D01*
X87228573Y-89261683D01*
X87170154Y-89299001D01*
X87125103Y-89326501D01*
X87098583Y-89340908D01*
X87083278Y-89347077D01*
X87060179Y-89351520D01*
X87040501Y-89343950D01*
X87020476Y-89320787D01*
X86996334Y-89278451D01*
X86964305Y-89213361D01*
X86904793Y-89074385D01*
X86839292Y-88870138D01*
X86797085Y-88663831D01*
X86794479Y-88646712D01*
X86784942Y-88590645D01*
X86774287Y-88534240D01*
X86769402Y-88509888D01*
X86760336Y-88464265D01*
X86754310Y-88433390D01*
X86747983Y-88404195D01*
X86725695Y-88323375D01*
X86694183Y-88226551D01*
X86655942Y-88120475D01*
X86613464Y-88011903D01*
X86569243Y-87907588D01*
X86525772Y-87814285D01*
X86525532Y-87813800D01*
X86474572Y-87714945D01*
X86410393Y-87597272D01*
X86335885Y-87465799D01*
X86253937Y-87325540D01*
X86167436Y-87181515D01*
X86079270Y-87038738D01*
X86036787Y-86970327D01*
X85988179Y-86890625D01*
X85944339Y-86817272D01*
X85908833Y-86756251D01*
X85885229Y-86713540D01*
X85836819Y-86620731D01*
X85891737Y-86592448D01*
X85926712Y-86575589D01*
X85976186Y-86553238D01*
X86034168Y-86527931D01*
X86094853Y-86502107D01*
X86152437Y-86478208D01*
X86201116Y-86458673D01*
X86235083Y-86445943D01*
X86248534Y-86442459D01*
X86254394Y-86454060D01*
G37*
G36*
X93879062Y-89841147D02*
G01*
X93886882Y-89917194D01*
X93894080Y-90017346D01*
X93895236Y-90034795D01*
X93900407Y-90104965D01*
X93905973Y-90171009D01*
X93910915Y-90220614D01*
X93913504Y-90249801D01*
X93908214Y-90352192D01*
X93878996Y-90439379D01*
X93826059Y-90510649D01*
X93781364Y-90547418D01*
X93692318Y-90596634D01*
X93590450Y-90630501D01*
X93484227Y-90646512D01*
X93382114Y-90642160D01*
X93310512Y-90624774D01*
X93237159Y-90595614D01*
X93167805Y-90557938D01*
X93105649Y-90514610D01*
X93053890Y-90468492D01*
X93015726Y-90422448D01*
X92994358Y-90379341D01*
X92992982Y-90342034D01*
X93014799Y-90313389D01*
X93046137Y-90288720D01*
X93087731Y-90250240D01*
X93131181Y-90205894D01*
X93170644Y-90161932D01*
X93200273Y-90124603D01*
X93214224Y-90100157D01*
X93217807Y-90080521D01*
X93211669Y-90057373D01*
X93187481Y-90053858D01*
X93144275Y-90070015D01*
X93081083Y-90105888D01*
X93071925Y-90111580D01*
X93025058Y-90140376D01*
X92979456Y-90167640D01*
X92931291Y-90195494D01*
X92876734Y-90226058D01*
X92811956Y-90261454D01*
X92733129Y-90303803D01*
X92636425Y-90355226D01*
X92518015Y-90417844D01*
X92447659Y-90453460D01*
X92349057Y-90499925D01*
X92242591Y-90547142D01*
X92134950Y-90592316D01*
X92032825Y-90632653D01*
X91942906Y-90665361D01*
X91871882Y-90687646D01*
X91824420Y-90698970D01*
X91764197Y-90709736D01*
X91716628Y-90714402D01*
X91679663Y-90713226D01*
X91655744Y-90704234D01*
X91642766Y-90683304D01*
X91639422Y-90672105D01*
X91638923Y-90645225D01*
X91650075Y-90615036D01*
X91674849Y-90579310D01*
X91715217Y-90535820D01*
X91773149Y-90482337D01*
X91850616Y-90416633D01*
X91949590Y-90336480D01*
X92086155Y-90230758D01*
X92232863Y-90123374D01*
X92381147Y-90020476D01*
X92511973Y-89934654D01*
X93269511Y-89934654D01*
X93282174Y-89951546D01*
X93317567Y-89972508D01*
X93335279Y-89979659D01*
X93404072Y-89993555D01*
X93484512Y-89994689D01*
X93566049Y-89983463D01*
X93638137Y-89960280D01*
X93654847Y-89952325D01*
X93706924Y-89918883D01*
X93735224Y-89880645D01*
X93743764Y-89832761D01*
X93742205Y-89822069D01*
X93727905Y-89794861D01*
X93705047Y-89771601D01*
X93681513Y-89759149D01*
X93665184Y-89764367D01*
X93658282Y-89772200D01*
X93625838Y-89794966D01*
X93575647Y-89822205D01*
X93514462Y-89851010D01*
X93449038Y-89878474D01*
X93386128Y-89901690D01*
X93332488Y-89917752D01*
X93294870Y-89923752D01*
X93281028Y-89924947D01*
X93269511Y-89934654D01*
X92511973Y-89934654D01*
X92525363Y-89925870D01*
X92659869Y-89843364D01*
X92779025Y-89776764D01*
X92808476Y-89761531D01*
X92895767Y-89718836D01*
X92987266Y-89678175D01*
X93090786Y-89636185D01*
X93214143Y-89589503D01*
X93225360Y-89583842D01*
X93258861Y-89554652D01*
X93289605Y-89513083D01*
X93312598Y-89475043D01*
X93351172Y-89419735D01*
X93385776Y-89385127D01*
X93420907Y-89367263D01*
X93461058Y-89362187D01*
X93471899Y-89362521D01*
X93518319Y-89370115D01*
X93553349Y-89384586D01*
X93558931Y-89388362D01*
X93573909Y-89395116D01*
X93590762Y-89393498D01*
X93614647Y-89381111D01*
X93650722Y-89355554D01*
X93704143Y-89314427D01*
X93812079Y-89234317D01*
X93969117Y-89128161D01*
X94140456Y-89022036D01*
X94320170Y-88919176D01*
X94502335Y-88822813D01*
X94681023Y-88736182D01*
X94850308Y-88662515D01*
X95004265Y-88605047D01*
X95086310Y-88579787D01*
X95153477Y-88565296D01*
X95201895Y-88563999D01*
X95235091Y-88575837D01*
X95256586Y-88600750D01*
X95265490Y-88628380D01*
X95259282Y-88660570D01*
X95233795Y-88698935D01*
X95186703Y-88748394D01*
X95173223Y-88761237D01*
X95055885Y-88862223D01*
X94911854Y-88969773D01*
X94742158Y-89083229D01*
X94547822Y-89201932D01*
X94329875Y-89325224D01*
X94089342Y-89452446D01*
X94054310Y-89470463D01*
X93964221Y-89517301D01*
X93886311Y-89558552D01*
X93823972Y-89592385D01*
X93780592Y-89616970D01*
X93759565Y-89630476D01*
X93759154Y-89631230D01*
X93768063Y-89644186D01*
X93792251Y-89665638D01*
X93814438Y-89684372D01*
X93838307Y-89710819D01*
X93856130Y-89742643D01*
X93869263Y-89784525D01*
X93877611Y-89832761D01*
X93879062Y-89841147D01*
G37*
G36*
X88859595Y-89255751D02*
G01*
X88880923Y-89283107D01*
X88907540Y-89322590D01*
X88980079Y-89422276D01*
X89076347Y-89517893D01*
X89182753Y-89587137D01*
X89195526Y-89593534D01*
X89244683Y-89617045D01*
X89290687Y-89636199D01*
X89337087Y-89651440D01*
X89387435Y-89663214D01*
X89445280Y-89671964D01*
X89514172Y-89678137D01*
X89597660Y-89682176D01*
X89699294Y-89684527D01*
X89822625Y-89685634D01*
X89971202Y-89685943D01*
X90066110Y-89685845D01*
X90200964Y-89685063D01*
X90310809Y-89683442D01*
X90397998Y-89680906D01*
X90464884Y-89677376D01*
X90513823Y-89672776D01*
X90547166Y-89667028D01*
X90579025Y-89659475D01*
X90627962Y-89648324D01*
X90662358Y-89641042D01*
X90664041Y-89640704D01*
X90709828Y-89624721D01*
X90768216Y-89595628D01*
X90830280Y-89558715D01*
X90887092Y-89519273D01*
X90929727Y-89482591D01*
X90960992Y-89447163D01*
X91001891Y-89395231D01*
X91039971Y-89341915D01*
X91043965Y-89335960D01*
X91072229Y-89293885D01*
X91092955Y-89263153D01*
X91101899Y-89250055D01*
X91102603Y-89249485D01*
X91117743Y-89252219D01*
X91151880Y-89267072D01*
X91206418Y-89294753D01*
X91282761Y-89335969D01*
X91382313Y-89391428D01*
X91396442Y-89399371D01*
X91473882Y-89442704D01*
X91567703Y-89494958D01*
X91670634Y-89552096D01*
X91775407Y-89610081D01*
X91874752Y-89664876D01*
X91924871Y-89692553D01*
X92007361Y-89738510D01*
X92080544Y-89779780D01*
X92140427Y-89814086D01*
X92183015Y-89839152D01*
X92204316Y-89852703D01*
X92210609Y-89857768D01*
X92216297Y-89865541D01*
X92215101Y-89875168D01*
X92204602Y-89888697D01*
X92182380Y-89908174D01*
X92146015Y-89935646D01*
X92093087Y-89973159D01*
X92021177Y-90022760D01*
X91927864Y-90086495D01*
X91866362Y-90128585D01*
X91747465Y-90211393D01*
X91650016Y-90282311D01*
X91571998Y-90343706D01*
X91511395Y-90397946D01*
X91466190Y-90447399D01*
X91434367Y-90494434D01*
X91413910Y-90541418D01*
X91402803Y-90590719D01*
X91399029Y-90644704D01*
X91400572Y-90705743D01*
X91402356Y-90780694D01*
X91395711Y-90847119D01*
X91376770Y-90901924D01*
X91342344Y-90953877D01*
X91289241Y-91011750D01*
X91276379Y-91024465D01*
X91249467Y-91049246D01*
X91220327Y-91072651D01*
X91185584Y-91096686D01*
X91141859Y-91123355D01*
X91085776Y-91154662D01*
X91013957Y-91192613D01*
X90923025Y-91239212D01*
X90809603Y-91296463D01*
X90683364Y-91359620D01*
X90569756Y-91415598D01*
X90475951Y-91460621D01*
X90399025Y-91495990D01*
X90336050Y-91523007D01*
X90284103Y-91542973D01*
X90240257Y-91557190D01*
X90201587Y-91566958D01*
X90192274Y-91568453D01*
X90150755Y-91571643D01*
X90089641Y-91573672D01*
X90015576Y-91574375D01*
X89935204Y-91573586D01*
X89899116Y-91572716D01*
X89781692Y-91566512D01*
X89680225Y-91554041D01*
X89584812Y-91533284D01*
X89485550Y-91502221D01*
X89372536Y-91458833D01*
X89354015Y-91451181D01*
X89286245Y-91420503D01*
X89227597Y-91387859D01*
X89170948Y-91348411D01*
X89109176Y-91297325D01*
X89035158Y-91229764D01*
X88991249Y-91189646D01*
X88925856Y-91132007D01*
X88854829Y-91071103D01*
X88787349Y-91014896D01*
X88717444Y-90957923D01*
X88655015Y-90906692D01*
X88609401Y-90867462D01*
X88577890Y-90836629D01*
X88557771Y-90810595D01*
X88546332Y-90785759D01*
X88540862Y-90758519D01*
X88538649Y-90725274D01*
X88536981Y-90682425D01*
X88527957Y-90589783D01*
X88507002Y-90508918D01*
X88471716Y-90441682D01*
X88419308Y-90380921D01*
X88411514Y-90373755D01*
X88373568Y-90342457D01*
X88317402Y-90299162D01*
X88247275Y-90246946D01*
X88167446Y-90188886D01*
X88082175Y-90128059D01*
X87995722Y-90067543D01*
X87912345Y-90010414D01*
X87836304Y-89959750D01*
X87811190Y-89943144D01*
X87767460Y-89913225D01*
X87737127Y-89891067D01*
X87725617Y-89880555D01*
X87726110Y-89879804D01*
X87742825Y-89868255D01*
X87781035Y-89844874D01*
X87837663Y-89811395D01*
X87909629Y-89769555D01*
X87993856Y-89721090D01*
X88087267Y-89667733D01*
X88186783Y-89611222D01*
X88289325Y-89553291D01*
X88391817Y-89495676D01*
X88491180Y-89440112D01*
X88584336Y-89388335D01*
X88668207Y-89342080D01*
X88739715Y-89303084D01*
X88795782Y-89273080D01*
X88833331Y-89253805D01*
X88849282Y-89246995D01*
X88859595Y-89255751D01*
G37*
G36*
X87498409Y-89974010D02*
G01*
X87620689Y-90054828D01*
X87740454Y-90138327D01*
X87855264Y-90222520D01*
X87962680Y-90305424D01*
X88060263Y-90385052D01*
X88145574Y-90459420D01*
X88216173Y-90526542D01*
X88269621Y-90584434D01*
X88303478Y-90631110D01*
X88315306Y-90664586D01*
X88313326Y-90674239D01*
X88298027Y-90698423D01*
X88294164Y-90701781D01*
X88256321Y-90714161D01*
X88196395Y-90711964D01*
X88116600Y-90695456D01*
X88019151Y-90664903D01*
X87977556Y-90649972D01*
X87915674Y-90627196D01*
X87864764Y-90607796D01*
X87832937Y-90594824D01*
X87806561Y-90583125D01*
X87758604Y-90561950D01*
X87697827Y-90535173D01*
X87631349Y-90505932D01*
X87585884Y-90485266D01*
X87495634Y-90441803D01*
X87390943Y-90389160D01*
X87278224Y-90330725D01*
X87163894Y-90269885D01*
X87054369Y-90210027D01*
X86956065Y-90154539D01*
X86875397Y-90106808D01*
X86853200Y-90093615D01*
X86806808Y-90068899D01*
X86772046Y-90054346D01*
X86755148Y-90052760D01*
X86752538Y-90055681D01*
X86745963Y-90086047D01*
X86761873Y-90128567D01*
X86798685Y-90180293D01*
X86854815Y-90238277D01*
X86869341Y-90251981D01*
X86909534Y-90293865D01*
X86937136Y-90328881D01*
X86947392Y-90351230D01*
X86942384Y-90375308D01*
X86920656Y-90420036D01*
X86887063Y-90469423D01*
X86847473Y-90515160D01*
X86807753Y-90548942D01*
X86746706Y-90583793D01*
X86633375Y-90624959D01*
X86513987Y-90642561D01*
X86394137Y-90636559D01*
X86279418Y-90606912D01*
X86175426Y-90553578D01*
X86138597Y-90527705D01*
X86106259Y-90500068D01*
X86082691Y-90470011D01*
X86066608Y-90433141D01*
X86056726Y-90385065D01*
X86051758Y-90321390D01*
X86050422Y-90237722D01*
X86051430Y-90129669D01*
X86052020Y-90092922D01*
X86054903Y-89985981D01*
X86059885Y-89902181D01*
X86067738Y-89838559D01*
X86201177Y-89838559D01*
X86202796Y-89861033D01*
X86221798Y-89890694D01*
X86226764Y-89896889D01*
X86263243Y-89930155D01*
X86306709Y-89957399D01*
X86354961Y-89976294D01*
X86435482Y-89993765D01*
X86516534Y-89997281D01*
X86589607Y-89986725D01*
X86646193Y-89961983D01*
X86651074Y-89958535D01*
X86664026Y-89947433D01*
X86664263Y-89938318D01*
X86648058Y-89928656D01*
X86611685Y-89915914D01*
X86551417Y-89897559D01*
X86498215Y-89878950D01*
X86426521Y-89848057D01*
X86365179Y-89815817D01*
X86339841Y-89800926D01*
X86291981Y-89777350D01*
X86258782Y-89771375D01*
X86234610Y-89782844D01*
X86213829Y-89811601D01*
X86201177Y-89838559D01*
X86067738Y-89838559D01*
X86067910Y-89837169D01*
X86079920Y-89786590D01*
X86096858Y-89746091D01*
X86119669Y-89711318D01*
X86149294Y-89677916D01*
X86199507Y-89626468D01*
X85857095Y-89448838D01*
X85730951Y-89382842D01*
X85576011Y-89299753D01*
X85441953Y-89225082D01*
X85325586Y-89156998D01*
X85223716Y-89093667D01*
X85133151Y-89033256D01*
X85036175Y-88965254D01*
X84925923Y-88884899D01*
X84838343Y-88816476D01*
X84772136Y-88758562D01*
X84726002Y-88709735D01*
X84698641Y-88668572D01*
X84688753Y-88633650D01*
X84695039Y-88603545D01*
X84716197Y-88576835D01*
X84725576Y-88568927D01*
X84746551Y-88558448D01*
X84774981Y-88557815D01*
X84821006Y-88565976D01*
X84822332Y-88566256D01*
X84909847Y-88589979D01*
X85016773Y-88627330D01*
X85138542Y-88676145D01*
X85270586Y-88734262D01*
X85408338Y-88799519D01*
X85547229Y-88869752D01*
X85682691Y-88942798D01*
X85810156Y-89016496D01*
X85925057Y-89088682D01*
X85929086Y-89091343D01*
X85956249Y-89109285D01*
X85998121Y-89136946D01*
X86047449Y-89169535D01*
X86109830Y-89212454D01*
X86180284Y-89263637D01*
X86241837Y-89310840D01*
X86285167Y-89345300D01*
X86325887Y-89376347D01*
X86353015Y-89393495D01*
X86371607Y-89399050D01*
X86386718Y-89395323D01*
X86403405Y-89384620D01*
X86439817Y-89368910D01*
X86484004Y-89362187D01*
X86504286Y-89363209D01*
X86564180Y-89381823D01*
X86614176Y-89425194D01*
X86656580Y-89495098D01*
X86676486Y-89533708D01*
X86703754Y-89570720D01*
X86731406Y-89587124D01*
X86757544Y-89595028D01*
X86781803Y-89604946D01*
X86793965Y-89610121D01*
X86825000Y-89617810D01*
X86840712Y-89621949D01*
X86885117Y-89639278D01*
X86947255Y-89667485D01*
X87022585Y-89704271D01*
X87106563Y-89747336D01*
X87194647Y-89794380D01*
X87282296Y-89843104D01*
X87364966Y-89891207D01*
X87376054Y-89897856D01*
X87441063Y-89938318D01*
X87498409Y-89974010D01*
G37*
G36*
X90084590Y-81607986D02*
G01*
X90165590Y-81625219D01*
X90165667Y-81625237D01*
X90198242Y-81632902D01*
X90215986Y-81636986D01*
X90223401Y-81639785D01*
X90251174Y-81651962D01*
X90290792Y-81670197D01*
X90316054Y-81681648D01*
X90351458Y-81696185D01*
X90370472Y-81701870D01*
X90381090Y-81704892D01*
X90413047Y-81721937D01*
X90456954Y-81750116D01*
X90506312Y-81784956D01*
X90554625Y-81821983D01*
X90595396Y-81856726D01*
X90614485Y-81875549D01*
X90663526Y-81930609D01*
X90722893Y-82004051D01*
X90789394Y-82091726D01*
X90859837Y-82189482D01*
X90931029Y-82293169D01*
X90940119Y-82306721D01*
X90981241Y-82367630D01*
X91021559Y-82426818D01*
X91053500Y-82473158D01*
X91056851Y-82478011D01*
X91096220Y-82540481D01*
X91136823Y-82613154D01*
X91174336Y-82687502D01*
X91204437Y-82754998D01*
X91222803Y-82807116D01*
X91226152Y-82822580D01*
X91233183Y-82875927D01*
X91238882Y-82947067D01*
X91243000Y-83028300D01*
X91245290Y-83111926D01*
X91245502Y-83190246D01*
X91243389Y-83255561D01*
X91238703Y-83300169D01*
X91235195Y-83322126D01*
X91228730Y-83376929D01*
X91222528Y-83444893D01*
X91217557Y-83516156D01*
X91215294Y-83554326D01*
X91210534Y-83630494D01*
X91205859Y-83700777D01*
X91202016Y-83753741D01*
X91197854Y-83807481D01*
X91191173Y-83898866D01*
X91185853Y-83981565D01*
X91181364Y-84064946D01*
X91177176Y-84158377D01*
X91172760Y-84271229D01*
X91170299Y-84331372D01*
X91166485Y-84408762D01*
X91162532Y-84473779D01*
X91158783Y-84520952D01*
X91155582Y-84544811D01*
X91155159Y-84547321D01*
X91153475Y-84574203D01*
X91151730Y-84626294D01*
X91149971Y-84700750D01*
X91148246Y-84794722D01*
X91146604Y-84905364D01*
X91145093Y-85029829D01*
X91143761Y-85165271D01*
X91142657Y-85308843D01*
X91142322Y-85360457D01*
X91141424Y-85521772D01*
X91140979Y-85657614D01*
X91141040Y-85770562D01*
X91141663Y-85863195D01*
X91142903Y-85938091D01*
X91144814Y-85997830D01*
X91147450Y-86044991D01*
X91150868Y-86082152D01*
X91155122Y-86111892D01*
X91160266Y-86136791D01*
X91171527Y-86184351D01*
X91182958Y-86234136D01*
X91190221Y-86267566D01*
X91194604Y-86280942D01*
X91215664Y-86318581D01*
X91246067Y-86357560D01*
X91260129Y-86372020D01*
X91294736Y-86398324D01*
X91330518Y-86409302D01*
X91370248Y-86403739D01*
X91416699Y-86380417D01*
X91472646Y-86338119D01*
X91540862Y-86275630D01*
X91624121Y-86191732D01*
X91672866Y-86140093D01*
X91748956Y-86056126D01*
X91828036Y-85965624D01*
X91904314Y-85875359D01*
X91972000Y-85792104D01*
X92025303Y-85722628D01*
X92034864Y-85709724D01*
X92065906Y-85669396D01*
X92091225Y-85638522D01*
X92117741Y-85608224D01*
X92329591Y-85716226D01*
X92380955Y-85742422D01*
X92445171Y-85775205D01*
X92496613Y-85801505D01*
X92530986Y-85819127D01*
X92543994Y-85825873D01*
X92542341Y-85834621D01*
X92533476Y-85863973D01*
X92519265Y-85906559D01*
X92499404Y-85991349D01*
X92491513Y-86108282D01*
X92491043Y-86230963D01*
X92343452Y-86312856D01*
X92341000Y-86314209D01*
X92303764Y-86333957D01*
X92245642Y-86363906D01*
X92169742Y-86402511D01*
X92079172Y-86448231D01*
X91977039Y-86499523D01*
X91866450Y-86554843D01*
X91750513Y-86612649D01*
X91632335Y-86671399D01*
X91515024Y-86729549D01*
X91401687Y-86785556D01*
X91295431Y-86837879D01*
X91199365Y-86884973D01*
X91116595Y-86925297D01*
X91050229Y-86957307D01*
X91003374Y-86979460D01*
X90979138Y-86990215D01*
X90973419Y-86992360D01*
X90949249Y-86998096D01*
X90928582Y-86991031D01*
X90899160Y-86967717D01*
X90883505Y-86951978D01*
X90869508Y-86929232D01*
X90857886Y-86895816D01*
X90846632Y-86845763D01*
X90833741Y-86773108D01*
X90827307Y-86737111D01*
X90797433Y-86616118D01*
X90757159Y-86517844D01*
X90703909Y-86438186D01*
X90635108Y-86373043D01*
X90548180Y-86318311D01*
X90539582Y-86313839D01*
X90489906Y-86289763D01*
X90449194Y-86272800D01*
X90425552Y-86266382D01*
X90374543Y-86254260D01*
X90332660Y-86219875D01*
X90310050Y-86169697D01*
X90309493Y-86166823D01*
X90294395Y-86114608D01*
X90273133Y-86064795D01*
X90270220Y-86059051D01*
X90258399Y-86026725D01*
X90250192Y-85983400D01*
X90244761Y-85923149D01*
X90241263Y-85840046D01*
X90236185Y-85665694D01*
X90294481Y-85634278D01*
X90358348Y-85595502D01*
X90410261Y-85551528D01*
X90448415Y-85500066D01*
X90474506Y-85436952D01*
X90490231Y-85358022D01*
X90497285Y-85259110D01*
X90497365Y-85136054D01*
X90497064Y-85122357D01*
X90493573Y-85028216D01*
X90486981Y-84956227D01*
X90475671Y-84900509D01*
X90458025Y-84855183D01*
X90432425Y-84814369D01*
X90397254Y-84772188D01*
X90371931Y-84746999D01*
X90293153Y-84694138D01*
X90194151Y-84658841D01*
X90073088Y-84640362D01*
X89947955Y-84636218D01*
X89814796Y-84647943D01*
X89703253Y-84678230D01*
X89613032Y-84727164D01*
X89543839Y-84794830D01*
X89539036Y-84801211D01*
X89512030Y-84842250D01*
X89492507Y-84885169D01*
X89479423Y-84935335D01*
X89471736Y-84998113D01*
X89468403Y-85078869D01*
X89468380Y-85182967D01*
X89469530Y-85251615D01*
X89472468Y-85326145D01*
X89477447Y-85381003D01*
X89485005Y-85421490D01*
X89495675Y-85452904D01*
X89519656Y-85496568D01*
X89566958Y-85555436D01*
X89622487Y-85603864D01*
X89677690Y-85633373D01*
X89728791Y-85650238D01*
X89722505Y-85839518D01*
X89722195Y-85848772D01*
X89718911Y-85927819D01*
X89713869Y-85987584D01*
X89705006Y-86036720D01*
X89690257Y-86083876D01*
X89667558Y-86137705D01*
X89634844Y-86206858D01*
X89629775Y-86215081D01*
X89604673Y-86236987D01*
X89559474Y-86260846D01*
X89490194Y-86288916D01*
X89454397Y-86302986D01*
X89368839Y-86345458D01*
X89302507Y-86396238D01*
X89248313Y-86461635D01*
X89199167Y-86547960D01*
X89172946Y-86607274D01*
X89146539Y-86691760D01*
X89127018Y-86792745D01*
X89122472Y-86821747D01*
X89111419Y-86881694D01*
X89100135Y-86921941D01*
X89086451Y-86949002D01*
X89068199Y-86969391D01*
X89033479Y-86992348D01*
X88996477Y-86994124D01*
X88994573Y-86993510D01*
X88970620Y-86983114D01*
X88924460Y-86961493D01*
X88859003Y-86930093D01*
X88777158Y-86890361D01*
X88681836Y-86843741D01*
X88575947Y-86791680D01*
X88462400Y-86735624D01*
X88344106Y-86677019D01*
X88223974Y-86617309D01*
X88104914Y-86557942D01*
X87989837Y-86500363D01*
X87881651Y-86446018D01*
X87783268Y-86396353D01*
X87697596Y-86352813D01*
X87627547Y-86316845D01*
X87576029Y-86289894D01*
X87545953Y-86273405D01*
X87521091Y-86257661D01*
X87491116Y-86234332D01*
X87478889Y-86218217D01*
X87478876Y-86218046D01*
X87477684Y-86195618D01*
X87475802Y-86153544D01*
X87473632Y-86100793D01*
X87469713Y-86049441D01*
X87459732Y-85976666D01*
X87446691Y-85914218D01*
X87436342Y-85873952D01*
X87428577Y-85839965D01*
X87426749Y-85825970D01*
X87432511Y-85822721D01*
X87459228Y-85808698D01*
X87502818Y-85786194D01*
X87557967Y-85757914D01*
X87619367Y-85726563D01*
X87681705Y-85694846D01*
X87739671Y-85665469D01*
X87787955Y-85641136D01*
X87821244Y-85624552D01*
X87834229Y-85618423D01*
X87834974Y-85618953D01*
X87847306Y-85634062D01*
X87871056Y-85665781D01*
X87901941Y-85708418D01*
X87915005Y-85726269D01*
X87963488Y-85788143D01*
X88023716Y-85860288D01*
X88092330Y-85939111D01*
X88165974Y-86021016D01*
X88241287Y-86102406D01*
X88314912Y-86179688D01*
X88383490Y-86249265D01*
X88443663Y-86307542D01*
X88492072Y-86350923D01*
X88525358Y-86375814D01*
X88528676Y-86377755D01*
X88574737Y-86401468D01*
X88609016Y-86407251D01*
X88642062Y-86394132D01*
X88684424Y-86361137D01*
X88709939Y-86334916D01*
X88752103Y-86275804D01*
X88791139Y-86204468D01*
X88821869Y-86130825D01*
X88839115Y-86064795D01*
X88840111Y-86058088D01*
X88855348Y-85945379D01*
X88865245Y-85844724D01*
X88869747Y-85749408D01*
X88868797Y-85652716D01*
X88862341Y-85547935D01*
X88850322Y-85428349D01*
X88832686Y-85287244D01*
X88827905Y-85239668D01*
X88822944Y-85169003D01*
X88818285Y-85082880D01*
X88814291Y-84988051D01*
X88811328Y-84891269D01*
X88811107Y-84882355D01*
X88806278Y-84730905D01*
X88799685Y-84584989D01*
X88791636Y-84449260D01*
X88782443Y-84328369D01*
X88772416Y-84226970D01*
X88761865Y-84149716D01*
X88757165Y-84121248D01*
X88747764Y-84061720D01*
X88740464Y-84012348D01*
X88739315Y-84004204D01*
X88732036Y-83956676D01*
X88725411Y-83918754D01*
X88723711Y-83909868D01*
X88716623Y-83871184D01*
X88706828Y-83816428D01*
X88695910Y-83754432D01*
X88690849Y-83725985D01*
X88680828Y-83672744D01*
X88672809Y-83634158D01*
X88668178Y-83617101D01*
X88662785Y-83598934D01*
X88656269Y-83556849D01*
X88650114Y-83498943D01*
X88644941Y-83432202D01*
X88641371Y-83363615D01*
X88640025Y-83300169D01*
X88640123Y-83269771D01*
X88641179Y-83235131D01*
X88644326Y-83202447D01*
X88650693Y-83168605D01*
X88661410Y-83130493D01*
X88677605Y-83084997D01*
X88700407Y-83029005D01*
X88730946Y-82959403D01*
X88770351Y-82873079D01*
X88819751Y-82766919D01*
X88880274Y-82637811D01*
X88890826Y-82615367D01*
X88920189Y-82553255D01*
X88946788Y-82497441D01*
X88965912Y-82457822D01*
X88967392Y-82454775D01*
X88987549Y-82410669D01*
X89012623Y-82352580D01*
X89037543Y-82292233D01*
X89043012Y-82278738D01*
X89064319Y-82228119D01*
X89081866Y-82189318D01*
X89092295Y-82169840D01*
X89093827Y-82167701D01*
X89107927Y-82144267D01*
X89130380Y-82104151D01*
X89157082Y-82054648D01*
X89173120Y-82026192D01*
X89222169Y-81953097D01*
X89277768Y-81885390D01*
X89333835Y-81830047D01*
X89384288Y-81794043D01*
X89385266Y-81793529D01*
X89413601Y-81779605D01*
X89427485Y-81774586D01*
X89427759Y-81774632D01*
X89443695Y-81770267D01*
X89474433Y-81759038D01*
X89513829Y-81746017D01*
X89558434Y-81735373D01*
X89584787Y-81728290D01*
X89632429Y-81712232D01*
X89693172Y-81689868D01*
X89760021Y-81663684D01*
X89820814Y-81639917D01*
X89894959Y-81615171D01*
X89957892Y-81602145D01*
X90018230Y-81600023D01*
X90084590Y-81607986D01*
G37*
G36*
X90328541Y-85183478D02*
G01*
X90323980Y-85403777D01*
X90276157Y-85445496D01*
X90221985Y-85479618D01*
X90150165Y-85503443D01*
X90071996Y-85519671D01*
X90071996Y-85828231D01*
X90072066Y-85863528D01*
X90072889Y-85950819D01*
X90074519Y-86025993D01*
X90076811Y-86084880D01*
X90079618Y-86123309D01*
X90082795Y-86137111D01*
X90094552Y-86140075D01*
X90123923Y-86160668D01*
X90150629Y-86191999D01*
X90164674Y-86223520D01*
X90166443Y-86235154D01*
X90172691Y-86278183D01*
X90179585Y-86327524D01*
X90181071Y-86338396D01*
X90186698Y-86369182D01*
X90197090Y-86388567D01*
X90218178Y-86400451D01*
X90255894Y-86408734D01*
X90316168Y-86417314D01*
X90410245Y-86441013D01*
X90496859Y-86483878D01*
X90568317Y-86541633D01*
X90618191Y-86610172D01*
X90625394Y-86627225D01*
X90640498Y-86675805D01*
X90655860Y-86738609D01*
X90669070Y-86806348D01*
X90682586Y-86878899D01*
X90703095Y-86960337D01*
X90727466Y-87022627D01*
X90758063Y-87071410D01*
X90797249Y-87112329D01*
X90809757Y-87123029D01*
X90843781Y-87146235D01*
X90879513Y-87156691D01*
X90930404Y-87159126D01*
X90950591Y-87158637D01*
X90985204Y-87154635D01*
X91023337Y-87145038D01*
X91070533Y-87127993D01*
X91132335Y-87101645D01*
X91214285Y-87064139D01*
X91216223Y-87063236D01*
X91282250Y-87031895D01*
X91364425Y-86992000D01*
X91459954Y-86944975D01*
X91566040Y-86892248D01*
X91679890Y-86835245D01*
X91798708Y-86775391D01*
X91919699Y-86714114D01*
X92040067Y-86652840D01*
X92157019Y-86592995D01*
X92267759Y-86536005D01*
X92369491Y-86483297D01*
X92459422Y-86436297D01*
X92534755Y-86396432D01*
X92592696Y-86365128D01*
X92630449Y-86343811D01*
X92645221Y-86333907D01*
X92649405Y-86314098D01*
X92652993Y-86271560D01*
X92655518Y-86212749D01*
X92656603Y-86143990D01*
X92657269Y-86090142D01*
X92661701Y-86011587D01*
X92664561Y-85994958D01*
X92822222Y-85994958D01*
X92828388Y-86014495D01*
X92855998Y-86045040D01*
X92899044Y-86072926D01*
X92950094Y-86092485D01*
X92968164Y-86096928D01*
X93078714Y-86113674D01*
X93173195Y-86107953D01*
X93253393Y-86079690D01*
X93288589Y-86060787D01*
X93247911Y-86028351D01*
X93227871Y-86014936D01*
X93182121Y-85998398D01*
X93117199Y-85990182D01*
X93078941Y-85986529D01*
X93019855Y-85972380D01*
X92968200Y-85945427D01*
X92948424Y-85933062D01*
X92911949Y-85913940D01*
X92888143Y-85906405D01*
X92877984Y-85908823D01*
X92852517Y-85929365D01*
X92831174Y-85961778D01*
X92822222Y-85994958D01*
X92664561Y-85994958D01*
X92672038Y-85951476D01*
X92690337Y-85903228D01*
X92718652Y-85860263D01*
X92759039Y-85815998D01*
X92809138Y-85765899D01*
X92502500Y-85613529D01*
X92444640Y-85584713D01*
X92266335Y-85494912D01*
X92112238Y-85415539D01*
X91980701Y-85345665D01*
X91870078Y-85284361D01*
X91778722Y-85230697D01*
X91704986Y-85183743D01*
X91647224Y-85142571D01*
X91603788Y-85106249D01*
X91598192Y-85101027D01*
X91561111Y-85063469D01*
X91544485Y-85036822D01*
X91546227Y-85015064D01*
X91564249Y-84992172D01*
X91568180Y-84988598D01*
X91591694Y-84976879D01*
X91625747Y-84973683D01*
X91672927Y-84979628D01*
X91735820Y-84995334D01*
X91817017Y-85021422D01*
X91919105Y-85058511D01*
X92044671Y-85107221D01*
X92116633Y-85136623D01*
X92274595Y-85206435D01*
X92437808Y-85284826D01*
X92598053Y-85367623D01*
X92747109Y-85450651D01*
X92876755Y-85529736D01*
X92951208Y-85577839D01*
X93016781Y-85552797D01*
X93058063Y-85539233D01*
X93096126Y-85535625D01*
X93137527Y-85544284D01*
X93181280Y-85561292D01*
X93245499Y-85604202D01*
X93289080Y-85659468D01*
X93303749Y-85679585D01*
X93329602Y-85697985D01*
X93371876Y-85716659D01*
X93436383Y-85738734D01*
X93509835Y-85763918D01*
X93622322Y-85807722D01*
X93742170Y-85859612D01*
X93866792Y-85918054D01*
X93993603Y-85981515D01*
X94120018Y-86048462D01*
X94142097Y-86060787D01*
X94243451Y-86117364D01*
X94361316Y-86186687D01*
X94471029Y-86254898D01*
X94570003Y-86320465D01*
X94655653Y-86381855D01*
X94725394Y-86437536D01*
X94776640Y-86485974D01*
X94806805Y-86525637D01*
X94813305Y-86554992D01*
X94800611Y-86580265D01*
X94765188Y-86602347D01*
X94714141Y-86603851D01*
X94665988Y-86594686D01*
X94564150Y-86570517D01*
X94447496Y-86538102D01*
X94323377Y-86499657D01*
X94199143Y-86457394D01*
X94082143Y-86413526D01*
X93977416Y-86371917D01*
X93858084Y-86324019D01*
X93760757Y-86284241D01*
X93682609Y-86251389D01*
X93620815Y-86224270D01*
X93572552Y-86201693D01*
X93534993Y-86182463D01*
X93455782Y-86139560D01*
X93455782Y-86197889D01*
X93458018Y-86228258D01*
X93472608Y-86270091D01*
X93505263Y-86316601D01*
X93554744Y-86376986D01*
X93521944Y-86447781D01*
X93474214Y-86522885D01*
X93401977Y-86592297D01*
X93314361Y-86644290D01*
X93308780Y-86646678D01*
X93231657Y-86668708D01*
X93141568Y-86679373D01*
X93051243Y-86677948D01*
X92973413Y-86663709D01*
X92901417Y-86641376D01*
X92771825Y-86715816D01*
X92745772Y-86730894D01*
X92673159Y-86773789D01*
X92600926Y-86817480D01*
X92541440Y-86854523D01*
X92540771Y-86854950D01*
X92495885Y-86883221D01*
X92432376Y-86922772D01*
X92356098Y-86969979D01*
X92272908Y-87021216D01*
X92188662Y-87072861D01*
X92105155Y-87123975D01*
X92017994Y-87177430D01*
X91936190Y-87227697D01*
X91866151Y-87270837D01*
X91814286Y-87302914D01*
X91795353Y-87314654D01*
X91731156Y-87354345D01*
X91653560Y-87402198D01*
X91570685Y-87453211D01*
X91490649Y-87502378D01*
X91405908Y-87555134D01*
X91328392Y-87606083D01*
X91268925Y-87649664D01*
X91223634Y-87689317D01*
X91188644Y-87728484D01*
X91160080Y-87770608D01*
X91134068Y-87819128D01*
X91125860Y-87835944D01*
X91107785Y-87876259D01*
X91096459Y-87911729D01*
X91090343Y-87950763D01*
X91087899Y-88001772D01*
X91087588Y-88073163D01*
X91087817Y-88093989D01*
X91088289Y-88136891D01*
X91091133Y-88192840D01*
X91097389Y-88235066D01*
X91108354Y-88271746D01*
X91125325Y-88311054D01*
X91143146Y-88344961D01*
X91174577Y-88393683D01*
X91204063Y-88428609D01*
X91215776Y-88438957D01*
X91239355Y-88458061D01*
X91271643Y-88482523D01*
X91314172Y-88513396D01*
X91368473Y-88551731D01*
X91436079Y-88598581D01*
X91518519Y-88654998D01*
X91617327Y-88722034D01*
X91734034Y-88800740D01*
X91870170Y-88892169D01*
X92027269Y-88997372D01*
X92206861Y-89117403D01*
X92282148Y-89167731D01*
X92400926Y-89247333D01*
X92510898Y-89321279D01*
X92609895Y-89388095D01*
X92695751Y-89446313D01*
X92766299Y-89494461D01*
X92819373Y-89531068D01*
X92852805Y-89554663D01*
X92864428Y-89563775D01*
X92864080Y-89564553D01*
X92848435Y-89575486D01*
X92814179Y-89594466D01*
X92767722Y-89617906D01*
X92765867Y-89618808D01*
X92702575Y-89650183D01*
X92629841Y-89687130D01*
X92563039Y-89721841D01*
X92543933Y-89731887D01*
X92497430Y-89755973D01*
X92463848Y-89772832D01*
X92449433Y-89779303D01*
X92446731Y-89778341D01*
X92424167Y-89767267D01*
X92382801Y-89745751D01*
X92327278Y-89716229D01*
X92262244Y-89681136D01*
X92206210Y-89650694D01*
X92038355Y-89559413D01*
X91884487Y-89475603D01*
X91746876Y-89400504D01*
X91627795Y-89335356D01*
X91529515Y-89281401D01*
X91454308Y-89239880D01*
X91361704Y-89188832D01*
X91269399Y-89138972D01*
X91197005Y-89101398D01*
X91141831Y-89074827D01*
X91101188Y-89057975D01*
X91072386Y-89049560D01*
X91052736Y-89048298D01*
X91038871Y-89051777D01*
X91017286Y-89067343D01*
X90993541Y-89099536D01*
X90963344Y-89153401D01*
X90919494Y-89228569D01*
X90836010Y-89334933D01*
X90739722Y-89416102D01*
X90629439Y-89472992D01*
X90503968Y-89506519D01*
X90502844Y-89506703D01*
X90450690Y-89512591D01*
X90375342Y-89517666D01*
X90282233Y-89521849D01*
X90176799Y-89525063D01*
X90064474Y-89527229D01*
X89950693Y-89528270D01*
X89840889Y-89528107D01*
X89740499Y-89526664D01*
X89654956Y-89523862D01*
X89589694Y-89519623D01*
X89528496Y-89512988D01*
X89406435Y-89492379D01*
X89309401Y-89463946D01*
X89235381Y-89427163D01*
X89207860Y-89407752D01*
X89128474Y-89336056D01*
X89057523Y-89250160D01*
X89004259Y-89160727D01*
X89002773Y-89157590D01*
X88978776Y-89110310D01*
X88957596Y-89074136D01*
X88943662Y-89056677D01*
X88930489Y-89051591D01*
X88888355Y-89053439D01*
X88826300Y-89072702D01*
X88743539Y-89109658D01*
X88639286Y-89164586D01*
X88584806Y-89194891D01*
X88503248Y-89240365D01*
X88411535Y-89291581D01*
X88317812Y-89343988D01*
X88230224Y-89393034D01*
X88156916Y-89434168D01*
X88087062Y-89473404D01*
X87956344Y-89546669D01*
X87847584Y-89607345D01*
X87758694Y-89656556D01*
X87687588Y-89695427D01*
X87632177Y-89725080D01*
X87590374Y-89746641D01*
X87560092Y-89761233D01*
X87539244Y-89769979D01*
X87525741Y-89774004D01*
X87517253Y-89774940D01*
X87482919Y-89769560D01*
X87433552Y-89750418D01*
X87364966Y-89716005D01*
X87343101Y-89704333D01*
X87277418Y-89669437D01*
X87215032Y-89636503D01*
X87166979Y-89611364D01*
X87133480Y-89593154D01*
X87103276Y-89574586D01*
X87091794Y-89564366D01*
X87100355Y-89556932D01*
X87130001Y-89535401D01*
X87177767Y-89502129D01*
X87240452Y-89459316D01*
X87314854Y-89409165D01*
X87397774Y-89353878D01*
X87454070Y-89316526D01*
X87679596Y-89166693D01*
X87881775Y-89032021D01*
X88061248Y-88912075D01*
X88218658Y-88806418D01*
X88354648Y-88714613D01*
X88469861Y-88636223D01*
X88564938Y-88570812D01*
X88640523Y-88517942D01*
X88697257Y-88477178D01*
X88735785Y-88448081D01*
X88756748Y-88430217D01*
X88788457Y-88394728D01*
X88833197Y-88321289D01*
X88860997Y-88233563D01*
X88866217Y-88190622D01*
X89097692Y-88190622D01*
X89097758Y-88351225D01*
X89099945Y-88487288D01*
X89104529Y-88602652D01*
X89111785Y-88701160D01*
X89121991Y-88786653D01*
X89135420Y-88862974D01*
X89152351Y-88933965D01*
X89156460Y-88948948D01*
X89171356Y-88999246D01*
X89183880Y-89035753D01*
X89191669Y-89051410D01*
X89193524Y-89047459D01*
X89195854Y-89020613D01*
X89197217Y-88972562D01*
X89197506Y-88908014D01*
X89196616Y-88831673D01*
X89196036Y-88794625D01*
X89195480Y-88677163D01*
X89196562Y-88553028D01*
X89198580Y-88452378D01*
X89371108Y-88452378D01*
X89376172Y-88576891D01*
X89409762Y-88704057D01*
X89438680Y-88767480D01*
X89506982Y-88867833D01*
X89595266Y-88955753D01*
X89698234Y-89026340D01*
X89810587Y-89074695D01*
X89844142Y-89083972D01*
X89965233Y-89100111D01*
X90083263Y-89090723D01*
X90195389Y-89058322D01*
X90298766Y-89005420D01*
X90390551Y-88934530D01*
X90467903Y-88848164D01*
X90527977Y-88748835D01*
X90567929Y-88639056D01*
X90584918Y-88521339D01*
X90576100Y-88398197D01*
X90573117Y-88382743D01*
X90535691Y-88263168D01*
X90474195Y-88156604D01*
X90386531Y-88059302D01*
X90307706Y-87993739D01*
X90224175Y-87943974D01*
X90135300Y-87913476D01*
X90032589Y-87898387D01*
X89987117Y-87896226D01*
X89856906Y-87906953D01*
X89738199Y-87944003D01*
X89630085Y-88007740D01*
X89531652Y-88098529D01*
X89524754Y-88106303D01*
X89445632Y-88215929D01*
X89394339Y-88331672D01*
X89371108Y-88452378D01*
X89198580Y-88452378D01*
X89199105Y-88426163D01*
X89202933Y-88300507D01*
X89207870Y-88180002D01*
X89213741Y-88068590D01*
X89220368Y-87970211D01*
X89227577Y-87888807D01*
X89235190Y-87828318D01*
X89243032Y-87792686D01*
X89254277Y-87767516D01*
X89282078Y-87717475D01*
X89319197Y-87658373D01*
X89360738Y-87598299D01*
X89391407Y-87555285D01*
X89428863Y-87500260D01*
X89458104Y-87454411D01*
X89474591Y-87424663D01*
X89477551Y-87415731D01*
X89485544Y-87376422D01*
X89494792Y-87314388D01*
X89504826Y-87233817D01*
X89515179Y-87138898D01*
X89525379Y-87033821D01*
X89534958Y-86922775D01*
X89543446Y-86809948D01*
X89544639Y-86772410D01*
X89541125Y-86758209D01*
X89532999Y-86770989D01*
X89520672Y-86810071D01*
X89504551Y-86874774D01*
X89483960Y-86962982D01*
X89455909Y-87078810D01*
X89431180Y-87173055D01*
X89408281Y-87249747D01*
X89385722Y-87312913D01*
X89362011Y-87366581D01*
X89335656Y-87414780D01*
X89305167Y-87461536D01*
X89269052Y-87510879D01*
X89263303Y-87518547D01*
X89219744Y-87581223D01*
X89177840Y-87648223D01*
X89145941Y-87706292D01*
X89100057Y-87799886D01*
X89097785Y-88174262D01*
X89097692Y-88190622D01*
X88866217Y-88190622D01*
X88874109Y-88125707D01*
X88874371Y-88120655D01*
X88872032Y-87996863D01*
X88853158Y-87885453D01*
X88818790Y-87792686D01*
X88809269Y-87775626D01*
X88778456Y-87733406D01*
X88734914Y-87689389D01*
X88675382Y-87640816D01*
X88596596Y-87584926D01*
X88495295Y-87518958D01*
X88466041Y-87500434D01*
X88397692Y-87457084D01*
X88336329Y-87418073D01*
X88287740Y-87387083D01*
X88257710Y-87367795D01*
X88246717Y-87360721D01*
X88197405Y-87329644D01*
X88129720Y-87287651D01*
X88046965Y-87236742D01*
X87952442Y-87178911D01*
X87849452Y-87116157D01*
X87741298Y-87050477D01*
X87631282Y-86983868D01*
X87522705Y-86918327D01*
X87418870Y-86855851D01*
X87323079Y-86798438D01*
X87238634Y-86748084D01*
X87168836Y-86706786D01*
X87116989Y-86676543D01*
X87086393Y-86659350D01*
X87076483Y-86655688D01*
X87035395Y-86654480D01*
X86971200Y-86666010D01*
X86923330Y-86674956D01*
X86808428Y-86678638D01*
X86698238Y-86658331D01*
X86597356Y-86615734D01*
X86510381Y-86552545D01*
X86441910Y-86470462D01*
X86425648Y-86444086D01*
X86407348Y-86411883D01*
X86400227Y-86395518D01*
X86405211Y-86385171D01*
X86423852Y-86357445D01*
X86451568Y-86320403D01*
X86481272Y-86278109D01*
X86496611Y-86241478D01*
X86498365Y-86204612D01*
X86493821Y-86154720D01*
X86414626Y-86192941D01*
X86371437Y-86212892D01*
X86298495Y-86244511D01*
X86210176Y-86281201D01*
X86110679Y-86321356D01*
X86004204Y-86363370D01*
X85894950Y-86405639D01*
X85787117Y-86446555D01*
X85684906Y-86484514D01*
X85592516Y-86517909D01*
X85514146Y-86545135D01*
X85453997Y-86564586D01*
X85416269Y-86574656D01*
X85406659Y-86576594D01*
X85367062Y-86585214D01*
X85320295Y-86595963D01*
X85274252Y-86605445D01*
X85206837Y-86611936D01*
X85161730Y-86604655D01*
X85140479Y-86583706D01*
X85137851Y-86555190D01*
X85150990Y-86522891D01*
X85183226Y-86484227D01*
X85237336Y-86434934D01*
X85255874Y-86419561D01*
X85347007Y-86351113D01*
X85460673Y-86274832D01*
X85593410Y-86192802D01*
X85741756Y-86107104D01*
X85821062Y-86063975D01*
X86668331Y-86063975D01*
X86717867Y-86084608D01*
X86743759Y-86094585D01*
X86803823Y-86109507D01*
X86867965Y-86111507D01*
X86947392Y-86101406D01*
X87002272Y-86089403D01*
X87065594Y-86069023D01*
X87114277Y-86045724D01*
X87141308Y-86022362D01*
X87144483Y-86015209D01*
X87143237Y-85981980D01*
X87125996Y-85946354D01*
X87097919Y-85920449D01*
X87087865Y-85915494D01*
X87065761Y-85910915D01*
X87040317Y-85919383D01*
X87001823Y-85943198D01*
X86974963Y-85959581D01*
X86922071Y-85980087D01*
X86857438Y-85988050D01*
X86835934Y-85989436D01*
X86773438Y-86001553D01*
X86721507Y-86027841D01*
X86668331Y-86063975D01*
X85821062Y-86063975D01*
X85902250Y-86019823D01*
X86071430Y-85933040D01*
X86143684Y-85897196D01*
X86216354Y-85861868D01*
X86276357Y-85834134D01*
X86330907Y-85810958D01*
X86387219Y-85789305D01*
X86452509Y-85766139D01*
X86533992Y-85738425D01*
X86583593Y-85720627D01*
X86628353Y-85699824D01*
X86659510Y-85676688D01*
X86685183Y-85646271D01*
X86723284Y-85606089D01*
X86774891Y-85569027D01*
X86829027Y-85542299D01*
X86875491Y-85532029D01*
X86882195Y-85532481D01*
X86917841Y-85540309D01*
X86960490Y-85554787D01*
X87017368Y-85577545D01*
X87115572Y-85514143D01*
X87271743Y-85418341D01*
X87460903Y-85313482D01*
X87655826Y-85216079D01*
X87849878Y-85129254D01*
X88036425Y-85056127D01*
X88208830Y-84999821D01*
X88249718Y-84989168D01*
X88321403Y-84977544D01*
X88373149Y-84979844D01*
X88403359Y-84995505D01*
X88410436Y-85023964D01*
X88392784Y-85064658D01*
X88384786Y-85074857D01*
X88350674Y-85107556D01*
X88300007Y-85148639D01*
X88238613Y-85193742D01*
X88172322Y-85238504D01*
X88106961Y-85278563D01*
X88100711Y-85282155D01*
X87993625Y-85341931D01*
X87868556Y-85409060D01*
X87732651Y-85479906D01*
X87593059Y-85550834D01*
X87456928Y-85618209D01*
X87331406Y-85678396D01*
X87223642Y-85727761D01*
X87147113Y-85761655D01*
X87196937Y-85805401D01*
X87204687Y-85812347D01*
X87246581Y-85857729D01*
X87275948Y-85908399D01*
X87294636Y-85970117D01*
X87300296Y-86015209D01*
X87304494Y-86048648D01*
X87307370Y-86149753D01*
X87307370Y-86321419D01*
X87352832Y-86359673D01*
X87370467Y-86370907D01*
X87412117Y-86394100D01*
X87474239Y-86427200D01*
X87553986Y-86468786D01*
X87648506Y-86517433D01*
X87754952Y-86571719D01*
X87870473Y-86630221D01*
X87992222Y-86691516D01*
X88117348Y-86754181D01*
X88243003Y-86816793D01*
X88366338Y-86877930D01*
X88484503Y-86936167D01*
X88594649Y-86990084D01*
X88693926Y-87038255D01*
X88779487Y-87079259D01*
X88848482Y-87111673D01*
X88898061Y-87134073D01*
X88925375Y-87145037D01*
X88930448Y-87146562D01*
X89009032Y-87156660D01*
X89088786Y-87145315D01*
X89158019Y-87114081D01*
X89158534Y-87113731D01*
X89212587Y-87059708D01*
X89253361Y-86980724D01*
X89280442Y-86877576D01*
X89282292Y-86867038D01*
X89300830Y-86768397D01*
X89312067Y-86719664D01*
X89542305Y-86719664D01*
X89544029Y-86736753D01*
X89548360Y-86739005D01*
X89553628Y-86727153D01*
X89552589Y-86719531D01*
X89544029Y-86717554D01*
X89542305Y-86719664D01*
X89312067Y-86719664D01*
X89316704Y-86699555D01*
X90417994Y-86699555D01*
X90418296Y-86706425D01*
X90419587Y-86727153D01*
X90420388Y-86740016D01*
X90422607Y-86772410D01*
X90424125Y-86794575D01*
X90429120Y-86864764D01*
X90434986Y-86945250D01*
X90441336Y-87030695D01*
X90447782Y-87115765D01*
X90453939Y-87195124D01*
X90457336Y-87233218D01*
X90471335Y-87329026D01*
X90493797Y-87408551D01*
X90527814Y-87480881D01*
X90576480Y-87555101D01*
X90580993Y-87561337D01*
X90622846Y-87622681D01*
X90663380Y-87687335D01*
X90694402Y-87742289D01*
X90701735Y-87756776D01*
X90718676Y-87794270D01*
X90730309Y-87830757D01*
X90738145Y-87873688D01*
X90743697Y-87930510D01*
X90748477Y-88008673D01*
X90748772Y-88014345D01*
X90751393Y-88079274D01*
X90753954Y-88166673D01*
X90756336Y-88270855D01*
X90758422Y-88386133D01*
X90760096Y-88506820D01*
X90760234Y-88521339D01*
X90761239Y-88627232D01*
X90761583Y-88672484D01*
X90762574Y-88778312D01*
X90763722Y-88873039D01*
X90764967Y-88953125D01*
X90766250Y-89015030D01*
X90767511Y-89055216D01*
X90768690Y-89070144D01*
X90773179Y-89064517D01*
X90783267Y-89037079D01*
X90796698Y-88992761D01*
X90811770Y-88937821D01*
X90826782Y-88878515D01*
X90840032Y-88821097D01*
X90849820Y-88771825D01*
X90852900Y-88750715D01*
X90858777Y-88690010D01*
X90863923Y-88610308D01*
X90868262Y-88516385D01*
X90871719Y-88413015D01*
X90874216Y-88304976D01*
X90875680Y-88197042D01*
X90876033Y-88093989D01*
X90875200Y-88000594D01*
X90873105Y-87921631D01*
X90869673Y-87861876D01*
X90864827Y-87826105D01*
X90857822Y-87800642D01*
X90823453Y-87711518D01*
X90771299Y-87617362D01*
X90698376Y-87512551D01*
X90666208Y-87468296D01*
X90628955Y-87410758D01*
X90597409Y-87351774D01*
X90569935Y-87286837D01*
X90544898Y-87211436D01*
X90520661Y-87121060D01*
X90495591Y-87011200D01*
X90468051Y-86877346D01*
X90450565Y-86792309D01*
X90436037Y-86728303D01*
X90425668Y-86691162D01*
X90419604Y-86681405D01*
X90417994Y-86699555D01*
X89316704Y-86699555D01*
X89318226Y-86692952D01*
X89336351Y-86635740D01*
X89357077Y-86591797D01*
X89382276Y-86556160D01*
X89413818Y-86523867D01*
X89424648Y-86514733D01*
X89481088Y-86478913D01*
X89552966Y-86445449D01*
X89629814Y-86418737D01*
X89701164Y-86403173D01*
X89703422Y-86402876D01*
X89739025Y-86396849D01*
X89761604Y-86386199D01*
X89775081Y-86364913D01*
X89783382Y-86326978D01*
X89790428Y-86266382D01*
X89794359Y-86239704D01*
X89810737Y-86197668D01*
X89844604Y-86161541D01*
X89892007Y-86121495D01*
X89894393Y-85819563D01*
X89894737Y-85769066D01*
X89894869Y-85678293D01*
X89893991Y-85611419D01*
X89891902Y-85565090D01*
X89888406Y-85535951D01*
X89883303Y-85520649D01*
X89876395Y-85515830D01*
X89868313Y-85515015D01*
X89845210Y-85511580D01*
X89843708Y-85511248D01*
X89820433Y-85506395D01*
X89783860Y-85498975D01*
X89722035Y-85473098D01*
X89671692Y-85425427D01*
X89640797Y-85362900D01*
X89636025Y-85337282D01*
X89630713Y-85284477D01*
X89627073Y-85217951D01*
X89625704Y-85146279D01*
X89626059Y-85105940D01*
X89631097Y-85018927D01*
X89643579Y-84953505D01*
X89646899Y-84946089D01*
X90063918Y-84946089D01*
X90073980Y-84969086D01*
X90098844Y-85007230D01*
X90140104Y-85064193D01*
X90149402Y-85076637D01*
X90181578Y-85117652D01*
X90206564Y-85146425D01*
X90219586Y-85157358D01*
X90220343Y-85157324D01*
X90228713Y-85143788D01*
X90230693Y-85112039D01*
X90227057Y-85071176D01*
X90218582Y-85030296D01*
X90206043Y-84998494D01*
X90187131Y-84974084D01*
X90138443Y-84941381D01*
X90082175Y-84930844D01*
X90081824Y-84930861D01*
X90067064Y-84934571D01*
X90063918Y-84946089D01*
X89646899Y-84946089D01*
X89665398Y-84904764D01*
X89698444Y-84867798D01*
X89744610Y-84837696D01*
X89751025Y-84834352D01*
X89779960Y-84821538D01*
X89811287Y-84813105D01*
X89851603Y-84808161D01*
X89907508Y-84805818D01*
X89985601Y-84805185D01*
X90053666Y-84805992D01*
X90130718Y-84811087D01*
X90188396Y-84822514D01*
X90232150Y-84842154D01*
X90267432Y-84871890D01*
X90299694Y-84913603D01*
X90305702Y-84922713D01*
X90316723Y-84942544D01*
X90324107Y-84964796D01*
X90328417Y-84994742D01*
X90330217Y-85037656D01*
X90330071Y-85098810D01*
X90329832Y-85112039D01*
X90328541Y-85183478D01*
G37*
%TD*%
M02*
