%TF.GenerationSoftware,KiCad,Pcbnew,9.0.3*%
%TF.CreationDate,2025-09-10T14:09:53+02:00*%
%TF.ProjectId,FC_H7_Client,46435f48-375f-4436-9c69-656e742e6b69,rev?*%
%TF.SameCoordinates,Original*%
%TF.FileFunction,Copper,L7,Inr*%
%TF.FilePolarity,Positive*%
%FSLAX46Y46*%
G04 Gerber Fmt 4.6, Leading zero omitted, Abs format (unit mm)*
G04 Created by KiCad (PCBNEW 9.0.3) date 2025-09-10 14:09:53*
%MOMM*%
%LPD*%
G01*
G04 APERTURE LIST*
%TA.AperFunction,ComponentPad*%
%ADD10R,1.500000X1.500000*%
%TD*%
%TA.AperFunction,ComponentPad*%
%ADD11C,4.500000*%
%TD*%
%TA.AperFunction,ViaPad*%
%ADD12C,0.400000*%
%TD*%
%TA.AperFunction,ViaPad*%
%ADD13C,0.500000*%
%TD*%
G04 APERTURE END LIST*
D10*
%TO.N,12V-CONTROLLED*%
%TO.C,12V-controlled1*%
X126850000Y-133700000D03*
%TD*%
%TO.N,Rx3*%
%TO.C,Rx6*%
X109750000Y-96750000D03*
%TD*%
%TO.N,GND*%
%TO.C,GND7*%
X133700000Y-128100000D03*
%TD*%
%TO.N,4.5V*%
%TO.C,+5V4*%
X133700000Y-119100000D03*
%TD*%
%TO.N,4.5V*%
%TO.C,4.5v1*%
X111450000Y-96750000D03*
%TD*%
%TO.N,Tx3*%
%TO.C,Tx6*%
X108050000Y-96750000D03*
%TD*%
%TO.N,BOOT0*%
%TO.C,boot0*%
X96750000Y-109500000D03*
%TD*%
%TO.N,GND*%
%TO.C,GND11*%
X133700000Y-116900000D03*
%TD*%
%TO.N,D+AVRES*%
%TO.C,d+1*%
X96750000Y-106100000D03*
%TD*%
%TO.N,Rx7*%
%TO.C,Rx7*%
X114850000Y-96750000D03*
%TD*%
%TO.N,Tx7*%
%TO.C,tx7*%
X113150000Y-96750000D03*
%TD*%
%TO.N,4.5V*%
%TO.C,+4.5v3*%
X96750000Y-112900000D03*
%TD*%
%TO.N,Tx6*%
%TO.C,Rx3*%
X104650000Y-96750000D03*
%TD*%
%TO.N,Net-(ESC1-Pad4)*%
%TO.C,M3*%
X119950000Y-96750000D03*
%TD*%
%TO.N,+12V*%
%TO.C,12v1*%
X125150000Y-133700000D03*
%TD*%
%TO.N,Net-(ESC2-Pad8)*%
%TO.C,M5*%
X133700000Y-113500000D03*
%TD*%
%TO.N,D-AVRES*%
%TO.C,d-1*%
X96750000Y-107800000D03*
%TD*%
%TO.N,I2C1_SDA*%
%TO.C,SCL1*%
X108475000Y-133700000D03*
%TD*%
%TO.N,I2C2_SDA*%
%TO.C,I2C2_SDA1*%
X133700000Y-126300000D03*
%TD*%
%TO.N,BUZ-*%
%TO.C,buz-1*%
X96750000Y-111200000D03*
%TD*%
%TO.N,Net-(ESC1-Pad3)*%
%TO.C,M4*%
X118250000Y-96750000D03*
%TD*%
%TO.N,Net-(ESC2-Pad2)*%
%TO.C,M11*%
X133700000Y-103300000D03*
%TD*%
%TO.N,+5V*%
%TO.C,+5V6*%
X104725000Y-133700000D03*
%TD*%
%TO.N,Net-(ESC1-Pad6)*%
%TO.C,M1*%
X123350000Y-96750000D03*
%TD*%
%TO.N,ADC_EXT3_CURR2_PAD*%
%TO.C,ADC_CURR2*%
X133700000Y-115200000D03*
%TD*%
%TO.N,GND*%
%TO.C,gnd3*%
X123450000Y-133700000D03*
%TD*%
%TO.N,GND*%
%TO.C,GND8*%
X106350000Y-96750000D03*
%TD*%
%TO.N,ESC_Curr*%
%TO.C,ADC_CURR1*%
X116550000Y-96750000D03*
%TD*%
%TO.N,GND*%
%TO.C,gnd1*%
X126750000Y-96750000D03*
%TD*%
%TO.N,GND*%
%TO.C,GND9*%
X118350000Y-133700000D03*
%TD*%
%TO.N,4.5V*%
%TO.C,+4.5V1*%
X128450000Y-96750000D03*
%TD*%
%TO.N,I2C1_SCL*%
%TO.C,SDA1*%
X110300000Y-133700000D03*
%TD*%
D11*
%TO.N,GND*%
%TO.C,Mounting_hole4*%
X130500000Y-100000000D03*
%TD*%
%TO.N,GND*%
%TO.C,Mounting_hole1*%
X130500000Y-130500000D03*
%TD*%
D10*
%TO.N,GND*%
%TO.C,gnd4*%
X106425000Y-133700000D03*
%TD*%
%TO.N,Tx8*%
%TO.C,Rx8*%
X133700000Y-122700000D03*
%TD*%
%TO.N,Net-(ESC2-Pad1)*%
%TO.C,M12*%
X133700000Y-101600000D03*
%TD*%
%TO.N,Tx1*%
%TO.C,tx1*%
X116650000Y-133700000D03*
%TD*%
%TO.N,Net-(ESC2-Pad6)*%
%TO.C,M7*%
X133700000Y-110100000D03*
%TD*%
%TO.N,GND*%
%TO.C,GND6*%
X96750000Y-104400000D03*
%TD*%
%TO.N,Rx4*%
%TO.C,Rx4*%
X120050000Y-133700000D03*
%TD*%
%TO.N,I2C2_SCL*%
%TO.C,I2C2_SCL1*%
X133700000Y-124500000D03*
%TD*%
%TO.N,+5V*%
%TO.C,+5V3*%
X112400000Y-133700000D03*
%TD*%
%TO.N,Tx4*%
%TO.C,tx4*%
X121750000Y-133700000D03*
%TD*%
%TO.N,Net-(ESC1-Pad5)*%
%TO.C,M2*%
X121650000Y-96750000D03*
%TD*%
D11*
%TO.N,GND*%
%TO.C,Mounting_hole3*%
X100000000Y-130500000D03*
%TD*%
D10*
%TO.N,Rx6{slash}ppm*%
%TO.C,Tx3*%
X102950000Y-96750000D03*
%TD*%
%TO.N,OSD_SWCLK*%
%TO.C,OSD_SWCLK1*%
X96750000Y-101025000D03*
%TD*%
%TO.N,Rx8*%
%TO.C,Tx8*%
X133700000Y-120900000D03*
%TD*%
D11*
%TO.N,GND*%
%TO.C,Mounting_hole2*%
X100000000Y-100000000D03*
%TD*%
D10*
%TO.N,GND*%
%TO.C,GND13*%
X101300000Y-133700000D03*
%TD*%
%TO.N,Net-(ESC2-Pad5)*%
%TO.C,M8*%
X133700000Y-108400000D03*
%TD*%
%TO.N,OSD_SWDIO*%
%TO.C,OSD_SWDIO1*%
X96750000Y-102675000D03*
%TD*%
%TO.N,VBAT+*%
%TO.C,VBAT+1*%
X125050000Y-96750000D03*
%TD*%
%TO.N,Net-(ESC2-Pad7)*%
%TO.C,M6*%
X133700000Y-111800000D03*
%TD*%
%TO.N,Net-(ESC2-Pad4)*%
%TO.C,M9*%
X133700000Y-106700000D03*
%TD*%
%TO.N,Rx1*%
%TO.C,rx1*%
X114950000Y-133700000D03*
%TD*%
%TO.N,Net-(ESC2-Pad3)*%
%TO.C,M10*%
X133700000Y-105000000D03*
%TD*%
%TO.N,VSOUT*%
%TO.C,VSOUT1*%
X103000000Y-133700000D03*
%TD*%
D12*
%TO.N,*%
X132600000Y-107375000D03*
%TO.N,GND*%
X108150000Y-119500000D03*
X114950000Y-106250000D03*
X131600000Y-103200000D03*
X122350000Y-98000000D03*
X104420000Y-122370000D03*
X129150000Y-111100000D03*
D13*
X120000000Y-112400000D03*
D12*
X124700000Y-127750000D03*
X131280000Y-125300000D03*
X99650000Y-115600000D03*
X118475000Y-112800000D03*
X126940000Y-126500000D03*
X123000000Y-112850000D03*
X97450000Y-127700000D03*
X121000000Y-125800000D03*
X102100000Y-126500000D03*
X130000000Y-120750000D03*
X105100000Y-104650000D03*
X131125000Y-113625000D03*
X106450000Y-129400000D03*
X104850000Y-125700000D03*
X103050000Y-106300000D03*
X102350000Y-127300000D03*
X114025000Y-109075000D03*
X129420000Y-112100000D03*
D13*
X115450000Y-104350000D03*
D12*
X114450000Y-128650000D03*
X106650000Y-98050000D03*
X132550000Y-108875000D03*
X117100000Y-108200000D03*
X96500000Y-117750000D03*
X107150000Y-129400000D03*
X124750000Y-120250000D03*
X126320000Y-112100000D03*
X126800000Y-115950000D03*
X119650000Y-105525000D03*
X126250000Y-104650000D03*
X98150000Y-126550000D03*
X112000000Y-114500000D03*
X96350000Y-116300000D03*
X132600000Y-110300000D03*
X111070000Y-120055000D03*
X118700000Y-116550000D03*
X112100000Y-103950000D03*
D13*
X121000000Y-111600000D03*
D12*
X131450000Y-115050000D03*
D13*
X122000000Y-111600000D03*
D12*
X125650000Y-105600000D03*
X102850000Y-115500000D03*
X132500000Y-123200000D03*
X107600000Y-110150000D03*
X111700000Y-123350000D03*
X118300000Y-127350000D03*
X117150000Y-126650000D03*
X110375000Y-123275000D03*
X128550000Y-125200000D03*
X108250000Y-123700000D03*
X130150000Y-119750000D03*
X114900000Y-120850000D03*
X103850000Y-98650000D03*
X119450000Y-132250000D03*
X114400000Y-116100000D03*
X112250000Y-101000000D03*
X98450000Y-124300000D03*
X101450000Y-109000000D03*
X128050000Y-117600000D03*
X111900000Y-119650000D03*
X103600000Y-116250000D03*
X99650000Y-125050000D03*
X132600000Y-112275000D03*
D13*
X115100000Y-107300000D03*
D12*
X104600000Y-113950000D03*
X129125000Y-106875000D03*
X115200000Y-112900000D03*
X129420000Y-126500000D03*
X124600000Y-128550000D03*
X102100000Y-115500000D03*
X131000000Y-117100000D03*
X99650000Y-116350000D03*
X119100000Y-110350000D03*
X102850000Y-125000000D03*
X100350000Y-105650000D03*
X128700000Y-118300000D03*
X125600000Y-107250000D03*
X99300000Y-104200000D03*
X129125000Y-105975000D03*
X116700000Y-120100000D03*
D13*
X121000000Y-112400000D03*
D12*
X125250000Y-131000000D03*
X131300000Y-121000000D03*
X120150000Y-129200000D03*
X115250000Y-130400000D03*
X115800000Y-100100000D03*
X104550000Y-106450000D03*
X129150000Y-103250000D03*
X113150000Y-131850000D03*
X128180000Y-126500000D03*
X99650000Y-114850000D03*
X123750000Y-122600000D03*
X106750000Y-110600000D03*
X129050000Y-122000000D03*
X109200000Y-123500000D03*
X127800000Y-113550000D03*
X115250000Y-131250000D03*
X103600000Y-126500000D03*
X109000000Y-98000000D03*
X131280000Y-123500000D03*
X109365000Y-109200000D03*
X132100000Y-106375000D03*
X110800000Y-113275000D03*
X117650000Y-113675000D03*
X102100000Y-125750000D03*
X129100000Y-107825000D03*
X107150000Y-130150000D03*
X111600000Y-116500000D03*
X131000000Y-122300000D03*
X127560000Y-126500000D03*
X130660000Y-126500000D03*
X110800000Y-112550000D03*
X105020000Y-119800000D03*
X118350000Y-132250000D03*
X123700000Y-120250000D03*
X117750000Y-111800000D03*
X131280000Y-118100000D03*
X131250000Y-119800000D03*
X125050000Y-105600000D03*
X116150000Y-111600000D03*
X119050000Y-98000000D03*
X111200000Y-114500000D03*
X104400000Y-104650000D03*
X98350000Y-113600000D03*
X98000000Y-118500000D03*
X113850000Y-98700000D03*
X120850000Y-101600000D03*
X116800000Y-117100000D03*
X102200000Y-106050000D03*
X103600000Y-114750000D03*
X102850000Y-126500000D03*
X126200000Y-105600000D03*
X107200000Y-115750000D03*
X125700000Y-99550000D03*
X118300000Y-104700000D03*
X99350000Y-116850000D03*
X96350000Y-114150000D03*
X115800000Y-99550000D03*
X110011089Y-113311089D03*
X122400000Y-132350000D03*
X98800000Y-108600000D03*
X132550000Y-121750000D03*
X126350000Y-122400000D03*
X110800000Y-110175000D03*
X102850000Y-125750000D03*
X105150000Y-105900000D03*
X102100000Y-125000000D03*
X99850000Y-118450000D03*
X126350000Y-124300000D03*
X98050000Y-102750000D03*
X104550000Y-105900000D03*
X127500000Y-120850000D03*
X129075000Y-109625000D03*
X104250000Y-108550000D03*
X120100000Y-109200000D03*
X120850000Y-132350000D03*
X131600000Y-107325000D03*
X103600000Y-125750000D03*
X121850000Y-104650000D03*
X118450000Y-114300000D03*
X108750000Y-125850000D03*
X126700000Y-123100000D03*
X98000000Y-111900000D03*
X100150000Y-124300000D03*
X98900000Y-114850000D03*
X97200000Y-117750000D03*
X103600000Y-125000000D03*
X106050000Y-125950000D03*
X106400000Y-130150000D03*
X130040000Y-126500000D03*
X119850000Y-99250000D03*
X99650000Y-126550000D03*
X98950000Y-118500000D03*
X131325000Y-104475000D03*
X110250000Y-97950000D03*
X118300000Y-128300000D03*
X104550000Y-107000000D03*
X107500000Y-98000000D03*
X100350000Y-127650000D03*
X129300000Y-115250000D03*
X109200000Y-112500000D03*
X122300000Y-131200000D03*
X119100000Y-120900000D03*
X131280000Y-126500000D03*
X98900000Y-125800000D03*
X122950000Y-99300000D03*
X98900000Y-126550000D03*
X130100000Y-116950000D03*
X114900000Y-121450000D03*
X112900000Y-129050000D03*
X105550000Y-121025000D03*
X122450000Y-129450000D03*
X98150000Y-114850000D03*
X98150000Y-116350000D03*
X120800000Y-98000000D03*
X111700000Y-129150000D03*
X98150000Y-125050000D03*
X125700000Y-100050000D03*
X124550000Y-125450000D03*
X121000000Y-117250000D03*
X122600000Y-113650000D03*
X128800000Y-126500000D03*
X115600000Y-128600000D03*
X102100000Y-116250000D03*
X120800000Y-131500000D03*
X132500000Y-125050000D03*
X121850000Y-103700000D03*
X112800000Y-114500000D03*
X107500000Y-104300000D03*
X125700000Y-99000000D03*
X98150000Y-125800000D03*
X96500000Y-117050000D03*
X115200000Y-111300000D03*
X131550000Y-112450000D03*
X98550000Y-104200000D03*
X131175000Y-110900000D03*
X132625000Y-105800000D03*
X115350000Y-105850000D03*
X129750000Y-114250000D03*
X98900000Y-125050000D03*
X117550000Y-98000000D03*
X113850000Y-99450000D03*
X115750000Y-113700000D03*
X120900000Y-104600000D03*
X98800000Y-121750000D03*
X132600000Y-114100000D03*
X99650000Y-125800000D03*
X125250000Y-130200000D03*
X121850000Y-101600000D03*
X116450000Y-130500000D03*
X125750000Y-115300000D03*
X128350000Y-133100000D03*
X107075000Y-125850000D03*
X129175000Y-104200000D03*
X98000000Y-110450000D03*
X129150000Y-105050000D03*
X123700000Y-117185000D03*
X99650000Y-121750000D03*
X119950000Y-101600000D03*
X125200000Y-104650000D03*
X108550000Y-104300000D03*
X113850000Y-100000000D03*
X132550000Y-104575000D03*
X98800000Y-110450000D03*
X97200000Y-117050000D03*
X115800000Y-99000000D03*
X113150000Y-131000000D03*
X98700000Y-111900000D03*
X118300000Y-105525000D03*
X113350000Y-124500000D03*
X118400000Y-130450000D03*
X126150000Y-107250000D03*
X131280000Y-124100000D03*
X110000000Y-103850000D03*
X106150000Y-112200000D03*
X130900000Y-115050000D03*
X130350000Y-115050000D03*
X125250000Y-131800000D03*
X98000000Y-121800000D03*
X132550000Y-102750000D03*
X102850000Y-114750000D03*
X98900000Y-116350000D03*
X110300000Y-124600000D03*
X131280000Y-115700000D03*
X116150000Y-128050000D03*
X109200000Y-118450000D03*
X102000000Y-124400000D03*
X106200000Y-115700000D03*
X119725000Y-104700000D03*
X103600000Y-115500000D03*
X125700000Y-104650000D03*
X126000000Y-121550000D03*
X102100000Y-114750000D03*
X102850000Y-116250000D03*
X100050000Y-116850000D03*
X113850000Y-98000000D03*
X120900000Y-103700000D03*
X131350000Y-108250000D03*
X107200000Y-117800000D03*
D13*
X114400000Y-105400000D03*
X120000000Y-111600000D03*
D12*
X117950000Y-117100000D03*
X131800000Y-110200000D03*
X98550000Y-116850000D03*
X112800000Y-102200000D03*
X106000000Y-122200000D03*
X108000000Y-122650000D03*
X105650000Y-117650000D03*
X98000000Y-108600000D03*
X129075000Y-108700000D03*
X98150000Y-115600000D03*
X122550000Y-112000000D03*
X127950000Y-125200000D03*
X98900000Y-115600000D03*
X99350000Y-124300000D03*
X125700000Y-112100000D03*
X105700000Y-118650000D03*
D13*
X122000000Y-112400000D03*
D12*
X113350000Y-123950000D03*
X125750000Y-120250000D03*
X125050000Y-107250000D03*
X123700000Y-119700000D03*
X105750000Y-124600000D03*
X119900000Y-103700000D03*
X106000000Y-103850000D03*
X125000000Y-121500000D03*
X124350000Y-111950000D03*
X105925000Y-123375000D03*
X117250000Y-132250000D03*
%TO.N,4.5V*%
X124850000Y-123800000D03*
X116050000Y-100950000D03*
X125450000Y-123800000D03*
X116050000Y-101550000D03*
X124850000Y-123200000D03*
X103350000Y-112300000D03*
X115450000Y-101550000D03*
X115450000Y-100950000D03*
X102150000Y-112300000D03*
X102750000Y-112300000D03*
%TO.N,3.3VMCU*%
X115200000Y-110500000D03*
X114400000Y-116900000D03*
X102200000Y-104650000D03*
X102200000Y-105300000D03*
X114850000Y-103650000D03*
X114850000Y-103050000D03*
X115700000Y-122650000D03*
X117100000Y-111950000D03*
X112000000Y-113700000D03*
X111200000Y-113700000D03*
X114400000Y-115300000D03*
X112800000Y-113700000D03*
X115200000Y-112100000D03*
X116650000Y-112400000D03*
X115200000Y-122100000D03*
%TO.N,BOOT0*%
X112000000Y-115300000D03*
%TO.N,Net-(C12-Pad1)*%
X110400000Y-114500000D03*
%TO.N,Net-(C19-Pad1)*%
X109450000Y-113950000D03*
%TO.N,+5V*%
X104900000Y-109900000D03*
X97100000Y-123725000D03*
X104800000Y-99950000D03*
X105500000Y-108900000D03*
X96400000Y-123025000D03*
X105500000Y-109900000D03*
X104800000Y-100450000D03*
X104900000Y-108900000D03*
X97100000Y-123025000D03*
X96400000Y-123725000D03*
X106700000Y-109900000D03*
X106700000Y-108900000D03*
X110630000Y-120780000D03*
%TO.N,VBAT+*%
X124550000Y-99250000D03*
X124550000Y-99800000D03*
X124550000Y-100350000D03*
X124550000Y-100900000D03*
%TO.N,/Peripherials onboard/SDD2*%
X118850000Y-123875000D03*
%TO.N,/Peripherials onboard/SDCLK*%
X114450000Y-124175000D03*
%TO.N,/Peripherials onboard/SDCMD*%
X116725000Y-124025000D03*
%TO.N,/Peripherials onboard/SDD1*%
X111150000Y-126175000D03*
%TO.N,/Peripherials onboard/SDD3*%
X117750000Y-124425000D03*
%TO.N,/Peripherials onboard/SDD0*%
X112250000Y-125200000D03*
%TO.N,I2C2_SCL*%
X110750000Y-111650000D03*
X125250000Y-113950000D03*
%TO.N,I2C2_SDA*%
X124850000Y-113450000D03*
X110800000Y-110975000D03*
%TO.N,VIDEOIN*%
X113600000Y-104650000D03*
X105600000Y-107050000D03*
%TO.N,OSD_MISO{slash}SPI2*%
X109400000Y-106350000D03*
X107400000Y-111750000D03*
%TO.N,OSD_MOSI{slash}SPI2*%
X109400000Y-107200000D03*
X107400000Y-112550000D03*
%TO.N,OSD_SWDIO*%
X109450000Y-105450000D03*
%TO.N,OSD_SWCLK*%
X109450000Y-104600000D03*
%TO.N,VSOUT*%
X111191165Y-104150000D03*
X101450000Y-107950000D03*
%TO.N,CANH*%
X96450000Y-119200000D03*
X97150000Y-119900000D03*
X96450000Y-119900000D03*
X97150000Y-119200000D03*
%TO.N,CANL*%
X97125000Y-120950000D03*
X96425000Y-121650000D03*
X97125000Y-121650000D03*
X96425000Y-120950000D03*
%TO.N,FDCAN1_TX*%
X109375000Y-114725000D03*
X109960000Y-119480000D03*
%TO.N,FDCAN1_RX*%
X109960000Y-121430000D03*
X109600000Y-115300000D03*
%TO.N,BUZ-*%
X100050000Y-108100000D03*
%TO.N,SDMMC_CLK*%
X109600000Y-116100000D03*
X114100000Y-121500000D03*
%TO.N,IMU_CLK_EXTI*%
X111200000Y-112100000D03*
X129300000Y-117950000D03*
%TO.N,SDMMC_CMD*%
X116650000Y-121550000D03*
X110400000Y-116900000D03*
%TO.N,GYRO_CS{slash}SPI1*%
X119800000Y-117350000D03*
X127400000Y-117400000D03*
%TO.N,GYROEXTI*%
X112000000Y-112900000D03*
X124800000Y-118150000D03*
%TO.N,SDMMC_D3*%
X117750000Y-121550000D03*
X109600000Y-116900000D03*
%TO.N,SDMMC_D2*%
X108800000Y-116900000D03*
X118850000Y-121550000D03*
%TO.N,SDMMC_D0*%
X108800000Y-113700000D03*
X112250000Y-121550000D03*
%TO.N,SDMMC_D1*%
X111150000Y-121550000D03*
X108800000Y-114500000D03*
%TO.N,12V_OUT_CONTROL*%
X121500000Y-129400000D03*
X115550000Y-118250000D03*
%TO.N,BUZZER_TIM*%
X109600000Y-117700000D03*
X101550000Y-103950000D03*
%TO.N,Net-(IC2-EN)*%
X116200000Y-106200000D03*
X115500000Y-102750000D03*
X116300000Y-109400000D03*
%TO.N,Net-(IC3-EN)*%
X118650000Y-111200000D03*
X120650000Y-110550000D03*
X125600000Y-109950000D03*
%TO.N,CAM_SWITCH*%
X108800000Y-112900000D03*
X114125000Y-101325000D03*
%TO.N,M10*%
X112800000Y-111300000D03*
X130100000Y-107350000D03*
%TO.N,ADC_EXT3_CURR2*%
X115700000Y-112900000D03*
X130100000Y-110050000D03*
%TO.N,M7*%
X109200000Y-111700000D03*
X130100000Y-104650000D03*
%TO.N,Rx1*%
X106375000Y-115000000D03*
%TO.N,Rx8*%
X112800000Y-115300000D03*
%TO.N,Rx3*%
X108800000Y-111300000D03*
%TO.N,I2C1_SCL*%
X109700000Y-124300000D03*
X112000000Y-116900000D03*
%TO.N,M12*%
X130100000Y-109150000D03*
X113600000Y-115300000D03*
%TO.N,GYRO_MISO{slash}SPI1*%
X113600000Y-111300000D03*
X125000000Y-116300000D03*
%TO.N,GYRO_MOSI{slash}SPI1*%
X126000000Y-117700000D03*
X111200000Y-115300000D03*
%TO.N,Tx6*%
X108000000Y-113700000D03*
%TO.N,ADC_CURR*%
X114025000Y-110875000D03*
X117599998Y-100600000D03*
%TO.N,ADC_EXT2_VB2*%
X113600000Y-112900000D03*
X125250000Y-110950000D03*
%TO.N,M4*%
X114550000Y-110325000D03*
X119500000Y-100550000D03*
%TO.N,M1*%
X114800000Y-112500000D03*
X122300002Y-100570000D03*
%TO.N,Rx4*%
X112800000Y-116900000D03*
%TO.N,M5*%
X108000000Y-111300000D03*
X129600000Y-102850000D03*
%TO.N,Tx3*%
X108800000Y-110500000D03*
%TO.N,Tx7*%
X112000000Y-111300000D03*
%TO.N,Rx6{slash}ppm*%
X107200000Y-113700000D03*
%TO.N,M11*%
X130100000Y-108250000D03*
X113600000Y-114500000D03*
%TO.N,Tx1*%
X108400000Y-115700000D03*
%TO.N,SWDIO*%
X105000000Y-126850000D03*
%TO.N,SWCLK*%
X106575000Y-126850000D03*
%TO.N,M6*%
X108000000Y-110500000D03*
X129775000Y-103750000D03*
%TO.N,M9*%
X130100000Y-106450000D03*
X112800000Y-110500000D03*
%TO.N,GYRO_SPI_CLK{slash}SPI1*%
X113600000Y-112100000D03*
X125400000Y-116750000D03*
%TO.N,LED_TIM*%
X108400000Y-114950000D03*
X103350000Y-128000000D03*
%TO.N,Tx8*%
X112800000Y-116100000D03*
%TO.N,M3*%
X120400000Y-100550000D03*
X114800000Y-110850000D03*
%TO.N,Rx7*%
X112000000Y-112100000D03*
%TO.N,Tx4*%
X113650000Y-119000000D03*
%TO.N,M8*%
X130100000Y-105550000D03*
X110000000Y-112425000D03*
%TO.N,M2*%
X121350000Y-100570000D03*
X114800000Y-111700000D03*
%TO.N,Net-(LEDTIM1-Pad1)*%
X104600000Y-129700000D03*
%TO.N,Net-(ESC2-Pad8)*%
X131175000Y-109550000D03*
%TO.N,I2C1_SDA*%
X112290000Y-119020000D03*
X110100000Y-123900000D03*
%TO.N,D+AVRES*%
X101050000Y-120700000D03*
%TO.N,D-AVRES*%
X101050000Y-120100000D03*
%TO.N,ADC_EXT2_VB2_PAD*%
X126700000Y-110000000D03*
%TD*%
%TA.AperFunction,Conductor*%
%TO.N,GND*%
G36*
X107135148Y-96014852D02*
G01*
X107149500Y-96049500D01*
X107149500Y-97514823D01*
X107158232Y-97558721D01*
X107191495Y-97608504D01*
X107241278Y-97641767D01*
X107285180Y-97650500D01*
X108814820Y-97650500D01*
X108858722Y-97641767D01*
X108872778Y-97632374D01*
X108909559Y-97625058D01*
X108927219Y-97632373D01*
X108941278Y-97641767D01*
X108985180Y-97650500D01*
X110514820Y-97650500D01*
X110558722Y-97641767D01*
X110572778Y-97632374D01*
X110609559Y-97625058D01*
X110627219Y-97632373D01*
X110641278Y-97641767D01*
X110685180Y-97650500D01*
X112214820Y-97650500D01*
X112258722Y-97641767D01*
X112272778Y-97632374D01*
X112309559Y-97625058D01*
X112327219Y-97632373D01*
X112341278Y-97641767D01*
X112385180Y-97650500D01*
X113914820Y-97650500D01*
X113958722Y-97641767D01*
X113972778Y-97632374D01*
X114009559Y-97625058D01*
X114027219Y-97632373D01*
X114041278Y-97641767D01*
X114085180Y-97650500D01*
X115614820Y-97650500D01*
X115658722Y-97641767D01*
X115672778Y-97632374D01*
X115709559Y-97625058D01*
X115727219Y-97632373D01*
X115741278Y-97641767D01*
X115785180Y-97650500D01*
X117314820Y-97650500D01*
X117358722Y-97641767D01*
X117372778Y-97632374D01*
X117409559Y-97625058D01*
X117427219Y-97632373D01*
X117441278Y-97641767D01*
X117485180Y-97650500D01*
X119014820Y-97650500D01*
X119058722Y-97641767D01*
X119072778Y-97632374D01*
X119109559Y-97625058D01*
X119127219Y-97632373D01*
X119141278Y-97641767D01*
X119185180Y-97650500D01*
X120714820Y-97650500D01*
X120758722Y-97641767D01*
X120772778Y-97632374D01*
X120809559Y-97625058D01*
X120827219Y-97632373D01*
X120841278Y-97641767D01*
X120885180Y-97650500D01*
X122414820Y-97650500D01*
X122458722Y-97641767D01*
X122472778Y-97632374D01*
X122509559Y-97625058D01*
X122527219Y-97632373D01*
X122541278Y-97641767D01*
X122585180Y-97650500D01*
X124114820Y-97650500D01*
X124158722Y-97641767D01*
X124172778Y-97632374D01*
X124209559Y-97625058D01*
X124227219Y-97632373D01*
X124241278Y-97641767D01*
X124285180Y-97650500D01*
X125814820Y-97650500D01*
X125858722Y-97641767D01*
X125908504Y-97608504D01*
X125941767Y-97558722D01*
X125950500Y-97514820D01*
X125950500Y-96049500D01*
X125964852Y-96014852D01*
X125999500Y-96000500D01*
X127500500Y-96000500D01*
X127535148Y-96014852D01*
X127549500Y-96049500D01*
X127549500Y-97514823D01*
X127558232Y-97558721D01*
X127591495Y-97608504D01*
X127641278Y-97641767D01*
X127685180Y-97650500D01*
X129214820Y-97650500D01*
X129258722Y-97641767D01*
X129308504Y-97608504D01*
X129341767Y-97558722D01*
X129350500Y-97514820D01*
X129350500Y-96999500D01*
X129364852Y-96964852D01*
X129399500Y-96950500D01*
X131583592Y-96950500D01*
X131598397Y-96950500D01*
X131601602Y-96950605D01*
X131851259Y-96966968D01*
X131857613Y-96967805D01*
X132101411Y-97016300D01*
X132107601Y-97017958D01*
X132222663Y-97057016D01*
X132343007Y-97097867D01*
X132348914Y-97100314D01*
X132571878Y-97210267D01*
X132577413Y-97213462D01*
X132770515Y-97342490D01*
X132784110Y-97351574D01*
X132789195Y-97355476D01*
X132976090Y-97519377D01*
X132980622Y-97523909D01*
X133144523Y-97710804D01*
X133148425Y-97715889D01*
X133286532Y-97922578D01*
X133289737Y-97928129D01*
X133399681Y-98151075D01*
X133402134Y-98156997D01*
X133482041Y-98392398D01*
X133483699Y-98398588D01*
X133532194Y-98642386D01*
X133533031Y-98648741D01*
X133549395Y-98898397D01*
X133549500Y-98901602D01*
X133549500Y-100650500D01*
X133535148Y-100685148D01*
X133500500Y-100699500D01*
X132935176Y-100699500D01*
X132891278Y-100708232D01*
X132841495Y-100741495D01*
X132808232Y-100791278D01*
X132799500Y-100835176D01*
X132799500Y-102364823D01*
X132808232Y-102408720D01*
X132817625Y-102422780D01*
X132824939Y-102459562D01*
X132817625Y-102477220D01*
X132808232Y-102491279D01*
X132799500Y-102535176D01*
X132799500Y-104064823D01*
X132808232Y-104108720D01*
X132817625Y-104122780D01*
X132824939Y-104159562D01*
X132817625Y-104177220D01*
X132808232Y-104191279D01*
X132799500Y-104235176D01*
X132799500Y-105764823D01*
X132808232Y-105808720D01*
X132817625Y-105822780D01*
X132824939Y-105859562D01*
X132817625Y-105877220D01*
X132808232Y-105891279D01*
X132799500Y-105935176D01*
X132799500Y-107001733D01*
X132785148Y-107036381D01*
X132750500Y-107050733D01*
X132737818Y-107049063D01*
X132646147Y-107024500D01*
X132646144Y-107024500D01*
X132553856Y-107024500D01*
X132553853Y-107024500D01*
X132464713Y-107048385D01*
X132464710Y-107048386D01*
X132384794Y-107094527D01*
X132384784Y-107094534D01*
X132319534Y-107159784D01*
X132319527Y-107159794D01*
X132273386Y-107239710D01*
X132273385Y-107239713D01*
X132249500Y-107328853D01*
X132249500Y-107421146D01*
X132273385Y-107510286D01*
X132273386Y-107510289D01*
X132282811Y-107526613D01*
X132319531Y-107590212D01*
X132384788Y-107655469D01*
X132409137Y-107669527D01*
X132463537Y-107700936D01*
X132464712Y-107701614D01*
X132480450Y-107705831D01*
X132553853Y-107725500D01*
X132553856Y-107725500D01*
X132646146Y-107725500D01*
X132701086Y-107710778D01*
X132735288Y-107701614D01*
X132735289Y-107701613D01*
X132737817Y-107700936D01*
X132775000Y-107705831D01*
X132797830Y-107735583D01*
X132799500Y-107748266D01*
X132799500Y-109164823D01*
X132808232Y-109208720D01*
X132817625Y-109222780D01*
X132824939Y-109259562D01*
X132817625Y-109277220D01*
X132808232Y-109291279D01*
X132799500Y-109335176D01*
X132799500Y-110864823D01*
X132808232Y-110908720D01*
X132817625Y-110922780D01*
X132824939Y-110959562D01*
X132817625Y-110977220D01*
X132808232Y-110991279D01*
X132799500Y-111035176D01*
X132799500Y-112564823D01*
X132808232Y-112608720D01*
X132817625Y-112622780D01*
X132824939Y-112659562D01*
X132817625Y-112677220D01*
X132808232Y-112691279D01*
X132799500Y-112735176D01*
X132799500Y-114264823D01*
X132808232Y-114308720D01*
X132817625Y-114322780D01*
X132824939Y-114359562D01*
X132817625Y-114377220D01*
X132808232Y-114391279D01*
X132799500Y-114435176D01*
X132799500Y-115964823D01*
X132808232Y-116008721D01*
X132841495Y-116058504D01*
X132880827Y-116084784D01*
X132891278Y-116091767D01*
X132935180Y-116100500D01*
X134400500Y-116100500D01*
X134435148Y-116114852D01*
X134449500Y-116149500D01*
X134449500Y-118150500D01*
X134435148Y-118185148D01*
X134400500Y-118199500D01*
X132935176Y-118199500D01*
X132891278Y-118208232D01*
X132841495Y-118241495D01*
X132808232Y-118291278D01*
X132799500Y-118335176D01*
X132799500Y-119864823D01*
X132808232Y-119908721D01*
X132841495Y-119958504D01*
X132842626Y-119959260D01*
X132843380Y-119960389D01*
X132844908Y-119961917D01*
X132844604Y-119962220D01*
X132863459Y-119990444D01*
X132856140Y-120027226D01*
X132842626Y-120040740D01*
X132841495Y-120041495D01*
X132808232Y-120091278D01*
X132799500Y-120135176D01*
X132799500Y-121664823D01*
X132808232Y-121708721D01*
X132841495Y-121758504D01*
X132842626Y-121759260D01*
X132843380Y-121760389D01*
X132844908Y-121761917D01*
X132844604Y-121762220D01*
X132863459Y-121790444D01*
X132856140Y-121827226D01*
X132842626Y-121840740D01*
X132841495Y-121841495D01*
X132808232Y-121891278D01*
X132799500Y-121935176D01*
X132799500Y-123464823D01*
X132808232Y-123508721D01*
X132841495Y-123558504D01*
X132842626Y-123559260D01*
X132843380Y-123560389D01*
X132844908Y-123561917D01*
X132844604Y-123562220D01*
X132863459Y-123590444D01*
X132856140Y-123627226D01*
X132842626Y-123640740D01*
X132841495Y-123641495D01*
X132808232Y-123691278D01*
X132799500Y-123735176D01*
X132799500Y-125264823D01*
X132808232Y-125308721D01*
X132841495Y-125358504D01*
X132842626Y-125359260D01*
X132843380Y-125360389D01*
X132844908Y-125361917D01*
X132844604Y-125362220D01*
X132863459Y-125390444D01*
X132856140Y-125427226D01*
X132842626Y-125440740D01*
X132841495Y-125441495D01*
X132808232Y-125491278D01*
X132799500Y-125535176D01*
X132799500Y-127064823D01*
X132808232Y-127108721D01*
X132841495Y-127158504D01*
X132891278Y-127191767D01*
X132935180Y-127200500D01*
X134400500Y-127200500D01*
X134435148Y-127214852D01*
X134449500Y-127249500D01*
X134449500Y-128800500D01*
X134435148Y-128835148D01*
X134400500Y-128849500D01*
X133579082Y-128849500D01*
X133549500Y-128879081D01*
X133549500Y-131598397D01*
X133549395Y-131601602D01*
X133533031Y-131851258D01*
X133532194Y-131857613D01*
X133483699Y-132101411D01*
X133482041Y-132107601D01*
X133402134Y-132343002D01*
X133399681Y-132348924D01*
X133289737Y-132571870D01*
X133286532Y-132577421D01*
X133148425Y-132784110D01*
X133144523Y-132789195D01*
X132980622Y-132976090D01*
X132976090Y-132980622D01*
X132789195Y-133144523D01*
X132784110Y-133148425D01*
X132577421Y-133286532D01*
X132571870Y-133289737D01*
X132348924Y-133399681D01*
X132343002Y-133402134D01*
X132107601Y-133482041D01*
X132101411Y-133483699D01*
X131857613Y-133532194D01*
X131851258Y-133533031D01*
X131601602Y-133549395D01*
X131598397Y-133549500D01*
X127799500Y-133549500D01*
X127764852Y-133535148D01*
X127750500Y-133500500D01*
X127750500Y-132935180D01*
X127750499Y-132935176D01*
X127741767Y-132891278D01*
X127708504Y-132841495D01*
X127658721Y-132808232D01*
X127614823Y-132799500D01*
X127614820Y-132799500D01*
X126085180Y-132799500D01*
X126085176Y-132799500D01*
X126041279Y-132808232D01*
X126027220Y-132817625D01*
X125990438Y-132824939D01*
X125972780Y-132817625D01*
X125962581Y-132810811D01*
X125958722Y-132808233D01*
X125958721Y-132808232D01*
X125958720Y-132808232D01*
X125914823Y-132799500D01*
X125914820Y-132799500D01*
X124385180Y-132799500D01*
X124385176Y-132799500D01*
X124341278Y-132808232D01*
X124291495Y-132841495D01*
X124258232Y-132891278D01*
X124249500Y-132935176D01*
X124249500Y-134450500D01*
X124235148Y-134485148D01*
X124200500Y-134499500D01*
X122699500Y-134499500D01*
X122664852Y-134485148D01*
X122650500Y-134450500D01*
X122650500Y-132935180D01*
X122650499Y-132935176D01*
X122641767Y-132891278D01*
X122608504Y-132841495D01*
X122558721Y-132808232D01*
X122514823Y-132799500D01*
X122514820Y-132799500D01*
X120985180Y-132799500D01*
X120985176Y-132799500D01*
X120941279Y-132808232D01*
X120927220Y-132817625D01*
X120890438Y-132824939D01*
X120872780Y-132817625D01*
X120862581Y-132810811D01*
X120858722Y-132808233D01*
X120858721Y-132808232D01*
X120858720Y-132808232D01*
X120814823Y-132799500D01*
X120814820Y-132799500D01*
X119285180Y-132799500D01*
X119285176Y-132799500D01*
X119241278Y-132808232D01*
X119191495Y-132841495D01*
X119158232Y-132891278D01*
X119149500Y-132935176D01*
X119149500Y-134450500D01*
X119135148Y-134485148D01*
X119100500Y-134499500D01*
X117599500Y-134499500D01*
X117564852Y-134485148D01*
X117550500Y-134450500D01*
X117550500Y-132935180D01*
X117550499Y-132935176D01*
X117541767Y-132891278D01*
X117508504Y-132841495D01*
X117458721Y-132808232D01*
X117414823Y-132799500D01*
X117414820Y-132799500D01*
X115885180Y-132799500D01*
X115885176Y-132799500D01*
X115841279Y-132808232D01*
X115827220Y-132817625D01*
X115790438Y-132824939D01*
X115772780Y-132817625D01*
X115762581Y-132810811D01*
X115758722Y-132808233D01*
X115758721Y-132808232D01*
X115758720Y-132808232D01*
X115714823Y-132799500D01*
X115714820Y-132799500D01*
X114185180Y-132799500D01*
X114185176Y-132799500D01*
X114141278Y-132808232D01*
X114091495Y-132841495D01*
X114058232Y-132891278D01*
X114049500Y-132935176D01*
X114049500Y-134450500D01*
X114035148Y-134485148D01*
X114000500Y-134499500D01*
X113349500Y-134499500D01*
X113314852Y-134485148D01*
X113300500Y-134450500D01*
X113300500Y-132935180D01*
X113300499Y-132935176D01*
X113291767Y-132891278D01*
X113258504Y-132841495D01*
X113208721Y-132808232D01*
X113164823Y-132799500D01*
X113164820Y-132799500D01*
X111635180Y-132799500D01*
X111635176Y-132799500D01*
X111591278Y-132808232D01*
X111541495Y-132841495D01*
X111508232Y-132891278D01*
X111499500Y-132935176D01*
X111499500Y-134450500D01*
X111485148Y-134485148D01*
X111450500Y-134499500D01*
X111249500Y-134499500D01*
X111214852Y-134485148D01*
X111200500Y-134450500D01*
X111200500Y-132935180D01*
X111200499Y-132935176D01*
X111191767Y-132891278D01*
X111158504Y-132841495D01*
X111108721Y-132808232D01*
X111064823Y-132799500D01*
X111064820Y-132799500D01*
X109535180Y-132799500D01*
X109535176Y-132799500D01*
X109491278Y-132808232D01*
X109441495Y-132841495D01*
X109441494Y-132841496D01*
X109428242Y-132861331D01*
X109397060Y-132882167D01*
X109360278Y-132874851D01*
X109346758Y-132861331D01*
X109333505Y-132841496D01*
X109333504Y-132841495D01*
X109283721Y-132808232D01*
X109239823Y-132799500D01*
X109239820Y-132799500D01*
X107710180Y-132799500D01*
X107710176Y-132799500D01*
X107666278Y-132808232D01*
X107616495Y-132841495D01*
X107583232Y-132891278D01*
X107574500Y-132935176D01*
X107574500Y-134450500D01*
X107560148Y-134485148D01*
X107525500Y-134499500D01*
X105674500Y-134499500D01*
X105639852Y-134485148D01*
X105625500Y-134450500D01*
X105625500Y-132935180D01*
X105625499Y-132935176D01*
X105616767Y-132891278D01*
X105583504Y-132841495D01*
X105533721Y-132808232D01*
X105489823Y-132799500D01*
X105489820Y-132799500D01*
X103960180Y-132799500D01*
X103960176Y-132799500D01*
X103916280Y-132808232D01*
X103916278Y-132808232D01*
X103916278Y-132808233D01*
X103902222Y-132817625D01*
X103889722Y-132825977D01*
X103852940Y-132833292D01*
X103835278Y-132825977D01*
X103822778Y-132817625D01*
X103808722Y-132808233D01*
X103808719Y-132808232D01*
X103764823Y-132799500D01*
X103764820Y-132799500D01*
X102235180Y-132799500D01*
X102235176Y-132799500D01*
X102191278Y-132808232D01*
X102141495Y-132841495D01*
X102108232Y-132891278D01*
X102099500Y-132935176D01*
X102099500Y-134450500D01*
X102085148Y-134485148D01*
X102050500Y-134499500D01*
X100524500Y-134499500D01*
X100489852Y-134485148D01*
X100475500Y-134450500D01*
X100475500Y-133579082D01*
X100445918Y-133549500D01*
X98901603Y-133549500D01*
X98898398Y-133549395D01*
X98648741Y-133533031D01*
X98642386Y-133532194D01*
X98398588Y-133483699D01*
X98392398Y-133482041D01*
X98156997Y-133402134D01*
X98151075Y-133399681D01*
X97928126Y-133289735D01*
X97922582Y-133286534D01*
X97818622Y-133217070D01*
X97715889Y-133148425D01*
X97710804Y-133144523D01*
X97523909Y-132980622D01*
X97519377Y-132976090D01*
X97355476Y-132789195D01*
X97351574Y-132784110D01*
X97323197Y-132741641D01*
X97213462Y-132577413D01*
X97210267Y-132571878D01*
X97100314Y-132348914D01*
X97097865Y-132343002D01*
X97069868Y-132260526D01*
X97017958Y-132107601D01*
X97016300Y-132101411D01*
X96967805Y-131857613D01*
X96966968Y-131851258D01*
X96950605Y-131601602D01*
X96950500Y-131598397D01*
X96950500Y-129653853D01*
X104249500Y-129653853D01*
X104249500Y-129746146D01*
X104273385Y-129835286D01*
X104273386Y-129835289D01*
X104316430Y-129909842D01*
X104319531Y-129915212D01*
X104384788Y-129980469D01*
X104464712Y-130026614D01*
X104486998Y-130032585D01*
X104553853Y-130050500D01*
X104553856Y-130050500D01*
X104646146Y-130050500D01*
X104690716Y-130038557D01*
X104735288Y-130026614D01*
X104815212Y-129980469D01*
X104880469Y-129915212D01*
X104926614Y-129835288D01*
X104949333Y-129750500D01*
X104950500Y-129746146D01*
X104950500Y-129653853D01*
X104926614Y-129564713D01*
X104926613Y-129564710D01*
X104880472Y-129484794D01*
X104880469Y-129484788D01*
X104815212Y-129419531D01*
X104815208Y-129419529D01*
X104815206Y-129419527D01*
X104769397Y-129393079D01*
X104735289Y-129373386D01*
X104735286Y-129373385D01*
X104662392Y-129353853D01*
X121149500Y-129353853D01*
X121149500Y-129446146D01*
X121173385Y-129535286D01*
X121173386Y-129535289D01*
X121216430Y-129609842D01*
X121219531Y-129615212D01*
X121284788Y-129680469D01*
X121364712Y-129726614D01*
X121386998Y-129732585D01*
X121453853Y-129750500D01*
X121453856Y-129750500D01*
X121546146Y-129750500D01*
X121590716Y-129738557D01*
X121635288Y-129726614D01*
X121715212Y-129680469D01*
X121780469Y-129615212D01*
X121826614Y-129535288D01*
X121840145Y-129484788D01*
X121850500Y-129446146D01*
X121850500Y-129353853D01*
X121826614Y-129264713D01*
X121826613Y-129264710D01*
X121780472Y-129184794D01*
X121780469Y-129184788D01*
X121715212Y-129119531D01*
X121709842Y-129116430D01*
X121635289Y-129073386D01*
X121635286Y-129073385D01*
X121546147Y-129049500D01*
X121546144Y-129049500D01*
X121453856Y-129049500D01*
X121453853Y-129049500D01*
X121364713Y-129073385D01*
X121364710Y-129073386D01*
X121284794Y-129119527D01*
X121284784Y-129119534D01*
X121219534Y-129184784D01*
X121219527Y-129184794D01*
X121173386Y-129264710D01*
X121173385Y-129264713D01*
X121149500Y-129353853D01*
X104662392Y-129353853D01*
X104646147Y-129349500D01*
X104646144Y-129349500D01*
X104553856Y-129349500D01*
X104553853Y-129349500D01*
X104464713Y-129373385D01*
X104464710Y-129373386D01*
X104384794Y-129419527D01*
X104384784Y-129419534D01*
X104319534Y-129484784D01*
X104319527Y-129484794D01*
X104273386Y-129564710D01*
X104273385Y-129564713D01*
X104249500Y-129653853D01*
X96950500Y-129653853D01*
X96950500Y-127953853D01*
X102999500Y-127953853D01*
X102999500Y-128046146D01*
X103023385Y-128135286D01*
X103023386Y-128135289D01*
X103066430Y-128209842D01*
X103069531Y-128215212D01*
X103134788Y-128280469D01*
X103214712Y-128326614D01*
X103236998Y-128332585D01*
X103303853Y-128350500D01*
X103303856Y-128350500D01*
X103396146Y-128350500D01*
X103440716Y-128338557D01*
X103485288Y-128326614D01*
X103565212Y-128280469D01*
X103630469Y-128215212D01*
X103676614Y-128135288D01*
X103688557Y-128090716D01*
X103700500Y-128046146D01*
X103700500Y-127953853D01*
X103676614Y-127864713D01*
X103676613Y-127864710D01*
X103630472Y-127784794D01*
X103630469Y-127784788D01*
X103565212Y-127719531D01*
X103559842Y-127716430D01*
X103485289Y-127673386D01*
X103485286Y-127673385D01*
X103396147Y-127649500D01*
X103396144Y-127649500D01*
X103303856Y-127649500D01*
X103303853Y-127649500D01*
X103214713Y-127673385D01*
X103214710Y-127673386D01*
X103134794Y-127719527D01*
X103134784Y-127719534D01*
X103069534Y-127784784D01*
X103069527Y-127784794D01*
X103023386Y-127864710D01*
X103023385Y-127864713D01*
X102999500Y-127953853D01*
X96950500Y-127953853D01*
X96950500Y-126803853D01*
X104649500Y-126803853D01*
X104649500Y-126896146D01*
X104673385Y-126985286D01*
X104673386Y-126985289D01*
X104716430Y-127059842D01*
X104719531Y-127065212D01*
X104784788Y-127130469D01*
X104864712Y-127176614D01*
X104886998Y-127182585D01*
X104953853Y-127200500D01*
X104953856Y-127200500D01*
X105046146Y-127200500D01*
X105090716Y-127188557D01*
X105135288Y-127176614D01*
X105215212Y-127130469D01*
X105280469Y-127065212D01*
X105326614Y-126985288D01*
X105338557Y-126940716D01*
X105350500Y-126896146D01*
X105350500Y-126803853D01*
X106224500Y-126803853D01*
X106224500Y-126896146D01*
X106248385Y-126985286D01*
X106248386Y-126985289D01*
X106291430Y-127059842D01*
X106294531Y-127065212D01*
X106359788Y-127130469D01*
X106439712Y-127176614D01*
X106461998Y-127182585D01*
X106528853Y-127200500D01*
X106528856Y-127200500D01*
X106621146Y-127200500D01*
X106665716Y-127188557D01*
X106710288Y-127176614D01*
X106790212Y-127130469D01*
X106855469Y-127065212D01*
X106901614Y-126985288D01*
X106913557Y-126940716D01*
X106925500Y-126896146D01*
X106925500Y-126803853D01*
X106901614Y-126714713D01*
X106901613Y-126714710D01*
X106855472Y-126634794D01*
X106855469Y-126634788D01*
X106790212Y-126569531D01*
X106784842Y-126566430D01*
X106710289Y-126523386D01*
X106710286Y-126523385D01*
X106621147Y-126499500D01*
X106621144Y-126499500D01*
X106528856Y-126499500D01*
X106528853Y-126499500D01*
X106439713Y-126523385D01*
X106439710Y-126523386D01*
X106359794Y-126569527D01*
X106359784Y-126569534D01*
X106294534Y-126634784D01*
X106294527Y-126634794D01*
X106248386Y-126714710D01*
X106248385Y-126714713D01*
X106224500Y-126803853D01*
X105350500Y-126803853D01*
X105326614Y-126714713D01*
X105326613Y-126714710D01*
X105280472Y-126634794D01*
X105280469Y-126634788D01*
X105215212Y-126569531D01*
X105209842Y-126566430D01*
X105135289Y-126523386D01*
X105135286Y-126523385D01*
X105046147Y-126499500D01*
X105046144Y-126499500D01*
X104953856Y-126499500D01*
X104953853Y-126499500D01*
X104864713Y-126523385D01*
X104864710Y-126523386D01*
X104784794Y-126569527D01*
X104784784Y-126569534D01*
X104719534Y-126634784D01*
X104719527Y-126634794D01*
X104673386Y-126714710D01*
X104673385Y-126714713D01*
X104649500Y-126803853D01*
X96950500Y-126803853D01*
X96950500Y-126128853D01*
X110799500Y-126128853D01*
X110799500Y-126221146D01*
X110823385Y-126310286D01*
X110823386Y-126310289D01*
X110866430Y-126384842D01*
X110869531Y-126390212D01*
X110934788Y-126455469D01*
X110994731Y-126490077D01*
X111011050Y-126499500D01*
X111014712Y-126501614D01*
X111036998Y-126507585D01*
X111103853Y-126525500D01*
X111103856Y-126525500D01*
X111196146Y-126525500D01*
X111240716Y-126513557D01*
X111285288Y-126501614D01*
X111365212Y-126455469D01*
X111430469Y-126390212D01*
X111476614Y-126310288D01*
X111488557Y-126265716D01*
X111500500Y-126221146D01*
X111500500Y-126128853D01*
X111476614Y-126039713D01*
X111476613Y-126039710D01*
X111430472Y-125959794D01*
X111430469Y-125959788D01*
X111365212Y-125894531D01*
X111359842Y-125891430D01*
X111285289Y-125848386D01*
X111285286Y-125848385D01*
X111196147Y-125824500D01*
X111196144Y-125824500D01*
X111103856Y-125824500D01*
X111103853Y-125824500D01*
X111014713Y-125848385D01*
X111014710Y-125848386D01*
X110934794Y-125894527D01*
X110934784Y-125894534D01*
X110869534Y-125959784D01*
X110869527Y-125959794D01*
X110823386Y-126039710D01*
X110823385Y-126039713D01*
X110799500Y-126128853D01*
X96950500Y-126128853D01*
X96950500Y-125153853D01*
X111899500Y-125153853D01*
X111899500Y-125246146D01*
X111923385Y-125335286D01*
X111923386Y-125335289D01*
X111955231Y-125390444D01*
X111969531Y-125415212D01*
X112034788Y-125480469D01*
X112114712Y-125526614D01*
X112136998Y-125532585D01*
X112203853Y-125550500D01*
X112203856Y-125550500D01*
X112296146Y-125550500D01*
X112353334Y-125535176D01*
X112385288Y-125526614D01*
X112465212Y-125480469D01*
X112530469Y-125415212D01*
X112576614Y-125335288D01*
X112595496Y-125264820D01*
X112600500Y-125246146D01*
X112600500Y-125153853D01*
X112576614Y-125064713D01*
X112576613Y-125064710D01*
X112530472Y-124984794D01*
X112530469Y-124984788D01*
X112465212Y-124919531D01*
X112459842Y-124916430D01*
X112385289Y-124873386D01*
X112385286Y-124873385D01*
X112296147Y-124849500D01*
X112296144Y-124849500D01*
X112203856Y-124849500D01*
X112203853Y-124849500D01*
X112114713Y-124873385D01*
X112114710Y-124873386D01*
X112034794Y-124919527D01*
X112034784Y-124919534D01*
X111969534Y-124984784D01*
X111969527Y-124984794D01*
X111923386Y-125064710D01*
X111923385Y-125064713D01*
X111899500Y-125153853D01*
X96950500Y-125153853D01*
X96950500Y-124253853D01*
X109349500Y-124253853D01*
X109349500Y-124346146D01*
X109373385Y-124435286D01*
X109373386Y-124435289D01*
X109385039Y-124455472D01*
X109419531Y-124515212D01*
X109484788Y-124580469D01*
X109564712Y-124626614D01*
X109586998Y-124632585D01*
X109653853Y-124650500D01*
X109653856Y-124650500D01*
X109746146Y-124650500D01*
X109790716Y-124638557D01*
X109835288Y-124626614D01*
X109915212Y-124580469D01*
X109980469Y-124515212D01*
X110026614Y-124435288D01*
X110042634Y-124375500D01*
X110050500Y-124346146D01*
X110050500Y-124299500D01*
X110064852Y-124264852D01*
X110099500Y-124250500D01*
X110146146Y-124250500D01*
X110190716Y-124238557D01*
X110235288Y-124226614D01*
X110315212Y-124180469D01*
X110366828Y-124128853D01*
X114099500Y-124128853D01*
X114099500Y-124221146D01*
X114123385Y-124310286D01*
X114123386Y-124310289D01*
X114144088Y-124346144D01*
X114169531Y-124390212D01*
X114234788Y-124455469D01*
X114314712Y-124501614D01*
X114336998Y-124507585D01*
X114403853Y-124525500D01*
X114403856Y-124525500D01*
X114496146Y-124525500D01*
X114540716Y-124513557D01*
X114585288Y-124501614D01*
X114665212Y-124455469D01*
X114730469Y-124390212D01*
X114737027Y-124378853D01*
X117399500Y-124378853D01*
X117399500Y-124471146D01*
X117423385Y-124560286D01*
X117423386Y-124560289D01*
X117435039Y-124580472D01*
X117469531Y-124640212D01*
X117534788Y-124705469D01*
X117614712Y-124751614D01*
X117636998Y-124757585D01*
X117703853Y-124775500D01*
X117703856Y-124775500D01*
X117796146Y-124775500D01*
X117840716Y-124763557D01*
X117885288Y-124751614D01*
X117965212Y-124705469D01*
X118030469Y-124640212D01*
X118076614Y-124560288D01*
X118092336Y-124501613D01*
X118100500Y-124471146D01*
X118100500Y-124378853D01*
X118076614Y-124289713D01*
X118076613Y-124289710D01*
X118055910Y-124253853D01*
X118030469Y-124209788D01*
X117965212Y-124144531D01*
X117959842Y-124141430D01*
X117885289Y-124098386D01*
X117885286Y-124098385D01*
X117796147Y-124074500D01*
X117796144Y-124074500D01*
X117703856Y-124074500D01*
X117703853Y-124074500D01*
X117614713Y-124098385D01*
X117614710Y-124098386D01*
X117534794Y-124144527D01*
X117534784Y-124144534D01*
X117469534Y-124209784D01*
X117469527Y-124209794D01*
X117423386Y-124289710D01*
X117423385Y-124289713D01*
X117399500Y-124378853D01*
X114737027Y-124378853D01*
X114776614Y-124310288D01*
X114792634Y-124250500D01*
X114800500Y-124221146D01*
X114800500Y-124128853D01*
X114776614Y-124039713D01*
X114776614Y-124039712D01*
X114741477Y-123978853D01*
X116374500Y-123978853D01*
X116374500Y-124071146D01*
X116398385Y-124160286D01*
X116398386Y-124160289D01*
X116410039Y-124180472D01*
X116444531Y-124240212D01*
X116509788Y-124305469D01*
X116589712Y-124351614D01*
X116611998Y-124357585D01*
X116678853Y-124375500D01*
X116678856Y-124375500D01*
X116771146Y-124375500D01*
X116815716Y-124363557D01*
X116860288Y-124351614D01*
X116940212Y-124305469D01*
X117005469Y-124240212D01*
X117051614Y-124160288D01*
X117071844Y-124084788D01*
X117075500Y-124071146D01*
X117075500Y-123978853D01*
X117057585Y-123911998D01*
X117051614Y-123889712D01*
X117016476Y-123828853D01*
X118499500Y-123828853D01*
X118499500Y-123921146D01*
X118523385Y-124010286D01*
X118523386Y-124010289D01*
X118566397Y-124084784D01*
X118569531Y-124090212D01*
X118634788Y-124155469D01*
X118714712Y-124201614D01*
X118736998Y-124207585D01*
X118803853Y-124225500D01*
X118803856Y-124225500D01*
X118896146Y-124225500D01*
X118940716Y-124213557D01*
X118985288Y-124201614D01*
X119065212Y-124155469D01*
X119130469Y-124090212D01*
X119176614Y-124010288D01*
X119190145Y-123959788D01*
X119200500Y-123921146D01*
X119200500Y-123828853D01*
X119176614Y-123739713D01*
X119176613Y-123739710D01*
X119144903Y-123684788D01*
X119130469Y-123659788D01*
X119065212Y-123594531D01*
X119030783Y-123574653D01*
X118985289Y-123548386D01*
X118985286Y-123548385D01*
X118896147Y-123524500D01*
X118896144Y-123524500D01*
X118803856Y-123524500D01*
X118803853Y-123524500D01*
X118714713Y-123548385D01*
X118714710Y-123548386D01*
X118634794Y-123594527D01*
X118634784Y-123594534D01*
X118569534Y-123659784D01*
X118569527Y-123659794D01*
X118523386Y-123739710D01*
X118523385Y-123739713D01*
X118499500Y-123828853D01*
X117016476Y-123828853D01*
X117010581Y-123818643D01*
X117005472Y-123809793D01*
X117005471Y-123809792D01*
X117005469Y-123809788D01*
X116940212Y-123744531D01*
X116924009Y-123735176D01*
X116860289Y-123698386D01*
X116860286Y-123698385D01*
X116771147Y-123674500D01*
X116771144Y-123674500D01*
X116678856Y-123674500D01*
X116678853Y-123674500D01*
X116589713Y-123698385D01*
X116589710Y-123698386D01*
X116509794Y-123744527D01*
X116509784Y-123744534D01*
X116444534Y-123809784D01*
X116444527Y-123809794D01*
X116398386Y-123889710D01*
X116398385Y-123889713D01*
X116374500Y-123978853D01*
X114741477Y-123978853D01*
X114730877Y-123960494D01*
X114730472Y-123959793D01*
X114730471Y-123959792D01*
X114730469Y-123959788D01*
X114665212Y-123894531D01*
X114643971Y-123882267D01*
X114585289Y-123848386D01*
X114585286Y-123848385D01*
X114496147Y-123824500D01*
X114496144Y-123824500D01*
X114403856Y-123824500D01*
X114403853Y-123824500D01*
X114314713Y-123848385D01*
X114314710Y-123848386D01*
X114234794Y-123894527D01*
X114234784Y-123894534D01*
X114169534Y-123959784D01*
X114169527Y-123959794D01*
X114123386Y-124039710D01*
X114123385Y-124039713D01*
X114099500Y-124128853D01*
X110366828Y-124128853D01*
X110380469Y-124115212D01*
X110388592Y-124101143D01*
X110388593Y-124101142D01*
X110426613Y-124035290D01*
X110426613Y-124035289D01*
X110426614Y-124035288D01*
X110446655Y-123960494D01*
X110450500Y-123946146D01*
X110450500Y-123853853D01*
X110426614Y-123764713D01*
X110426613Y-123764710D01*
X110380472Y-123684794D01*
X110380469Y-123684788D01*
X110315212Y-123619531D01*
X110271905Y-123594527D01*
X110235289Y-123573386D01*
X110235286Y-123573385D01*
X110146147Y-123549500D01*
X110146144Y-123549500D01*
X110053856Y-123549500D01*
X110053853Y-123549500D01*
X109964713Y-123573385D01*
X109964710Y-123573386D01*
X109884794Y-123619527D01*
X109884784Y-123619534D01*
X109819534Y-123684784D01*
X109819527Y-123684794D01*
X109773386Y-123764710D01*
X109773385Y-123764713D01*
X109749500Y-123853853D01*
X109749500Y-123900500D01*
X109735148Y-123935148D01*
X109700500Y-123949500D01*
X109653853Y-123949500D01*
X109564713Y-123973385D01*
X109564710Y-123973386D01*
X109484794Y-124019527D01*
X109484784Y-124019534D01*
X109419534Y-124084784D01*
X109419527Y-124084794D01*
X109373386Y-124164710D01*
X109373385Y-124164713D01*
X109349500Y-124253853D01*
X96950500Y-124253853D01*
X96950500Y-124179082D01*
X96920918Y-124149500D01*
X96542164Y-124149500D01*
X96507516Y-124135148D01*
X96493164Y-124100500D01*
X96507516Y-124065852D01*
X96529481Y-124053170D01*
X96529612Y-124053134D01*
X96535288Y-124051614D01*
X96615212Y-124005469D01*
X96680469Y-123940212D01*
X96707565Y-123893280D01*
X96737318Y-123870451D01*
X96774500Y-123875346D01*
X96792435Y-123893281D01*
X96819527Y-123940206D01*
X96819529Y-123940208D01*
X96819531Y-123940212D01*
X96884788Y-124005469D01*
X96964712Y-124051614D01*
X96979215Y-124055500D01*
X97053853Y-124075500D01*
X97053856Y-124075500D01*
X97146146Y-124075500D01*
X97190716Y-124063557D01*
X97235288Y-124051614D01*
X97315212Y-124005469D01*
X97380469Y-123940212D01*
X97426614Y-123860288D01*
X97440145Y-123809788D01*
X97450500Y-123771146D01*
X97450500Y-123678853D01*
X97427904Y-123594527D01*
X97426614Y-123589712D01*
X97384862Y-123517397D01*
X101849500Y-123517397D01*
X101849500Y-123642602D01*
X101864448Y-123698386D01*
X101881905Y-123763536D01*
X101944505Y-123871964D01*
X102033036Y-123960495D01*
X102141464Y-124023095D01*
X102214025Y-124042538D01*
X102262397Y-124055500D01*
X102262399Y-124055500D01*
X102387603Y-124055500D01*
X102427912Y-124044698D01*
X102508536Y-124023095D01*
X102616964Y-123960495D01*
X102705495Y-123871964D01*
X102768095Y-123763536D01*
X102800500Y-123642601D01*
X102800500Y-123517399D01*
X102800500Y-123517397D01*
X102782306Y-123449500D01*
X102768095Y-123396464D01*
X102705495Y-123288036D01*
X102616964Y-123199505D01*
X102616961Y-123199503D01*
X102616957Y-123199500D01*
X102605837Y-123193080D01*
X102605836Y-123193080D01*
X102549037Y-123160288D01*
X102537891Y-123153853D01*
X124499500Y-123153853D01*
X124499500Y-123246146D01*
X124523385Y-123335286D01*
X124523386Y-123335289D01*
X124566430Y-123409842D01*
X124569531Y-123415212D01*
X124569534Y-123415215D01*
X124619671Y-123465352D01*
X124634023Y-123500000D01*
X124619671Y-123534648D01*
X124569534Y-123584784D01*
X124569527Y-123584794D01*
X124523386Y-123664710D01*
X124523385Y-123664713D01*
X124499500Y-123753853D01*
X124499500Y-123846146D01*
X124523385Y-123935286D01*
X124523386Y-123935289D01*
X124566430Y-124009842D01*
X124569531Y-124015212D01*
X124634788Y-124080469D01*
X124714712Y-124126614D01*
X124736998Y-124132585D01*
X124803853Y-124150500D01*
X124803856Y-124150500D01*
X124896146Y-124150500D01*
X124940716Y-124138557D01*
X124985288Y-124126614D01*
X125065212Y-124080469D01*
X125115352Y-124030329D01*
X125150000Y-124015977D01*
X125184648Y-124030329D01*
X125234788Y-124080469D01*
X125314712Y-124126614D01*
X125336998Y-124132585D01*
X125403853Y-124150500D01*
X125403856Y-124150500D01*
X125496146Y-124150500D01*
X125540716Y-124138557D01*
X125585288Y-124126614D01*
X125665212Y-124080469D01*
X125730469Y-124015212D01*
X125776614Y-123935288D01*
X125790821Y-123882267D01*
X125800500Y-123846146D01*
X125800500Y-123753853D01*
X125780403Y-123678853D01*
X125776614Y-123664712D01*
X125730469Y-123584788D01*
X125665212Y-123519531D01*
X125631384Y-123500000D01*
X125585289Y-123473386D01*
X125585286Y-123473385D01*
X125496147Y-123449500D01*
X125496144Y-123449500D01*
X125403856Y-123449500D01*
X125403853Y-123449500D01*
X125314713Y-123473385D01*
X125314710Y-123473386D01*
X125234794Y-123519527D01*
X125234784Y-123519534D01*
X125184648Y-123569671D01*
X125150000Y-123584023D01*
X125115352Y-123569671D01*
X125080329Y-123534648D01*
X125065977Y-123500000D01*
X125080329Y-123465352D01*
X125101154Y-123444527D01*
X125130469Y-123415212D01*
X125176614Y-123335288D01*
X125189276Y-123288033D01*
X125200500Y-123246146D01*
X125200500Y-123153853D01*
X125176614Y-123064713D01*
X125176613Y-123064710D01*
X125130472Y-122984794D01*
X125130469Y-122984788D01*
X125065212Y-122919531D01*
X125013567Y-122889713D01*
X124985289Y-122873386D01*
X124985286Y-122873385D01*
X124896147Y-122849500D01*
X124896144Y-122849500D01*
X124803856Y-122849500D01*
X124803853Y-122849500D01*
X124714713Y-122873385D01*
X124714710Y-122873386D01*
X124634794Y-122919527D01*
X124634784Y-122919534D01*
X124569534Y-122984784D01*
X124569527Y-122984794D01*
X124523386Y-123064710D01*
X124523385Y-123064713D01*
X124499500Y-123153853D01*
X102537891Y-123153853D01*
X102508536Y-123136905D01*
X102508533Y-123136904D01*
X102387603Y-123104500D01*
X102387601Y-123104500D01*
X102262399Y-123104500D01*
X102262397Y-123104500D01*
X102141467Y-123136904D01*
X102141466Y-123136904D01*
X102141464Y-123136905D01*
X102042424Y-123194085D01*
X102033036Y-123199505D01*
X102033033Y-123199507D01*
X101944507Y-123288033D01*
X101944505Y-123288036D01*
X101881905Y-123396464D01*
X101881904Y-123396466D01*
X101881904Y-123396467D01*
X101849500Y-123517397D01*
X97384862Y-123517397D01*
X97383203Y-123514524D01*
X97380472Y-123509793D01*
X97380471Y-123509792D01*
X97380469Y-123509788D01*
X97315212Y-123444531D01*
X97315208Y-123444529D01*
X97315206Y-123444527D01*
X97268281Y-123417435D01*
X97245451Y-123387682D01*
X97250346Y-123350500D01*
X97268281Y-123332565D01*
X97315212Y-123305469D01*
X97380469Y-123240212D01*
X97426614Y-123160288D01*
X97441562Y-123104500D01*
X97450500Y-123071146D01*
X97450500Y-122978853D01*
X97426614Y-122889713D01*
X97426613Y-122889710D01*
X97412465Y-122865205D01*
X97380469Y-122809788D01*
X97315212Y-122744531D01*
X97309842Y-122741430D01*
X97235289Y-122698386D01*
X97235286Y-122698385D01*
X97146147Y-122674500D01*
X97146144Y-122674500D01*
X97053856Y-122674500D01*
X97053853Y-122674500D01*
X96964713Y-122698385D01*
X96964710Y-122698386D01*
X96884794Y-122744527D01*
X96884784Y-122744534D01*
X96819534Y-122809784D01*
X96819527Y-122809794D01*
X96792435Y-122856718D01*
X96762682Y-122879549D01*
X96725500Y-122874653D01*
X96707565Y-122856718D01*
X96680472Y-122809794D01*
X96680469Y-122809788D01*
X96615212Y-122744531D01*
X96609842Y-122741430D01*
X96535289Y-122698386D01*
X96535286Y-122698385D01*
X96446147Y-122674500D01*
X96446144Y-122674500D01*
X96353856Y-122674500D01*
X96353853Y-122674500D01*
X96264713Y-122698385D01*
X96264710Y-122698386D01*
X96184794Y-122744527D01*
X96184784Y-122744534D01*
X96119534Y-122809784D01*
X96119527Y-122809794D01*
X96091935Y-122857584D01*
X96062182Y-122880415D01*
X96025000Y-122875519D01*
X96002169Y-122845766D01*
X96000500Y-122833084D01*
X96000500Y-122053853D01*
X114849500Y-122053853D01*
X114849500Y-122146146D01*
X114873385Y-122235286D01*
X114873386Y-122235289D01*
X114916430Y-122309842D01*
X114919531Y-122315212D01*
X114984788Y-122380469D01*
X115064712Y-122426614D01*
X115086998Y-122432585D01*
X115153853Y-122450500D01*
X115153856Y-122450500D01*
X115246146Y-122450500D01*
X115274711Y-122442845D01*
X115326266Y-122429031D01*
X115363446Y-122433925D01*
X115386277Y-122463678D01*
X115381383Y-122500860D01*
X115373385Y-122514711D01*
X115373385Y-122514713D01*
X115349500Y-122603853D01*
X115349500Y-122696146D01*
X115373385Y-122785286D01*
X115373386Y-122785289D01*
X115414627Y-122856718D01*
X115419531Y-122865212D01*
X115484788Y-122930469D01*
X115564712Y-122976614D01*
X115586998Y-122982585D01*
X115653853Y-123000500D01*
X115653856Y-123000500D01*
X115746146Y-123000500D01*
X115790716Y-122988557D01*
X115835288Y-122976614D01*
X115915212Y-122930469D01*
X115980469Y-122865212D01*
X116026614Y-122785288D01*
X116038557Y-122740716D01*
X116050500Y-122696146D01*
X116050500Y-122603853D01*
X116026614Y-122514713D01*
X116026613Y-122514710D01*
X115980472Y-122434794D01*
X115980469Y-122434788D01*
X115915212Y-122369531D01*
X115909842Y-122366430D01*
X115835289Y-122323386D01*
X115835286Y-122323385D01*
X115746147Y-122299500D01*
X115746144Y-122299500D01*
X115653856Y-122299500D01*
X115653853Y-122299500D01*
X115573734Y-122320968D01*
X115536552Y-122316073D01*
X115513722Y-122286320D01*
X115518616Y-122249139D01*
X115526614Y-122235288D01*
X115538557Y-122190716D01*
X115550500Y-122146146D01*
X115550500Y-122053853D01*
X115526614Y-121964713D01*
X115526613Y-121964710D01*
X115480472Y-121884794D01*
X115480469Y-121884788D01*
X115415212Y-121819531D01*
X115395644Y-121808233D01*
X115335289Y-121773386D01*
X115335286Y-121773385D01*
X115246147Y-121749500D01*
X115246144Y-121749500D01*
X115153856Y-121749500D01*
X115153853Y-121749500D01*
X115064713Y-121773385D01*
X115064710Y-121773386D01*
X114984794Y-121819527D01*
X114984784Y-121819534D01*
X114919534Y-121884784D01*
X114919527Y-121884794D01*
X114873386Y-121964710D01*
X114873385Y-121964713D01*
X114849500Y-122053853D01*
X96000500Y-122053853D01*
X96000500Y-121792163D01*
X96014852Y-121757515D01*
X96049500Y-121743163D01*
X96084148Y-121757515D01*
X96096829Y-121779479D01*
X96098386Y-121785288D01*
X96098387Y-121785291D01*
X96124473Y-121830472D01*
X96144531Y-121865212D01*
X96209788Y-121930469D01*
X96289712Y-121976614D01*
X96311998Y-121982585D01*
X96378853Y-122000500D01*
X96378856Y-122000500D01*
X96471146Y-122000500D01*
X96515716Y-121988557D01*
X96560288Y-121976614D01*
X96640212Y-121930469D01*
X96705469Y-121865212D01*
X96732565Y-121818280D01*
X96762318Y-121795451D01*
X96799500Y-121800346D01*
X96817435Y-121818281D01*
X96844527Y-121865206D01*
X96844529Y-121865208D01*
X96844531Y-121865212D01*
X96909788Y-121930469D01*
X96989712Y-121976614D01*
X97011998Y-121982585D01*
X97078853Y-122000500D01*
X97078856Y-122000500D01*
X97171146Y-122000500D01*
X97215716Y-121988557D01*
X97260288Y-121976614D01*
X97340212Y-121930469D01*
X97405469Y-121865212D01*
X97451614Y-121785288D01*
X97472130Y-121708721D01*
X97475500Y-121696146D01*
X97475500Y-121603853D01*
X97451614Y-121514713D01*
X97451613Y-121514710D01*
X97436169Y-121487961D01*
X97405469Y-121434788D01*
X97354534Y-121383853D01*
X109609500Y-121383853D01*
X109609500Y-121476146D01*
X109633385Y-121565286D01*
X109633386Y-121565289D01*
X109673800Y-121635286D01*
X109679531Y-121645212D01*
X109744788Y-121710469D01*
X109824712Y-121756614D01*
X109838801Y-121760389D01*
X109913853Y-121780500D01*
X109913856Y-121780500D01*
X110006146Y-121780500D01*
X110050716Y-121768557D01*
X110095288Y-121756614D01*
X110175212Y-121710469D01*
X110240469Y-121645212D01*
X110286614Y-121565288D01*
X110298610Y-121520519D01*
X110303076Y-121503853D01*
X110799500Y-121503853D01*
X110799500Y-121596146D01*
X110823385Y-121685286D01*
X110823386Y-121685289D01*
X110864566Y-121756613D01*
X110869531Y-121765212D01*
X110934788Y-121830469D01*
X111014712Y-121876614D01*
X111036998Y-121882585D01*
X111103853Y-121900500D01*
X111103856Y-121900500D01*
X111196146Y-121900500D01*
X111240716Y-121888557D01*
X111285288Y-121876614D01*
X111365212Y-121830469D01*
X111430469Y-121765212D01*
X111476614Y-121685288D01*
X111498434Y-121603856D01*
X111500500Y-121596146D01*
X111500500Y-121503853D01*
X111899500Y-121503853D01*
X111899500Y-121596146D01*
X111923385Y-121685286D01*
X111923386Y-121685289D01*
X111964566Y-121756613D01*
X111969531Y-121765212D01*
X112034788Y-121830469D01*
X112114712Y-121876614D01*
X112136998Y-121882585D01*
X112203853Y-121900500D01*
X112203856Y-121900500D01*
X112296146Y-121900500D01*
X112340716Y-121888557D01*
X112385288Y-121876614D01*
X112465212Y-121830469D01*
X112530469Y-121765212D01*
X112576614Y-121685288D01*
X112598434Y-121603856D01*
X112600500Y-121596146D01*
X112600500Y-121503853D01*
X112600499Y-121503852D01*
X112589641Y-121463326D01*
X112587102Y-121453853D01*
X113749500Y-121453853D01*
X113749500Y-121546146D01*
X113773385Y-121635286D01*
X113773386Y-121635289D01*
X113808522Y-121696144D01*
X113819531Y-121715212D01*
X113884788Y-121780469D01*
X113964712Y-121826614D01*
X113986998Y-121832585D01*
X114053853Y-121850500D01*
X114053856Y-121850500D01*
X114146146Y-121850500D01*
X114199710Y-121836147D01*
X114235288Y-121826614D01*
X114315212Y-121780469D01*
X114380469Y-121715212D01*
X114426614Y-121635288D01*
X114445370Y-121565289D01*
X114450500Y-121546146D01*
X114450500Y-121503853D01*
X116299500Y-121503853D01*
X116299500Y-121596146D01*
X116323385Y-121685286D01*
X116323386Y-121685289D01*
X116364566Y-121756613D01*
X116369531Y-121765212D01*
X116434788Y-121830469D01*
X116514712Y-121876614D01*
X116536998Y-121882585D01*
X116603853Y-121900500D01*
X116603856Y-121900500D01*
X116696146Y-121900500D01*
X116740716Y-121888557D01*
X116785288Y-121876614D01*
X116865212Y-121830469D01*
X116930469Y-121765212D01*
X116976614Y-121685288D01*
X116998434Y-121603856D01*
X117000500Y-121596146D01*
X117000500Y-121503853D01*
X117399500Y-121503853D01*
X117399500Y-121596146D01*
X117423385Y-121685286D01*
X117423386Y-121685289D01*
X117464566Y-121756613D01*
X117469531Y-121765212D01*
X117534788Y-121830469D01*
X117614712Y-121876614D01*
X117636998Y-121882585D01*
X117703853Y-121900500D01*
X117703856Y-121900500D01*
X117796146Y-121900500D01*
X117840716Y-121888557D01*
X117885288Y-121876614D01*
X117965212Y-121830469D01*
X118030469Y-121765212D01*
X118076614Y-121685288D01*
X118098434Y-121603856D01*
X118100500Y-121596146D01*
X118100500Y-121503853D01*
X118499500Y-121503853D01*
X118499500Y-121596146D01*
X118523385Y-121685286D01*
X118523386Y-121685289D01*
X118564566Y-121756613D01*
X118569531Y-121765212D01*
X118634788Y-121830469D01*
X118714712Y-121876614D01*
X118736998Y-121882585D01*
X118803853Y-121900500D01*
X118803856Y-121900500D01*
X118896146Y-121900500D01*
X118940716Y-121888557D01*
X118985288Y-121876614D01*
X119065212Y-121830469D01*
X119130469Y-121765212D01*
X119176614Y-121685288D01*
X119198434Y-121603856D01*
X119200500Y-121596146D01*
X119200500Y-121503853D01*
X119176614Y-121414713D01*
X119176613Y-121414710D01*
X119150526Y-121369527D01*
X119130469Y-121334788D01*
X119065212Y-121269531D01*
X119044487Y-121257565D01*
X118985289Y-121223386D01*
X118985286Y-121223385D01*
X118896147Y-121199500D01*
X118896144Y-121199500D01*
X118803856Y-121199500D01*
X118803853Y-121199500D01*
X118714713Y-121223385D01*
X118714710Y-121223386D01*
X118634794Y-121269527D01*
X118634784Y-121269534D01*
X118569534Y-121334784D01*
X118569527Y-121334794D01*
X118523386Y-121414710D01*
X118523385Y-121414713D01*
X118499500Y-121503853D01*
X118100500Y-121503853D01*
X118076614Y-121414713D01*
X118076613Y-121414710D01*
X118050526Y-121369527D01*
X118030469Y-121334788D01*
X117965212Y-121269531D01*
X117944487Y-121257565D01*
X117885289Y-121223386D01*
X117885286Y-121223385D01*
X117796147Y-121199500D01*
X117796144Y-121199500D01*
X117703856Y-121199500D01*
X117703853Y-121199500D01*
X117614713Y-121223385D01*
X117614710Y-121223386D01*
X117534794Y-121269527D01*
X117534784Y-121269534D01*
X117469534Y-121334784D01*
X117469527Y-121334794D01*
X117423386Y-121414710D01*
X117423385Y-121414713D01*
X117399500Y-121503853D01*
X117000500Y-121503853D01*
X116976614Y-121414713D01*
X116976613Y-121414710D01*
X116950526Y-121369527D01*
X116930469Y-121334788D01*
X116865212Y-121269531D01*
X116844487Y-121257565D01*
X116785289Y-121223386D01*
X116785286Y-121223385D01*
X116696147Y-121199500D01*
X116696144Y-121199500D01*
X116603856Y-121199500D01*
X116603853Y-121199500D01*
X116514713Y-121223385D01*
X116514710Y-121223386D01*
X116434794Y-121269527D01*
X116434784Y-121269534D01*
X116369534Y-121334784D01*
X116369527Y-121334794D01*
X116323386Y-121414710D01*
X116323385Y-121414713D01*
X116299500Y-121503853D01*
X114450500Y-121503853D01*
X114450500Y-121453853D01*
X114426614Y-121364713D01*
X114426613Y-121364710D01*
X114413752Y-121342435D01*
X114380469Y-121284788D01*
X114315212Y-121219531D01*
X114280518Y-121199500D01*
X114235289Y-121173386D01*
X114235286Y-121173385D01*
X114146147Y-121149500D01*
X114146144Y-121149500D01*
X114053856Y-121149500D01*
X114053853Y-121149500D01*
X113964713Y-121173385D01*
X113964710Y-121173386D01*
X113884794Y-121219527D01*
X113884784Y-121219534D01*
X113819534Y-121284784D01*
X113819527Y-121284794D01*
X113773386Y-121364710D01*
X113773385Y-121364713D01*
X113749500Y-121453853D01*
X112587102Y-121453853D01*
X112576614Y-121414713D01*
X112576614Y-121414712D01*
X112530469Y-121334788D01*
X112465212Y-121269531D01*
X112444487Y-121257565D01*
X112385289Y-121223386D01*
X112385286Y-121223385D01*
X112296147Y-121199500D01*
X112296144Y-121199500D01*
X112203856Y-121199500D01*
X112203853Y-121199500D01*
X112114713Y-121223385D01*
X112114710Y-121223386D01*
X112034794Y-121269527D01*
X112034784Y-121269534D01*
X111969534Y-121334784D01*
X111969527Y-121334794D01*
X111923386Y-121414710D01*
X111923385Y-121414713D01*
X111899500Y-121503853D01*
X111500500Y-121503853D01*
X111476614Y-121414713D01*
X111476613Y-121414710D01*
X111450526Y-121369527D01*
X111430469Y-121334788D01*
X111365212Y-121269531D01*
X111344487Y-121257565D01*
X111285289Y-121223386D01*
X111285286Y-121223385D01*
X111196147Y-121199500D01*
X111196144Y-121199500D01*
X111103856Y-121199500D01*
X111103853Y-121199500D01*
X111014713Y-121223385D01*
X111014710Y-121223386D01*
X110934794Y-121269527D01*
X110934784Y-121269534D01*
X110869534Y-121334784D01*
X110869527Y-121334794D01*
X110823386Y-121414710D01*
X110823385Y-121414713D01*
X110799500Y-121503853D01*
X110303076Y-121503853D01*
X110307334Y-121487962D01*
X110307334Y-121487961D01*
X110310500Y-121476145D01*
X110310500Y-121383853D01*
X110286614Y-121294713D01*
X110286613Y-121294710D01*
X110249524Y-121230472D01*
X110240469Y-121214788D01*
X110175212Y-121149531D01*
X110142250Y-121130500D01*
X110095289Y-121103386D01*
X110095286Y-121103385D01*
X110006147Y-121079500D01*
X110006144Y-121079500D01*
X109913856Y-121079500D01*
X109913853Y-121079500D01*
X109824713Y-121103385D01*
X109824710Y-121103386D01*
X109744794Y-121149527D01*
X109744784Y-121149534D01*
X109679534Y-121214784D01*
X109679527Y-121214794D01*
X109633386Y-121294710D01*
X109633385Y-121294713D01*
X109609500Y-121383853D01*
X97354534Y-121383853D01*
X97340212Y-121369531D01*
X97340208Y-121369529D01*
X97340206Y-121369527D01*
X97293281Y-121342435D01*
X97270451Y-121312682D01*
X97275346Y-121275500D01*
X97293281Y-121257565D01*
X97340212Y-121230469D01*
X97405469Y-121165212D01*
X97451614Y-121085288D01*
X97467336Y-121026613D01*
X97475500Y-120996146D01*
X97475500Y-120903853D01*
X97451614Y-120814713D01*
X97451613Y-120814710D01*
X97440077Y-120794731D01*
X97405469Y-120734788D01*
X97340212Y-120669531D01*
X97313063Y-120653856D01*
X97260289Y-120623386D01*
X97260286Y-120623385D01*
X97171147Y-120599500D01*
X97171144Y-120599500D01*
X97078856Y-120599500D01*
X97078853Y-120599500D01*
X96989713Y-120623385D01*
X96989710Y-120623386D01*
X96909794Y-120669527D01*
X96909784Y-120669534D01*
X96844534Y-120734784D01*
X96844527Y-120734794D01*
X96817435Y-120781718D01*
X96787682Y-120804549D01*
X96750500Y-120799653D01*
X96732565Y-120781718D01*
X96719249Y-120758656D01*
X96705469Y-120734788D01*
X96640212Y-120669531D01*
X96613063Y-120653856D01*
X96560289Y-120623386D01*
X96560286Y-120623385D01*
X96471147Y-120599500D01*
X96471144Y-120599500D01*
X96378856Y-120599500D01*
X96378853Y-120599500D01*
X96289713Y-120623385D01*
X96289710Y-120623386D01*
X96209794Y-120669527D01*
X96209784Y-120669534D01*
X96144534Y-120734784D01*
X96144527Y-120734794D01*
X96098386Y-120814710D01*
X96098386Y-120814711D01*
X96096830Y-120820519D01*
X96074000Y-120850272D01*
X96036817Y-120855166D01*
X96007064Y-120832336D01*
X96000500Y-120807836D01*
X96000500Y-119153853D01*
X96099500Y-119153853D01*
X96099500Y-119246146D01*
X96123385Y-119335286D01*
X96123386Y-119335289D01*
X96142435Y-119368281D01*
X96169531Y-119415212D01*
X96234788Y-119480469D01*
X96258656Y-119494249D01*
X96281718Y-119507565D01*
X96304549Y-119537318D01*
X96299653Y-119574500D01*
X96281718Y-119592435D01*
X96234794Y-119619527D01*
X96234784Y-119619534D01*
X96169534Y-119684784D01*
X96169527Y-119684794D01*
X96123386Y-119764710D01*
X96123385Y-119764713D01*
X96099500Y-119853853D01*
X96099500Y-119946146D01*
X96123385Y-120035286D01*
X96123386Y-120035289D01*
X96134106Y-120053856D01*
X96169531Y-120115212D01*
X96234788Y-120180469D01*
X96314712Y-120226614D01*
X96336998Y-120232585D01*
X96403853Y-120250500D01*
X96403856Y-120250500D01*
X96496146Y-120250500D01*
X96552916Y-120235288D01*
X96585288Y-120226614D01*
X96665212Y-120180469D01*
X96730469Y-120115212D01*
X96757565Y-120068280D01*
X96787318Y-120045451D01*
X96824500Y-120050346D01*
X96842435Y-120068281D01*
X96869527Y-120115206D01*
X96869529Y-120115208D01*
X96869531Y-120115212D01*
X96934788Y-120180469D01*
X97014712Y-120226614D01*
X97036998Y-120232585D01*
X97103853Y-120250500D01*
X97103856Y-120250500D01*
X97196146Y-120250500D01*
X97252916Y-120235288D01*
X97285288Y-120226614D01*
X97365212Y-120180469D01*
X97430469Y-120115212D01*
X97465895Y-120053853D01*
X100699500Y-120053853D01*
X100699500Y-120146146D01*
X100723385Y-120235286D01*
X100723386Y-120235289D01*
X100766430Y-120309842D01*
X100769531Y-120315212D01*
X100769534Y-120315215D01*
X100819671Y-120365352D01*
X100834023Y-120400000D01*
X100819671Y-120434648D01*
X100769534Y-120484784D01*
X100769527Y-120484794D01*
X100723386Y-120564710D01*
X100723385Y-120564713D01*
X100699500Y-120653853D01*
X100699500Y-120746146D01*
X100723385Y-120835286D01*
X100723386Y-120835289D01*
X100762973Y-120903853D01*
X100769531Y-120915212D01*
X100834788Y-120980469D01*
X100914712Y-121026614D01*
X100936998Y-121032585D01*
X101003853Y-121050500D01*
X101003856Y-121050500D01*
X101096146Y-121050500D01*
X101140716Y-121038557D01*
X101185288Y-121026614D01*
X101265212Y-120980469D01*
X101330469Y-120915212D01*
X101376614Y-120835288D01*
X101390968Y-120781718D01*
X101400500Y-120746146D01*
X101400500Y-120733853D01*
X110279500Y-120733853D01*
X110279500Y-120826146D01*
X110303385Y-120915286D01*
X110303386Y-120915289D01*
X110341017Y-120980465D01*
X110349531Y-120995212D01*
X110414788Y-121060469D01*
X110494712Y-121106614D01*
X110516998Y-121112585D01*
X110583853Y-121130500D01*
X110583856Y-121130500D01*
X110676146Y-121130500D01*
X110721746Y-121118281D01*
X110765288Y-121106614D01*
X110845212Y-121060469D01*
X110910469Y-120995212D01*
X110956614Y-120915288D01*
X110978050Y-120835288D01*
X110980500Y-120826146D01*
X110980500Y-120733853D01*
X110956614Y-120644713D01*
X110956613Y-120644710D01*
X110910472Y-120564794D01*
X110910469Y-120564788D01*
X110845212Y-120499531D01*
X110839842Y-120496430D01*
X110765289Y-120453386D01*
X110765286Y-120453385D01*
X110676147Y-120429500D01*
X110676144Y-120429500D01*
X110583856Y-120429500D01*
X110583853Y-120429500D01*
X110494713Y-120453385D01*
X110494710Y-120453386D01*
X110414794Y-120499527D01*
X110414784Y-120499534D01*
X110349534Y-120564784D01*
X110349527Y-120564794D01*
X110303386Y-120644710D01*
X110303385Y-120644713D01*
X110279500Y-120733853D01*
X101400500Y-120733853D01*
X101400500Y-120653853D01*
X101376614Y-120564713D01*
X101376613Y-120564710D01*
X101365077Y-120544731D01*
X101330469Y-120484788D01*
X101280329Y-120434648D01*
X101265977Y-120400000D01*
X101280329Y-120365352D01*
X101330469Y-120315212D01*
X101376614Y-120235288D01*
X101391304Y-120180465D01*
X101400500Y-120146146D01*
X101400500Y-120053853D01*
X101376614Y-119964713D01*
X101376613Y-119964710D01*
X101365077Y-119944731D01*
X101330469Y-119884788D01*
X101265212Y-119819531D01*
X101242838Y-119806613D01*
X101185289Y-119773386D01*
X101185286Y-119773385D01*
X101096147Y-119749500D01*
X101096144Y-119749500D01*
X101003856Y-119749500D01*
X101003853Y-119749500D01*
X100914713Y-119773385D01*
X100914710Y-119773386D01*
X100834794Y-119819527D01*
X100834784Y-119819534D01*
X100769534Y-119884784D01*
X100769527Y-119884794D01*
X100723386Y-119964710D01*
X100723385Y-119964713D01*
X100699500Y-120053853D01*
X97465895Y-120053853D01*
X97476614Y-120035288D01*
X97500499Y-119946147D01*
X97500500Y-119946147D01*
X97500500Y-119853853D01*
X97476614Y-119764713D01*
X97476613Y-119764710D01*
X97465077Y-119744731D01*
X97430469Y-119684788D01*
X97365212Y-119619531D01*
X97365208Y-119619529D01*
X97365206Y-119619527D01*
X97318281Y-119592435D01*
X97295451Y-119562682D01*
X97300346Y-119525500D01*
X97318281Y-119507565D01*
X97365212Y-119480469D01*
X97411828Y-119433853D01*
X109609500Y-119433853D01*
X109609500Y-119526146D01*
X109633385Y-119615286D01*
X109633386Y-119615289D01*
X109635837Y-119619534D01*
X109679531Y-119695212D01*
X109744788Y-119760469D01*
X109824712Y-119806614D01*
X109846998Y-119812585D01*
X109913853Y-119830500D01*
X109913856Y-119830500D01*
X110006146Y-119830500D01*
X110050716Y-119818557D01*
X110095288Y-119806614D01*
X110175212Y-119760469D01*
X110240469Y-119695212D01*
X110286614Y-119615288D01*
X110307506Y-119537318D01*
X110310500Y-119526146D01*
X110310500Y-119433853D01*
X110288165Y-119350500D01*
X110286614Y-119344712D01*
X110240469Y-119264788D01*
X110175212Y-119199531D01*
X110169842Y-119196430D01*
X110095289Y-119153386D01*
X110095286Y-119153385D01*
X110006147Y-119129500D01*
X110006144Y-119129500D01*
X109913856Y-119129500D01*
X109913853Y-119129500D01*
X109824713Y-119153385D01*
X109824710Y-119153386D01*
X109744794Y-119199527D01*
X109744784Y-119199534D01*
X109679534Y-119264784D01*
X109679527Y-119264794D01*
X109633386Y-119344710D01*
X109633385Y-119344713D01*
X109609500Y-119433853D01*
X97411828Y-119433853D01*
X97430469Y-119415212D01*
X97470076Y-119346613D01*
X97476613Y-119335290D01*
X97476613Y-119335289D01*
X97476614Y-119335288D01*
X97495503Y-119264794D01*
X97500500Y-119246146D01*
X97500500Y-119153853D01*
X97476998Y-119066146D01*
X97476614Y-119064712D01*
X97430469Y-118984788D01*
X97419534Y-118973853D01*
X111939500Y-118973853D01*
X111939500Y-119066146D01*
X111963385Y-119155286D01*
X111963386Y-119155289D01*
X112006430Y-119229842D01*
X112009531Y-119235212D01*
X112074788Y-119300469D01*
X112120070Y-119326613D01*
X112152697Y-119345451D01*
X112154712Y-119346614D01*
X112168640Y-119350346D01*
X112243853Y-119370500D01*
X112243856Y-119370500D01*
X112336146Y-119370500D01*
X112380716Y-119358557D01*
X112425288Y-119346614D01*
X112505212Y-119300469D01*
X112570469Y-119235212D01*
X112616614Y-119155288D01*
X112628557Y-119110716D01*
X112640500Y-119066146D01*
X112640500Y-118973854D01*
X112637679Y-118963327D01*
X112637679Y-118963326D01*
X112635141Y-118953853D01*
X113299500Y-118953853D01*
X113299500Y-119046146D01*
X113323385Y-119135286D01*
X113323386Y-119135289D01*
X113360475Y-119199527D01*
X113369531Y-119215212D01*
X113434788Y-119280469D01*
X113514712Y-119326614D01*
X113536998Y-119332585D01*
X113603853Y-119350500D01*
X113603856Y-119350500D01*
X113696146Y-119350500D01*
X113740716Y-119338557D01*
X113785288Y-119326614D01*
X113865212Y-119280469D01*
X113930469Y-119215212D01*
X113976614Y-119135288D01*
X113988557Y-119090716D01*
X114000500Y-119046146D01*
X114000500Y-118953853D01*
X113976614Y-118864713D01*
X113976613Y-118864710D01*
X113965077Y-118844731D01*
X113930469Y-118784788D01*
X113865212Y-118719531D01*
X113859842Y-118716430D01*
X113785289Y-118673386D01*
X113785286Y-118673385D01*
X113696147Y-118649500D01*
X113696144Y-118649500D01*
X113603856Y-118649500D01*
X113603853Y-118649500D01*
X113514713Y-118673385D01*
X113514710Y-118673386D01*
X113434794Y-118719527D01*
X113434784Y-118719534D01*
X113369534Y-118784784D01*
X113369527Y-118784794D01*
X113323386Y-118864710D01*
X113323385Y-118864713D01*
X113299500Y-118953853D01*
X112635141Y-118953853D01*
X112616614Y-118884713D01*
X112616613Y-118884710D01*
X112570472Y-118804794D01*
X112570469Y-118804788D01*
X112505212Y-118739531D01*
X112470565Y-118719527D01*
X112425289Y-118693386D01*
X112425286Y-118693385D01*
X112336147Y-118669500D01*
X112336144Y-118669500D01*
X112243856Y-118669500D01*
X112243853Y-118669500D01*
X112154713Y-118693385D01*
X112154710Y-118693386D01*
X112074794Y-118739527D01*
X112074784Y-118739534D01*
X112009534Y-118804784D01*
X112009527Y-118804794D01*
X111963386Y-118884710D01*
X111963385Y-118884713D01*
X111939500Y-118973853D01*
X97419534Y-118973853D01*
X97365212Y-118919531D01*
X97304907Y-118884713D01*
X97285289Y-118873386D01*
X97285286Y-118873385D01*
X97196147Y-118849500D01*
X97196144Y-118849500D01*
X97103856Y-118849500D01*
X97103853Y-118849500D01*
X97014713Y-118873385D01*
X97014710Y-118873386D01*
X96934794Y-118919527D01*
X96934784Y-118919534D01*
X96869534Y-118984784D01*
X96869527Y-118984794D01*
X96842435Y-119031718D01*
X96812682Y-119054549D01*
X96775500Y-119049653D01*
X96757565Y-119031718D01*
X96744249Y-119008656D01*
X96730469Y-118984788D01*
X96665212Y-118919531D01*
X96604907Y-118884713D01*
X96585289Y-118873386D01*
X96585286Y-118873385D01*
X96496147Y-118849500D01*
X96496144Y-118849500D01*
X96403856Y-118849500D01*
X96403853Y-118849500D01*
X96314713Y-118873385D01*
X96314710Y-118873386D01*
X96234794Y-118919527D01*
X96234784Y-118919534D01*
X96169534Y-118984784D01*
X96169527Y-118984794D01*
X96123386Y-119064710D01*
X96123385Y-119064713D01*
X96099500Y-119153853D01*
X96000500Y-119153853D01*
X96000500Y-117737397D01*
X101849500Y-117737397D01*
X101849500Y-117862602D01*
X101868842Y-117934784D01*
X101881905Y-117983536D01*
X101944505Y-118091964D01*
X102033036Y-118180495D01*
X102141464Y-118243095D01*
X102214025Y-118262538D01*
X102262397Y-118275500D01*
X102262399Y-118275500D01*
X102387603Y-118275500D01*
X102427912Y-118264698D01*
X102508536Y-118243095D01*
X102576506Y-118203853D01*
X115199500Y-118203853D01*
X115199500Y-118296146D01*
X115223385Y-118385286D01*
X115223386Y-118385289D01*
X115249469Y-118430465D01*
X115269531Y-118465212D01*
X115334788Y-118530469D01*
X115414712Y-118576614D01*
X115436998Y-118582585D01*
X115503853Y-118600500D01*
X115503856Y-118600500D01*
X115596146Y-118600500D01*
X115640716Y-118588557D01*
X115685288Y-118576614D01*
X115765212Y-118530469D01*
X115830469Y-118465212D01*
X115876614Y-118385288D01*
X115890040Y-118335180D01*
X115900500Y-118296146D01*
X115900500Y-118203853D01*
X115900499Y-118203852D01*
X115876615Y-118114714D01*
X115876613Y-118114710D01*
X115870344Y-118103853D01*
X124449500Y-118103853D01*
X124449500Y-118196146D01*
X124473385Y-118285286D01*
X124473386Y-118285289D01*
X124502189Y-118335176D01*
X124519531Y-118365212D01*
X124584788Y-118430469D01*
X124664712Y-118476614D01*
X124686998Y-118482585D01*
X124753853Y-118500500D01*
X124753856Y-118500500D01*
X124846146Y-118500500D01*
X124890716Y-118488557D01*
X124935288Y-118476614D01*
X125015212Y-118430469D01*
X125080469Y-118365212D01*
X125126614Y-118285288D01*
X125148434Y-118203856D01*
X125150500Y-118196146D01*
X125150500Y-118103853D01*
X125126614Y-118014713D01*
X125126613Y-118014710D01*
X125080472Y-117934794D01*
X125080469Y-117934788D01*
X125015212Y-117869531D01*
X124955908Y-117835291D01*
X124935289Y-117823386D01*
X124935286Y-117823385D01*
X124846147Y-117799500D01*
X124846144Y-117799500D01*
X124753856Y-117799500D01*
X124753853Y-117799500D01*
X124664713Y-117823385D01*
X124664710Y-117823386D01*
X124584794Y-117869527D01*
X124584784Y-117869534D01*
X124519534Y-117934784D01*
X124519527Y-117934794D01*
X124473386Y-118014710D01*
X124473385Y-118014713D01*
X124449500Y-118103853D01*
X115870344Y-118103853D01*
X115839540Y-118050500D01*
X115830469Y-118034788D01*
X115765212Y-117969531D01*
X115759842Y-117966430D01*
X115685289Y-117923386D01*
X115685286Y-117923385D01*
X115596147Y-117899500D01*
X115596144Y-117899500D01*
X115503856Y-117899500D01*
X115503853Y-117899500D01*
X115414713Y-117923385D01*
X115414710Y-117923386D01*
X115334794Y-117969527D01*
X115334784Y-117969534D01*
X115269534Y-118034784D01*
X115269527Y-118034794D01*
X115223386Y-118114710D01*
X115223385Y-118114713D01*
X115199500Y-118203853D01*
X102576506Y-118203853D01*
X102616964Y-118180495D01*
X102705495Y-118091964D01*
X102768095Y-117983536D01*
X102800500Y-117862601D01*
X102800500Y-117737399D01*
X102800500Y-117737397D01*
X102782315Y-117669534D01*
X102768095Y-117616464D01*
X102705495Y-117508036D01*
X102616964Y-117419505D01*
X102508536Y-117356905D01*
X102480901Y-117349500D01*
X102387603Y-117324500D01*
X102387601Y-117324500D01*
X102262399Y-117324500D01*
X102262397Y-117324500D01*
X102141467Y-117356904D01*
X102141466Y-117356904D01*
X102141464Y-117356905D01*
X102073496Y-117396146D01*
X102033036Y-117419505D01*
X102033033Y-117419507D01*
X101944507Y-117508033D01*
X101944505Y-117508036D01*
X101881905Y-117616464D01*
X101881904Y-117616466D01*
X101881904Y-117616467D01*
X101849500Y-117737397D01*
X96000500Y-117737397D01*
X96000500Y-114953853D01*
X106024500Y-114953853D01*
X106024500Y-115046146D01*
X106048385Y-115135286D01*
X106048386Y-115135289D01*
X106073118Y-115178124D01*
X106094531Y-115215212D01*
X106159788Y-115280469D01*
X106239712Y-115326614D01*
X106261998Y-115332585D01*
X106328853Y-115350500D01*
X106328856Y-115350500D01*
X106421146Y-115350500D01*
X106465716Y-115338557D01*
X106510288Y-115326614D01*
X106590212Y-115280469D01*
X106655469Y-115215212D01*
X106701614Y-115135288D01*
X106715145Y-115084788D01*
X106725500Y-115046146D01*
X106725500Y-114953853D01*
X106701614Y-114864713D01*
X106701613Y-114864710D01*
X106655472Y-114784794D01*
X106655469Y-114784788D01*
X106590212Y-114719531D01*
X106582719Y-114715205D01*
X106510289Y-114673386D01*
X106510286Y-114673385D01*
X106421147Y-114649500D01*
X106421144Y-114649500D01*
X106328856Y-114649500D01*
X106328853Y-114649500D01*
X106239713Y-114673385D01*
X106239710Y-114673386D01*
X106159794Y-114719527D01*
X106159784Y-114719534D01*
X106094534Y-114784784D01*
X106094527Y-114784794D01*
X106048386Y-114864710D01*
X106048385Y-114864713D01*
X106024500Y-114953853D01*
X96000500Y-114953853D01*
X96000500Y-113849500D01*
X96014852Y-113814852D01*
X96049500Y-113800500D01*
X97514820Y-113800500D01*
X97558722Y-113791767D01*
X97608504Y-113758504D01*
X97641767Y-113708722D01*
X97650500Y-113664820D01*
X97650500Y-113653853D01*
X106849500Y-113653853D01*
X106849500Y-113746146D01*
X106873385Y-113835286D01*
X106873386Y-113835289D01*
X106912973Y-113903853D01*
X106919531Y-113915212D01*
X106984788Y-113980469D01*
X107064712Y-114026614D01*
X107086998Y-114032585D01*
X107153853Y-114050500D01*
X107153856Y-114050500D01*
X107217504Y-114050500D01*
X107252152Y-114064852D01*
X107255589Y-114068669D01*
X108044408Y-115043093D01*
X108052809Y-115058429D01*
X108166502Y-115399510D01*
X108163843Y-115436919D01*
X108154665Y-115449652D01*
X108119535Y-115484783D01*
X108119527Y-115484794D01*
X108073386Y-115564710D01*
X108073385Y-115564713D01*
X108049500Y-115653853D01*
X108049500Y-115746146D01*
X108073385Y-115835286D01*
X108073386Y-115835289D01*
X108101963Y-115884784D01*
X108119531Y-115915212D01*
X108184788Y-115980469D01*
X108264712Y-116026614D01*
X108271792Y-116028511D01*
X108353854Y-116050500D01*
X108354460Y-116050580D01*
X108354727Y-116050734D01*
X108356958Y-116051332D01*
X108356797Y-116051929D01*
X108386941Y-116069328D01*
X108394554Y-116083665D01*
X108399992Y-116099980D01*
X108399999Y-116099998D01*
X108594531Y-116566875D01*
X108594609Y-116604378D01*
X108583949Y-116620369D01*
X108519531Y-116684788D01*
X108519527Y-116684794D01*
X108473386Y-116764710D01*
X108473385Y-116764713D01*
X108449500Y-116853853D01*
X108449500Y-116946146D01*
X108473385Y-117035286D01*
X108473386Y-117035289D01*
X108495382Y-117073386D01*
X108519531Y-117115212D01*
X108584788Y-117180469D01*
X108664712Y-117226614D01*
X108686998Y-117232585D01*
X108753853Y-117250500D01*
X108831933Y-117250500D01*
X108864486Y-117262876D01*
X109237444Y-117594394D01*
X109253805Y-117628140D01*
X109252221Y-117643696D01*
X109249500Y-117653853D01*
X109249500Y-117746146D01*
X109273385Y-117835286D01*
X109273386Y-117835289D01*
X109310747Y-117899998D01*
X109319531Y-117915212D01*
X109384788Y-117980469D01*
X109464712Y-118026614D01*
X109486998Y-118032585D01*
X109553853Y-118050500D01*
X109553856Y-118050500D01*
X109646146Y-118050500D01*
X109690716Y-118038557D01*
X109735288Y-118026614D01*
X109815212Y-117980469D01*
X109880469Y-117915212D01*
X109926614Y-117835288D01*
X109940024Y-117785240D01*
X109962852Y-117755490D01*
X110000035Y-117750594D01*
X110028492Y-117771306D01*
X110060000Y-117820000D01*
X110149997Y-117899998D01*
X110150004Y-117900003D01*
X110399999Y-118050000D01*
X110399999Y-118049999D01*
X110400000Y-118050000D01*
X110555446Y-117303853D01*
X119449500Y-117303853D01*
X119449500Y-117396146D01*
X119473385Y-117485286D01*
X119473386Y-117485289D01*
X119516430Y-117559842D01*
X119519531Y-117565212D01*
X119584788Y-117630469D01*
X119664712Y-117676614D01*
X119686998Y-117682585D01*
X119753853Y-117700500D01*
X119753856Y-117700500D01*
X119846146Y-117700500D01*
X119890716Y-117688557D01*
X119935288Y-117676614D01*
X119974710Y-117653853D01*
X125649500Y-117653853D01*
X125649500Y-117746146D01*
X125673385Y-117835286D01*
X125673386Y-117835289D01*
X125710747Y-117899998D01*
X125719531Y-117915212D01*
X125784788Y-117980469D01*
X125864712Y-118026614D01*
X125886998Y-118032585D01*
X125953853Y-118050500D01*
X125953856Y-118050500D01*
X126046146Y-118050500D01*
X126090716Y-118038557D01*
X126135288Y-118026614D01*
X126215212Y-117980469D01*
X126280469Y-117915212D01*
X126287027Y-117903853D01*
X128949500Y-117903853D01*
X128949500Y-117996146D01*
X128973385Y-118085286D01*
X128973386Y-118085289D01*
X128990375Y-118114714D01*
X129019531Y-118165212D01*
X129084788Y-118230469D01*
X129144731Y-118265077D01*
X129162782Y-118275500D01*
X129164712Y-118276614D01*
X129186998Y-118282585D01*
X129253853Y-118300500D01*
X129253856Y-118300500D01*
X129346146Y-118300500D01*
X129402916Y-118285288D01*
X129435288Y-118276614D01*
X129515212Y-118230469D01*
X129580469Y-118165212D01*
X129626614Y-118085288D01*
X129640145Y-118034788D01*
X129650500Y-117996146D01*
X129650500Y-117903853D01*
X129626614Y-117814713D01*
X129626613Y-117814710D01*
X129601553Y-117771306D01*
X129580469Y-117734788D01*
X129515212Y-117669531D01*
X129488063Y-117653856D01*
X129435289Y-117623386D01*
X129435286Y-117623385D01*
X129346147Y-117599500D01*
X129346144Y-117599500D01*
X129253856Y-117599500D01*
X129253853Y-117599500D01*
X129164713Y-117623385D01*
X129164710Y-117623386D01*
X129084794Y-117669527D01*
X129084784Y-117669534D01*
X129019534Y-117734784D01*
X129019527Y-117734794D01*
X128973386Y-117814710D01*
X128973385Y-117814713D01*
X128949500Y-117903853D01*
X126287027Y-117903853D01*
X126303026Y-117876143D01*
X126303027Y-117876142D01*
X126326613Y-117835290D01*
X126326613Y-117835289D01*
X126326614Y-117835288D01*
X126338557Y-117790716D01*
X126350500Y-117746146D01*
X126350500Y-117653853D01*
X126326614Y-117564713D01*
X126326613Y-117564710D01*
X126293891Y-117508036D01*
X126280469Y-117484788D01*
X126215212Y-117419531D01*
X126215208Y-117419529D01*
X126215206Y-117419527D01*
X126169397Y-117393079D01*
X126135289Y-117373386D01*
X126135286Y-117373385D01*
X126062392Y-117353853D01*
X127049500Y-117353853D01*
X127049500Y-117446146D01*
X127073385Y-117535286D01*
X127073386Y-117535289D01*
X127116430Y-117609842D01*
X127119531Y-117615212D01*
X127184788Y-117680469D01*
X127264712Y-117726614D01*
X127286998Y-117732585D01*
X127353853Y-117750500D01*
X127353856Y-117750500D01*
X127446146Y-117750500D01*
X127495045Y-117737397D01*
X127535288Y-117726614D01*
X127615212Y-117680469D01*
X127680469Y-117615212D01*
X127726614Y-117535288D01*
X127740145Y-117484788D01*
X127750500Y-117446146D01*
X127750500Y-117353853D01*
X127726614Y-117264713D01*
X127726613Y-117264710D01*
X127703279Y-117224295D01*
X127680469Y-117184788D01*
X127615212Y-117119531D01*
X127582250Y-117100500D01*
X127535289Y-117073386D01*
X127535286Y-117073385D01*
X127446147Y-117049500D01*
X127446144Y-117049500D01*
X127353856Y-117049500D01*
X127353853Y-117049500D01*
X127264713Y-117073385D01*
X127264710Y-117073386D01*
X127184794Y-117119527D01*
X127184784Y-117119534D01*
X127119534Y-117184784D01*
X127119527Y-117184794D01*
X127073386Y-117264710D01*
X127073385Y-117264713D01*
X127049500Y-117353853D01*
X126062392Y-117353853D01*
X126046147Y-117349500D01*
X126046144Y-117349500D01*
X125953856Y-117349500D01*
X125953853Y-117349500D01*
X125864713Y-117373385D01*
X125864710Y-117373386D01*
X125784794Y-117419527D01*
X125784784Y-117419534D01*
X125719534Y-117484784D01*
X125719527Y-117484794D01*
X125673386Y-117564710D01*
X125673385Y-117564713D01*
X125649500Y-117653853D01*
X119974710Y-117653853D01*
X120015212Y-117630469D01*
X120080469Y-117565212D01*
X120126614Y-117485288D01*
X120144233Y-117419534D01*
X120150500Y-117396146D01*
X120150500Y-117303853D01*
X120126614Y-117214713D01*
X120126613Y-117214710D01*
X120113416Y-117191853D01*
X120080469Y-117134788D01*
X120015212Y-117069531D01*
X119980518Y-117049500D01*
X119935289Y-117023386D01*
X119935286Y-117023385D01*
X119846147Y-116999500D01*
X119846144Y-116999500D01*
X119753856Y-116999500D01*
X119753853Y-116999500D01*
X119664713Y-117023385D01*
X119664710Y-117023386D01*
X119584794Y-117069527D01*
X119584784Y-117069534D01*
X119519534Y-117134784D01*
X119519527Y-117134794D01*
X119473386Y-117214710D01*
X119473385Y-117214713D01*
X119449500Y-117303853D01*
X110555446Y-117303853D01*
X110572021Y-117224294D01*
X110593138Y-117193302D01*
X110595476Y-117191863D01*
X110615212Y-117180469D01*
X110680469Y-117115212D01*
X110726614Y-117035288D01*
X110745393Y-116965205D01*
X110750500Y-116946146D01*
X110750500Y-116853853D01*
X111649500Y-116853853D01*
X111649500Y-116946146D01*
X111673385Y-117035286D01*
X111673386Y-117035289D01*
X111695382Y-117073386D01*
X111719531Y-117115212D01*
X111784788Y-117180469D01*
X111864712Y-117226614D01*
X111886998Y-117232585D01*
X111953853Y-117250500D01*
X111953856Y-117250500D01*
X112046146Y-117250500D01*
X112090716Y-117238557D01*
X112135288Y-117226614D01*
X112215212Y-117180469D01*
X112280469Y-117115212D01*
X112326614Y-117035288D01*
X112345393Y-116965205D01*
X112350500Y-116946146D01*
X112350500Y-116853853D01*
X112449500Y-116853853D01*
X112449500Y-116946146D01*
X112473385Y-117035286D01*
X112473386Y-117035289D01*
X112495382Y-117073386D01*
X112519531Y-117115212D01*
X112584788Y-117180469D01*
X112664712Y-117226614D01*
X112686998Y-117232585D01*
X112753853Y-117250500D01*
X112753856Y-117250500D01*
X112846146Y-117250500D01*
X112890716Y-117238557D01*
X112935288Y-117226614D01*
X113015212Y-117180469D01*
X113080469Y-117115212D01*
X113126614Y-117035288D01*
X113145393Y-116965205D01*
X113150500Y-116946146D01*
X113150500Y-116853853D01*
X114049500Y-116853853D01*
X114049500Y-116946146D01*
X114073385Y-117035286D01*
X114073386Y-117035289D01*
X114095382Y-117073386D01*
X114119531Y-117115212D01*
X114184788Y-117180469D01*
X114264712Y-117226614D01*
X114286998Y-117232585D01*
X114353853Y-117250500D01*
X114353856Y-117250500D01*
X114446146Y-117250500D01*
X114490716Y-117238557D01*
X114535288Y-117226614D01*
X114615212Y-117180469D01*
X114680469Y-117115212D01*
X114726614Y-117035288D01*
X114745393Y-116965205D01*
X114750500Y-116946146D01*
X114750500Y-116853853D01*
X114726614Y-116764713D01*
X114726613Y-116764710D01*
X114680472Y-116684794D01*
X114680469Y-116684788D01*
X114615212Y-116619531D01*
X114588967Y-116604378D01*
X114535289Y-116573386D01*
X114535286Y-116573385D01*
X114446147Y-116549500D01*
X114446144Y-116549500D01*
X114353856Y-116549500D01*
X114353853Y-116549500D01*
X114264713Y-116573385D01*
X114264710Y-116573386D01*
X114184794Y-116619527D01*
X114184784Y-116619534D01*
X114119534Y-116684784D01*
X114119527Y-116684794D01*
X114073386Y-116764710D01*
X114073385Y-116764713D01*
X114049500Y-116853853D01*
X113150500Y-116853853D01*
X113126614Y-116764713D01*
X113126613Y-116764710D01*
X113080472Y-116684794D01*
X113080469Y-116684788D01*
X113015212Y-116619531D01*
X112988967Y-116604378D01*
X112935289Y-116573386D01*
X112935286Y-116573385D01*
X112846147Y-116549500D01*
X112846144Y-116549500D01*
X112753856Y-116549500D01*
X112753853Y-116549500D01*
X112664713Y-116573385D01*
X112664710Y-116573386D01*
X112584794Y-116619527D01*
X112584784Y-116619534D01*
X112519534Y-116684784D01*
X112519527Y-116684794D01*
X112473386Y-116764710D01*
X112473385Y-116764713D01*
X112449500Y-116853853D01*
X112350500Y-116853853D01*
X112326614Y-116764713D01*
X112326613Y-116764710D01*
X112280472Y-116684794D01*
X112280469Y-116684788D01*
X112215212Y-116619531D01*
X112188967Y-116604378D01*
X112135289Y-116573386D01*
X112135286Y-116573385D01*
X112046147Y-116549500D01*
X112046144Y-116549500D01*
X111953856Y-116549500D01*
X111953853Y-116549500D01*
X111864713Y-116573385D01*
X111864710Y-116573386D01*
X111784794Y-116619527D01*
X111784784Y-116619534D01*
X111719534Y-116684784D01*
X111719527Y-116684794D01*
X111673386Y-116764710D01*
X111673385Y-116764713D01*
X111649500Y-116853853D01*
X110750500Y-116853853D01*
X110726614Y-116764713D01*
X110726613Y-116764710D01*
X110680472Y-116684794D01*
X110680469Y-116684788D01*
X110615212Y-116619531D01*
X110588967Y-116604378D01*
X110535289Y-116573386D01*
X110535286Y-116573385D01*
X110446147Y-116549500D01*
X110446144Y-116549500D01*
X110389509Y-116549500D01*
X110354861Y-116535148D01*
X110353762Y-116534013D01*
X109963753Y-116118002D01*
X109950500Y-116084489D01*
X109950500Y-116053853D01*
X109930704Y-115979975D01*
X109926614Y-115964712D01*
X109880469Y-115884788D01*
X109861036Y-115865355D01*
X109848147Y-115842591D01*
X109800124Y-115650500D01*
X109795660Y-115632642D01*
X109801180Y-115595548D01*
X109813368Y-115581883D01*
X109815203Y-115580474D01*
X109815212Y-115580469D01*
X109880469Y-115515212D01*
X109926614Y-115435288D01*
X109949333Y-115350500D01*
X109950500Y-115346146D01*
X109950500Y-115253853D01*
X110849500Y-115253853D01*
X110849500Y-115346146D01*
X110873385Y-115435286D01*
X110873386Y-115435289D01*
X110881679Y-115449652D01*
X110919531Y-115515212D01*
X110984788Y-115580469D01*
X111064712Y-115626614D01*
X111076789Y-115629850D01*
X111153853Y-115650500D01*
X111153856Y-115650500D01*
X111208436Y-115650500D01*
X111239046Y-115661237D01*
X111599998Y-115949999D01*
X111600000Y-115950000D01*
X112407703Y-115977851D01*
X112441836Y-115993388D01*
X112454985Y-116028511D01*
X112453345Y-116039502D01*
X112449500Y-116053854D01*
X112449500Y-116146146D01*
X112473385Y-116235286D01*
X112473386Y-116235289D01*
X112484106Y-116253856D01*
X112519531Y-116315212D01*
X112584788Y-116380469D01*
X112664712Y-116426614D01*
X112686998Y-116432585D01*
X112753853Y-116450500D01*
X112753856Y-116450500D01*
X112846146Y-116450500D01*
X112902916Y-116435288D01*
X112935288Y-116426614D01*
X113015212Y-116380469D01*
X113080469Y-116315212D01*
X113115895Y-116253853D01*
X124649500Y-116253853D01*
X124649500Y-116346146D01*
X124673385Y-116435286D01*
X124673386Y-116435289D01*
X124693158Y-116469534D01*
X124719531Y-116515212D01*
X124784788Y-116580469D01*
X124826199Y-116604378D01*
X124853895Y-116620369D01*
X124864712Y-116626614D01*
X124886998Y-116632585D01*
X124953853Y-116650500D01*
X125000651Y-116650500D01*
X125035299Y-116664852D01*
X125049651Y-116699500D01*
X125049500Y-116701799D01*
X125049500Y-116796146D01*
X125073385Y-116885286D01*
X125073386Y-116885289D01*
X125108522Y-116946144D01*
X125119531Y-116965212D01*
X125184788Y-117030469D01*
X125264712Y-117076614D01*
X125286998Y-117082585D01*
X125353853Y-117100500D01*
X125353856Y-117100500D01*
X125446146Y-117100500D01*
X125490716Y-117088557D01*
X125535288Y-117076614D01*
X125615212Y-117030469D01*
X125680469Y-116965212D01*
X125726614Y-116885288D01*
X125738557Y-116840716D01*
X125750500Y-116796146D01*
X125750500Y-116703853D01*
X125726614Y-116614713D01*
X125726613Y-116614710D01*
X125688963Y-116549500D01*
X125680469Y-116534788D01*
X125615212Y-116469531D01*
X125582250Y-116450500D01*
X125535289Y-116423386D01*
X125535286Y-116423385D01*
X125446147Y-116399500D01*
X125446144Y-116399500D01*
X125399349Y-116399500D01*
X125364701Y-116385148D01*
X125350349Y-116350500D01*
X125350500Y-116348200D01*
X125350500Y-116253853D01*
X125326614Y-116164713D01*
X125326613Y-116164710D01*
X125289540Y-116100499D01*
X125280469Y-116084788D01*
X125215212Y-116019531D01*
X125169932Y-115993388D01*
X125135289Y-115973386D01*
X125135286Y-115973385D01*
X125046147Y-115949500D01*
X125046144Y-115949500D01*
X124953856Y-115949500D01*
X124953853Y-115949500D01*
X124864713Y-115973385D01*
X124864710Y-115973386D01*
X124784794Y-116019527D01*
X124784784Y-116019534D01*
X124719534Y-116084784D01*
X124719527Y-116084794D01*
X124673386Y-116164710D01*
X124673385Y-116164713D01*
X124649500Y-116253853D01*
X113115895Y-116253853D01*
X113126614Y-116235288D01*
X113150499Y-116146147D01*
X113150500Y-116146147D01*
X113150500Y-116053853D01*
X113126666Y-115964906D01*
X113131561Y-115927724D01*
X113140757Y-115916222D01*
X113436960Y-115642805D01*
X113472152Y-115629850D01*
X113482874Y-115631480D01*
X113507478Y-115638073D01*
X113553854Y-115650500D01*
X113553856Y-115650500D01*
X113646146Y-115650500D01*
X113690716Y-115638557D01*
X113735288Y-115626614D01*
X113815212Y-115580469D01*
X113880469Y-115515212D01*
X113926614Y-115435288D01*
X113949333Y-115350500D01*
X113950500Y-115346146D01*
X113950500Y-115277442D01*
X113952877Y-115271702D01*
X113951963Y-115265558D01*
X113959808Y-115254969D01*
X113964852Y-115242794D01*
X113974290Y-115235425D01*
X113975290Y-115234825D01*
X114012384Y-115229305D01*
X114042517Y-115251632D01*
X114049500Y-115276842D01*
X114049500Y-115346146D01*
X114073385Y-115435286D01*
X114073386Y-115435289D01*
X114081679Y-115449652D01*
X114119531Y-115515212D01*
X114184788Y-115580469D01*
X114264712Y-115626614D01*
X114276789Y-115629850D01*
X114353853Y-115650500D01*
X114353856Y-115650500D01*
X114446146Y-115650500D01*
X114490716Y-115638557D01*
X114535288Y-115626614D01*
X114615212Y-115580469D01*
X114680469Y-115515212D01*
X114726614Y-115435288D01*
X114749333Y-115350500D01*
X114750500Y-115346146D01*
X114750500Y-115253853D01*
X114726614Y-115164713D01*
X114726613Y-115164710D01*
X114680472Y-115084794D01*
X114680469Y-115084788D01*
X114615212Y-115019531D01*
X114600296Y-115010919D01*
X114535289Y-114973386D01*
X114535286Y-114973385D01*
X114446147Y-114949500D01*
X114446144Y-114949500D01*
X114353856Y-114949500D01*
X114353853Y-114949500D01*
X114264713Y-114973385D01*
X114264709Y-114973386D01*
X114183479Y-115020286D01*
X114146297Y-115025181D01*
X114121950Y-115009943D01*
X114090266Y-114973385D01*
X113897744Y-114751244D01*
X113885899Y-114715662D01*
X113892338Y-114694654D01*
X113926614Y-114635288D01*
X113938827Y-114589710D01*
X113950500Y-114546146D01*
X113950500Y-114453853D01*
X113926614Y-114364713D01*
X113926613Y-114364710D01*
X113899969Y-114318563D01*
X113880469Y-114284788D01*
X113815212Y-114219531D01*
X113809842Y-114216430D01*
X113735289Y-114173386D01*
X113735286Y-114173385D01*
X113646147Y-114149500D01*
X113646144Y-114149500D01*
X113553856Y-114149500D01*
X113553853Y-114149500D01*
X113464713Y-114173385D01*
X113464710Y-114173386D01*
X113384794Y-114219527D01*
X113384784Y-114219534D01*
X113319534Y-114284784D01*
X113319527Y-114284794D01*
X113273386Y-114364710D01*
X113273385Y-114364713D01*
X113249500Y-114453853D01*
X113249500Y-114546144D01*
X113264230Y-114601122D01*
X113259334Y-114638304D01*
X113251547Y-114648451D01*
X112948451Y-114951547D01*
X112913803Y-114965899D01*
X112901122Y-114964230D01*
X112846145Y-114949500D01*
X112846144Y-114949500D01*
X112753856Y-114949500D01*
X112753853Y-114949500D01*
X112664713Y-114973385D01*
X112664709Y-114973386D01*
X112599703Y-115010919D01*
X112577848Y-115017413D01*
X112253630Y-115034937D01*
X112218257Y-115022476D01*
X112216337Y-115020656D01*
X112215215Y-115019534D01*
X112215212Y-115019531D01*
X112200296Y-115010919D01*
X112135289Y-114973386D01*
X112135286Y-114973385D01*
X112046147Y-114949500D01*
X112046144Y-114949500D01*
X111953856Y-114949500D01*
X111953853Y-114949500D01*
X111864713Y-114973385D01*
X111824750Y-114996458D01*
X111784788Y-115019531D01*
X111784787Y-115019532D01*
X111754974Y-115049343D01*
X111722972Y-115063622D01*
X111494656Y-115075963D01*
X111459283Y-115063502D01*
X111457363Y-115061682D01*
X111415215Y-115019534D01*
X111415212Y-115019531D01*
X111400296Y-115010919D01*
X111335289Y-114973386D01*
X111335286Y-114973385D01*
X111246147Y-114949500D01*
X111246144Y-114949500D01*
X111153856Y-114949500D01*
X111153853Y-114949500D01*
X111064713Y-114973385D01*
X111064710Y-114973386D01*
X110984794Y-115019527D01*
X110984784Y-115019534D01*
X110919534Y-115084784D01*
X110919527Y-115084794D01*
X110873386Y-115164710D01*
X110873385Y-115164713D01*
X110849500Y-115253853D01*
X109950500Y-115253853D01*
X109926614Y-115164713D01*
X109926613Y-115164710D01*
X109880472Y-115084794D01*
X109880469Y-115084788D01*
X109815212Y-115019531D01*
X109800296Y-115010919D01*
X109735290Y-114973386D01*
X109735286Y-114973385D01*
X109711257Y-114966946D01*
X109681504Y-114944115D01*
X109676610Y-114906933D01*
X109681501Y-114895122D01*
X109701614Y-114860288D01*
X109721844Y-114784788D01*
X109725500Y-114771146D01*
X109725500Y-114678853D01*
X109701614Y-114589713D01*
X109701613Y-114589710D01*
X109676461Y-114546146D01*
X109655469Y-114509788D01*
X109599534Y-114453853D01*
X110049500Y-114453853D01*
X110049500Y-114546146D01*
X110073385Y-114635286D01*
X110073386Y-114635289D01*
X110098540Y-114678856D01*
X110119531Y-114715212D01*
X110184788Y-114780469D01*
X110264712Y-114826614D01*
X110286998Y-114832585D01*
X110353853Y-114850500D01*
X110353856Y-114850500D01*
X110446146Y-114850500D01*
X110490716Y-114838557D01*
X110535288Y-114826614D01*
X110615212Y-114780469D01*
X110680469Y-114715212D01*
X110726614Y-114635288D01*
X110738827Y-114589710D01*
X110750500Y-114546146D01*
X110750500Y-114453853D01*
X110726614Y-114364713D01*
X110726613Y-114364710D01*
X110699969Y-114318563D01*
X110680469Y-114284788D01*
X110615212Y-114219531D01*
X110609842Y-114216430D01*
X110535289Y-114173386D01*
X110535286Y-114173385D01*
X110446147Y-114149500D01*
X110446144Y-114149500D01*
X110353856Y-114149500D01*
X110353853Y-114149500D01*
X110264713Y-114173385D01*
X110264710Y-114173386D01*
X110184794Y-114219527D01*
X110184784Y-114219534D01*
X110119534Y-114284784D01*
X110119527Y-114284794D01*
X110073386Y-114364710D01*
X110073385Y-114364713D01*
X110049500Y-114453853D01*
X109599534Y-114453853D01*
X109590212Y-114444531D01*
X109574009Y-114435176D01*
X109510290Y-114398386D01*
X109507321Y-114397157D01*
X109508124Y-114395218D01*
X109507725Y-114394912D01*
X109500758Y-114393875D01*
X109493384Y-114383921D01*
X109483551Y-114376385D01*
X109478436Y-114363745D01*
X109476414Y-114355656D01*
X109481937Y-114318563D01*
X109511270Y-114296447D01*
X109585288Y-114276614D01*
X109665212Y-114230469D01*
X109730469Y-114165212D01*
X109776614Y-114085288D01*
X109792336Y-114026613D01*
X109800500Y-113996146D01*
X109800500Y-113903853D01*
X109782127Y-113835286D01*
X109776614Y-113814712D01*
X109730469Y-113734788D01*
X109665212Y-113669531D01*
X109638061Y-113653855D01*
X109585289Y-113623386D01*
X109585286Y-113623385D01*
X109496147Y-113599500D01*
X109496144Y-113599500D01*
X109423885Y-113599500D01*
X109389237Y-113585148D01*
X109388138Y-113584013D01*
X109044876Y-113217867D01*
X109031648Y-113182774D01*
X109045975Y-113149706D01*
X109080469Y-113115212D01*
X109126614Y-113035288D01*
X109138557Y-112990716D01*
X109150500Y-112946146D01*
X109150500Y-112853853D01*
X109130835Y-112780465D01*
X109126614Y-112764712D01*
X109080469Y-112684788D01*
X109015212Y-112619531D01*
X108974709Y-112596146D01*
X108935289Y-112573386D01*
X108935286Y-112573385D01*
X108846147Y-112549500D01*
X108846144Y-112549500D01*
X108753856Y-112549500D01*
X108753853Y-112549500D01*
X108664713Y-112573385D01*
X108664710Y-112573386D01*
X108584794Y-112619527D01*
X108584784Y-112619534D01*
X108519534Y-112684784D01*
X108519527Y-112684794D01*
X108473386Y-112764710D01*
X108473385Y-112764713D01*
X108449500Y-112853853D01*
X108449500Y-112946147D01*
X108463414Y-112998076D01*
X108458519Y-113035258D01*
X108446357Y-113049287D01*
X108077597Y-113339029D01*
X108047324Y-113349500D01*
X107953853Y-113349500D01*
X107864713Y-113373385D01*
X107864710Y-113373386D01*
X107784794Y-113419527D01*
X107784784Y-113419534D01*
X107719534Y-113484784D01*
X107719527Y-113484794D01*
X107673386Y-113564710D01*
X107673386Y-113564711D01*
X107650857Y-113648787D01*
X107632926Y-113675305D01*
X107627051Y-113679711D01*
X107590721Y-113689017D01*
X107558451Y-113669909D01*
X107550322Y-113653192D01*
X107542267Y-113623132D01*
X107526614Y-113564712D01*
X107526613Y-113564710D01*
X107494373Y-113508870D01*
X107480469Y-113484788D01*
X107415212Y-113419531D01*
X107388063Y-113403856D01*
X107335289Y-113373386D01*
X107335286Y-113373385D01*
X107246147Y-113349500D01*
X107246144Y-113349500D01*
X107153856Y-113349500D01*
X107153853Y-113349500D01*
X107064713Y-113373385D01*
X107064710Y-113373386D01*
X106984794Y-113419527D01*
X106984784Y-113419534D01*
X106919534Y-113484784D01*
X106919527Y-113484794D01*
X106873386Y-113564710D01*
X106873385Y-113564713D01*
X106849500Y-113653853D01*
X97650500Y-113653853D01*
X97650500Y-112253853D01*
X101799500Y-112253853D01*
X101799500Y-112346146D01*
X101823385Y-112435286D01*
X101823386Y-112435289D01*
X101862973Y-112503853D01*
X101869531Y-112515212D01*
X101934788Y-112580469D01*
X102014712Y-112626614D01*
X102036998Y-112632585D01*
X102103853Y-112650500D01*
X102103856Y-112650500D01*
X102196146Y-112650500D01*
X102252916Y-112635288D01*
X102285288Y-112626614D01*
X102365212Y-112580469D01*
X102415352Y-112530329D01*
X102450000Y-112515977D01*
X102484648Y-112530329D01*
X102534788Y-112580469D01*
X102614712Y-112626614D01*
X102636998Y-112632585D01*
X102703853Y-112650500D01*
X102703856Y-112650500D01*
X102796146Y-112650500D01*
X102852916Y-112635288D01*
X102885288Y-112626614D01*
X102965212Y-112580469D01*
X103015352Y-112530329D01*
X103050000Y-112515977D01*
X103084648Y-112530329D01*
X103134788Y-112580469D01*
X103214712Y-112626614D01*
X103236998Y-112632585D01*
X103303853Y-112650500D01*
X103303856Y-112650500D01*
X103396146Y-112650500D01*
X103452916Y-112635288D01*
X103485288Y-112626614D01*
X103565212Y-112580469D01*
X103630469Y-112515212D01*
X103637027Y-112503853D01*
X107049500Y-112503853D01*
X107049500Y-112596146D01*
X107073385Y-112685286D01*
X107073386Y-112685289D01*
X107110748Y-112750000D01*
X107119531Y-112765212D01*
X107184788Y-112830469D01*
X107264712Y-112876614D01*
X107286998Y-112882585D01*
X107353853Y-112900500D01*
X107353856Y-112900500D01*
X107446146Y-112900500D01*
X107490716Y-112888557D01*
X107535288Y-112876614D01*
X107615212Y-112830469D01*
X107680469Y-112765212D01*
X107726614Y-112685288D01*
X107744233Y-112619534D01*
X107750500Y-112596146D01*
X107750500Y-112503853D01*
X107726614Y-112414713D01*
X107726614Y-112414712D01*
X107705911Y-112378853D01*
X109649500Y-112378853D01*
X109649500Y-112471146D01*
X109673385Y-112560286D01*
X109673386Y-112560289D01*
X109707592Y-112619534D01*
X109719531Y-112640212D01*
X109784788Y-112705469D01*
X109821410Y-112726613D01*
X109862782Y-112750500D01*
X109864712Y-112751614D01*
X109886998Y-112757585D01*
X109953853Y-112775500D01*
X109953856Y-112775500D01*
X110046146Y-112775500D01*
X110090716Y-112763557D01*
X110135288Y-112751614D01*
X110215212Y-112705469D01*
X110280469Y-112640212D01*
X110326614Y-112560288D01*
X110342902Y-112499500D01*
X110350500Y-112471146D01*
X110350500Y-112378853D01*
X110329571Y-112300748D01*
X110326614Y-112289712D01*
X110280469Y-112209788D01*
X110215212Y-112144531D01*
X110199009Y-112135176D01*
X110135289Y-112098386D01*
X110135286Y-112098385D01*
X110046147Y-112074500D01*
X110046144Y-112074500D01*
X109953856Y-112074500D01*
X109953853Y-112074500D01*
X109864713Y-112098385D01*
X109864710Y-112098386D01*
X109784794Y-112144527D01*
X109784784Y-112144534D01*
X109719534Y-112209784D01*
X109719527Y-112209794D01*
X109673386Y-112289710D01*
X109673385Y-112289713D01*
X109649500Y-112378853D01*
X107705911Y-112378853D01*
X107687026Y-112346144D01*
X107680472Y-112334793D01*
X107680471Y-112334792D01*
X107680469Y-112334788D01*
X107615212Y-112269531D01*
X107588063Y-112253856D01*
X107535289Y-112223386D01*
X107535286Y-112223385D01*
X107446147Y-112199500D01*
X107446144Y-112199500D01*
X107353856Y-112199500D01*
X107353853Y-112199500D01*
X107264713Y-112223385D01*
X107264710Y-112223386D01*
X107184794Y-112269527D01*
X107184784Y-112269534D01*
X107119534Y-112334784D01*
X107119527Y-112334794D01*
X107073386Y-112414710D01*
X107073385Y-112414713D01*
X107049500Y-112503853D01*
X103637027Y-112503853D01*
X103653026Y-112476143D01*
X103653027Y-112476142D01*
X103676613Y-112435290D01*
X103676613Y-112435289D01*
X103676614Y-112435288D01*
X103698434Y-112353856D01*
X103700500Y-112346146D01*
X103700500Y-112253853D01*
X103676614Y-112164713D01*
X103676613Y-112164710D01*
X103630758Y-112085289D01*
X103630469Y-112084788D01*
X103565212Y-112019531D01*
X103546491Y-112008722D01*
X103485289Y-111973386D01*
X103485286Y-111973385D01*
X103396147Y-111949500D01*
X103396144Y-111949500D01*
X103303856Y-111949500D01*
X103303853Y-111949500D01*
X103214713Y-111973385D01*
X103214710Y-111973386D01*
X103134794Y-112019527D01*
X103134784Y-112019534D01*
X103084648Y-112069671D01*
X103050000Y-112084023D01*
X103015352Y-112069671D01*
X102965215Y-112019534D01*
X102965212Y-112019531D01*
X102946491Y-112008722D01*
X102885289Y-111973386D01*
X102885286Y-111973385D01*
X102796147Y-111949500D01*
X102796144Y-111949500D01*
X102703856Y-111949500D01*
X102703853Y-111949500D01*
X102614713Y-111973385D01*
X102614710Y-111973386D01*
X102534794Y-112019527D01*
X102534784Y-112019534D01*
X102484648Y-112069671D01*
X102450000Y-112084023D01*
X102415352Y-112069671D01*
X102365215Y-112019534D01*
X102365212Y-112019531D01*
X102346491Y-112008722D01*
X102285289Y-111973386D01*
X102285286Y-111973385D01*
X102196147Y-111949500D01*
X102196144Y-111949500D01*
X102103856Y-111949500D01*
X102103853Y-111949500D01*
X102014713Y-111973385D01*
X102014710Y-111973386D01*
X101934794Y-112019527D01*
X101934784Y-112019534D01*
X101869534Y-112084784D01*
X101869527Y-112084794D01*
X101823386Y-112164710D01*
X101823385Y-112164713D01*
X101799500Y-112253853D01*
X97650500Y-112253853D01*
X97650500Y-112135180D01*
X97641767Y-112091278D01*
X97632374Y-112077221D01*
X97625058Y-112040441D01*
X97632373Y-112022780D01*
X97641767Y-112008722D01*
X97650500Y-111964820D01*
X97650500Y-111703853D01*
X107049500Y-111703853D01*
X107049500Y-111796146D01*
X107073385Y-111885286D01*
X107073386Y-111885289D01*
X107116430Y-111959842D01*
X107119531Y-111965212D01*
X107184788Y-112030469D01*
X107225290Y-112053853D01*
X107261050Y-112074500D01*
X107264712Y-112076614D01*
X107286998Y-112082585D01*
X107353853Y-112100500D01*
X107353856Y-112100500D01*
X107446146Y-112100500D01*
X107502916Y-112085288D01*
X107535288Y-112076614D01*
X107615212Y-112030469D01*
X107680469Y-111965212D01*
X107726614Y-111885288D01*
X107744233Y-111819534D01*
X107750500Y-111796146D01*
X107750500Y-111703854D01*
X107740049Y-111664852D01*
X107735730Y-111648733D01*
X107740624Y-111611553D01*
X107770377Y-111588722D01*
X107807559Y-111593616D01*
X107807560Y-111593617D01*
X107844099Y-111614713D01*
X107864712Y-111626614D01*
X107886998Y-111632585D01*
X107953853Y-111650500D01*
X107953856Y-111650500D01*
X108046146Y-111650500D01*
X108090716Y-111638557D01*
X108135288Y-111626614D01*
X108215212Y-111580469D01*
X108280469Y-111515212D01*
X108326614Y-111435288D01*
X108344233Y-111369534D01*
X108350500Y-111346146D01*
X108350500Y-111253853D01*
X108449500Y-111253853D01*
X108449500Y-111346146D01*
X108473385Y-111435286D01*
X108473386Y-111435289D01*
X108493158Y-111469534D01*
X108519531Y-111515212D01*
X108584788Y-111580469D01*
X108664712Y-111626614D01*
X108686998Y-111632585D01*
X108753853Y-111650500D01*
X108800500Y-111650500D01*
X108835148Y-111664852D01*
X108849500Y-111699500D01*
X108849500Y-111746146D01*
X108873385Y-111835286D01*
X108873386Y-111835289D01*
X108912973Y-111903853D01*
X108919531Y-111915212D01*
X108984788Y-111980469D01*
X109011941Y-111996146D01*
X109062581Y-112025384D01*
X109064712Y-112026614D01*
X109079267Y-112030514D01*
X109153853Y-112050500D01*
X109153856Y-112050500D01*
X109246146Y-112050500D01*
X109290716Y-112038557D01*
X109335288Y-112026614D01*
X109415212Y-111980469D01*
X109480469Y-111915212D01*
X109526614Y-111835288D01*
X109549601Y-111749500D01*
X109550500Y-111746146D01*
X109550500Y-111653853D01*
X109550499Y-111653852D01*
X109539641Y-111613326D01*
X109537102Y-111603853D01*
X110399500Y-111603853D01*
X110399500Y-111696146D01*
X110423385Y-111785286D01*
X110423386Y-111785289D01*
X110466430Y-111859842D01*
X110469531Y-111865212D01*
X110534788Y-111930469D01*
X110614712Y-111976614D01*
X110634470Y-111981908D01*
X110703853Y-112000500D01*
X110799356Y-112000500D01*
X110799356Y-112002112D01*
X110830485Y-112010438D01*
X110849251Y-112042908D01*
X110849254Y-112050644D01*
X110849500Y-112050644D01*
X110849500Y-112146146D01*
X110873385Y-112235286D01*
X110873386Y-112235289D01*
X110893158Y-112269534D01*
X110919531Y-112315212D01*
X110984788Y-112380469D01*
X111064712Y-112426614D01*
X111086998Y-112432585D01*
X111153853Y-112450500D01*
X111157037Y-112450919D01*
X111156777Y-112452893D01*
X111185648Y-112464852D01*
X111200000Y-112499500D01*
X111200000Y-113300500D01*
X111185648Y-113335148D01*
X111156777Y-113347106D01*
X111157037Y-113349081D01*
X111153853Y-113349499D01*
X111064713Y-113373385D01*
X111064710Y-113373386D01*
X110984794Y-113419527D01*
X110984784Y-113419534D01*
X110919534Y-113484784D01*
X110919527Y-113484794D01*
X110873386Y-113564710D01*
X110873385Y-113564713D01*
X110849500Y-113653853D01*
X110849500Y-113746146D01*
X110873385Y-113835286D01*
X110873386Y-113835289D01*
X110912973Y-113903853D01*
X110919531Y-113915212D01*
X110984788Y-113980469D01*
X111064712Y-114026614D01*
X111086998Y-114032585D01*
X111153853Y-114050500D01*
X111153856Y-114050500D01*
X111246146Y-114050500D01*
X111290716Y-114038557D01*
X111335288Y-114026614D01*
X111415212Y-113980469D01*
X111480469Y-113915212D01*
X111526614Y-113835288D01*
X111545755Y-113763852D01*
X111550500Y-113746146D01*
X111550500Y-113653853D01*
X111526614Y-113564713D01*
X111526613Y-113564710D01*
X111486842Y-113495826D01*
X111481946Y-113458644D01*
X111504777Y-113428891D01*
X111539629Y-113423433D01*
X111665379Y-113450622D01*
X111696212Y-113471972D01*
X111702917Y-113508870D01*
X111697459Y-113523015D01*
X111673386Y-113564709D01*
X111673385Y-113564713D01*
X111649500Y-113653853D01*
X111649500Y-113746146D01*
X111673385Y-113835286D01*
X111673386Y-113835289D01*
X111712973Y-113903853D01*
X111719531Y-113915212D01*
X111784788Y-113980469D01*
X111864712Y-114026614D01*
X111886998Y-114032585D01*
X111953853Y-114050500D01*
X111953856Y-114050500D01*
X112046146Y-114050500D01*
X112090716Y-114038557D01*
X112135288Y-114026614D01*
X112215212Y-113980469D01*
X112280469Y-113915212D01*
X112326614Y-113835288D01*
X112345755Y-113763852D01*
X112350500Y-113746146D01*
X112350500Y-113659483D01*
X112352575Y-113654472D01*
X112351605Y-113649138D01*
X112359525Y-113637694D01*
X112364852Y-113624835D01*
X112369862Y-113622759D01*
X112372948Y-113618301D01*
X112386640Y-113615809D01*
X112399500Y-113610483D01*
X112409845Y-113611588D01*
X112410845Y-113611804D01*
X112441682Y-113633147D01*
X112449500Y-113659699D01*
X112449500Y-113746146D01*
X112473385Y-113835286D01*
X112473386Y-113835289D01*
X112512973Y-113903853D01*
X112519531Y-113915212D01*
X112584788Y-113980469D01*
X112664712Y-114026614D01*
X112686998Y-114032585D01*
X112753853Y-114050500D01*
X112753856Y-114050500D01*
X112846146Y-114050500D01*
X112890716Y-114038557D01*
X112935288Y-114026614D01*
X113015212Y-113980469D01*
X113080469Y-113915212D01*
X113126614Y-113835288D01*
X113145755Y-113763852D01*
X113150500Y-113746146D01*
X113150500Y-113653855D01*
X113148320Y-113645720D01*
X113153215Y-113608538D01*
X113156016Y-113604225D01*
X113301741Y-113403853D01*
X124499500Y-113403853D01*
X124499500Y-113496146D01*
X124523385Y-113585286D01*
X124523386Y-113585289D01*
X124545382Y-113623386D01*
X124569531Y-113665212D01*
X124634788Y-113730469D01*
X124714712Y-113776614D01*
X124736998Y-113782585D01*
X124803853Y-113800500D01*
X124863336Y-113800500D01*
X124897984Y-113814852D01*
X124912336Y-113849500D01*
X124910666Y-113862182D01*
X124899500Y-113903853D01*
X124899500Y-113996146D01*
X124923385Y-114085286D01*
X124923386Y-114085289D01*
X124966430Y-114159842D01*
X124969531Y-114165212D01*
X125034788Y-114230469D01*
X125114712Y-114276614D01*
X125136998Y-114282585D01*
X125203853Y-114300500D01*
X125203856Y-114300500D01*
X125296146Y-114300500D01*
X125340716Y-114288557D01*
X125385288Y-114276614D01*
X125465212Y-114230469D01*
X125530469Y-114165212D01*
X125576614Y-114085288D01*
X125592336Y-114026613D01*
X125600500Y-113996146D01*
X125600500Y-113903853D01*
X125582127Y-113835286D01*
X125576614Y-113814712D01*
X125530469Y-113734788D01*
X125465212Y-113669531D01*
X125438061Y-113653855D01*
X125385289Y-113623386D01*
X125385286Y-113623385D01*
X125296147Y-113599500D01*
X125296144Y-113599500D01*
X125236664Y-113599500D01*
X125202016Y-113585148D01*
X125187664Y-113550500D01*
X125189334Y-113537818D01*
X125200500Y-113496146D01*
X125200500Y-113403853D01*
X125176614Y-113314713D01*
X125176613Y-113314710D01*
X125130472Y-113234794D01*
X125130469Y-113234788D01*
X125065212Y-113169531D01*
X125030875Y-113149706D01*
X124985289Y-113123386D01*
X124985286Y-113123385D01*
X124896147Y-113099500D01*
X124896144Y-113099500D01*
X124803856Y-113099500D01*
X124803853Y-113099500D01*
X124714713Y-113123385D01*
X124714710Y-113123386D01*
X124634794Y-113169527D01*
X124634784Y-113169534D01*
X124569534Y-113234784D01*
X124569527Y-113234794D01*
X124523386Y-113314710D01*
X124523385Y-113314713D01*
X124499500Y-113403853D01*
X113301741Y-113403853D01*
X113416403Y-113246193D01*
X113448387Y-113226615D01*
X113468708Y-113227684D01*
X113519543Y-113241306D01*
X113553854Y-113250500D01*
X113553856Y-113250500D01*
X113646146Y-113250500D01*
X113690716Y-113238557D01*
X113735288Y-113226614D01*
X113815212Y-113180469D01*
X113880469Y-113115212D01*
X113926614Y-113035288D01*
X113928081Y-113029812D01*
X113950909Y-113000060D01*
X113956544Y-112997273D01*
X114300751Y-112853853D01*
X115349500Y-112853853D01*
X115349500Y-112946146D01*
X115373385Y-113035286D01*
X115373386Y-113035289D01*
X115416430Y-113109842D01*
X115419531Y-113115212D01*
X115484788Y-113180469D01*
X115564712Y-113226614D01*
X115586998Y-113232585D01*
X115653853Y-113250500D01*
X115653856Y-113250500D01*
X115746146Y-113250500D01*
X115790716Y-113238557D01*
X115835288Y-113226614D01*
X115915212Y-113180469D01*
X115980469Y-113115212D01*
X116026614Y-113035288D01*
X116038557Y-112990716D01*
X116050500Y-112946146D01*
X116050500Y-112853853D01*
X116030835Y-112780465D01*
X116026614Y-112764712D01*
X115980469Y-112684788D01*
X115915212Y-112619531D01*
X115874709Y-112596146D01*
X115835289Y-112573386D01*
X115835286Y-112573385D01*
X115746147Y-112549500D01*
X115746144Y-112549500D01*
X115653856Y-112549500D01*
X115653853Y-112549500D01*
X115564713Y-112573385D01*
X115564710Y-112573386D01*
X115484794Y-112619527D01*
X115484784Y-112619534D01*
X115419534Y-112684784D01*
X115419527Y-112684794D01*
X115373386Y-112764710D01*
X115373385Y-112764713D01*
X115349500Y-112853853D01*
X114300751Y-112853853D01*
X114522760Y-112761349D01*
X114560261Y-112761272D01*
X114576252Y-112771933D01*
X114584788Y-112780469D01*
X114664712Y-112826614D01*
X114686998Y-112832585D01*
X114753853Y-112850500D01*
X114753856Y-112850500D01*
X114846146Y-112850500D01*
X114890716Y-112838557D01*
X114935288Y-112826614D01*
X115015212Y-112780469D01*
X115080469Y-112715212D01*
X115126614Y-112635288D01*
X115146710Y-112560289D01*
X115150500Y-112546146D01*
X115150500Y-112499500D01*
X115164852Y-112464852D01*
X115199500Y-112450500D01*
X115246146Y-112450500D01*
X115290716Y-112438557D01*
X115335288Y-112426614D01*
X115415212Y-112380469D01*
X115441828Y-112353853D01*
X116299500Y-112353853D01*
X116299500Y-112446146D01*
X116323385Y-112535286D01*
X116323386Y-112535289D01*
X116345382Y-112573386D01*
X116369531Y-112615212D01*
X116434788Y-112680469D01*
X116514712Y-112726614D01*
X116536998Y-112732585D01*
X116603853Y-112750500D01*
X116603856Y-112750500D01*
X116696146Y-112750500D01*
X116753334Y-112735176D01*
X116785288Y-112726614D01*
X116865212Y-112680469D01*
X116930469Y-112615212D01*
X116976614Y-112535288D01*
X116993801Y-112471146D01*
X117000500Y-112446146D01*
X117000500Y-112350644D01*
X117002111Y-112350644D01*
X117010441Y-112319511D01*
X117042913Y-112300748D01*
X117050644Y-112300748D01*
X117050644Y-112300500D01*
X117146146Y-112300500D01*
X117190716Y-112288557D01*
X117235288Y-112276614D01*
X117315212Y-112230469D01*
X117380469Y-112165212D01*
X117426614Y-112085288D01*
X117444233Y-112019534D01*
X117450500Y-111996146D01*
X117450500Y-111903853D01*
X117426614Y-111814713D01*
X117426613Y-111814710D01*
X117388963Y-111749500D01*
X117380469Y-111734788D01*
X117315212Y-111669531D01*
X117288063Y-111653856D01*
X117235289Y-111623386D01*
X117235286Y-111623385D01*
X117146147Y-111599500D01*
X117146144Y-111599500D01*
X117053856Y-111599500D01*
X117053853Y-111599500D01*
X116964713Y-111623385D01*
X116964710Y-111623386D01*
X116884794Y-111669527D01*
X116884784Y-111669534D01*
X116819534Y-111734784D01*
X116819527Y-111734794D01*
X116773386Y-111814710D01*
X116773385Y-111814713D01*
X116749500Y-111903853D01*
X116749500Y-111999356D01*
X116747897Y-111999356D01*
X116739539Y-112030514D01*
X116707055Y-112049256D01*
X116699356Y-112049256D01*
X116699356Y-112049500D01*
X116603853Y-112049500D01*
X116514713Y-112073385D01*
X116514710Y-112073386D01*
X116434794Y-112119527D01*
X116434784Y-112119534D01*
X116369534Y-112184784D01*
X116369527Y-112184794D01*
X116323386Y-112264710D01*
X116323385Y-112264713D01*
X116299500Y-112353853D01*
X115441828Y-112353853D01*
X115480469Y-112315212D01*
X115526614Y-112235288D01*
X115540145Y-112184788D01*
X115550500Y-112146146D01*
X115550500Y-112053853D01*
X115526746Y-111965205D01*
X115526614Y-111964712D01*
X115480469Y-111884788D01*
X115415212Y-111819531D01*
X115374709Y-111796146D01*
X115335289Y-111773386D01*
X115335286Y-111773385D01*
X115246147Y-111749500D01*
X115246144Y-111749500D01*
X115199500Y-111749500D01*
X115164852Y-111735148D01*
X115150500Y-111700500D01*
X115150500Y-111653853D01*
X115126614Y-111564713D01*
X115126613Y-111564710D01*
X115115077Y-111544731D01*
X115080469Y-111484788D01*
X115015212Y-111419531D01*
X114967703Y-111392101D01*
X114935289Y-111373386D01*
X114935286Y-111373385D01*
X114846147Y-111349500D01*
X114846144Y-111349500D01*
X114753856Y-111349500D01*
X114753853Y-111349500D01*
X114698621Y-111364299D01*
X114690612Y-111363244D01*
X114682975Y-111365879D01*
X114672732Y-111360890D01*
X114661439Y-111359404D01*
X114656521Y-111352995D01*
X114649258Y-111349458D01*
X114645542Y-111338687D01*
X114638609Y-111329651D01*
X114637029Y-111314005D01*
X114642035Y-111231405D01*
X114658456Y-111197690D01*
X114693909Y-111185461D01*
X114703623Y-111187040D01*
X114727446Y-111193423D01*
X114753854Y-111200500D01*
X114753856Y-111200500D01*
X114846146Y-111200500D01*
X114902270Y-111185461D01*
X114935288Y-111176614D01*
X114974710Y-111153853D01*
X118299500Y-111153853D01*
X118299500Y-111246146D01*
X118323385Y-111335286D01*
X118323386Y-111335289D01*
X118366430Y-111409842D01*
X118369531Y-111415212D01*
X118434788Y-111480469D01*
X118514712Y-111526614D01*
X118536998Y-111532585D01*
X118603853Y-111550500D01*
X118603856Y-111550500D01*
X118696146Y-111550500D01*
X118740716Y-111538557D01*
X118785288Y-111526614D01*
X118865212Y-111480469D01*
X118930469Y-111415212D01*
X118976614Y-111335288D01*
X118997321Y-111258009D01*
X119000500Y-111246146D01*
X119000500Y-111153853D01*
X118976614Y-111064713D01*
X118976613Y-111064710D01*
X118951461Y-111021146D01*
X118930469Y-110984788D01*
X118865212Y-110919531D01*
X118838063Y-110903856D01*
X118838058Y-110903853D01*
X124899500Y-110903853D01*
X124899500Y-110996146D01*
X124923385Y-111085286D01*
X124923386Y-111085289D01*
X124949469Y-111130465D01*
X124969531Y-111165212D01*
X125034788Y-111230469D01*
X125114712Y-111276614D01*
X125136998Y-111282585D01*
X125203853Y-111300500D01*
X125203856Y-111300500D01*
X125296146Y-111300500D01*
X125340716Y-111288557D01*
X125385288Y-111276614D01*
X125465212Y-111230469D01*
X125530469Y-111165212D01*
X125576614Y-111085288D01*
X125590040Y-111035180D01*
X125600500Y-110996146D01*
X125600500Y-110903853D01*
X125576614Y-110814713D01*
X125576613Y-110814710D01*
X125548036Y-110765215D01*
X125530469Y-110734788D01*
X125465212Y-110669531D01*
X125440124Y-110655046D01*
X125385289Y-110623386D01*
X125385286Y-110623385D01*
X125296147Y-110599500D01*
X125296144Y-110599500D01*
X125203856Y-110599500D01*
X125203853Y-110599500D01*
X125114713Y-110623385D01*
X125114710Y-110623386D01*
X125034794Y-110669527D01*
X125034784Y-110669534D01*
X124969534Y-110734784D01*
X124969527Y-110734794D01*
X124923386Y-110814710D01*
X124923385Y-110814713D01*
X124899500Y-110903853D01*
X118838058Y-110903853D01*
X118785289Y-110873386D01*
X118785286Y-110873385D01*
X118696147Y-110849500D01*
X118696144Y-110849500D01*
X118603856Y-110849500D01*
X118603853Y-110849500D01*
X118514713Y-110873385D01*
X118514710Y-110873386D01*
X118434794Y-110919527D01*
X118434784Y-110919534D01*
X118369534Y-110984784D01*
X118369527Y-110984794D01*
X118323386Y-111064710D01*
X118323385Y-111064713D01*
X118299500Y-111153853D01*
X114974710Y-111153853D01*
X115015212Y-111130469D01*
X115080469Y-111065212D01*
X115126614Y-110985288D01*
X115150500Y-110896144D01*
X115150500Y-110896139D01*
X115150900Y-110893107D01*
X115169649Y-110860628D01*
X115199481Y-110850500D01*
X115246146Y-110850500D01*
X115290716Y-110838557D01*
X115335288Y-110826614D01*
X115415212Y-110780469D01*
X115480469Y-110715212D01*
X115526614Y-110635288D01*
X115538557Y-110590716D01*
X115550500Y-110546146D01*
X115550500Y-110503853D01*
X120299500Y-110503853D01*
X120299500Y-110596146D01*
X120323385Y-110685286D01*
X120323386Y-110685289D01*
X120366397Y-110759784D01*
X120369531Y-110765212D01*
X120434788Y-110830469D01*
X120514712Y-110876614D01*
X120536998Y-110882585D01*
X120603853Y-110900500D01*
X120603856Y-110900500D01*
X120696146Y-110900500D01*
X120740716Y-110888557D01*
X120785288Y-110876614D01*
X120865212Y-110830469D01*
X120930469Y-110765212D01*
X120976614Y-110685288D01*
X120999601Y-110599500D01*
X121000500Y-110596146D01*
X121000500Y-110503853D01*
X120976614Y-110414713D01*
X120976613Y-110414710D01*
X120954617Y-110376613D01*
X120930469Y-110334788D01*
X120865212Y-110269531D01*
X120857052Y-110264820D01*
X120785289Y-110223386D01*
X120785286Y-110223385D01*
X120696147Y-110199500D01*
X120696144Y-110199500D01*
X120603856Y-110199500D01*
X120603853Y-110199500D01*
X120514713Y-110223385D01*
X120514710Y-110223386D01*
X120434794Y-110269527D01*
X120434784Y-110269534D01*
X120369534Y-110334784D01*
X120369527Y-110334794D01*
X120323386Y-110414710D01*
X120323385Y-110414713D01*
X120299500Y-110503853D01*
X115550500Y-110503853D01*
X115550500Y-110453853D01*
X115526614Y-110364713D01*
X115526613Y-110364710D01*
X115512601Y-110340441D01*
X115480469Y-110284788D01*
X115415212Y-110219531D01*
X115363567Y-110189713D01*
X115335289Y-110173386D01*
X115335286Y-110173385D01*
X115246147Y-110149500D01*
X115246144Y-110149500D01*
X115153856Y-110149500D01*
X115153853Y-110149500D01*
X115064713Y-110173385D01*
X115064710Y-110173386D01*
X114984794Y-110219527D01*
X114984790Y-110219529D01*
X114984788Y-110219531D01*
X114984786Y-110219532D01*
X114984783Y-110219535D01*
X114965786Y-110238532D01*
X114931138Y-110252883D01*
X114896490Y-110238530D01*
X114883810Y-110216568D01*
X114876614Y-110189712D01*
X114874060Y-110185289D01*
X114845192Y-110135289D01*
X114830469Y-110109788D01*
X114765212Y-110044531D01*
X114749203Y-110035288D01*
X114685289Y-109998386D01*
X114685286Y-109998385D01*
X114596147Y-109974500D01*
X114596144Y-109974500D01*
X114503856Y-109974500D01*
X114503853Y-109974500D01*
X114414713Y-109998385D01*
X114414710Y-109998386D01*
X114334794Y-110044527D01*
X114334784Y-110044534D01*
X114269534Y-110109784D01*
X114269527Y-110109794D01*
X114223386Y-110189710D01*
X114223385Y-110189713D01*
X114199500Y-110278853D01*
X114199500Y-110351000D01*
X114185148Y-110385648D01*
X114150500Y-110400000D01*
X113173668Y-110400000D01*
X113139020Y-110385648D01*
X113128490Y-110367408D01*
X113127842Y-110367677D01*
X113126613Y-110364710D01*
X113112601Y-110340441D01*
X113080469Y-110284788D01*
X113015212Y-110219531D01*
X112963567Y-110189713D01*
X112935289Y-110173386D01*
X112935286Y-110173385D01*
X112846147Y-110149500D01*
X112846144Y-110149500D01*
X112753856Y-110149500D01*
X112753853Y-110149500D01*
X112664713Y-110173385D01*
X112664710Y-110173386D01*
X112584794Y-110219527D01*
X112584784Y-110219534D01*
X112519534Y-110284784D01*
X112519527Y-110284794D01*
X112473386Y-110364710D01*
X112473385Y-110364713D01*
X112449500Y-110453853D01*
X112449500Y-110477890D01*
X112435148Y-110512538D01*
X112432389Y-110515094D01*
X111921176Y-110953275D01*
X111901971Y-110963401D01*
X111864712Y-110973385D01*
X111864709Y-110973386D01*
X111784794Y-111019527D01*
X111784787Y-111019531D01*
X111739087Y-111065231D01*
X111704438Y-111079582D01*
X111687234Y-111076462D01*
X111158114Y-110878042D01*
X111130711Y-110852438D01*
X111127991Y-110844852D01*
X111126614Y-110839712D01*
X111121277Y-110830469D01*
X111083602Y-110765215D01*
X111080469Y-110759788D01*
X111015212Y-110694531D01*
X110999203Y-110685288D01*
X110935289Y-110648386D01*
X110935286Y-110648385D01*
X110846147Y-110624500D01*
X110846144Y-110624500D01*
X110753856Y-110624500D01*
X110753853Y-110624500D01*
X110664713Y-110648385D01*
X110664710Y-110648386D01*
X110584794Y-110694527D01*
X110584784Y-110694534D01*
X110519534Y-110759784D01*
X110519527Y-110759794D01*
X110473386Y-110839710D01*
X110473385Y-110839713D01*
X110449500Y-110928853D01*
X110449500Y-111021146D01*
X110473385Y-111110286D01*
X110473386Y-111110289D01*
X110498540Y-111153856D01*
X110519531Y-111190212D01*
X110584788Y-111255469D01*
X110585059Y-111255625D01*
X110585154Y-111255749D01*
X110587338Y-111257425D01*
X110586889Y-111258009D01*
X110607896Y-111285373D01*
X110603008Y-111322556D01*
X110585069Y-111340500D01*
X110534791Y-111369529D01*
X110534784Y-111369534D01*
X110469534Y-111434784D01*
X110469527Y-111434794D01*
X110423386Y-111514710D01*
X110423385Y-111514713D01*
X110399500Y-111603853D01*
X109537102Y-111603853D01*
X109526614Y-111564713D01*
X109526614Y-111564712D01*
X109480469Y-111484788D01*
X109415212Y-111419531D01*
X109367703Y-111392101D01*
X109335289Y-111373386D01*
X109335286Y-111373385D01*
X109246147Y-111349500D01*
X109246144Y-111349500D01*
X109199500Y-111349500D01*
X109164852Y-111335148D01*
X109150500Y-111300500D01*
X109150500Y-111253853D01*
X109126614Y-111164713D01*
X109126613Y-111164710D01*
X109095192Y-111110289D01*
X109080469Y-111084788D01*
X109015212Y-111019531D01*
X108974709Y-110996146D01*
X108935289Y-110973386D01*
X108935286Y-110973385D01*
X108846147Y-110949500D01*
X108846144Y-110949500D01*
X108753856Y-110949500D01*
X108753853Y-110949500D01*
X108664713Y-110973385D01*
X108664710Y-110973386D01*
X108584794Y-111019527D01*
X108584784Y-111019534D01*
X108519534Y-111084784D01*
X108519527Y-111084794D01*
X108473386Y-111164710D01*
X108473385Y-111164713D01*
X108449500Y-111253853D01*
X108350500Y-111253853D01*
X108326614Y-111164713D01*
X108326613Y-111164710D01*
X108295192Y-111110289D01*
X108280469Y-111084788D01*
X108215212Y-111019531D01*
X108174709Y-110996146D01*
X108135289Y-110973386D01*
X108135286Y-110973385D01*
X108046147Y-110949500D01*
X108046144Y-110949500D01*
X107953856Y-110949500D01*
X107953853Y-110949500D01*
X107864713Y-110973385D01*
X107864710Y-110973386D01*
X107784794Y-111019527D01*
X107784784Y-111019534D01*
X107719534Y-111084784D01*
X107719527Y-111084794D01*
X107673386Y-111164710D01*
X107673385Y-111164713D01*
X107649500Y-111253853D01*
X107649500Y-111346147D01*
X107664269Y-111401265D01*
X107659374Y-111438447D01*
X107629621Y-111461277D01*
X107592439Y-111456382D01*
X107535290Y-111423386D01*
X107535286Y-111423385D01*
X107446147Y-111399500D01*
X107446144Y-111399500D01*
X107353856Y-111399500D01*
X107353853Y-111399500D01*
X107264713Y-111423385D01*
X107264710Y-111423386D01*
X107184794Y-111469527D01*
X107184784Y-111469534D01*
X107119534Y-111534784D01*
X107119527Y-111534794D01*
X107073386Y-111614710D01*
X107073385Y-111614713D01*
X107049500Y-111703853D01*
X97650500Y-111703853D01*
X97650500Y-110453853D01*
X107649500Y-110453853D01*
X107649500Y-110546146D01*
X107673385Y-110635286D01*
X107673386Y-110635289D01*
X107707592Y-110694534D01*
X107719531Y-110715212D01*
X107784788Y-110780469D01*
X107864712Y-110826614D01*
X107886998Y-110832585D01*
X107953853Y-110850500D01*
X107953856Y-110850500D01*
X108046146Y-110850500D01*
X108090716Y-110838557D01*
X108135288Y-110826614D01*
X108215212Y-110780469D01*
X108280469Y-110715212D01*
X108326614Y-110635288D01*
X108338557Y-110590716D01*
X108350500Y-110546146D01*
X108350500Y-110453853D01*
X108449500Y-110453853D01*
X108449500Y-110546146D01*
X108473385Y-110635286D01*
X108473386Y-110635289D01*
X108507592Y-110694534D01*
X108519531Y-110715212D01*
X108584788Y-110780469D01*
X108664712Y-110826614D01*
X108686998Y-110832585D01*
X108753853Y-110850500D01*
X108753856Y-110850500D01*
X108846146Y-110850500D01*
X108890716Y-110838557D01*
X108935288Y-110826614D01*
X109015212Y-110780469D01*
X109080469Y-110715212D01*
X109126614Y-110635288D01*
X109138557Y-110590716D01*
X109150500Y-110546146D01*
X109150500Y-110453853D01*
X109126614Y-110364713D01*
X109126613Y-110364710D01*
X109112601Y-110340441D01*
X109080469Y-110284788D01*
X109015212Y-110219531D01*
X108963567Y-110189713D01*
X108935289Y-110173386D01*
X108935286Y-110173385D01*
X108846147Y-110149500D01*
X108846144Y-110149500D01*
X108753856Y-110149500D01*
X108753853Y-110149500D01*
X108664713Y-110173385D01*
X108664710Y-110173386D01*
X108584794Y-110219527D01*
X108584784Y-110219534D01*
X108519534Y-110284784D01*
X108519527Y-110284794D01*
X108473386Y-110364710D01*
X108473385Y-110364713D01*
X108449500Y-110453853D01*
X108350500Y-110453853D01*
X108326614Y-110364713D01*
X108326613Y-110364710D01*
X108312601Y-110340441D01*
X108280469Y-110284788D01*
X108215212Y-110219531D01*
X108163567Y-110189713D01*
X108135289Y-110173386D01*
X108135286Y-110173385D01*
X108046147Y-110149500D01*
X108046144Y-110149500D01*
X107953856Y-110149500D01*
X107953853Y-110149500D01*
X107864713Y-110173385D01*
X107864710Y-110173386D01*
X107784794Y-110219527D01*
X107784784Y-110219534D01*
X107719534Y-110284784D01*
X107719527Y-110284794D01*
X107673386Y-110364710D01*
X107673385Y-110364713D01*
X107649500Y-110453853D01*
X97650500Y-110453853D01*
X97650500Y-110435180D01*
X97641767Y-110391278D01*
X97632374Y-110377221D01*
X97625058Y-110340441D01*
X97632373Y-110322780D01*
X97641767Y-110308722D01*
X97650500Y-110264820D01*
X97650500Y-109853853D01*
X104549500Y-109853853D01*
X104549500Y-109946146D01*
X104573385Y-110035286D01*
X104573386Y-110035289D01*
X104608522Y-110096144D01*
X104619531Y-110115212D01*
X104684788Y-110180469D01*
X104764712Y-110226614D01*
X104786998Y-110232585D01*
X104853853Y-110250500D01*
X104853856Y-110250500D01*
X104946146Y-110250500D01*
X104990817Y-110238530D01*
X105035288Y-110226614D01*
X105115212Y-110180469D01*
X105165352Y-110130329D01*
X105200000Y-110115977D01*
X105234648Y-110130329D01*
X105284788Y-110180469D01*
X105364712Y-110226614D01*
X105386998Y-110232585D01*
X105453853Y-110250500D01*
X105453856Y-110250500D01*
X105546146Y-110250500D01*
X105590817Y-110238530D01*
X105635288Y-110226614D01*
X105715212Y-110180469D01*
X105780469Y-110115212D01*
X105826614Y-110035288D01*
X105848434Y-109953856D01*
X105850500Y-109946146D01*
X105850500Y-109853853D01*
X106349500Y-109853853D01*
X106349500Y-109946146D01*
X106373385Y-110035286D01*
X106373386Y-110035289D01*
X106408522Y-110096144D01*
X106419531Y-110115212D01*
X106484788Y-110180469D01*
X106564712Y-110226614D01*
X106586998Y-110232585D01*
X106653853Y-110250500D01*
X106653856Y-110250500D01*
X106746146Y-110250500D01*
X106790817Y-110238530D01*
X106835288Y-110226614D01*
X106915212Y-110180469D01*
X106980469Y-110115212D01*
X107026614Y-110035288D01*
X107048434Y-109953856D01*
X107050500Y-109946146D01*
X107050500Y-109903853D01*
X125249500Y-109903853D01*
X125249500Y-109996146D01*
X125273385Y-110085286D01*
X125273386Y-110085289D01*
X125316430Y-110159842D01*
X125319531Y-110165212D01*
X125384788Y-110230469D01*
X125464712Y-110276614D01*
X125486998Y-110282585D01*
X125553853Y-110300500D01*
X125553856Y-110300500D01*
X125646146Y-110300500D01*
X125690716Y-110288557D01*
X125735288Y-110276614D01*
X125815212Y-110230469D01*
X125880469Y-110165212D01*
X125926614Y-110085288D01*
X125948434Y-110003856D01*
X125950500Y-109996146D01*
X125950500Y-109953853D01*
X126349500Y-109953853D01*
X126349500Y-110046146D01*
X126373385Y-110135286D01*
X126373386Y-110135289D01*
X126416430Y-110209842D01*
X126419531Y-110215212D01*
X126484788Y-110280469D01*
X126564712Y-110326614D01*
X126586998Y-110332585D01*
X126653853Y-110350500D01*
X126653856Y-110350500D01*
X126746146Y-110350500D01*
X126790716Y-110338557D01*
X126835288Y-110326614D01*
X126915212Y-110280469D01*
X126980469Y-110215212D01*
X127026614Y-110135288D01*
X127041058Y-110081383D01*
X127050500Y-110046146D01*
X127050500Y-110003853D01*
X129749500Y-110003853D01*
X129749500Y-110096146D01*
X129773385Y-110185286D01*
X129773386Y-110185289D01*
X129795382Y-110223386D01*
X129819531Y-110265212D01*
X129884788Y-110330469D01*
X129964712Y-110376614D01*
X129986998Y-110382585D01*
X130053853Y-110400500D01*
X130053856Y-110400500D01*
X130146146Y-110400500D01*
X130190716Y-110388557D01*
X130235288Y-110376614D01*
X130315212Y-110330469D01*
X130380469Y-110265212D01*
X130426614Y-110185288D01*
X130446844Y-110109788D01*
X130450500Y-110096146D01*
X130450500Y-110003853D01*
X130426614Y-109914713D01*
X130426613Y-109914710D01*
X130404617Y-109876613D01*
X130380469Y-109834788D01*
X130315212Y-109769531D01*
X130282250Y-109750500D01*
X130235289Y-109723386D01*
X130235286Y-109723385D01*
X130146147Y-109699500D01*
X130146144Y-109699500D01*
X130053856Y-109699500D01*
X130053853Y-109699500D01*
X129964713Y-109723385D01*
X129964710Y-109723386D01*
X129884794Y-109769527D01*
X129884784Y-109769534D01*
X129819534Y-109834784D01*
X129819527Y-109834794D01*
X129773386Y-109914710D01*
X129773385Y-109914713D01*
X129749500Y-110003853D01*
X127050500Y-110003853D01*
X127050500Y-109953853D01*
X127026614Y-109864713D01*
X127026613Y-109864710D01*
X127015077Y-109844731D01*
X126980469Y-109784788D01*
X126915212Y-109719531D01*
X126880518Y-109699500D01*
X126835289Y-109673386D01*
X126835286Y-109673385D01*
X126746147Y-109649500D01*
X126746144Y-109649500D01*
X126653856Y-109649500D01*
X126653853Y-109649500D01*
X126564713Y-109673385D01*
X126564710Y-109673386D01*
X126484794Y-109719527D01*
X126484784Y-109719534D01*
X126419534Y-109784784D01*
X126419527Y-109784794D01*
X126373386Y-109864710D01*
X126373385Y-109864713D01*
X126349500Y-109953853D01*
X125950500Y-109953853D01*
X125950500Y-109903853D01*
X125926614Y-109814713D01*
X125926613Y-109814710D01*
X125915077Y-109794731D01*
X125880469Y-109734788D01*
X125815212Y-109669531D01*
X125780518Y-109649500D01*
X125735289Y-109623386D01*
X125735286Y-109623385D01*
X125646147Y-109599500D01*
X125646144Y-109599500D01*
X125553856Y-109599500D01*
X125553853Y-109599500D01*
X125464713Y-109623385D01*
X125464710Y-109623386D01*
X125384794Y-109669527D01*
X125384784Y-109669534D01*
X125319534Y-109734784D01*
X125319527Y-109734794D01*
X125273386Y-109814710D01*
X125273385Y-109814713D01*
X125249500Y-109903853D01*
X107050500Y-109903853D01*
X107050500Y-109853853D01*
X107026614Y-109764713D01*
X107026613Y-109764710D01*
X107015077Y-109744731D01*
X106980469Y-109684788D01*
X106915212Y-109619531D01*
X106874709Y-109596146D01*
X106835289Y-109573386D01*
X106835286Y-109573385D01*
X106746147Y-109549500D01*
X106746144Y-109549500D01*
X106653856Y-109549500D01*
X106653853Y-109549500D01*
X106564713Y-109573385D01*
X106564710Y-109573386D01*
X106484794Y-109619527D01*
X106484784Y-109619534D01*
X106419534Y-109684784D01*
X106419527Y-109684794D01*
X106373386Y-109764710D01*
X106373385Y-109764713D01*
X106349500Y-109853853D01*
X105850500Y-109853853D01*
X105826614Y-109764713D01*
X105826613Y-109764710D01*
X105815077Y-109744731D01*
X105780469Y-109684788D01*
X105715212Y-109619531D01*
X105674709Y-109596146D01*
X105635289Y-109573386D01*
X105635286Y-109573385D01*
X105546147Y-109549500D01*
X105546144Y-109549500D01*
X105453856Y-109549500D01*
X105453853Y-109549500D01*
X105364713Y-109573385D01*
X105364710Y-109573386D01*
X105284794Y-109619527D01*
X105284784Y-109619534D01*
X105234648Y-109669671D01*
X105200000Y-109684023D01*
X105165352Y-109669671D01*
X105115215Y-109619534D01*
X105115212Y-109619531D01*
X105074709Y-109596146D01*
X105035289Y-109573386D01*
X105035286Y-109573385D01*
X104946147Y-109549500D01*
X104946144Y-109549500D01*
X104853856Y-109549500D01*
X104853853Y-109549500D01*
X104764713Y-109573385D01*
X104764710Y-109573386D01*
X104684794Y-109619527D01*
X104684784Y-109619534D01*
X104619534Y-109684784D01*
X104619527Y-109684794D01*
X104573386Y-109764710D01*
X104573385Y-109764713D01*
X104549500Y-109853853D01*
X97650500Y-109853853D01*
X97650500Y-109353853D01*
X115949500Y-109353853D01*
X115949500Y-109446146D01*
X115973385Y-109535286D01*
X115973386Y-109535289D01*
X116016430Y-109609842D01*
X116019531Y-109615212D01*
X116084788Y-109680469D01*
X116164712Y-109726614D01*
X116186998Y-109732585D01*
X116253853Y-109750500D01*
X116253856Y-109750500D01*
X116346146Y-109750500D01*
X116390716Y-109738557D01*
X116435288Y-109726614D01*
X116515212Y-109680469D01*
X116580469Y-109615212D01*
X116626614Y-109535288D01*
X116635037Y-109503853D01*
X130824500Y-109503853D01*
X130824500Y-109596146D01*
X130848385Y-109685286D01*
X130848386Y-109685289D01*
X130870382Y-109723386D01*
X130894531Y-109765212D01*
X130959788Y-109830469D01*
X131039712Y-109876614D01*
X131061998Y-109882585D01*
X131128853Y-109900500D01*
X131128856Y-109900500D01*
X131221146Y-109900500D01*
X131265716Y-109888557D01*
X131310288Y-109876614D01*
X131390212Y-109830469D01*
X131455469Y-109765212D01*
X131501614Y-109685288D01*
X131519233Y-109619534D01*
X131525500Y-109596146D01*
X131525500Y-109503853D01*
X131501614Y-109414713D01*
X131501613Y-109414710D01*
X131473036Y-109365215D01*
X131455469Y-109334788D01*
X131390212Y-109269531D01*
X131356384Y-109250000D01*
X131310289Y-109223386D01*
X131310286Y-109223385D01*
X131221147Y-109199500D01*
X131221144Y-109199500D01*
X131128856Y-109199500D01*
X131128853Y-109199500D01*
X131039713Y-109223385D01*
X131039710Y-109223386D01*
X130959794Y-109269527D01*
X130959784Y-109269534D01*
X130894534Y-109334784D01*
X130894527Y-109334794D01*
X130848386Y-109414710D01*
X130848385Y-109414713D01*
X130824500Y-109503853D01*
X116635037Y-109503853D01*
X116642336Y-109476613D01*
X116650500Y-109446146D01*
X116650500Y-109353853D01*
X116626614Y-109264713D01*
X116626613Y-109264710D01*
X116602404Y-109222780D01*
X116580469Y-109184788D01*
X116515212Y-109119531D01*
X116488063Y-109103856D01*
X116488058Y-109103853D01*
X129749500Y-109103853D01*
X129749500Y-109196146D01*
X129773385Y-109285286D01*
X129773386Y-109285289D01*
X129801963Y-109334784D01*
X129819531Y-109365212D01*
X129884788Y-109430469D01*
X129964712Y-109476614D01*
X129986998Y-109482585D01*
X130053853Y-109500500D01*
X130053856Y-109500500D01*
X130146146Y-109500500D01*
X130190716Y-109488557D01*
X130235288Y-109476614D01*
X130315212Y-109430469D01*
X130380469Y-109365212D01*
X130426614Y-109285288D01*
X130447130Y-109208722D01*
X130450500Y-109196146D01*
X130450500Y-109103853D01*
X130426614Y-109014713D01*
X130426613Y-109014710D01*
X130415077Y-108994731D01*
X130380469Y-108934788D01*
X130315212Y-108869531D01*
X130288063Y-108853856D01*
X130235289Y-108823386D01*
X130235286Y-108823385D01*
X130146147Y-108799500D01*
X130146144Y-108799500D01*
X130053856Y-108799500D01*
X130053853Y-108799500D01*
X129964713Y-108823385D01*
X129964710Y-108823386D01*
X129884794Y-108869527D01*
X129884784Y-108869534D01*
X129819534Y-108934784D01*
X129819527Y-108934794D01*
X129773386Y-109014710D01*
X129773385Y-109014713D01*
X129749500Y-109103853D01*
X116488058Y-109103853D01*
X116435289Y-109073386D01*
X116435286Y-109073385D01*
X116346147Y-109049500D01*
X116346144Y-109049500D01*
X116253856Y-109049500D01*
X116253853Y-109049500D01*
X116164713Y-109073385D01*
X116164710Y-109073386D01*
X116084794Y-109119527D01*
X116084784Y-109119534D01*
X116019534Y-109184784D01*
X116019527Y-109184794D01*
X115973386Y-109264710D01*
X115973385Y-109264713D01*
X115949500Y-109353853D01*
X97650500Y-109353853D01*
X97650500Y-108853853D01*
X104549500Y-108853853D01*
X104549500Y-108946146D01*
X104573385Y-109035286D01*
X104573386Y-109035289D01*
X104595382Y-109073386D01*
X104619531Y-109115212D01*
X104684788Y-109180469D01*
X104764712Y-109226614D01*
X104786998Y-109232585D01*
X104853853Y-109250500D01*
X104853856Y-109250500D01*
X104946146Y-109250500D01*
X104990716Y-109238557D01*
X105035288Y-109226614D01*
X105115212Y-109180469D01*
X105165352Y-109130329D01*
X105200000Y-109115977D01*
X105234648Y-109130329D01*
X105284788Y-109180469D01*
X105364712Y-109226614D01*
X105386998Y-109232585D01*
X105453853Y-109250500D01*
X105453856Y-109250500D01*
X105546146Y-109250500D01*
X105590716Y-109238557D01*
X105635288Y-109226614D01*
X105715212Y-109180469D01*
X105780469Y-109115212D01*
X105826614Y-109035288D01*
X105838557Y-108990716D01*
X105850500Y-108946146D01*
X105850500Y-108853853D01*
X106349500Y-108853853D01*
X106349500Y-108946146D01*
X106373385Y-109035286D01*
X106373386Y-109035289D01*
X106395382Y-109073386D01*
X106419531Y-109115212D01*
X106484788Y-109180469D01*
X106564712Y-109226614D01*
X106586998Y-109232585D01*
X106653853Y-109250500D01*
X106653856Y-109250500D01*
X106746146Y-109250500D01*
X106790716Y-109238557D01*
X106835288Y-109226614D01*
X106915212Y-109180469D01*
X106980469Y-109115212D01*
X107026614Y-109035288D01*
X107038557Y-108990716D01*
X107050500Y-108946146D01*
X107050500Y-108853853D01*
X107026614Y-108764713D01*
X107026613Y-108764710D01*
X106980472Y-108684794D01*
X106980469Y-108684788D01*
X106915212Y-108619531D01*
X106896491Y-108608722D01*
X106835289Y-108573386D01*
X106835286Y-108573385D01*
X106746147Y-108549500D01*
X106746144Y-108549500D01*
X106653856Y-108549500D01*
X106653853Y-108549500D01*
X106564713Y-108573385D01*
X106564710Y-108573386D01*
X106484794Y-108619527D01*
X106484784Y-108619534D01*
X106419534Y-108684784D01*
X106419527Y-108684794D01*
X106373386Y-108764710D01*
X106373385Y-108764713D01*
X106349500Y-108853853D01*
X105850500Y-108853853D01*
X105826614Y-108764713D01*
X105826613Y-108764710D01*
X105780472Y-108684794D01*
X105780469Y-108684788D01*
X105715212Y-108619531D01*
X105696491Y-108608722D01*
X105635289Y-108573386D01*
X105635286Y-108573385D01*
X105546147Y-108549500D01*
X105546144Y-108549500D01*
X105453856Y-108549500D01*
X105453853Y-108549500D01*
X105364713Y-108573385D01*
X105364710Y-108573386D01*
X105284794Y-108619527D01*
X105284784Y-108619534D01*
X105234648Y-108669671D01*
X105200000Y-108684023D01*
X105165352Y-108669671D01*
X105115215Y-108619534D01*
X105115212Y-108619531D01*
X105096491Y-108608722D01*
X105035289Y-108573386D01*
X105035286Y-108573385D01*
X104946147Y-108549500D01*
X104946144Y-108549500D01*
X104853856Y-108549500D01*
X104853853Y-108549500D01*
X104764713Y-108573385D01*
X104764710Y-108573386D01*
X104684794Y-108619527D01*
X104684784Y-108619534D01*
X104619534Y-108684784D01*
X104619527Y-108684794D01*
X104573386Y-108764710D01*
X104573385Y-108764713D01*
X104549500Y-108853853D01*
X97650500Y-108853853D01*
X97650500Y-108735180D01*
X97641767Y-108691278D01*
X97632374Y-108677221D01*
X97625058Y-108640441D01*
X97632373Y-108622780D01*
X97641767Y-108608722D01*
X97650500Y-108564820D01*
X97650500Y-108053853D01*
X99699500Y-108053853D01*
X99699500Y-108146146D01*
X99723385Y-108235286D01*
X99723386Y-108235289D01*
X99747245Y-108276613D01*
X99769531Y-108315212D01*
X99834788Y-108380469D01*
X99914712Y-108426614D01*
X99936998Y-108432585D01*
X100003853Y-108450500D01*
X100003856Y-108450500D01*
X100096146Y-108450500D01*
X100140716Y-108438557D01*
X100185288Y-108426614D01*
X100265212Y-108380469D01*
X100330469Y-108315212D01*
X100376614Y-108235288D01*
X100395393Y-108165205D01*
X100400500Y-108146146D01*
X100400500Y-108053853D01*
X100376614Y-107964713D01*
X100376614Y-107964712D01*
X100341476Y-107903853D01*
X101099500Y-107903853D01*
X101099500Y-107996146D01*
X101123385Y-108085286D01*
X101123386Y-108085289D01*
X101158522Y-108146144D01*
X101169531Y-108165212D01*
X101234788Y-108230469D01*
X101314712Y-108276614D01*
X101336998Y-108282585D01*
X101403853Y-108300500D01*
X101403856Y-108300500D01*
X101496146Y-108300500D01*
X101540716Y-108288557D01*
X101585288Y-108276614D01*
X101665212Y-108230469D01*
X101691828Y-108203853D01*
X129749500Y-108203853D01*
X129749500Y-108296146D01*
X129773385Y-108385286D01*
X129773386Y-108385289D01*
X129797245Y-108426613D01*
X129819531Y-108465212D01*
X129884788Y-108530469D01*
X129964712Y-108576614D01*
X129986998Y-108582585D01*
X130053853Y-108600500D01*
X130053856Y-108600500D01*
X130146146Y-108600500D01*
X130190716Y-108588557D01*
X130235288Y-108576614D01*
X130315212Y-108530469D01*
X130380469Y-108465212D01*
X130426614Y-108385288D01*
X130449333Y-108300500D01*
X130450500Y-108296146D01*
X130450500Y-108203853D01*
X130426614Y-108114713D01*
X130426613Y-108114710D01*
X130380472Y-108034794D01*
X130380469Y-108034788D01*
X130315212Y-107969531D01*
X130306862Y-107964710D01*
X130235289Y-107923386D01*
X130235286Y-107923385D01*
X130146147Y-107899500D01*
X130146144Y-107899500D01*
X130053856Y-107899500D01*
X130053853Y-107899500D01*
X129964713Y-107923385D01*
X129964710Y-107923386D01*
X129884794Y-107969527D01*
X129884784Y-107969534D01*
X129819534Y-108034784D01*
X129819527Y-108034794D01*
X129773386Y-108114710D01*
X129773385Y-108114713D01*
X129749500Y-108203853D01*
X101691828Y-108203853D01*
X101730469Y-108165212D01*
X101776614Y-108085288D01*
X101790145Y-108034788D01*
X101800500Y-107996146D01*
X101800500Y-107903853D01*
X101776614Y-107814713D01*
X101776613Y-107814710D01*
X101738963Y-107749500D01*
X101730469Y-107734788D01*
X101665212Y-107669531D01*
X101659842Y-107666430D01*
X101585289Y-107623386D01*
X101585286Y-107623385D01*
X101496147Y-107599500D01*
X101496144Y-107599500D01*
X101403856Y-107599500D01*
X101403853Y-107599500D01*
X101314713Y-107623385D01*
X101314710Y-107623386D01*
X101234794Y-107669527D01*
X101234784Y-107669534D01*
X101169534Y-107734784D01*
X101169527Y-107734794D01*
X101123386Y-107814710D01*
X101123385Y-107814713D01*
X101099500Y-107903853D01*
X100341476Y-107903853D01*
X100335581Y-107893643D01*
X100330472Y-107884793D01*
X100330471Y-107884792D01*
X100330469Y-107884788D01*
X100265212Y-107819531D01*
X100256862Y-107814710D01*
X100185289Y-107773386D01*
X100185286Y-107773385D01*
X100096147Y-107749500D01*
X100096144Y-107749500D01*
X100003856Y-107749500D01*
X100003853Y-107749500D01*
X99914713Y-107773385D01*
X99914710Y-107773386D01*
X99834794Y-107819527D01*
X99834784Y-107819534D01*
X99769534Y-107884784D01*
X99769527Y-107884794D01*
X99723386Y-107964710D01*
X99723385Y-107964713D01*
X99699500Y-108053853D01*
X97650500Y-108053853D01*
X97650500Y-107035180D01*
X97644268Y-107003853D01*
X105249500Y-107003853D01*
X105249500Y-107096146D01*
X105273385Y-107185286D01*
X105273386Y-107185289D01*
X105304807Y-107239710D01*
X105319531Y-107265212D01*
X105384788Y-107330469D01*
X105464712Y-107376614D01*
X105486998Y-107382585D01*
X105553853Y-107400500D01*
X105553856Y-107400500D01*
X105646146Y-107400500D01*
X105690716Y-107388557D01*
X105735288Y-107376614D01*
X105815212Y-107330469D01*
X105880469Y-107265212D01*
X105926614Y-107185288D01*
X105935037Y-107153853D01*
X109049500Y-107153853D01*
X109049500Y-107246146D01*
X109073385Y-107335286D01*
X109073386Y-107335289D01*
X109097245Y-107376613D01*
X109119531Y-107415212D01*
X109184788Y-107480469D01*
X109264712Y-107526614D01*
X109286998Y-107532585D01*
X109353853Y-107550500D01*
X109353856Y-107550500D01*
X109446146Y-107550500D01*
X109490716Y-107538557D01*
X109535288Y-107526614D01*
X109615212Y-107480469D01*
X109680469Y-107415212D01*
X109726614Y-107335288D01*
X109735037Y-107303853D01*
X129749500Y-107303853D01*
X129749500Y-107396146D01*
X129773385Y-107485286D01*
X129773386Y-107485289D01*
X129797245Y-107526613D01*
X129819531Y-107565212D01*
X129884788Y-107630469D01*
X129964712Y-107676614D01*
X129986998Y-107682585D01*
X130053853Y-107700500D01*
X130053856Y-107700500D01*
X130146146Y-107700500D01*
X130190716Y-107688557D01*
X130235288Y-107676614D01*
X130315212Y-107630469D01*
X130380469Y-107565212D01*
X130426614Y-107485288D01*
X130443801Y-107421146D01*
X130450500Y-107396146D01*
X130450500Y-107303853D01*
X130426614Y-107214713D01*
X130426613Y-107214710D01*
X130394903Y-107159788D01*
X130380469Y-107134788D01*
X130315212Y-107069531D01*
X130279761Y-107049063D01*
X130235289Y-107023386D01*
X130235286Y-107023385D01*
X130146147Y-106999500D01*
X130146144Y-106999500D01*
X130053856Y-106999500D01*
X130053853Y-106999500D01*
X129964713Y-107023385D01*
X129964710Y-107023386D01*
X129884794Y-107069527D01*
X129884784Y-107069534D01*
X129819534Y-107134784D01*
X129819527Y-107134794D01*
X129773386Y-107214710D01*
X129773385Y-107214713D01*
X129749500Y-107303853D01*
X109735037Y-107303853D01*
X109745393Y-107265205D01*
X109750500Y-107246145D01*
X109750500Y-107153853D01*
X109726614Y-107064713D01*
X109726613Y-107064710D01*
X109680472Y-106984794D01*
X109680469Y-106984788D01*
X109615212Y-106919531D01*
X109596491Y-106908722D01*
X109535289Y-106873386D01*
X109535286Y-106873385D01*
X109446147Y-106849500D01*
X109446144Y-106849500D01*
X109353856Y-106849500D01*
X109353853Y-106849500D01*
X109264713Y-106873385D01*
X109264710Y-106873386D01*
X109184794Y-106919527D01*
X109184784Y-106919534D01*
X109119534Y-106984784D01*
X109119527Y-106984794D01*
X109073386Y-107064710D01*
X109073385Y-107064713D01*
X109049500Y-107153853D01*
X105935037Y-107153853D01*
X105944057Y-107120187D01*
X105950500Y-107096145D01*
X105950500Y-107003853D01*
X105926614Y-106914713D01*
X105926613Y-106914710D01*
X105880472Y-106834794D01*
X105880469Y-106834788D01*
X105815212Y-106769531D01*
X105809842Y-106766430D01*
X105735289Y-106723386D01*
X105735286Y-106723385D01*
X105646147Y-106699500D01*
X105646144Y-106699500D01*
X105553856Y-106699500D01*
X105553853Y-106699500D01*
X105464713Y-106723385D01*
X105464710Y-106723386D01*
X105384794Y-106769527D01*
X105384784Y-106769534D01*
X105319534Y-106834784D01*
X105319527Y-106834794D01*
X105273386Y-106914710D01*
X105273385Y-106914713D01*
X105249500Y-107003853D01*
X97644268Y-107003853D01*
X97641767Y-106991278D01*
X97629575Y-106973032D01*
X97627689Y-106968365D01*
X97627809Y-106954271D01*
X97625058Y-106940441D01*
X97627987Y-106933368D01*
X97628009Y-106930863D01*
X97629723Y-106929177D01*
X97632373Y-106922780D01*
X97641767Y-106908722D01*
X97650500Y-106864820D01*
X97650500Y-106303853D01*
X109049500Y-106303853D01*
X109049500Y-106396146D01*
X109073385Y-106485286D01*
X109073386Y-106485289D01*
X109097245Y-106526613D01*
X109119531Y-106565212D01*
X109184788Y-106630469D01*
X109264712Y-106676614D01*
X109286998Y-106682585D01*
X109353853Y-106700500D01*
X109353856Y-106700500D01*
X109446146Y-106700500D01*
X109490716Y-106688557D01*
X109535288Y-106676614D01*
X109615212Y-106630469D01*
X109680469Y-106565212D01*
X109726614Y-106485288D01*
X109748434Y-106403856D01*
X109750500Y-106396146D01*
X109750500Y-106303853D01*
X109726614Y-106214713D01*
X109726614Y-106214712D01*
X109691476Y-106153853D01*
X115849500Y-106153853D01*
X115849500Y-106246146D01*
X115873385Y-106335286D01*
X115873386Y-106335289D01*
X115896974Y-106376143D01*
X115919531Y-106415212D01*
X115984788Y-106480469D01*
X116064712Y-106526614D01*
X116086998Y-106532585D01*
X116153853Y-106550500D01*
X116153856Y-106550500D01*
X116246146Y-106550500D01*
X116290716Y-106538557D01*
X116335288Y-106526614D01*
X116415212Y-106480469D01*
X116480469Y-106415212D01*
X116487027Y-106403853D01*
X129749500Y-106403853D01*
X129749500Y-106496146D01*
X129773385Y-106585286D01*
X129773386Y-106585289D01*
X129799469Y-106630465D01*
X129819531Y-106665212D01*
X129884788Y-106730469D01*
X129964712Y-106776614D01*
X129986998Y-106782585D01*
X130053853Y-106800500D01*
X130053856Y-106800500D01*
X130146146Y-106800500D01*
X130190716Y-106788557D01*
X130235288Y-106776614D01*
X130315212Y-106730469D01*
X130380469Y-106665212D01*
X130426614Y-106585288D01*
X130442336Y-106526613D01*
X130450500Y-106496146D01*
X130450500Y-106403853D01*
X130426614Y-106314713D01*
X130426613Y-106314710D01*
X130415077Y-106294731D01*
X130380469Y-106234788D01*
X130315212Y-106169531D01*
X130288063Y-106153856D01*
X130235289Y-106123386D01*
X130235286Y-106123385D01*
X130146147Y-106099500D01*
X130146144Y-106099500D01*
X130053856Y-106099500D01*
X130053853Y-106099500D01*
X129964713Y-106123385D01*
X129964710Y-106123386D01*
X129884794Y-106169527D01*
X129884784Y-106169534D01*
X129819534Y-106234784D01*
X129819527Y-106234794D01*
X129773386Y-106314710D01*
X129773385Y-106314713D01*
X129749500Y-106403853D01*
X116487027Y-106403853D01*
X116503026Y-106376143D01*
X116503027Y-106376142D01*
X116526613Y-106335290D01*
X116526613Y-106335289D01*
X116526614Y-106335288D01*
X116538557Y-106290716D01*
X116550500Y-106246146D01*
X116550500Y-106153853D01*
X116526614Y-106064713D01*
X116526613Y-106064710D01*
X116480472Y-105984794D01*
X116480469Y-105984788D01*
X116415212Y-105919531D01*
X116382250Y-105900500D01*
X116335289Y-105873386D01*
X116335286Y-105873385D01*
X116246147Y-105849500D01*
X116246144Y-105849500D01*
X116153856Y-105849500D01*
X116153853Y-105849500D01*
X116064713Y-105873385D01*
X116064710Y-105873386D01*
X115984794Y-105919527D01*
X115984784Y-105919534D01*
X115919534Y-105984784D01*
X115919527Y-105984794D01*
X115873386Y-106064710D01*
X115873385Y-106064713D01*
X115849500Y-106153853D01*
X109691476Y-106153853D01*
X109685581Y-106143643D01*
X109680472Y-106134793D01*
X109680471Y-106134792D01*
X109680469Y-106134788D01*
X109615212Y-106069531D01*
X109606862Y-106064710D01*
X109535289Y-106023386D01*
X109535286Y-106023385D01*
X109446147Y-105999500D01*
X109446144Y-105999500D01*
X109353856Y-105999500D01*
X109353853Y-105999500D01*
X109264713Y-106023385D01*
X109264710Y-106023386D01*
X109184794Y-106069527D01*
X109184784Y-106069534D01*
X109119534Y-106134784D01*
X109119527Y-106134794D01*
X109073386Y-106214710D01*
X109073385Y-106214713D01*
X109049500Y-106303853D01*
X97650500Y-106303853D01*
X97650500Y-105335180D01*
X97641767Y-105291278D01*
X97608504Y-105241495D01*
X97558721Y-105208232D01*
X97514823Y-105199500D01*
X97514820Y-105199500D01*
X96049500Y-105199500D01*
X96014852Y-105185148D01*
X96000500Y-105150500D01*
X96000500Y-104603853D01*
X101849500Y-104603853D01*
X101849500Y-104696146D01*
X101873385Y-104785286D01*
X101873386Y-104785289D01*
X101916430Y-104859842D01*
X101919531Y-104865212D01*
X101984788Y-104930469D01*
X101988367Y-104932535D01*
X101988420Y-104932566D01*
X102011248Y-104962321D01*
X102006351Y-104999503D01*
X101988420Y-105017434D01*
X101984791Y-105019529D01*
X101984784Y-105019534D01*
X101919534Y-105084784D01*
X101919527Y-105084794D01*
X101873386Y-105164710D01*
X101873385Y-105164713D01*
X101849500Y-105253853D01*
X101849500Y-105346146D01*
X101873385Y-105435286D01*
X101873386Y-105435289D01*
X101908522Y-105496144D01*
X101919531Y-105515212D01*
X101984788Y-105580469D01*
X102064712Y-105626614D01*
X102086998Y-105632585D01*
X102153853Y-105650500D01*
X102153856Y-105650500D01*
X102246146Y-105650500D01*
X102290716Y-105638557D01*
X102335288Y-105626614D01*
X102415212Y-105580469D01*
X102480469Y-105515212D01*
X102526614Y-105435288D01*
X102535037Y-105403853D01*
X109099500Y-105403853D01*
X109099500Y-105496146D01*
X109123385Y-105585286D01*
X109123386Y-105585289D01*
X109147245Y-105626613D01*
X109169531Y-105665212D01*
X109234788Y-105730469D01*
X109314712Y-105776614D01*
X109336998Y-105782585D01*
X109403853Y-105800500D01*
X109403856Y-105800500D01*
X109496146Y-105800500D01*
X109540716Y-105788557D01*
X109585288Y-105776614D01*
X109665212Y-105730469D01*
X109730469Y-105665212D01*
X109776614Y-105585288D01*
X109798434Y-105503856D01*
X109798435Y-105503853D01*
X129749500Y-105503853D01*
X129749500Y-105596146D01*
X129773385Y-105685286D01*
X129773386Y-105685289D01*
X129799469Y-105730465D01*
X129819531Y-105765212D01*
X129884788Y-105830469D01*
X129964712Y-105876614D01*
X129986998Y-105882585D01*
X130053853Y-105900500D01*
X130053856Y-105900500D01*
X130146146Y-105900500D01*
X130190716Y-105888557D01*
X130235288Y-105876614D01*
X130315212Y-105830469D01*
X130380469Y-105765212D01*
X130426614Y-105685288D01*
X130442336Y-105626613D01*
X130450500Y-105596146D01*
X130450500Y-105503853D01*
X130426614Y-105414713D01*
X130426613Y-105414710D01*
X130411169Y-105387961D01*
X130380469Y-105334788D01*
X130315212Y-105269531D01*
X130288063Y-105253856D01*
X130235289Y-105223386D01*
X130235286Y-105223385D01*
X130146147Y-105199500D01*
X130146144Y-105199500D01*
X130053856Y-105199500D01*
X130053853Y-105199500D01*
X129964713Y-105223385D01*
X129964710Y-105223386D01*
X129884794Y-105269527D01*
X129884784Y-105269534D01*
X129819534Y-105334784D01*
X129819527Y-105334794D01*
X129773386Y-105414710D01*
X129773385Y-105414713D01*
X129749500Y-105503853D01*
X109798435Y-105503853D01*
X109800499Y-105496149D01*
X109800500Y-105496144D01*
X109800500Y-105403853D01*
X109776614Y-105314713D01*
X109776613Y-105314710D01*
X109734341Y-105241495D01*
X109730469Y-105234788D01*
X109665212Y-105169531D01*
X109632250Y-105150500D01*
X109585289Y-105123386D01*
X109585286Y-105123385D01*
X109496147Y-105099500D01*
X109496144Y-105099500D01*
X109403856Y-105099500D01*
X109403853Y-105099500D01*
X109314713Y-105123385D01*
X109314710Y-105123386D01*
X109234794Y-105169527D01*
X109234784Y-105169534D01*
X109169534Y-105234784D01*
X109169527Y-105234794D01*
X109123386Y-105314710D01*
X109123385Y-105314713D01*
X109099500Y-105403853D01*
X102535037Y-105403853D01*
X102544057Y-105370187D01*
X102550500Y-105346145D01*
X102550500Y-105253853D01*
X102526614Y-105164713D01*
X102526613Y-105164710D01*
X102480472Y-105084794D01*
X102480469Y-105084788D01*
X102415212Y-105019531D01*
X102411583Y-105017435D01*
X102388751Y-104987685D01*
X102393644Y-104950503D01*
X102411582Y-104932564D01*
X102415212Y-104930469D01*
X102480469Y-104865212D01*
X102526614Y-104785288D01*
X102540012Y-104735286D01*
X102550500Y-104696146D01*
X102550500Y-104603853D01*
X102550499Y-104603852D01*
X102539641Y-104563326D01*
X102537102Y-104553853D01*
X109099500Y-104553853D01*
X109099500Y-104646146D01*
X109123385Y-104735286D01*
X109123386Y-104735289D01*
X109166430Y-104809842D01*
X109169531Y-104815212D01*
X109234788Y-104880469D01*
X109314712Y-104926614D01*
X109336914Y-104932563D01*
X109403853Y-104950500D01*
X109403856Y-104950500D01*
X109496146Y-104950500D01*
X109540716Y-104938557D01*
X109585288Y-104926614D01*
X109665212Y-104880469D01*
X109730469Y-104815212D01*
X109776614Y-104735288D01*
X109788557Y-104690716D01*
X109800500Y-104646146D01*
X109800500Y-104603853D01*
X113249500Y-104603853D01*
X113249500Y-104696146D01*
X113273385Y-104785286D01*
X113273386Y-104785289D01*
X113316430Y-104859842D01*
X113319531Y-104865212D01*
X113384788Y-104930469D01*
X113439956Y-104962321D01*
X113461916Y-104975000D01*
X113464712Y-104976614D01*
X113486998Y-104982585D01*
X113553853Y-105000500D01*
X113553856Y-105000500D01*
X113646146Y-105000500D01*
X113693970Y-104987685D01*
X113735288Y-104976614D01*
X113815212Y-104930469D01*
X113880469Y-104865212D01*
X113926614Y-104785288D01*
X113940012Y-104735286D01*
X113950500Y-104696146D01*
X113950500Y-104603853D01*
X129749500Y-104603853D01*
X129749500Y-104696146D01*
X129773385Y-104785286D01*
X129773386Y-104785289D01*
X129816430Y-104859842D01*
X129819531Y-104865212D01*
X129884788Y-104930469D01*
X129939956Y-104962321D01*
X129961916Y-104975000D01*
X129964712Y-104976614D01*
X129986998Y-104982585D01*
X130053853Y-105000500D01*
X130053856Y-105000500D01*
X130146146Y-105000500D01*
X130193970Y-104987685D01*
X130235288Y-104976614D01*
X130315212Y-104930469D01*
X130380469Y-104865212D01*
X130426614Y-104785288D01*
X130440012Y-104735286D01*
X130450500Y-104696146D01*
X130450500Y-104603853D01*
X130426614Y-104514713D01*
X130426613Y-104514710D01*
X130404617Y-104476613D01*
X130380469Y-104434788D01*
X130315212Y-104369531D01*
X130307719Y-104365205D01*
X130235289Y-104323386D01*
X130235286Y-104323385D01*
X130146147Y-104299500D01*
X130146144Y-104299500D01*
X130053856Y-104299500D01*
X130053853Y-104299500D01*
X129964713Y-104323385D01*
X129964710Y-104323386D01*
X129884794Y-104369527D01*
X129884784Y-104369534D01*
X129819534Y-104434784D01*
X129819527Y-104434794D01*
X129773386Y-104514710D01*
X129773385Y-104514713D01*
X129749500Y-104603853D01*
X113950500Y-104603853D01*
X113926614Y-104514713D01*
X113926613Y-104514710D01*
X113904617Y-104476613D01*
X113880469Y-104434788D01*
X113815212Y-104369531D01*
X113807719Y-104365205D01*
X113735289Y-104323386D01*
X113735286Y-104323385D01*
X113646147Y-104299500D01*
X113646144Y-104299500D01*
X113553856Y-104299500D01*
X113553853Y-104299500D01*
X113464713Y-104323385D01*
X113464710Y-104323386D01*
X113384794Y-104369527D01*
X113384784Y-104369534D01*
X113319534Y-104434784D01*
X113319527Y-104434794D01*
X113273386Y-104514710D01*
X113273385Y-104514713D01*
X113249500Y-104603853D01*
X109800500Y-104603853D01*
X109800500Y-104553853D01*
X109776614Y-104464713D01*
X109776613Y-104464710D01*
X109765077Y-104444731D01*
X109730469Y-104384788D01*
X109665212Y-104319531D01*
X109630518Y-104299500D01*
X109585289Y-104273386D01*
X109585286Y-104273385D01*
X109496147Y-104249500D01*
X109496144Y-104249500D01*
X109403856Y-104249500D01*
X109403853Y-104249500D01*
X109314713Y-104273385D01*
X109314710Y-104273386D01*
X109234794Y-104319527D01*
X109234784Y-104319534D01*
X109169534Y-104384784D01*
X109169527Y-104384794D01*
X109123386Y-104464710D01*
X109123385Y-104464713D01*
X109099500Y-104553853D01*
X102537102Y-104553853D01*
X102526614Y-104514713D01*
X102526614Y-104514712D01*
X102480469Y-104434788D01*
X102415212Y-104369531D01*
X102407719Y-104365205D01*
X102335289Y-104323386D01*
X102335286Y-104323385D01*
X102246147Y-104299500D01*
X102246144Y-104299500D01*
X102153856Y-104299500D01*
X102153853Y-104299500D01*
X102064713Y-104323385D01*
X102064710Y-104323386D01*
X101984794Y-104369527D01*
X101984784Y-104369534D01*
X101919534Y-104434784D01*
X101919527Y-104434794D01*
X101873386Y-104514710D01*
X101873385Y-104514713D01*
X101849500Y-104603853D01*
X96000500Y-104603853D01*
X96000500Y-103903853D01*
X101199500Y-103903853D01*
X101199500Y-103996146D01*
X101223385Y-104085286D01*
X101223386Y-104085289D01*
X101245032Y-104122780D01*
X101269531Y-104165212D01*
X101334788Y-104230469D01*
X101414712Y-104276614D01*
X101436998Y-104282585D01*
X101503853Y-104300500D01*
X101503856Y-104300500D01*
X101596146Y-104300500D01*
X101652916Y-104285288D01*
X101685288Y-104276614D01*
X101765212Y-104230469D01*
X101830469Y-104165212D01*
X101865895Y-104103853D01*
X110840665Y-104103853D01*
X110840665Y-104196146D01*
X110864550Y-104285286D01*
X110864551Y-104285289D01*
X110886547Y-104323386D01*
X110910696Y-104365212D01*
X110975953Y-104430469D01*
X111055877Y-104476614D01*
X111078163Y-104482585D01*
X111145018Y-104500500D01*
X111145021Y-104500500D01*
X111237311Y-104500500D01*
X111281881Y-104488557D01*
X111326453Y-104476614D01*
X111406377Y-104430469D01*
X111471634Y-104365212D01*
X111517779Y-104285288D01*
X111531205Y-104235180D01*
X111541665Y-104196146D01*
X111541665Y-104103853D01*
X111517779Y-104014713D01*
X111517778Y-104014710D01*
X111489201Y-103965215D01*
X111471634Y-103934788D01*
X111406377Y-103869531D01*
X111398884Y-103865205D01*
X111326454Y-103823386D01*
X111326451Y-103823385D01*
X111237312Y-103799500D01*
X111237309Y-103799500D01*
X111145021Y-103799500D01*
X111145018Y-103799500D01*
X111055878Y-103823385D01*
X111055875Y-103823386D01*
X110975959Y-103869527D01*
X110975949Y-103869534D01*
X110910699Y-103934784D01*
X110910692Y-103934794D01*
X110864551Y-104014710D01*
X110864550Y-104014713D01*
X110840665Y-104103853D01*
X101865895Y-104103853D01*
X101876614Y-104085288D01*
X101900499Y-103996147D01*
X101900500Y-103996147D01*
X101900500Y-103903853D01*
X101876614Y-103814713D01*
X101876613Y-103814710D01*
X101830472Y-103734794D01*
X101830469Y-103734788D01*
X101765212Y-103669531D01*
X101759842Y-103666430D01*
X101685289Y-103623386D01*
X101685286Y-103623385D01*
X101596147Y-103599500D01*
X101596144Y-103599500D01*
X101503856Y-103599500D01*
X101503853Y-103599500D01*
X101414713Y-103623385D01*
X101414710Y-103623386D01*
X101334794Y-103669527D01*
X101334784Y-103669534D01*
X101269534Y-103734784D01*
X101269527Y-103734794D01*
X101223386Y-103814710D01*
X101223385Y-103814713D01*
X101199500Y-103903853D01*
X96000500Y-103903853D01*
X96000500Y-103624500D01*
X96014852Y-103589852D01*
X96049500Y-103575500D01*
X97514820Y-103575500D01*
X97558722Y-103566767D01*
X97608504Y-103533504D01*
X97641767Y-103483722D01*
X97650500Y-103439820D01*
X97650500Y-103003853D01*
X114499500Y-103003853D01*
X114499500Y-103096146D01*
X114523385Y-103185286D01*
X114523386Y-103185289D01*
X114566430Y-103259842D01*
X114569531Y-103265212D01*
X114569534Y-103265215D01*
X114619671Y-103315352D01*
X114634023Y-103350000D01*
X114619671Y-103384648D01*
X114569534Y-103434784D01*
X114569527Y-103434794D01*
X114523386Y-103514710D01*
X114523385Y-103514713D01*
X114499500Y-103603853D01*
X114499500Y-103696146D01*
X114523385Y-103785286D01*
X114523386Y-103785289D01*
X114545382Y-103823386D01*
X114569531Y-103865212D01*
X114634788Y-103930469D01*
X114714712Y-103976614D01*
X114736998Y-103982585D01*
X114803853Y-104000500D01*
X114803856Y-104000500D01*
X114896146Y-104000500D01*
X114940716Y-103988557D01*
X114985288Y-103976614D01*
X115065212Y-103930469D01*
X115130469Y-103865212D01*
X115176614Y-103785288D01*
X115198434Y-103703856D01*
X115198435Y-103703853D01*
X129424500Y-103703853D01*
X129424500Y-103796146D01*
X129448385Y-103885286D01*
X129448386Y-103885289D01*
X129459106Y-103903856D01*
X129494531Y-103965212D01*
X129559788Y-104030469D01*
X129639712Y-104076614D01*
X129661998Y-104082585D01*
X129728853Y-104100500D01*
X129728856Y-104100500D01*
X129821146Y-104100500D01*
X129877916Y-104085288D01*
X129910288Y-104076614D01*
X129990212Y-104030469D01*
X130055469Y-103965212D01*
X130101614Y-103885288D01*
X130118201Y-103823385D01*
X130125500Y-103796146D01*
X130125500Y-103703853D01*
X130101614Y-103614713D01*
X130101613Y-103614710D01*
X130087261Y-103589852D01*
X130055469Y-103534788D01*
X129990212Y-103469531D01*
X129984842Y-103466430D01*
X129910289Y-103423386D01*
X129910286Y-103423385D01*
X129821147Y-103399500D01*
X129821144Y-103399500D01*
X129728856Y-103399500D01*
X129728853Y-103399500D01*
X129639713Y-103423385D01*
X129639710Y-103423386D01*
X129559794Y-103469527D01*
X129559784Y-103469534D01*
X129494534Y-103534784D01*
X129494527Y-103534794D01*
X129448386Y-103614710D01*
X129448385Y-103614713D01*
X129424500Y-103703853D01*
X115198435Y-103703853D01*
X115200499Y-103696149D01*
X115200500Y-103696144D01*
X115200500Y-103603853D01*
X115176614Y-103514713D01*
X115176613Y-103514710D01*
X115165077Y-103494731D01*
X115130469Y-103434788D01*
X115080329Y-103384648D01*
X115065977Y-103350000D01*
X115080329Y-103315352D01*
X115130469Y-103265212D01*
X115176614Y-103185288D01*
X115199333Y-103100500D01*
X115200500Y-103096146D01*
X115200500Y-103064477D01*
X115214852Y-103029829D01*
X115249500Y-103015477D01*
X115281937Y-103028913D01*
X115282243Y-103028515D01*
X115283729Y-103029655D01*
X115284148Y-103029829D01*
X115284788Y-103030469D01*
X115364712Y-103076614D01*
X115386998Y-103082585D01*
X115453853Y-103100500D01*
X115453856Y-103100500D01*
X115546146Y-103100500D01*
X115590716Y-103088557D01*
X115635288Y-103076614D01*
X115715212Y-103030469D01*
X115780469Y-102965212D01*
X115826614Y-102885288D01*
X115848434Y-102803856D01*
X115848435Y-102803853D01*
X129249500Y-102803853D01*
X129249500Y-102896146D01*
X129273385Y-102985286D01*
X129273386Y-102985289D01*
X129298573Y-103028913D01*
X129319531Y-103065212D01*
X129384788Y-103130469D01*
X129464712Y-103176614D01*
X129486998Y-103182585D01*
X129553853Y-103200500D01*
X129553856Y-103200500D01*
X129646146Y-103200500D01*
X129702916Y-103185288D01*
X129735288Y-103176614D01*
X129815212Y-103130469D01*
X129880469Y-103065212D01*
X129926614Y-102985288D01*
X129938557Y-102940716D01*
X129950500Y-102896146D01*
X129950500Y-102803853D01*
X129926614Y-102714713D01*
X129926613Y-102714710D01*
X129880472Y-102634794D01*
X129880469Y-102634788D01*
X129815212Y-102569531D01*
X129809842Y-102566430D01*
X129735289Y-102523386D01*
X129735286Y-102523385D01*
X129646147Y-102499500D01*
X129646144Y-102499500D01*
X129553856Y-102499500D01*
X129553853Y-102499500D01*
X129464713Y-102523385D01*
X129464710Y-102523386D01*
X129384794Y-102569527D01*
X129384784Y-102569534D01*
X129319534Y-102634784D01*
X129319527Y-102634794D01*
X129273386Y-102714710D01*
X129273385Y-102714713D01*
X129249500Y-102803853D01*
X115848435Y-102803853D01*
X115850499Y-102796149D01*
X115850500Y-102796144D01*
X115850500Y-102703853D01*
X115826614Y-102614713D01*
X115826613Y-102614710D01*
X115780472Y-102534794D01*
X115780469Y-102534788D01*
X115715212Y-102469531D01*
X115681384Y-102450000D01*
X115635289Y-102423386D01*
X115635286Y-102423385D01*
X115546147Y-102399500D01*
X115546144Y-102399500D01*
X115453856Y-102399500D01*
X115453853Y-102399500D01*
X115364713Y-102423385D01*
X115364710Y-102423386D01*
X115284794Y-102469527D01*
X115284784Y-102469534D01*
X115219534Y-102534784D01*
X115219527Y-102534794D01*
X115173386Y-102614710D01*
X115173385Y-102614713D01*
X115149500Y-102703853D01*
X115149500Y-102735523D01*
X115135148Y-102770171D01*
X115100500Y-102784523D01*
X115068062Y-102771086D01*
X115067757Y-102771485D01*
X115066270Y-102770344D01*
X115065852Y-102770171D01*
X115065215Y-102769534D01*
X115065212Y-102769531D01*
X115006310Y-102735523D01*
X114985289Y-102723386D01*
X114985286Y-102723385D01*
X114896147Y-102699500D01*
X114896144Y-102699500D01*
X114803856Y-102699500D01*
X114803853Y-102699500D01*
X114714713Y-102723385D01*
X114714710Y-102723386D01*
X114634794Y-102769527D01*
X114634784Y-102769534D01*
X114569534Y-102834784D01*
X114569527Y-102834794D01*
X114523386Y-102914710D01*
X114523385Y-102914713D01*
X114499500Y-103003853D01*
X97650500Y-103003853D01*
X97650500Y-101910180D01*
X97641767Y-101866278D01*
X97640826Y-101861545D01*
X97642794Y-101861153D01*
X97642787Y-101838845D01*
X97640826Y-101838455D01*
X97650499Y-101789823D01*
X97650500Y-101789820D01*
X97650500Y-101278853D01*
X113774500Y-101278853D01*
X113774500Y-101371146D01*
X113798385Y-101460286D01*
X113798386Y-101460289D01*
X113823540Y-101503856D01*
X113844531Y-101540212D01*
X113909788Y-101605469D01*
X113989712Y-101651614D01*
X114011998Y-101657585D01*
X114078853Y-101675500D01*
X114078856Y-101675500D01*
X114171146Y-101675500D01*
X114215716Y-101663557D01*
X114260288Y-101651614D01*
X114340212Y-101605469D01*
X114405469Y-101540212D01*
X114451614Y-101460288D01*
X114463827Y-101414710D01*
X114475500Y-101371146D01*
X114475500Y-101278853D01*
X114451614Y-101189713D01*
X114451613Y-101189710D01*
X114408602Y-101115215D01*
X114405469Y-101109788D01*
X114340212Y-101044531D01*
X114324203Y-101035288D01*
X114260289Y-100998386D01*
X114260286Y-100998385D01*
X114171147Y-100974500D01*
X114171144Y-100974500D01*
X114078856Y-100974500D01*
X114078853Y-100974500D01*
X113989713Y-100998385D01*
X113989710Y-100998386D01*
X113909794Y-101044527D01*
X113909784Y-101044534D01*
X113844534Y-101109784D01*
X113844527Y-101109794D01*
X113798386Y-101189710D01*
X113798385Y-101189713D01*
X113774500Y-101278853D01*
X97650500Y-101278853D01*
X97650500Y-100903853D01*
X115099500Y-100903853D01*
X115099500Y-100996146D01*
X115123385Y-101085286D01*
X115123386Y-101085289D01*
X115149999Y-101131383D01*
X115169531Y-101165212D01*
X115169534Y-101165215D01*
X115219671Y-101215352D01*
X115234023Y-101250000D01*
X115219671Y-101284648D01*
X115169534Y-101334784D01*
X115169527Y-101334794D01*
X115123386Y-101414710D01*
X115123385Y-101414713D01*
X115099500Y-101503853D01*
X115099500Y-101596146D01*
X115123385Y-101685286D01*
X115123386Y-101685289D01*
X115149999Y-101731383D01*
X115169531Y-101765212D01*
X115234788Y-101830469D01*
X115314712Y-101876614D01*
X115336998Y-101882585D01*
X115403853Y-101900500D01*
X115403856Y-101900500D01*
X115496146Y-101900500D01*
X115540716Y-101888557D01*
X115585288Y-101876614D01*
X115665212Y-101830469D01*
X115715352Y-101780329D01*
X115750000Y-101765977D01*
X115784648Y-101780329D01*
X115834788Y-101830469D01*
X115914712Y-101876614D01*
X115936998Y-101882585D01*
X116003853Y-101900500D01*
X116003856Y-101900500D01*
X116096146Y-101900500D01*
X116140716Y-101888557D01*
X116185288Y-101876614D01*
X116265212Y-101830469D01*
X116330469Y-101765212D01*
X116376614Y-101685288D01*
X116398001Y-101605472D01*
X116400500Y-101596146D01*
X116400500Y-101503853D01*
X116376614Y-101414713D01*
X116376613Y-101414710D01*
X116351461Y-101371146D01*
X116330469Y-101334788D01*
X116280329Y-101284648D01*
X116265977Y-101250000D01*
X116280329Y-101215352D01*
X116330469Y-101165212D01*
X116376614Y-101085288D01*
X116390012Y-101035286D01*
X116400500Y-100996146D01*
X116400500Y-100903853D01*
X116376614Y-100814713D01*
X116376613Y-100814710D01*
X116348036Y-100765215D01*
X116330469Y-100734788D01*
X116265212Y-100669531D01*
X116257719Y-100665205D01*
X116185289Y-100623386D01*
X116185286Y-100623385D01*
X116096147Y-100599500D01*
X116096144Y-100599500D01*
X116003856Y-100599500D01*
X116003853Y-100599500D01*
X115914713Y-100623385D01*
X115914710Y-100623386D01*
X115834794Y-100669527D01*
X115834784Y-100669534D01*
X115784648Y-100719671D01*
X115750000Y-100734023D01*
X115715352Y-100719671D01*
X115665215Y-100669534D01*
X115665212Y-100669531D01*
X115657719Y-100665205D01*
X115585289Y-100623386D01*
X115585286Y-100623385D01*
X115496147Y-100599500D01*
X115496144Y-100599500D01*
X115403856Y-100599500D01*
X115403853Y-100599500D01*
X115314713Y-100623385D01*
X115314710Y-100623386D01*
X115234794Y-100669527D01*
X115234784Y-100669534D01*
X115169534Y-100734784D01*
X115169527Y-100734794D01*
X115123386Y-100814710D01*
X115123385Y-100814713D01*
X115099500Y-100903853D01*
X97650500Y-100903853D01*
X97650500Y-100260180D01*
X97650499Y-100260176D01*
X97648375Y-100249500D01*
X97641767Y-100216278D01*
X97640719Y-100214710D01*
X97608504Y-100166495D01*
X97558721Y-100133232D01*
X97514823Y-100124500D01*
X97514820Y-100124500D01*
X96999500Y-100124500D01*
X96964852Y-100110148D01*
X96950500Y-100075500D01*
X96950500Y-99903853D01*
X104449500Y-99903853D01*
X104449500Y-99996146D01*
X104473385Y-100085286D01*
X104473386Y-100085289D01*
X104501963Y-100134784D01*
X104519531Y-100165212D01*
X104519534Y-100165215D01*
X104519671Y-100165352D01*
X104519708Y-100165441D01*
X104521485Y-100167757D01*
X104520864Y-100168233D01*
X104534023Y-100200000D01*
X104520864Y-100231766D01*
X104521485Y-100232243D01*
X104519708Y-100234558D01*
X104519671Y-100234648D01*
X104519534Y-100234784D01*
X104519527Y-100234794D01*
X104473386Y-100314710D01*
X104473385Y-100314713D01*
X104449500Y-100403853D01*
X104449500Y-100496146D01*
X104473385Y-100585286D01*
X104473386Y-100585289D01*
X104495382Y-100623386D01*
X104519531Y-100665212D01*
X104584788Y-100730469D01*
X104664712Y-100776614D01*
X104686998Y-100782585D01*
X104753853Y-100800500D01*
X104753856Y-100800500D01*
X104846146Y-100800500D01*
X104890716Y-100788557D01*
X104935288Y-100776614D01*
X105015212Y-100730469D01*
X105080469Y-100665212D01*
X105126614Y-100585288D01*
X105135037Y-100553853D01*
X117249498Y-100553853D01*
X117249498Y-100646146D01*
X117273383Y-100735286D01*
X117273384Y-100735289D01*
X117292626Y-100768616D01*
X117319529Y-100815212D01*
X117384786Y-100880469D01*
X117464710Y-100926614D01*
X117486996Y-100932585D01*
X117553851Y-100950500D01*
X117553854Y-100950500D01*
X117646144Y-100950500D01*
X117690714Y-100938557D01*
X117735286Y-100926614D01*
X117815210Y-100880469D01*
X117880467Y-100815212D01*
X117926612Y-100735288D01*
X117940143Y-100684788D01*
X117950498Y-100646146D01*
X117950498Y-100553853D01*
X117950497Y-100553852D01*
X117939639Y-100513326D01*
X117937100Y-100503853D01*
X119149500Y-100503853D01*
X119149500Y-100596146D01*
X119173385Y-100685286D01*
X119173386Y-100685289D01*
X119205838Y-100741495D01*
X119219531Y-100765212D01*
X119284788Y-100830469D01*
X119364712Y-100876614D01*
X119386998Y-100882585D01*
X119453853Y-100900500D01*
X119453856Y-100900500D01*
X119546146Y-100900500D01*
X119590716Y-100888557D01*
X119635288Y-100876614D01*
X119715212Y-100830469D01*
X119780469Y-100765212D01*
X119826614Y-100685288D01*
X119843201Y-100623385D01*
X119850500Y-100596146D01*
X119850500Y-100503853D01*
X120049500Y-100503853D01*
X120049500Y-100596146D01*
X120073385Y-100685286D01*
X120073386Y-100685289D01*
X120105838Y-100741495D01*
X120119531Y-100765212D01*
X120184788Y-100830469D01*
X120264712Y-100876614D01*
X120286998Y-100882585D01*
X120353853Y-100900500D01*
X120353856Y-100900500D01*
X120446146Y-100900500D01*
X120490716Y-100888557D01*
X120535288Y-100876614D01*
X120615212Y-100830469D01*
X120680469Y-100765212D01*
X120726614Y-100685288D01*
X120743201Y-100623385D01*
X120750500Y-100596146D01*
X120750500Y-100523853D01*
X120999500Y-100523853D01*
X120999500Y-100616146D01*
X121023385Y-100705286D01*
X121023386Y-100705289D01*
X121059949Y-100768616D01*
X121069531Y-100785212D01*
X121134788Y-100850469D01*
X121214712Y-100896614D01*
X121229215Y-100900500D01*
X121303853Y-100920500D01*
X121303856Y-100920500D01*
X121396146Y-100920500D01*
X121458260Y-100903856D01*
X121485288Y-100896614D01*
X121565212Y-100850469D01*
X121630469Y-100785212D01*
X121676614Y-100705288D01*
X121698560Y-100623385D01*
X121700500Y-100616146D01*
X121700500Y-100523853D01*
X121949502Y-100523853D01*
X121949502Y-100616146D01*
X121973387Y-100705286D01*
X121973388Y-100705289D01*
X122009951Y-100768616D01*
X122019533Y-100785212D01*
X122084790Y-100850469D01*
X122164714Y-100896614D01*
X122179217Y-100900500D01*
X122253855Y-100920500D01*
X122253858Y-100920500D01*
X122346148Y-100920500D01*
X122408262Y-100903856D01*
X122435290Y-100896614D01*
X122515214Y-100850469D01*
X122580471Y-100785212D01*
X122626616Y-100705288D01*
X122648562Y-100623385D01*
X122650502Y-100616146D01*
X122650502Y-100523853D01*
X122626616Y-100434713D01*
X122626615Y-100434710D01*
X122597792Y-100384788D01*
X122580471Y-100354788D01*
X122515214Y-100289531D01*
X122445880Y-100249500D01*
X122435291Y-100243386D01*
X122435288Y-100243385D01*
X122346149Y-100219500D01*
X122346146Y-100219500D01*
X122253858Y-100219500D01*
X122253855Y-100219500D01*
X122164715Y-100243385D01*
X122164712Y-100243386D01*
X122084796Y-100289527D01*
X122084786Y-100289534D01*
X122019536Y-100354784D01*
X122019529Y-100354794D01*
X121973388Y-100434710D01*
X121973387Y-100434713D01*
X121949502Y-100523853D01*
X121700500Y-100523853D01*
X121676614Y-100434713D01*
X121676613Y-100434710D01*
X121647790Y-100384788D01*
X121630469Y-100354788D01*
X121565212Y-100289531D01*
X121495878Y-100249500D01*
X121485289Y-100243386D01*
X121485286Y-100243385D01*
X121396147Y-100219500D01*
X121396144Y-100219500D01*
X121303856Y-100219500D01*
X121303853Y-100219500D01*
X121214713Y-100243385D01*
X121214710Y-100243386D01*
X121134794Y-100289527D01*
X121134784Y-100289534D01*
X121069534Y-100354784D01*
X121069527Y-100354794D01*
X121023386Y-100434710D01*
X121023385Y-100434713D01*
X120999500Y-100523853D01*
X120750500Y-100523853D01*
X120750500Y-100503853D01*
X120726614Y-100414713D01*
X120726613Y-100414710D01*
X120715077Y-100394731D01*
X120680469Y-100334788D01*
X120615212Y-100269531D01*
X120580518Y-100249500D01*
X120535289Y-100223386D01*
X120535286Y-100223385D01*
X120446147Y-100199500D01*
X120446144Y-100199500D01*
X120353856Y-100199500D01*
X120353853Y-100199500D01*
X120264713Y-100223385D01*
X120264710Y-100223386D01*
X120184794Y-100269527D01*
X120184784Y-100269534D01*
X120119534Y-100334784D01*
X120119527Y-100334794D01*
X120073386Y-100414710D01*
X120073385Y-100414713D01*
X120049500Y-100503853D01*
X119850500Y-100503853D01*
X119826614Y-100414713D01*
X119826613Y-100414710D01*
X119815077Y-100394731D01*
X119780469Y-100334788D01*
X119715212Y-100269531D01*
X119680518Y-100249500D01*
X119635289Y-100223386D01*
X119635286Y-100223385D01*
X119546147Y-100199500D01*
X119546144Y-100199500D01*
X119453856Y-100199500D01*
X119453853Y-100199500D01*
X119364713Y-100223385D01*
X119364710Y-100223386D01*
X119284794Y-100269527D01*
X119284784Y-100269534D01*
X119219534Y-100334784D01*
X119219527Y-100334794D01*
X119173386Y-100414710D01*
X119173385Y-100414713D01*
X119149500Y-100503853D01*
X117937100Y-100503853D01*
X117926612Y-100464713D01*
X117926612Y-100464712D01*
X117880467Y-100384788D01*
X117815210Y-100319531D01*
X117788061Y-100303856D01*
X117735287Y-100273386D01*
X117735284Y-100273385D01*
X117646145Y-100249500D01*
X117646142Y-100249500D01*
X117553854Y-100249500D01*
X117553851Y-100249500D01*
X117464711Y-100273385D01*
X117464708Y-100273386D01*
X117384792Y-100319527D01*
X117384782Y-100319534D01*
X117319532Y-100384784D01*
X117319525Y-100384794D01*
X117273384Y-100464710D01*
X117273383Y-100464713D01*
X117249498Y-100553853D01*
X105135037Y-100553853D01*
X105143075Y-100523856D01*
X105150500Y-100496146D01*
X105150500Y-100403853D01*
X105126614Y-100314713D01*
X105126613Y-100314710D01*
X105085433Y-100243386D01*
X105080469Y-100234788D01*
X105080329Y-100234648D01*
X105080291Y-100234558D01*
X105078515Y-100232243D01*
X105079135Y-100231766D01*
X105065977Y-100200000D01*
X105079135Y-100168233D01*
X105078515Y-100167757D01*
X105080291Y-100165441D01*
X105080329Y-100165352D01*
X105080469Y-100165212D01*
X105126614Y-100085288D01*
X105145393Y-100015205D01*
X105150500Y-99996146D01*
X105150500Y-99903853D01*
X105126614Y-99814713D01*
X105126613Y-99814710D01*
X105080472Y-99734794D01*
X105080469Y-99734788D01*
X105015212Y-99669531D01*
X105006862Y-99664710D01*
X104935289Y-99623386D01*
X104935286Y-99623385D01*
X104846147Y-99599500D01*
X104846144Y-99599500D01*
X104753856Y-99599500D01*
X104753853Y-99599500D01*
X104664713Y-99623385D01*
X104664710Y-99623386D01*
X104584794Y-99669527D01*
X104584784Y-99669534D01*
X104519534Y-99734784D01*
X104519527Y-99734794D01*
X104473386Y-99814710D01*
X104473385Y-99814713D01*
X104449500Y-99903853D01*
X96950500Y-99903853D01*
X96950500Y-99203853D01*
X124199500Y-99203853D01*
X124199500Y-99296146D01*
X124223385Y-99385286D01*
X124223386Y-99385289D01*
X124266430Y-99459842D01*
X124269531Y-99465212D01*
X124269534Y-99465215D01*
X124294671Y-99490352D01*
X124309023Y-99525000D01*
X124294671Y-99559648D01*
X124269534Y-99584784D01*
X124269527Y-99584794D01*
X124223386Y-99664710D01*
X124223385Y-99664713D01*
X124199500Y-99753853D01*
X124199500Y-99846146D01*
X124223385Y-99935286D01*
X124223386Y-99935289D01*
X124258522Y-99996144D01*
X124269531Y-100015212D01*
X124269534Y-100015215D01*
X124294671Y-100040352D01*
X124309023Y-100075000D01*
X124294671Y-100109648D01*
X124269534Y-100134784D01*
X124269527Y-100134794D01*
X124223386Y-100214710D01*
X124223385Y-100214713D01*
X124199500Y-100303853D01*
X124199500Y-100396146D01*
X124223385Y-100485286D01*
X124223386Y-100485289D01*
X124262972Y-100553852D01*
X124269531Y-100565212D01*
X124269534Y-100565215D01*
X124294671Y-100590352D01*
X124309023Y-100625000D01*
X124294671Y-100659648D01*
X124269534Y-100684784D01*
X124269527Y-100684794D01*
X124223386Y-100764710D01*
X124223385Y-100764713D01*
X124199500Y-100853853D01*
X124199500Y-100946146D01*
X124223385Y-101035286D01*
X124223386Y-101035289D01*
X124266397Y-101109784D01*
X124269531Y-101115212D01*
X124334788Y-101180469D01*
X124414712Y-101226614D01*
X124429099Y-101230469D01*
X124503853Y-101250500D01*
X124503856Y-101250500D01*
X124596146Y-101250500D01*
X124640716Y-101238557D01*
X124685288Y-101226614D01*
X124765212Y-101180469D01*
X124830469Y-101115212D01*
X124876614Y-101035288D01*
X124899333Y-100950500D01*
X124900500Y-100946146D01*
X124900500Y-100853853D01*
X124876614Y-100764713D01*
X124876613Y-100764710D01*
X124859625Y-100735286D01*
X124830469Y-100684788D01*
X124805329Y-100659648D01*
X124790977Y-100625000D01*
X124805329Y-100590352D01*
X124810395Y-100585286D01*
X124830469Y-100565212D01*
X124876614Y-100485288D01*
X124888557Y-100440716D01*
X124900500Y-100396146D01*
X124900500Y-100303853D01*
X124877897Y-100219500D01*
X124876614Y-100214712D01*
X124830469Y-100134788D01*
X124805329Y-100109648D01*
X124790977Y-100075000D01*
X124805329Y-100040352D01*
X124830469Y-100015212D01*
X124876614Y-99935288D01*
X124888557Y-99890716D01*
X124900500Y-99846146D01*
X124900500Y-99753853D01*
X124876614Y-99664713D01*
X124876613Y-99664710D01*
X124830472Y-99584794D01*
X124830469Y-99584788D01*
X124805329Y-99559648D01*
X124790977Y-99525000D01*
X124805329Y-99490352D01*
X124830469Y-99465212D01*
X124876614Y-99385288D01*
X124888557Y-99340716D01*
X124900500Y-99296146D01*
X124900500Y-99203853D01*
X124876614Y-99114713D01*
X124876613Y-99114710D01*
X124830472Y-99034794D01*
X124830469Y-99034788D01*
X124765212Y-98969531D01*
X124759842Y-98966430D01*
X124685289Y-98923386D01*
X124685286Y-98923385D01*
X124596147Y-98899500D01*
X124596144Y-98899500D01*
X124503856Y-98899500D01*
X124503853Y-98899500D01*
X124414713Y-98923385D01*
X124414710Y-98923386D01*
X124334794Y-98969527D01*
X124334784Y-98969534D01*
X124269534Y-99034784D01*
X124269527Y-99034794D01*
X124223386Y-99114710D01*
X124223385Y-99114713D01*
X124199500Y-99203853D01*
X96950500Y-99203853D01*
X96950500Y-98901602D01*
X96950605Y-98898397D01*
X96966968Y-98648741D01*
X96967805Y-98642386D01*
X97016300Y-98398588D01*
X97017958Y-98392398D01*
X97027173Y-98365251D01*
X97097869Y-98156987D01*
X97100311Y-98151090D01*
X97210270Y-97928114D01*
X97213458Y-97922593D01*
X97351578Y-97715882D01*
X97355470Y-97710810D01*
X97519385Y-97523900D01*
X97523900Y-97519385D01*
X97710810Y-97355470D01*
X97715882Y-97351578D01*
X97922593Y-97213458D01*
X97928114Y-97210270D01*
X98151090Y-97100311D01*
X98156987Y-97097869D01*
X98392398Y-97017958D01*
X98398584Y-97016300D01*
X98642388Y-96967804D01*
X98648738Y-96966968D01*
X98898398Y-96950605D01*
X98901603Y-96950500D01*
X98916408Y-96950500D01*
X102000500Y-96950500D01*
X102035148Y-96964852D01*
X102049500Y-96999500D01*
X102049500Y-97514823D01*
X102058232Y-97558721D01*
X102091495Y-97608504D01*
X102141278Y-97641767D01*
X102185180Y-97650500D01*
X103714820Y-97650500D01*
X103758722Y-97641767D01*
X103772778Y-97632374D01*
X103809559Y-97625058D01*
X103827219Y-97632373D01*
X103841278Y-97641767D01*
X103885180Y-97650500D01*
X105414820Y-97650500D01*
X105458722Y-97641767D01*
X105508504Y-97608504D01*
X105541767Y-97558722D01*
X105550500Y-97514820D01*
X105550500Y-96049500D01*
X105564852Y-96014852D01*
X105599500Y-96000500D01*
X107100500Y-96000500D01*
X107135148Y-96014852D01*
G37*
%TD.AperFunction*%
%TD*%
M02*
