M48
; DRILL file {KiCad 9.0.3} date 2025-09-10T14:09:47+0200
; FORMAT={-:-/ absolute / metric / decimal}
; #@! TF.CreationDate,2025-09-10T14:09:47+02:00
; #@! TF.GenerationSoftware,Kicad,Pcbnew,9.0.3
; #@! TF.FileFunction,Plated,1,8,PTH
FMAT,2
METRIC
; #@! TA.AperFunction,Plated,PTH,ViaDrill
T1C0.300
; #@! TA.AperFunction,Plated,PTH,ViaDrill
T2C0.400
; #@! TA.AperFunction,Plated,PTH,ComponentDrill
T3C1.000
; #@! TA.AperFunction,Plated,PTH,ComponentDrill
T4C4.000
%
G90
G05
T1
X96.35Y-114.15
X96.35Y-116.3
X96.4Y-123.025
X96.4Y-123.725
X96.425Y-120.95
X96.425Y-121.65
X96.45Y-119.2
X96.45Y-119.9
X96.5Y-117.05
X96.5Y-117.75
X97.1Y-123.025
X97.1Y-123.725
X97.125Y-120.95
X97.125Y-121.65
X97.15Y-119.2
X97.15Y-119.9
X97.2Y-117.05
X97.2Y-117.75
X97.45Y-127.7
X98.0Y-108.6
X98.0Y-110.45
X98.0Y-111.9
X98.0Y-118.5
X98.0Y-121.8
X98.05Y-102.75
X98.15Y-114.85
X98.15Y-115.6
X98.15Y-116.35
X98.15Y-125.05
X98.15Y-125.8
X98.15Y-126.55
X98.35Y-113.6
X98.45Y-124.3
X98.55Y-104.2
X98.55Y-116.85
X98.7Y-111.9
X98.8Y-108.6
X98.8Y-110.45
X98.8Y-121.75
X98.9Y-114.85
X98.9Y-115.6
X98.9Y-116.35
X98.9Y-125.05
X98.9Y-125.8
X98.9Y-126.55
X98.95Y-118.5
X99.3Y-104.2
X99.35Y-116.85
X99.35Y-124.3
X99.65Y-114.85
X99.65Y-115.6
X99.65Y-116.35
X99.65Y-121.75
X99.65Y-125.05
X99.65Y-125.8
X99.65Y-126.55
X99.85Y-118.45
X100.05Y-108.1
X100.05Y-116.85
X100.15Y-124.3
X100.35Y-105.65
X100.35Y-127.65
X101.05Y-120.1
X101.05Y-120.7
X101.45Y-107.95
X101.45Y-109.0
X101.55Y-103.95
X102.0Y-124.4
X102.1Y-114.75
X102.1Y-115.5
X102.1Y-116.25
X102.1Y-125.0
X102.1Y-125.75
X102.1Y-126.5
X102.15Y-112.3
X102.2Y-104.65
X102.2Y-105.3
X102.2Y-106.05
X102.35Y-127.3
X102.75Y-112.3
X102.85Y-114.75
X102.85Y-115.5
X102.85Y-116.25
X102.85Y-125.0
X102.85Y-125.75
X102.85Y-126.5
X103.05Y-106.3
X103.35Y-112.3
X103.35Y-128.0
X103.6Y-114.75
X103.6Y-115.5
X103.6Y-116.25
X103.6Y-125.0
X103.6Y-125.75
X103.6Y-126.5
X103.85Y-98.65
X104.25Y-108.55
X104.4Y-104.65
X104.42Y-122.37
X104.55Y-105.9
X104.55Y-106.45
X104.55Y-107.0
X104.6Y-113.95
X104.6Y-129.7
X104.8Y-99.95
X104.8Y-100.45
X104.85Y-125.7
X104.9Y-108.9
X104.9Y-109.9
X105.0Y-126.85
X105.02Y-119.8
X105.1Y-104.65
X105.15Y-105.9
X105.5Y-108.9
X105.5Y-109.9
X105.55Y-121.025
X105.6Y-107.05
X105.65Y-117.65
X105.7Y-118.65
X105.75Y-124.6
X105.925Y-123.375
X106.0Y-103.85
X106.0Y-122.2
X106.05Y-125.95
X106.15Y-112.2
X106.2Y-115.7
X106.375Y-115.0
X106.4Y-130.15
X106.45Y-129.4
X106.575Y-126.85
X106.65Y-98.05
X106.7Y-108.9
X106.7Y-109.9
X106.75Y-110.6
X107.075Y-125.85
X107.15Y-129.4
X107.15Y-130.15
X107.2Y-113.7
X107.2Y-115.75
X107.2Y-117.8
X107.4Y-111.75
X107.4Y-112.55
X107.5Y-98.0
X107.5Y-104.3
X107.6Y-110.15
X108.0Y-110.5
X108.0Y-111.3
X108.0Y-113.7
X108.0Y-122.65
X108.15Y-119.5
X108.25Y-123.7
X108.4Y-114.95
X108.4Y-115.7
X108.55Y-104.3
X108.75Y-125.85
X108.8Y-110.5
X108.8Y-111.3
X108.8Y-112.9
X108.8Y-113.7
X108.8Y-114.5
X108.8Y-116.9
X109.0Y-98.0
X109.2Y-111.7
X109.2Y-112.5
X109.2Y-118.45
X109.2Y-123.5
X109.365Y-109.2
X109.375Y-114.725
X109.4Y-106.35
X109.4Y-107.2
X109.45Y-104.6
X109.45Y-105.45
X109.45Y-113.95
X109.6Y-115.3
X109.6Y-116.1
X109.6Y-116.9
X109.6Y-117.7
X109.7Y-124.3
X109.96Y-119.48
X109.96Y-121.43
X110.0Y-103.85
X110.0Y-112.425
X110.011Y-113.311
X110.1Y-123.9
X110.25Y-97.95
X110.3Y-124.6
X110.375Y-123.275
X110.4Y-114.5
X110.4Y-116.9
X110.63Y-120.78
X110.75Y-111.65
X110.8Y-110.175
X110.8Y-110.975
X110.8Y-112.55
X110.8Y-113.275
X111.07Y-120.055
X111.15Y-121.55
X111.15Y-126.175
X111.191Y-104.15
X111.2Y-112.1
X111.2Y-113.7
X111.2Y-114.5
X111.2Y-115.3
X111.6Y-116.5
X111.7Y-123.35
X111.7Y-129.15
X111.9Y-119.65
X112.0Y-111.3
X112.0Y-112.1
X112.0Y-112.9
X112.0Y-113.7
X112.0Y-114.5
X112.0Y-115.3
X112.0Y-116.9
X112.1Y-103.95
X112.25Y-101.0
X112.25Y-121.55
X112.25Y-125.2
X112.29Y-119.02
X112.8Y-102.2
X112.8Y-110.5
X112.8Y-111.3
X112.8Y-113.7
X112.8Y-114.5
X112.8Y-115.3
X112.8Y-116.1
X112.8Y-116.9
X112.9Y-129.05
X113.15Y-131.0
X113.15Y-131.85
X113.35Y-123.95
X113.35Y-124.5
X113.6Y-104.65
X113.6Y-111.3
X113.6Y-112.1
X113.6Y-112.9
X113.6Y-114.5
X113.6Y-115.3
X113.65Y-119.0
X113.85Y-98.0
X113.85Y-98.7
X113.85Y-99.45
X113.85Y-100.0
X114.025Y-109.075
X114.025Y-110.875
X114.1Y-121.5
X114.125Y-101.325
X114.4Y-115.3
X114.4Y-116.1
X114.4Y-116.9
X114.45Y-124.175
X114.45Y-128.65
X114.55Y-110.325
X114.8Y-110.85
X114.8Y-111.7
X114.8Y-112.5
X114.85Y-103.05
X114.85Y-103.65
X114.9Y-120.85
X114.9Y-121.45
X114.95Y-106.25
X115.2Y-110.5
X115.2Y-111.3
X115.2Y-112.1
X115.2Y-112.9
X115.2Y-122.1
X115.25Y-130.4
X115.25Y-131.25
X115.35Y-105.85
X115.45Y-100.95
X115.45Y-101.55
X115.5Y-102.75
X115.55Y-118.25
X115.6Y-128.6
X115.7Y-112.9
X115.7Y-122.65
X115.75Y-113.7
X115.8Y-99.0
X115.8Y-99.55
X115.8Y-100.1
X116.05Y-100.95
X116.05Y-101.55
X116.15Y-111.6
X116.15Y-128.05
X116.2Y-106.2
X116.3Y-109.4
X116.45Y-130.5
X116.65Y-112.4
X116.65Y-121.55
X116.7Y-120.1
X116.725Y-124.025
X116.8Y-117.1
X117.1Y-108.2
X117.1Y-111.95
X117.15Y-126.65
X117.25Y-132.25
X117.55Y-98.0
X117.6Y-100.6
X117.65Y-113.675
X117.75Y-111.8
X117.75Y-121.55
X117.75Y-124.425
X117.95Y-117.1
X118.3Y-104.7
X118.3Y-105.525
X118.3Y-127.35
X118.3Y-128.3
X118.35Y-132.25
X118.4Y-130.45
X118.45Y-114.3
X118.475Y-112.8
X118.65Y-111.2
X118.7Y-116.55
X118.85Y-121.55
X118.85Y-123.875
X119.05Y-98.0
X119.1Y-110.35
X119.1Y-120.9
X119.45Y-132.25
X119.5Y-100.55
X119.65Y-105.525
X119.725Y-104.7
X119.8Y-117.35
X119.85Y-99.25
X119.9Y-103.7
X119.95Y-101.6
X120.1Y-109.2
X120.15Y-129.2
X120.4Y-100.55
X120.65Y-110.55
X120.8Y-98.0
X120.8Y-131.5
X120.85Y-101.6
X120.85Y-132.35
X120.9Y-103.7
X120.9Y-104.6
X121.0Y-117.25
X121.0Y-125.8
X121.35Y-100.57
X121.5Y-129.4
X121.85Y-101.6
X121.85Y-103.7
X121.85Y-104.65
X122.3Y-131.2
X122.3Y-100.57
X122.35Y-98.0
X122.4Y-132.35
X122.45Y-129.45
X122.55Y-112.0
X122.6Y-113.65
X122.95Y-99.3
X123.0Y-112.85
X123.7Y-117.185
X123.7Y-119.7
X123.7Y-120.25
X123.75Y-122.6
X124.35Y-111.95
X124.55Y-99.25
X124.55Y-99.8
X124.55Y-100.35
X124.55Y-100.9
X124.55Y-125.45
X124.6Y-128.55
X124.7Y-127.75
X124.75Y-120.25
X124.8Y-118.15
X124.85Y-113.45
X124.85Y-123.2
X124.85Y-123.8
X125.0Y-116.3
X125.0Y-121.5
X125.05Y-105.6
X125.05Y-107.25
X125.2Y-104.65
X125.25Y-110.95
X125.25Y-113.95
X125.25Y-130.2
X125.25Y-131.0
X125.25Y-131.8
X125.4Y-116.75
X125.45Y-123.8
X125.6Y-107.25
X125.6Y-109.95
X125.65Y-105.6
X125.7Y-99.0
X125.7Y-99.55
X125.7Y-100.05
X125.7Y-104.65
X125.7Y-112.1
X125.75Y-115.3
X125.75Y-120.25
X126.0Y-117.7
X126.0Y-121.55
X126.15Y-107.25
X126.2Y-105.6
X126.25Y-104.65
X126.32Y-112.1
X126.35Y-122.4
X126.35Y-124.3
X126.7Y-110.0
X126.7Y-123.1
X126.8Y-115.95
X126.94Y-126.5
X127.4Y-117.4
X127.5Y-120.85
X127.56Y-126.5
X127.8Y-113.55
X127.95Y-125.2
X128.05Y-117.6
X128.18Y-126.5
X128.35Y-133.1
X128.55Y-125.2
X128.7Y-118.3
X128.8Y-126.5
X129.05Y-122.0
X129.075Y-108.7
X129.075Y-109.625
X129.1Y-107.825
X129.125Y-105.975
X129.125Y-106.875
X129.15Y-103.25
X129.15Y-105.05
X129.15Y-111.1
X129.175Y-104.2
X129.3Y-115.25
X129.3Y-117.95
X129.42Y-112.1
X129.42Y-126.5
X129.6Y-102.85
X129.75Y-114.25
X129.775Y-103.75
X130.0Y-120.75
X130.04Y-126.5
X130.1Y-104.65
X130.1Y-105.55
X130.1Y-106.45
X130.1Y-107.35
X130.1Y-108.25
X130.1Y-109.15
X130.1Y-110.05
X130.1Y-116.95
X130.15Y-119.75
X130.35Y-115.05
X130.66Y-126.5
X130.9Y-115.05
X131.0Y-117.1
X131.0Y-122.3
X131.125Y-113.625
X131.175Y-109.55
X131.175Y-110.9
X131.25Y-119.8
X131.28Y-115.7
X131.28Y-118.1
X131.28Y-123.5
X131.28Y-124.1
X131.28Y-125.3
X131.28Y-126.5
X131.3Y-121.0
X131.325Y-104.475
X131.35Y-108.25
X131.45Y-115.05
X131.55Y-112.45
X131.6Y-103.2
X131.6Y-107.325
X131.8Y-110.2
X132.1Y-106.375
X132.5Y-123.2
X132.5Y-125.05
X132.55Y-102.75
X132.55Y-104.575
X132.55Y-108.875
X132.55Y-121.75
X132.6Y-107.375
X132.6Y-110.3
X132.6Y-112.275
X132.6Y-114.1
X132.625Y-105.8
T2
X114.4Y-105.4
X115.1Y-107.3
X115.45Y-104.35
X120.0Y-111.6
X120.0Y-112.4
X121.0Y-111.6
X121.0Y-112.4
X122.0Y-111.6
X122.0Y-112.4
T3
X96.75Y-101.025
X96.75Y-102.675
X96.75Y-104.4
X96.75Y-106.1
X96.75Y-107.8
X96.75Y-109.5
X96.75Y-111.2
X96.75Y-112.9
X101.3Y-133.7
X102.95Y-96.75
X103.0Y-133.7
X104.65Y-96.75
X104.725Y-133.7
X106.35Y-96.75
X106.425Y-133.7
X108.05Y-96.75
X108.475Y-133.7
X109.75Y-96.75
X110.3Y-133.7
X111.45Y-96.75
X112.4Y-133.7
X113.15Y-96.75
X114.85Y-96.75
X114.95Y-133.7
X116.55Y-96.75
X116.65Y-133.7
X118.25Y-96.75
X118.35Y-133.7
X119.95Y-96.75
X120.05Y-133.7
X121.65Y-96.75
X121.75Y-133.7
X123.35Y-96.75
X123.45Y-133.7
X125.05Y-96.75
X125.15Y-133.7
X126.75Y-96.75
X126.85Y-133.7
X128.45Y-96.75
X133.7Y-101.6
X133.7Y-103.3
X133.7Y-105.0
X133.7Y-106.7
X133.7Y-108.4
X133.7Y-110.1
X133.7Y-111.8
X133.7Y-113.5
X133.7Y-115.2
X133.7Y-116.9
X133.7Y-119.1
X133.7Y-120.9
X133.7Y-122.7
X133.7Y-124.5
X133.7Y-126.3
X133.7Y-128.1
T4
X100.0Y-100.0
X100.0Y-130.5
X130.5Y-100.0
X130.5Y-130.5
M30
