%TF.GenerationSoftware,KiCad,Pcbnew,9.0.3*%
%TF.CreationDate,2025-09-10T14:09:53+02:00*%
%TF.ProjectId,FC_H7_Client,46435f48-375f-4436-9c69-656e742e6b69,rev?*%
%TF.SameCoordinates,Original*%
%TF.FileFunction,Legend,Bot*%
%TF.FilePolarity,Positive*%
%FSLAX46Y46*%
G04 Gerber Fmt 4.6, Leading zero omitted, Abs format (unit mm)*
G04 Created by KiCad (PCBNEW 9.0.3) date 2025-09-10 14:09:53*
%MOMM*%
%LPD*%
G01*
G04 APERTURE LIST*
%ADD10C,0.100000*%
%ADD11C,0.250000*%
%ADD12C,0.120000*%
%ADD13C,0.200000*%
G04 APERTURE END LIST*
D10*
X106553258Y-116457419D02*
X106600877Y-116433609D01*
X106600877Y-116433609D02*
X106672306Y-116433609D01*
X106672306Y-116433609D02*
X106743734Y-116457419D01*
X106743734Y-116457419D02*
X106791353Y-116505038D01*
X106791353Y-116505038D02*
X106815163Y-116552657D01*
X106815163Y-116552657D02*
X106838972Y-116647895D01*
X106838972Y-116647895D02*
X106838972Y-116719323D01*
X106838972Y-116719323D02*
X106815163Y-116814561D01*
X106815163Y-116814561D02*
X106791353Y-116862180D01*
X106791353Y-116862180D02*
X106743734Y-116909800D01*
X106743734Y-116909800D02*
X106672306Y-116933609D01*
X106672306Y-116933609D02*
X106624687Y-116933609D01*
X106624687Y-116933609D02*
X106553258Y-116909800D01*
X106553258Y-116909800D02*
X106529449Y-116885990D01*
X106529449Y-116885990D02*
X106529449Y-116719323D01*
X106529449Y-116719323D02*
X106624687Y-116719323D01*
X106315163Y-116600276D02*
X106315163Y-116933609D01*
X106315163Y-116647895D02*
X106291353Y-116624085D01*
X106291353Y-116624085D02*
X106243734Y-116600276D01*
X106243734Y-116600276D02*
X106172306Y-116600276D01*
X106172306Y-116600276D02*
X106124687Y-116624085D01*
X106124687Y-116624085D02*
X106100877Y-116671704D01*
X106100877Y-116671704D02*
X106100877Y-116933609D01*
X105648496Y-116933609D02*
X105648496Y-116433609D01*
X105648496Y-116909800D02*
X105696115Y-116933609D01*
X105696115Y-116933609D02*
X105791353Y-116933609D01*
X105791353Y-116933609D02*
X105838972Y-116909800D01*
X105838972Y-116909800D02*
X105862782Y-116885990D01*
X105862782Y-116885990D02*
X105886591Y-116838371D01*
X105886591Y-116838371D02*
X105886591Y-116695514D01*
X105886591Y-116695514D02*
X105862782Y-116647895D01*
X105862782Y-116647895D02*
X105838972Y-116624085D01*
X105838972Y-116624085D02*
X105791353Y-116600276D01*
X105791353Y-116600276D02*
X105696115Y-116600276D01*
X105696115Y-116600276D02*
X105648496Y-116624085D01*
D11*
X105335380Y-111097431D02*
X104525857Y-111097431D01*
X104525857Y-111097431D02*
X104430619Y-111049812D01*
X104430619Y-111049812D02*
X104383000Y-111002193D01*
X104383000Y-111002193D02*
X104335380Y-110906955D01*
X104335380Y-110906955D02*
X104335380Y-110716479D01*
X104335380Y-110716479D02*
X104383000Y-110621241D01*
X104383000Y-110621241D02*
X104430619Y-110573622D01*
X104430619Y-110573622D02*
X104525857Y-110526003D01*
X104525857Y-110526003D02*
X105335380Y-110526003D01*
X104383000Y-110097431D02*
X104335380Y-109954574D01*
X104335380Y-109954574D02*
X104335380Y-109716479D01*
X104335380Y-109716479D02*
X104383000Y-109621241D01*
X104383000Y-109621241D02*
X104430619Y-109573622D01*
X104430619Y-109573622D02*
X104525857Y-109526003D01*
X104525857Y-109526003D02*
X104621095Y-109526003D01*
X104621095Y-109526003D02*
X104716333Y-109573622D01*
X104716333Y-109573622D02*
X104763952Y-109621241D01*
X104763952Y-109621241D02*
X104811571Y-109716479D01*
X104811571Y-109716479D02*
X104859190Y-109906955D01*
X104859190Y-109906955D02*
X104906809Y-110002193D01*
X104906809Y-110002193D02*
X104954428Y-110049812D01*
X104954428Y-110049812D02*
X105049666Y-110097431D01*
X105049666Y-110097431D02*
X105144904Y-110097431D01*
X105144904Y-110097431D02*
X105240142Y-110049812D01*
X105240142Y-110049812D02*
X105287761Y-110002193D01*
X105287761Y-110002193D02*
X105335380Y-109906955D01*
X105335380Y-109906955D02*
X105335380Y-109668860D01*
X105335380Y-109668860D02*
X105287761Y-109526003D01*
X104859190Y-108764098D02*
X104811571Y-108621241D01*
X104811571Y-108621241D02*
X104763952Y-108573622D01*
X104763952Y-108573622D02*
X104668714Y-108526003D01*
X104668714Y-108526003D02*
X104525857Y-108526003D01*
X104525857Y-108526003D02*
X104430619Y-108573622D01*
X104430619Y-108573622D02*
X104383000Y-108621241D01*
X104383000Y-108621241D02*
X104335380Y-108716479D01*
X104335380Y-108716479D02*
X104335380Y-109097431D01*
X104335380Y-109097431D02*
X105335380Y-109097431D01*
X105335380Y-109097431D02*
X105335380Y-108764098D01*
X105335380Y-108764098D02*
X105287761Y-108668860D01*
X105287761Y-108668860D02*
X105240142Y-108621241D01*
X105240142Y-108621241D02*
X105144904Y-108573622D01*
X105144904Y-108573622D02*
X105049666Y-108573622D01*
X105049666Y-108573622D02*
X104954428Y-108621241D01*
X104954428Y-108621241D02*
X104906809Y-108668860D01*
X104906809Y-108668860D02*
X104859190Y-108764098D01*
X104859190Y-108764098D02*
X104859190Y-109097431D01*
X102980619Y-116476003D02*
X102933000Y-116523622D01*
X102933000Y-116523622D02*
X102885380Y-116666479D01*
X102885380Y-116666479D02*
X102885380Y-116761717D01*
X102885380Y-116761717D02*
X102933000Y-116904574D01*
X102933000Y-116904574D02*
X103028238Y-116999812D01*
X103028238Y-116999812D02*
X103123476Y-117047431D01*
X103123476Y-117047431D02*
X103313952Y-117095050D01*
X103313952Y-117095050D02*
X103456809Y-117095050D01*
X103456809Y-117095050D02*
X103647285Y-117047431D01*
X103647285Y-117047431D02*
X103742523Y-116999812D01*
X103742523Y-116999812D02*
X103837761Y-116904574D01*
X103837761Y-116904574D02*
X103885380Y-116761717D01*
X103885380Y-116761717D02*
X103885380Y-116666479D01*
X103885380Y-116666479D02*
X103837761Y-116523622D01*
X103837761Y-116523622D02*
X103790142Y-116476003D01*
X103171095Y-116095050D02*
X103171095Y-115618860D01*
X102885380Y-116190288D02*
X103885380Y-115856955D01*
X103885380Y-115856955D02*
X102885380Y-115523622D01*
X102885380Y-115190288D02*
X103885380Y-115190288D01*
X103885380Y-115190288D02*
X102885380Y-114618860D01*
X102885380Y-114618860D02*
X103885380Y-114618860D01*
X102885380Y-113618860D02*
X102885380Y-114190288D01*
X102885380Y-113904574D02*
X103885380Y-113904574D01*
X103885380Y-113904574D02*
X103742523Y-113999812D01*
X103742523Y-113999812D02*
X103647285Y-114095050D01*
X103647285Y-114095050D02*
X103599666Y-114190288D01*
X125262238Y-119376377D02*
X125214619Y-119281139D01*
X125214619Y-119281139D02*
X125214619Y-119138282D01*
X125214619Y-119138282D02*
X125262238Y-118995425D01*
X125262238Y-118995425D02*
X125357476Y-118900187D01*
X125357476Y-118900187D02*
X125452714Y-118852568D01*
X125452714Y-118852568D02*
X125643190Y-118804949D01*
X125643190Y-118804949D02*
X125786047Y-118804949D01*
X125786047Y-118804949D02*
X125976523Y-118852568D01*
X125976523Y-118852568D02*
X126071761Y-118900187D01*
X126071761Y-118900187D02*
X126167000Y-118995425D01*
X126167000Y-118995425D02*
X126214619Y-119138282D01*
X126214619Y-119138282D02*
X126214619Y-119233520D01*
X126214619Y-119233520D02*
X126167000Y-119376377D01*
X126167000Y-119376377D02*
X126119380Y-119423996D01*
X126119380Y-119423996D02*
X125786047Y-119423996D01*
X125786047Y-119423996D02*
X125786047Y-119233520D01*
X126214619Y-119852568D02*
X125214619Y-119852568D01*
X125214619Y-119852568D02*
X125214619Y-120233520D01*
X125214619Y-120233520D02*
X125262238Y-120328758D01*
X125262238Y-120328758D02*
X125309857Y-120376377D01*
X125309857Y-120376377D02*
X125405095Y-120423996D01*
X125405095Y-120423996D02*
X125547952Y-120423996D01*
X125547952Y-120423996D02*
X125643190Y-120376377D01*
X125643190Y-120376377D02*
X125690809Y-120328758D01*
X125690809Y-120328758D02*
X125738428Y-120233520D01*
X125738428Y-120233520D02*
X125738428Y-119852568D01*
X126167000Y-120804949D02*
X126214619Y-120947806D01*
X126214619Y-120947806D02*
X126214619Y-121185901D01*
X126214619Y-121185901D02*
X126167000Y-121281139D01*
X126167000Y-121281139D02*
X126119380Y-121328758D01*
X126119380Y-121328758D02*
X126024142Y-121376377D01*
X126024142Y-121376377D02*
X125928904Y-121376377D01*
X125928904Y-121376377D02*
X125833666Y-121328758D01*
X125833666Y-121328758D02*
X125786047Y-121281139D01*
X125786047Y-121281139D02*
X125738428Y-121185901D01*
X125738428Y-121185901D02*
X125690809Y-120995425D01*
X125690809Y-120995425D02*
X125643190Y-120900187D01*
X125643190Y-120900187D02*
X125595571Y-120852568D01*
X125595571Y-120852568D02*
X125500333Y-120804949D01*
X125500333Y-120804949D02*
X125405095Y-120804949D01*
X125405095Y-120804949D02*
X125309857Y-120852568D01*
X125309857Y-120852568D02*
X125262238Y-120900187D01*
X125262238Y-120900187D02*
X125214619Y-120995425D01*
X125214619Y-120995425D02*
X125214619Y-121233520D01*
X125214619Y-121233520D02*
X125262238Y-121376377D01*
X125167000Y-122519234D02*
X126452714Y-121662092D01*
X125690809Y-123185901D02*
X125738428Y-123328758D01*
X125738428Y-123328758D02*
X125786047Y-123376377D01*
X125786047Y-123376377D02*
X125881285Y-123423996D01*
X125881285Y-123423996D02*
X126024142Y-123423996D01*
X126024142Y-123423996D02*
X126119380Y-123376377D01*
X126119380Y-123376377D02*
X126167000Y-123328758D01*
X126167000Y-123328758D02*
X126214619Y-123233520D01*
X126214619Y-123233520D02*
X126214619Y-122852568D01*
X126214619Y-122852568D02*
X125214619Y-122852568D01*
X125214619Y-122852568D02*
X125214619Y-123185901D01*
X125214619Y-123185901D02*
X125262238Y-123281139D01*
X125262238Y-123281139D02*
X125309857Y-123328758D01*
X125309857Y-123328758D02*
X125405095Y-123376377D01*
X125405095Y-123376377D02*
X125500333Y-123376377D01*
X125500333Y-123376377D02*
X125595571Y-123328758D01*
X125595571Y-123328758D02*
X125643190Y-123281139D01*
X125643190Y-123281139D02*
X125690809Y-123185901D01*
X125690809Y-123185901D02*
X125690809Y-122852568D01*
X125928904Y-123804949D02*
X125928904Y-124281139D01*
X126214619Y-123709711D02*
X125214619Y-124043044D01*
X125214619Y-124043044D02*
X126214619Y-124376377D01*
X126214619Y-125281139D02*
X125738428Y-124947806D01*
X126214619Y-124709711D02*
X125214619Y-124709711D01*
X125214619Y-124709711D02*
X125214619Y-125090663D01*
X125214619Y-125090663D02*
X125262238Y-125185901D01*
X125262238Y-125185901D02*
X125309857Y-125233520D01*
X125309857Y-125233520D02*
X125405095Y-125281139D01*
X125405095Y-125281139D02*
X125547952Y-125281139D01*
X125547952Y-125281139D02*
X125643190Y-125233520D01*
X125643190Y-125233520D02*
X125690809Y-125185901D01*
X125690809Y-125185901D02*
X125738428Y-125090663D01*
X125738428Y-125090663D02*
X125738428Y-124709711D01*
X125214619Y-125900187D02*
X125214619Y-126090663D01*
X125214619Y-126090663D02*
X125262238Y-126185901D01*
X125262238Y-126185901D02*
X125357476Y-126281139D01*
X125357476Y-126281139D02*
X125547952Y-126328758D01*
X125547952Y-126328758D02*
X125881285Y-126328758D01*
X125881285Y-126328758D02*
X126071761Y-126281139D01*
X126071761Y-126281139D02*
X126167000Y-126185901D01*
X126167000Y-126185901D02*
X126214619Y-126090663D01*
X126214619Y-126090663D02*
X126214619Y-125900187D01*
X126214619Y-125900187D02*
X126167000Y-125804949D01*
X126167000Y-125804949D02*
X126071761Y-125709711D01*
X126071761Y-125709711D02*
X125881285Y-125662092D01*
X125881285Y-125662092D02*
X125547952Y-125662092D01*
X125547952Y-125662092D02*
X125357476Y-125709711D01*
X125357476Y-125709711D02*
X125262238Y-125804949D01*
X125262238Y-125804949D02*
X125214619Y-125900187D01*
X104197431Y-127414619D02*
X104197431Y-126414619D01*
X103768860Y-126509857D02*
X103721241Y-126462238D01*
X103721241Y-126462238D02*
X103626003Y-126414619D01*
X103626003Y-126414619D02*
X103387908Y-126414619D01*
X103387908Y-126414619D02*
X103292670Y-126462238D01*
X103292670Y-126462238D02*
X103245051Y-126509857D01*
X103245051Y-126509857D02*
X103197432Y-126605095D01*
X103197432Y-126605095D02*
X103197432Y-126700333D01*
X103197432Y-126700333D02*
X103245051Y-126843190D01*
X103245051Y-126843190D02*
X103816479Y-127414619D01*
X103816479Y-127414619D02*
X103197432Y-127414619D01*
X102197432Y-127319380D02*
X102245051Y-127367000D01*
X102245051Y-127367000D02*
X102387908Y-127414619D01*
X102387908Y-127414619D02*
X102483146Y-127414619D01*
X102483146Y-127414619D02*
X102626003Y-127367000D01*
X102626003Y-127367000D02*
X102721241Y-127271761D01*
X102721241Y-127271761D02*
X102768860Y-127176523D01*
X102768860Y-127176523D02*
X102816479Y-126986047D01*
X102816479Y-126986047D02*
X102816479Y-126843190D01*
X102816479Y-126843190D02*
X102768860Y-126652714D01*
X102768860Y-126652714D02*
X102721241Y-126557476D01*
X102721241Y-126557476D02*
X102626003Y-126462238D01*
X102626003Y-126462238D02*
X102483146Y-126414619D01*
X102483146Y-126414619D02*
X102387908Y-126414619D01*
X102387908Y-126414619D02*
X102245051Y-126462238D01*
X102245051Y-126462238D02*
X102197432Y-126509857D01*
X101245051Y-127414619D02*
X101816479Y-127414619D01*
X101530765Y-127414619D02*
X101530765Y-126414619D01*
X101530765Y-126414619D02*
X101626003Y-126557476D01*
X101626003Y-126557476D02*
X101721241Y-126652714D01*
X101721241Y-126652714D02*
X101816479Y-126700333D01*
D10*
X109877068Y-109733609D02*
X110115163Y-109733609D01*
X110115163Y-109733609D02*
X110138972Y-109971704D01*
X110138972Y-109971704D02*
X110115163Y-109947895D01*
X110115163Y-109947895D02*
X110067544Y-109924085D01*
X110067544Y-109924085D02*
X109948496Y-109924085D01*
X109948496Y-109924085D02*
X109900877Y-109947895D01*
X109900877Y-109947895D02*
X109877068Y-109971704D01*
X109877068Y-109971704D02*
X109853258Y-110019323D01*
X109853258Y-110019323D02*
X109853258Y-110138371D01*
X109853258Y-110138371D02*
X109877068Y-110185990D01*
X109877068Y-110185990D02*
X109900877Y-110209800D01*
X109900877Y-110209800D02*
X109948496Y-110233609D01*
X109948496Y-110233609D02*
X110067544Y-110233609D01*
X110067544Y-110233609D02*
X110115163Y-110209800D01*
X110115163Y-110209800D02*
X110138972Y-110185990D01*
X109686592Y-109900276D02*
X109567544Y-110233609D01*
X109567544Y-110233609D02*
X109448497Y-109900276D01*
D11*
X127597431Y-103190809D02*
X127264098Y-103190809D01*
X127121241Y-103714619D02*
X127597431Y-103714619D01*
X127597431Y-103714619D02*
X127597431Y-102714619D01*
X127597431Y-102714619D02*
X127121241Y-102714619D01*
X126740288Y-103667000D02*
X126597431Y-103714619D01*
X126597431Y-103714619D02*
X126359336Y-103714619D01*
X126359336Y-103714619D02*
X126264098Y-103667000D01*
X126264098Y-103667000D02*
X126216479Y-103619380D01*
X126216479Y-103619380D02*
X126168860Y-103524142D01*
X126168860Y-103524142D02*
X126168860Y-103428904D01*
X126168860Y-103428904D02*
X126216479Y-103333666D01*
X126216479Y-103333666D02*
X126264098Y-103286047D01*
X126264098Y-103286047D02*
X126359336Y-103238428D01*
X126359336Y-103238428D02*
X126549812Y-103190809D01*
X126549812Y-103190809D02*
X126645050Y-103143190D01*
X126645050Y-103143190D02*
X126692669Y-103095571D01*
X126692669Y-103095571D02*
X126740288Y-103000333D01*
X126740288Y-103000333D02*
X126740288Y-102905095D01*
X126740288Y-102905095D02*
X126692669Y-102809857D01*
X126692669Y-102809857D02*
X126645050Y-102762238D01*
X126645050Y-102762238D02*
X126549812Y-102714619D01*
X126549812Y-102714619D02*
X126311717Y-102714619D01*
X126311717Y-102714619D02*
X126168860Y-102762238D01*
X125168860Y-103619380D02*
X125216479Y-103667000D01*
X125216479Y-103667000D02*
X125359336Y-103714619D01*
X125359336Y-103714619D02*
X125454574Y-103714619D01*
X125454574Y-103714619D02*
X125597431Y-103667000D01*
X125597431Y-103667000D02*
X125692669Y-103571761D01*
X125692669Y-103571761D02*
X125740288Y-103476523D01*
X125740288Y-103476523D02*
X125787907Y-103286047D01*
X125787907Y-103286047D02*
X125787907Y-103143190D01*
X125787907Y-103143190D02*
X125740288Y-102952714D01*
X125740288Y-102952714D02*
X125692669Y-102857476D01*
X125692669Y-102857476D02*
X125597431Y-102762238D01*
X125597431Y-102762238D02*
X125454574Y-102714619D01*
X125454574Y-102714619D02*
X125359336Y-102714619D01*
X125359336Y-102714619D02*
X125216479Y-102762238D01*
X125216479Y-102762238D02*
X125168860Y-102809857D01*
D10*
X106577068Y-123183609D02*
X106815163Y-123183609D01*
X106815163Y-123183609D02*
X106838972Y-123421704D01*
X106838972Y-123421704D02*
X106815163Y-123397895D01*
X106815163Y-123397895D02*
X106767544Y-123374085D01*
X106767544Y-123374085D02*
X106648496Y-123374085D01*
X106648496Y-123374085D02*
X106600877Y-123397895D01*
X106600877Y-123397895D02*
X106577068Y-123421704D01*
X106577068Y-123421704D02*
X106553258Y-123469323D01*
X106553258Y-123469323D02*
X106553258Y-123588371D01*
X106553258Y-123588371D02*
X106577068Y-123635990D01*
X106577068Y-123635990D02*
X106600877Y-123659800D01*
X106600877Y-123659800D02*
X106648496Y-123683609D01*
X106648496Y-123683609D02*
X106767544Y-123683609D01*
X106767544Y-123683609D02*
X106815163Y-123659800D01*
X106815163Y-123659800D02*
X106838972Y-123635990D01*
X106410401Y-123183609D02*
X106243735Y-123683609D01*
X106243735Y-123683609D02*
X106077068Y-123183609D01*
D11*
X125790809Y-110952568D02*
X125790809Y-111285901D01*
X126314619Y-111428758D02*
X126314619Y-110952568D01*
X126314619Y-110952568D02*
X125314619Y-110952568D01*
X125314619Y-110952568D02*
X125314619Y-111428758D01*
X126267000Y-111809711D02*
X126314619Y-111952568D01*
X126314619Y-111952568D02*
X126314619Y-112190663D01*
X126314619Y-112190663D02*
X126267000Y-112285901D01*
X126267000Y-112285901D02*
X126219380Y-112333520D01*
X126219380Y-112333520D02*
X126124142Y-112381139D01*
X126124142Y-112381139D02*
X126028904Y-112381139D01*
X126028904Y-112381139D02*
X125933666Y-112333520D01*
X125933666Y-112333520D02*
X125886047Y-112285901D01*
X125886047Y-112285901D02*
X125838428Y-112190663D01*
X125838428Y-112190663D02*
X125790809Y-112000187D01*
X125790809Y-112000187D02*
X125743190Y-111904949D01*
X125743190Y-111904949D02*
X125695571Y-111857330D01*
X125695571Y-111857330D02*
X125600333Y-111809711D01*
X125600333Y-111809711D02*
X125505095Y-111809711D01*
X125505095Y-111809711D02*
X125409857Y-111857330D01*
X125409857Y-111857330D02*
X125362238Y-111904949D01*
X125362238Y-111904949D02*
X125314619Y-112000187D01*
X125314619Y-112000187D02*
X125314619Y-112238282D01*
X125314619Y-112238282D02*
X125362238Y-112381139D01*
X126219380Y-113381139D02*
X126267000Y-113333520D01*
X126267000Y-113333520D02*
X126314619Y-113190663D01*
X126314619Y-113190663D02*
X126314619Y-113095425D01*
X126314619Y-113095425D02*
X126267000Y-112952568D01*
X126267000Y-112952568D02*
X126171761Y-112857330D01*
X126171761Y-112857330D02*
X126076523Y-112809711D01*
X126076523Y-112809711D02*
X125886047Y-112762092D01*
X125886047Y-112762092D02*
X125743190Y-112762092D01*
X125743190Y-112762092D02*
X125552714Y-112809711D01*
X125552714Y-112809711D02*
X125457476Y-112857330D01*
X125457476Y-112857330D02*
X125362238Y-112952568D01*
X125362238Y-112952568D02*
X125314619Y-113095425D01*
X125314619Y-113095425D02*
X125314619Y-113190663D01*
X125314619Y-113190663D02*
X125362238Y-113333520D01*
X125362238Y-113333520D02*
X125409857Y-113381139D01*
X125409857Y-113762092D02*
X125362238Y-113809711D01*
X125362238Y-113809711D02*
X125314619Y-113904949D01*
X125314619Y-113904949D02*
X125314619Y-114143044D01*
X125314619Y-114143044D02*
X125362238Y-114238282D01*
X125362238Y-114238282D02*
X125409857Y-114285901D01*
X125409857Y-114285901D02*
X125505095Y-114333520D01*
X125505095Y-114333520D02*
X125600333Y-114333520D01*
X125600333Y-114333520D02*
X125743190Y-114285901D01*
X125743190Y-114285901D02*
X126314619Y-113714473D01*
X126314619Y-113714473D02*
X126314619Y-114333520D01*
D10*
X106529449Y-117735990D02*
X106553258Y-117759800D01*
X106553258Y-117759800D02*
X106624687Y-117783609D01*
X106624687Y-117783609D02*
X106672306Y-117783609D01*
X106672306Y-117783609D02*
X106743734Y-117759800D01*
X106743734Y-117759800D02*
X106791353Y-117712180D01*
X106791353Y-117712180D02*
X106815163Y-117664561D01*
X106815163Y-117664561D02*
X106838972Y-117569323D01*
X106838972Y-117569323D02*
X106838972Y-117497895D01*
X106838972Y-117497895D02*
X106815163Y-117402657D01*
X106815163Y-117402657D02*
X106791353Y-117355038D01*
X106791353Y-117355038D02*
X106743734Y-117307419D01*
X106743734Y-117307419D02*
X106672306Y-117283609D01*
X106672306Y-117283609D02*
X106624687Y-117283609D01*
X106624687Y-117283609D02*
X106553258Y-117307419D01*
X106553258Y-117307419D02*
X106529449Y-117331228D01*
X106338972Y-117640752D02*
X106100877Y-117640752D01*
X106386591Y-117783609D02*
X106219925Y-117283609D01*
X106219925Y-117283609D02*
X106053258Y-117783609D01*
X105886592Y-117783609D02*
X105886592Y-117283609D01*
X105886592Y-117283609D02*
X105600878Y-117783609D01*
X105600878Y-117783609D02*
X105600878Y-117283609D01*
X105362782Y-117783609D02*
X105362782Y-117283609D01*
X105362782Y-117521704D02*
X105077068Y-117521704D01*
X105077068Y-117783609D02*
X105077068Y-117283609D01*
X124683609Y-116496741D02*
X124683609Y-116211027D01*
X124683609Y-116353884D02*
X124183609Y-116353884D01*
X124183609Y-116353884D02*
X124255038Y-116306265D01*
X124255038Y-116306265D02*
X124302657Y-116258646D01*
X124302657Y-116258646D02*
X124326466Y-116211027D01*
X124231228Y-116687217D02*
X124207419Y-116711026D01*
X124207419Y-116711026D02*
X124183609Y-116758645D01*
X124183609Y-116758645D02*
X124183609Y-116877693D01*
X124183609Y-116877693D02*
X124207419Y-116925312D01*
X124207419Y-116925312D02*
X124231228Y-116949121D01*
X124231228Y-116949121D02*
X124278847Y-116972931D01*
X124278847Y-116972931D02*
X124326466Y-116972931D01*
X124326466Y-116972931D02*
X124397895Y-116949121D01*
X124397895Y-116949121D02*
X124683609Y-116663407D01*
X124683609Y-116663407D02*
X124683609Y-116972931D01*
X124350276Y-117139597D02*
X124683609Y-117258645D01*
X124683609Y-117258645D02*
X124350276Y-117377692D01*
D11*
X128290288Y-128014619D02*
X127956955Y-129014619D01*
X127956955Y-129014619D02*
X127623622Y-128014619D01*
X127433145Y-128014619D02*
X126861717Y-128014619D01*
X127147431Y-129014619D02*
X127147431Y-128014619D01*
X126623621Y-128014619D02*
X125956955Y-129014619D01*
X125956955Y-128014619D02*
X126623621Y-129014619D01*
D10*
X106529449Y-122835990D02*
X106553258Y-122859800D01*
X106553258Y-122859800D02*
X106624687Y-122883609D01*
X106624687Y-122883609D02*
X106672306Y-122883609D01*
X106672306Y-122883609D02*
X106743734Y-122859800D01*
X106743734Y-122859800D02*
X106791353Y-122812180D01*
X106791353Y-122812180D02*
X106815163Y-122764561D01*
X106815163Y-122764561D02*
X106838972Y-122669323D01*
X106838972Y-122669323D02*
X106838972Y-122597895D01*
X106838972Y-122597895D02*
X106815163Y-122502657D01*
X106815163Y-122502657D02*
X106791353Y-122455038D01*
X106791353Y-122455038D02*
X106743734Y-122407419D01*
X106743734Y-122407419D02*
X106672306Y-122383609D01*
X106672306Y-122383609D02*
X106624687Y-122383609D01*
X106624687Y-122383609D02*
X106553258Y-122407419D01*
X106553258Y-122407419D02*
X106529449Y-122431228D01*
X106338972Y-122740752D02*
X106100877Y-122740752D01*
X106386591Y-122883609D02*
X106219925Y-122383609D01*
X106219925Y-122383609D02*
X106053258Y-122883609D01*
X105886592Y-122883609D02*
X105886592Y-122383609D01*
X105886592Y-122383609D02*
X105600878Y-122883609D01*
X105600878Y-122883609D02*
X105600878Y-122383609D01*
X105124687Y-122883609D02*
X105362782Y-122883609D01*
X105362782Y-122883609D02*
X105362782Y-122383609D01*
D11*
X100102568Y-103435380D02*
X100102568Y-102625857D01*
X100102568Y-102625857D02*
X100150187Y-102530619D01*
X100150187Y-102530619D02*
X100197806Y-102483000D01*
X100197806Y-102483000D02*
X100293044Y-102435380D01*
X100293044Y-102435380D02*
X100483520Y-102435380D01*
X100483520Y-102435380D02*
X100578758Y-102483000D01*
X100578758Y-102483000D02*
X100626377Y-102530619D01*
X100626377Y-102530619D02*
X100673996Y-102625857D01*
X100673996Y-102625857D02*
X100673996Y-103435380D01*
X101102568Y-102721095D02*
X101578758Y-102721095D01*
X101007330Y-102435380D02*
X101340663Y-103435380D01*
X101340663Y-103435380D02*
X101673996Y-102435380D01*
X102578758Y-102435380D02*
X102245425Y-102911571D01*
X102007330Y-102435380D02*
X102007330Y-103435380D01*
X102007330Y-103435380D02*
X102388282Y-103435380D01*
X102388282Y-103435380D02*
X102483520Y-103387761D01*
X102483520Y-103387761D02*
X102531139Y-103340142D01*
X102531139Y-103340142D02*
X102578758Y-103244904D01*
X102578758Y-103244904D02*
X102578758Y-103102047D01*
X102578758Y-103102047D02*
X102531139Y-103006809D01*
X102531139Y-103006809D02*
X102483520Y-102959190D01*
X102483520Y-102959190D02*
X102388282Y-102911571D01*
X102388282Y-102911571D02*
X102007330Y-102911571D01*
X102864473Y-103435380D02*
X103435901Y-103435380D01*
X103150187Y-102435380D02*
X103150187Y-103435380D01*
D12*
%TO.C,C34*%
X105911252Y-106565000D02*
X105388748Y-106565000D01*
X105911252Y-108035000D02*
X105388748Y-108035000D01*
%TO.C,C54*%
X122638748Y-121715000D02*
X123161252Y-121715000D01*
X122638748Y-123185000D02*
X123161252Y-123185000D01*
%TO.C,C46*%
X105911252Y-104565000D02*
X105388748Y-104565000D01*
X105911252Y-106035000D02*
X105388748Y-106035000D01*
%TO.C,C52*%
X119711252Y-119715000D02*
X119188748Y-119715000D01*
X119711252Y-121185000D02*
X119188748Y-121185000D01*
%TO.C,R65*%
X124537258Y-109377500D02*
X124062742Y-109377500D01*
X124537258Y-110422500D02*
X124062742Y-110422500D01*
D10*
%TO.C,LEDRED1*%
X123700000Y-117790000D02*
G75*
G02*
X123600000Y-117790000I-50000J0D01*
G01*
X123600000Y-117790000D02*
G75*
G02*
X123700000Y-117790000I50000J0D01*
G01*
D12*
%TO.C,USB1*%
X98140000Y-113415000D02*
X98140000Y-104985000D01*
X100960000Y-103715000D02*
X102410000Y-103715000D01*
X100960000Y-114685000D02*
X102410000Y-114685000D01*
X102410000Y-103715000D02*
X102410000Y-105515000D01*
X102410000Y-112885000D02*
X103400000Y-112885000D01*
X102410000Y-114685000D02*
X102410000Y-112885000D01*
D13*
%TO.C,D4*%
X116375000Y-126825000D02*
X116375000Y-126825000D01*
X116375000Y-126825000D02*
X116375000Y-126925000D01*
X116375000Y-126925000D02*
X116375000Y-126925000D01*
X116375000Y-126825000D02*
G75*
G02*
X116375000Y-126925000I0J-50000D01*
G01*
X116375000Y-126925000D02*
G75*
G02*
X116375000Y-126825000I0J50000D01*
G01*
D12*
%TO.C,C17*%
X124138748Y-107415000D02*
X124661252Y-107415000D01*
X124138748Y-108885000D02*
X124661252Y-108885000D01*
%TO.C,GPS/BARO1*%
X128040000Y-116615000D02*
X128040000Y-118415000D01*
X128040000Y-118415000D02*
X127050000Y-118415000D01*
X128040000Y-127585000D02*
X128040000Y-125785000D01*
X129490000Y-116615000D02*
X128040000Y-116615000D01*
X129490000Y-127585000D02*
X128040000Y-127585000D01*
X132310000Y-117885000D02*
X132310000Y-126315000D01*
D11*
%TO.C,IC8*%
X110510000Y-118805000D02*
G75*
G02*
X110260000Y-118805000I-125000J0D01*
G01*
X110260000Y-118805000D02*
G75*
G02*
X110510000Y-118805000I125000J0D01*
G01*
%TO.C,IC2*%
X117050001Y-104550000D02*
X117050001Y-104550000D01*
X117050001Y-104550000D01*
X117050001Y-104550000D01*
X117050001Y-104550000D01*
X117050001Y-104550000D01*
X117050001Y-104550001D01*
X117050001Y-104550001D01*
X117050001Y-104550001D01*
X117050001Y-104550001D01*
X117050001Y-104550001D01*
X117050001Y-104550001D01*
X117050001Y-104550001D01*
X117050000Y-104550001D01*
X117050000Y-104550001D01*
X117050000Y-104550001D01*
X117050000Y-104550001D01*
X117050000Y-104550001D01*
X117050000Y-104550001D01*
X117050000Y-104550001D01*
X117050000Y-104550001D01*
X117050000Y-104550001D01*
X117050000Y-104550001D01*
X117050000Y-104550001D01*
X117050000Y-104550001D01*
X117049999Y-104550001D01*
X117049999Y-104550001D01*
X117049999Y-104550001D01*
X117049999Y-104550001D01*
X117049999Y-104550001D01*
X117049999Y-104550001D01*
X117049999Y-104550000D01*
X117049999Y-104550000D01*
X117049999Y-104550000D01*
X117049999Y-104550000D01*
X117049999Y-104550000D01*
X117049999Y-104550000D01*
X117049999Y-104550000D02*
X117049999Y-104550000D01*
X117049999Y-104550000D01*
X117049999Y-104550000D01*
X117049999Y-104550000D01*
X117049999Y-104550000D01*
X117049999Y-104550000D01*
X117049999Y-104549999D01*
X117049999Y-104549999D01*
X117049999Y-104549999D01*
X117049999Y-104549999D01*
X117049999Y-104549999D01*
X117050000Y-104549999D01*
X117050000Y-104549999D01*
X117050000Y-104549999D01*
X117050000Y-104549999D01*
X117050000Y-104549999D01*
X117050000Y-104549999D01*
X117050000Y-104549999D01*
X117050000Y-104549999D01*
X117050000Y-104549999D01*
X117050000Y-104549999D01*
X117050000Y-104549999D01*
X117050000Y-104549999D01*
X117050001Y-104549999D01*
X117050001Y-104549999D01*
X117050001Y-104549999D01*
X117050001Y-104549999D01*
X117050001Y-104549999D01*
X117050001Y-104549999D01*
X117050001Y-104550000D01*
X117050001Y-104550000D01*
X117050001Y-104550000D01*
X117050001Y-104550000D01*
X117050001Y-104550000D01*
X117050001Y-104550000D01*
X117050001Y-104550000D01*
D10*
%TO.C,LEDRED2*%
X108810000Y-109200000D02*
G75*
G02*
X108710000Y-109200000I-50000J0D01*
G01*
X108710000Y-109200000D02*
G75*
G02*
X108810000Y-109200000I50000J0D01*
G01*
D12*
%TO.C,R57*%
X116612742Y-108477500D02*
X117087258Y-108477500D01*
X116612742Y-109522500D02*
X117087258Y-109522500D01*
%TO.C,C6*%
X115640000Y-115592164D02*
X115640000Y-115807836D01*
X116360000Y-115592164D02*
X116360000Y-115807836D01*
%TO.C,VTX1*%
X114765000Y-128040000D02*
X116565000Y-128040000D01*
X114765000Y-129490000D02*
X114765000Y-128040000D01*
X123935000Y-128040000D02*
X123935000Y-127050000D01*
X124465000Y-132310000D02*
X116035000Y-132310000D01*
X125735000Y-128040000D02*
X123935000Y-128040000D01*
X125735000Y-129490000D02*
X125735000Y-128040000D01*
%TO.C,C5*%
X124138748Y-105415000D02*
X124661252Y-105415000D01*
X124138748Y-106885000D02*
X124661252Y-106885000D01*
%TO.C,C15*%
X112540000Y-113992164D02*
X112540000Y-114207836D01*
X113260000Y-113992164D02*
X113260000Y-114207836D01*
%TO.C,C53*%
X122638748Y-119715000D02*
X123161252Y-119715000D01*
X122638748Y-121185000D02*
X123161252Y-121185000D01*
%TO.C,CAN1*%
X98140000Y-123565000D02*
X98140000Y-117635000D01*
%TO.C,C12*%
X110065000Y-114332836D02*
X110065000Y-114117164D01*
X110785000Y-114332836D02*
X110785000Y-114117164D01*
%TO.C,C25*%
X117140000Y-106590580D02*
X117140000Y-106309420D01*
X118160000Y-106590580D02*
X118160000Y-106309420D01*
%TO.C,ESC2*%
X128040000Y-102590000D02*
X128040000Y-104040000D01*
X128040000Y-104040000D02*
X127150000Y-104040000D01*
X128040000Y-115610000D02*
X128040000Y-114160000D01*
X129790000Y-102590000D02*
X128040000Y-102590000D01*
X129790000Y-115610000D02*
X128040000Y-115610000D01*
X132010000Y-102590000D02*
X132560000Y-102590000D01*
X132560000Y-102590000D02*
X132560000Y-115610000D01*
X132560000Y-115610000D02*
X132010000Y-115610000D01*
%TO.C,2UART1*%
X103365000Y-101110000D02*
X103365000Y-102560000D01*
X103365000Y-102560000D02*
X105165000Y-102560000D01*
X104635000Y-98290000D02*
X113065000Y-98290000D01*
X105165000Y-102560000D02*
X105165000Y-103550000D01*
X114335000Y-101110000D02*
X114335000Y-102560000D01*
X114335000Y-102560000D02*
X112535000Y-102560000D01*
%TO.C,CAN2*%
X105215000Y-128040000D02*
X107015000Y-128040000D01*
X105215000Y-129490000D02*
X105215000Y-128040000D01*
X111885000Y-128040000D02*
X111885000Y-127050000D01*
X112415000Y-132310000D02*
X106485000Y-132310000D01*
X113685000Y-128040000D02*
X111885000Y-128040000D01*
X113685000Y-129490000D02*
X113685000Y-128040000D01*
%TO.C,C8*%
X118765000Y-105761252D02*
X118765000Y-105238748D01*
X120235000Y-105761252D02*
X120235000Y-105238748D01*
%TO.C,ESC1*%
X115240000Y-97890000D02*
X126260000Y-97890000D01*
X115240000Y-98440000D02*
X115240000Y-97890000D01*
X115240000Y-100660000D02*
X115240000Y-102410000D01*
X115240000Y-102410000D02*
X116690000Y-102410000D01*
X116690000Y-102410000D02*
X116690000Y-103300000D01*
X126260000Y-97890000D02*
X126260000Y-98440000D01*
X126260000Y-100660000D02*
X126260000Y-102410000D01*
X126260000Y-102410000D02*
X124810000Y-102410000D01*
%TO.C,C11*%
X111032836Y-112565000D02*
X110817164Y-112565000D01*
X111032836Y-113285000D02*
X110817164Y-113285000D01*
%TO.C,C4*%
X120765000Y-105761252D02*
X120765000Y-105238748D01*
X122235000Y-105761252D02*
X122235000Y-105238748D01*
D11*
%TO.C,IC3*%
X119000001Y-109700000D02*
X119000001Y-109700000D01*
X119000001Y-109700000D01*
X119000001Y-109700000D01*
X119000001Y-109700000D01*
X119000001Y-109700000D01*
X119000001Y-109700001D01*
X119000001Y-109700001D01*
X119000001Y-109700001D01*
X119000001Y-109700001D01*
X119000001Y-109700001D01*
X119000001Y-109700001D01*
X119000001Y-109700001D01*
X119000000Y-109700001D01*
X119000000Y-109700001D01*
X119000000Y-109700001D01*
X119000000Y-109700001D01*
X119000000Y-109700001D01*
X119000000Y-109700001D01*
X119000000Y-109700001D01*
X119000000Y-109700001D01*
X119000000Y-109700001D01*
X119000000Y-109700001D01*
X119000000Y-109700001D01*
X119000000Y-109700001D01*
X118999999Y-109700001D01*
X118999999Y-109700001D01*
X118999999Y-109700001D01*
X118999999Y-109700001D01*
X118999999Y-109700001D01*
X118999999Y-109700001D01*
X118999999Y-109700000D01*
X118999999Y-109700000D01*
X118999999Y-109700000D01*
X118999999Y-109700000D01*
X118999999Y-109700000D01*
X118999999Y-109700000D01*
X118999999Y-109700000D02*
X118999999Y-109700000D01*
X118999999Y-109700000D01*
X118999999Y-109700000D01*
X118999999Y-109700000D01*
X118999999Y-109700000D01*
X118999999Y-109700000D01*
X118999999Y-109699999D01*
X118999999Y-109699999D01*
X118999999Y-109699999D01*
X118999999Y-109699999D01*
X118999999Y-109699999D01*
X119000000Y-109699999D01*
X119000000Y-109699999D01*
X119000000Y-109699999D01*
X119000000Y-109699999D01*
X119000000Y-109699999D01*
X119000000Y-109699999D01*
X119000000Y-109699999D01*
X119000000Y-109699999D01*
X119000000Y-109699999D01*
X119000000Y-109699999D01*
X119000000Y-109699999D01*
X119000000Y-109699999D01*
X119000001Y-109699999D01*
X119000001Y-109699999D01*
X119000001Y-109699999D01*
X119000001Y-109699999D01*
X119000001Y-109699999D01*
X119000001Y-109699999D01*
X119000001Y-109700000D01*
X119000001Y-109700000D01*
X119000001Y-109700000D01*
X119000001Y-109700000D01*
X119000001Y-109700000D01*
X119000001Y-109700000D01*
X119000001Y-109700000D01*
D12*
%TO.C,C31*%
X120940580Y-108540000D02*
X120659420Y-108540000D01*
X120940580Y-109560000D02*
X120659420Y-109560000D01*
%TO.C,C14*%
X116540000Y-111337836D02*
X116540000Y-111122164D01*
X117260000Y-111337836D02*
X117260000Y-111122164D01*
%TO.C,C19*%
X109115000Y-113757836D02*
X109115000Y-113542164D01*
X109835000Y-113757836D02*
X109835000Y-113542164D01*
%TD*%
M02*
