%TF.GenerationSoftware,KiCad,Pcbnew,9.0.3*%
%TF.CreationDate,2025-09-10T14:09:53+02:00*%
%TF.ProjectId,FC_H7_Client,46435f48-375f-4436-9c69-656e742e6b69,rev?*%
%TF.SameCoordinates,Original*%
%TF.FileFunction,Paste,Top*%
%TF.FilePolarity,Positive*%
%FSLAX46Y46*%
G04 Gerber Fmt 4.6, Leading zero omitted, Abs format (unit mm)*
G04 Created by KiCad (PCBNEW 9.0.3) date 2025-09-10 14:09:53*
%MOMM*%
%LPD*%
G01*
G04 APERTURE LIST*
G04 Aperture macros list*
%AMRoundRect*
0 Rectangle with rounded corners*
0 $1 Rounding radius*
0 $2 $3 $4 $5 $6 $7 $8 $9 X,Y pos of 4 corners*
0 Add a 4 corners polygon primitive as box body*
4,1,4,$2,$3,$4,$5,$6,$7,$8,$9,$2,$3,0*
0 Add four circle primitives for the rounded corners*
1,1,$1+$1,$2,$3*
1,1,$1+$1,$4,$5*
1,1,$1+$1,$6,$7*
1,1,$1+$1,$8,$9*
0 Add four rect primitives between the rounded corners*
20,1,$1+$1,$2,$3,$4,$5,0*
20,1,$1+$1,$4,$5,$6,$7,0*
20,1,$1+$1,$6,$7,$8,$9,0*
20,1,$1+$1,$8,$9,$2,$3,0*%
%AMOutline5P*
0 Free polygon, 5 corners , with rotation*
0 The origin of the aperture is its center*
0 number of corners: always 5*
0 $1 to $10 corner X, Y*
0 $11 Rotation angle, in degrees counterclockwise*
0 create outline with 5 corners*
4,1,5,$1,$2,$3,$4,$5,$6,$7,$8,$9,$10,$1,$2,$11*%
%AMOutline6P*
0 Free polygon, 6 corners , with rotation*
0 The origin of the aperture is its center*
0 number of corners: always 6*
0 $1 to $12 corner X, Y*
0 $13 Rotation angle, in degrees counterclockwise*
0 create outline with 6 corners*
4,1,6,$1,$2,$3,$4,$5,$6,$7,$8,$9,$10,$11,$12,$1,$2,$13*%
%AMOutline7P*
0 Free polygon, 7 corners , with rotation*
0 The origin of the aperture is its center*
0 number of corners: always 7*
0 $1 to $14 corner X, Y*
0 $15 Rotation angle, in degrees counterclockwise*
0 create outline with 7 corners*
4,1,7,$1,$2,$3,$4,$5,$6,$7,$8,$9,$10,$11,$12,$13,$14,$1,$2,$15*%
%AMOutline8P*
0 Free polygon, 8 corners , with rotation*
0 The origin of the aperture is its center*
0 number of corners: always 8*
0 $1 to $16 corner X, Y*
0 $17 Rotation angle, in degrees counterclockwise*
0 create outline with 8 corners*
4,1,8,$1,$2,$3,$4,$5,$6,$7,$8,$9,$10,$11,$12,$13,$14,$15,$16,$1,$2,$17*%
%AMFreePoly0*
4,1,19,-0.750000,4.300000,-0.734505,4.451663,-0.679731,4.616964,-0.588312,4.765177,-0.465177,4.888312,-0.316964,4.979731,-0.151663,5.034505,0.000000,5.050000,0.750000,5.050000,0.750000,-5.050000,0.000000,-5.050000,-0.151663,-5.034505,-0.316964,-4.979731,-0.465177,-4.888312,-0.588312,-4.765177,-0.679731,-4.616964,-0.734505,-4.451663,-0.750000,-4.300000,-0.750000,4.300000,-0.750000,4.300000,
$1*%
%AMFreePoly1*
4,1,19,-0.750000,5.050000,0.000000,5.050000,0.151663,5.034505,0.316964,4.979731,0.465177,4.888312,0.588312,4.765177,0.679731,4.616964,0.734505,4.451663,0.750000,4.300000,0.750000,-4.300000,0.734505,-4.451663,0.679731,-4.616964,0.588312,-4.765177,0.465177,-4.888312,0.316964,-4.979731,0.151663,-5.034505,0.000000,-5.050000,-0.750000,-5.050000,-0.750000,5.050000,-0.750000,5.050000,
$1*%
G04 Aperture macros list end*
%ADD10RoundRect,0.079500X-0.100500X0.079500X-0.100500X-0.079500X0.100500X-0.079500X0.100500X0.079500X0*%
%ADD11RoundRect,0.079500X-0.079500X-0.100500X0.079500X-0.100500X0.079500X0.100500X-0.079500X0.100500X0*%
%ADD12R,1.000000X1.000000*%
%ADD13RoundRect,0.079500X0.079500X0.100500X-0.079500X0.100500X-0.079500X-0.100500X0.079500X-0.100500X0*%
%ADD14R,0.650000X0.750000*%
%ADD15RoundRect,0.079500X0.100500X-0.079500X0.100500X0.079500X-0.100500X0.079500X-0.100500X-0.079500X0*%
%ADD16R,1.085000X0.550000*%
%ADD17R,0.400000X1.200000*%
%ADD18R,1.900000X0.400000*%
%ADD19Outline8P,-0.750000X0.600000X-0.600000X0.750000X0.600000X0.750000X0.750000X0.600000X0.750000X-0.600000X0.600000X-0.750000X-0.600000X-0.750000X-0.750000X-0.600000X0.000000*%
%ADD20R,1.200000X0.400000*%
%ADD21RoundRect,0.147500X-0.147500X-0.172500X0.147500X-0.172500X0.147500X0.172500X-0.147500X0.172500X0*%
%ADD22RoundRect,0.140000X-0.140000X-0.170000X0.140000X-0.170000X0.140000X0.170000X-0.140000X0.170000X0*%
%ADD23R,0.300000X0.850000*%
%ADD24R,2.500000X1.700000*%
%ADD25R,0.600000X1.250000*%
%ADD26R,1.200000X3.790000*%
%ADD27R,1.450000X1.400000*%
%ADD28R,1.000000X0.600000*%
%ADD29R,0.950000X0.850000*%
%ADD30RoundRect,0.147500X0.172500X-0.147500X0.172500X0.147500X-0.172500X0.147500X-0.172500X-0.147500X0*%
%ADD31RoundRect,0.140000X0.170000X-0.140000X0.170000X0.140000X-0.170000X0.140000X-0.170000X-0.140000X0*%
%ADD32RoundRect,0.250000X-0.250000X-0.475000X0.250000X-0.475000X0.250000X0.475000X-0.250000X0.475000X0*%
%ADD33RoundRect,0.140000X0.140000X0.170000X-0.140000X0.170000X-0.140000X-0.170000X0.140000X-0.170000X0*%
%ADD34C,0.400002*%
%ADD35FreePoly0,90.000000*%
%ADD36FreePoly1,90.000000*%
%ADD37R,1.500000X13.000000*%
%ADD38R,0.600000X0.300000*%
%ADD39R,0.300000X0.600000*%
%ADD40RoundRect,0.140000X-0.170000X0.140000X-0.170000X-0.140000X0.170000X-0.140000X0.170000X0.140000X0*%
%ADD41R,0.850000X0.300000*%
%ADD42R,1.700000X2.500000*%
%ADD43R,0.350000X0.350000*%
%ADD44R,0.600000X1.400000*%
%ADD45R,1.400000X0.600000*%
%ADD46RoundRect,0.150000X-0.425000X0.150000X-0.425000X-0.150000X0.425000X-0.150000X0.425000X0.150000X0*%
%ADD47RoundRect,0.075000X-0.500000X0.075000X-0.500000X-0.075000X0.500000X-0.075000X0.500000X0.075000X0*%
%ADD48RoundRect,0.250000X-0.750000X0.840000X-0.750000X-0.840000X0.750000X-0.840000X0.750000X0.840000X0*%
%ADD49RoundRect,0.250000X-0.475000X0.250000X-0.475000X-0.250000X0.475000X-0.250000X0.475000X0.250000X0*%
%ADD50R,1.550000X2.200000*%
%ADD51R,0.600000X0.650000*%
%ADD52R,0.700000X0.350000*%
%ADD53R,1.100000X0.400000*%
G04 APERTURE END LIST*
D10*
%TO.C,R25*%
X112250000Y-121505000D03*
X112250000Y-122195000D03*
%TD*%
D11*
%TO.C,R22*%
X118230000Y-108800000D03*
X118920000Y-108800000D03*
%TD*%
D12*
%TO.C,SWDIO1*%
X105000000Y-126850000D03*
%TD*%
D13*
%TO.C,R51*%
X130745000Y-106450000D03*
X130055000Y-106450000D03*
%TD*%
D10*
%TO.C,R47*%
X122300000Y-99905000D03*
X122300000Y-100595000D03*
%TD*%
D13*
%TO.C,C40*%
X104145000Y-107650000D03*
X103455000Y-107650000D03*
%TD*%
%TO.C,R41*%
X99945000Y-103950000D03*
X99255000Y-103950000D03*
%TD*%
D14*
%TO.C,Y3*%
X103550000Y-104350000D03*
X103550000Y-103050000D03*
X102550000Y-103050000D03*
X102550000Y-104350000D03*
%TD*%
D15*
%TO.C,R23*%
X117750000Y-129845000D03*
X117750000Y-129155000D03*
%TD*%
%TO.C,C26*%
X118300000Y-100595000D03*
X118300000Y-99905000D03*
%TD*%
D13*
%TO.C,R60*%
X130750000Y-110050000D03*
X130060000Y-110050000D03*
%TD*%
D11*
%TO.C,C20*%
X129255000Y-119750000D03*
X129945000Y-119750000D03*
%TD*%
D16*
%TO.C,D11*%
X103260000Y-113000000D03*
X105540000Y-113000000D03*
%TD*%
D17*
%TO.C,IC9*%
X112750000Y-105200000D03*
X112100000Y-105200000D03*
X111450000Y-105200000D03*
X111450000Y-107100000D03*
X112100000Y-107100000D03*
X112750000Y-107100000D03*
%TD*%
D11*
%TO.C,R13*%
X104845000Y-119150000D03*
X105535000Y-119150000D03*
%TD*%
D13*
%TO.C,R54*%
X130745000Y-103750000D03*
X130055000Y-103750000D03*
%TD*%
D18*
%TO.C,Y2*%
X117900000Y-118300000D03*
X117900000Y-117100000D03*
X117900000Y-115900000D03*
%TD*%
D13*
%TO.C,C18*%
X100520000Y-108850000D03*
X99830000Y-108850000D03*
%TD*%
D15*
%TO.C,R58*%
X124400000Y-109145000D03*
X124400000Y-108455000D03*
%TD*%
D11*
%TO.C,R32*%
X128675000Y-113350000D03*
X129365000Y-113350000D03*
%TD*%
D13*
%TO.C,R6*%
X114305000Y-119720000D03*
X113615000Y-119720000D03*
%TD*%
D10*
%TO.C,R2*%
X114100000Y-121455000D03*
X114100000Y-122145000D03*
%TD*%
%TO.C,R19*%
X117750000Y-121505000D03*
X117750000Y-122195000D03*
%TD*%
D13*
%TO.C,R49*%
X130745000Y-108250000D03*
X130055000Y-108250000D03*
%TD*%
D15*
%TO.C,R26*%
X112250000Y-129845000D03*
X112250000Y-129155000D03*
%TD*%
D19*
%TO.C,ADC_VBAT2*%
X127000000Y-109900000D03*
%TD*%
D20*
%TO.C,IC10*%
X111900000Y-101600000D03*
X111900000Y-102250000D03*
X111900000Y-102900000D03*
X113800000Y-102900000D03*
X113800000Y-102250000D03*
X113800000Y-101600000D03*
%TD*%
D15*
%TO.C,R24*%
X116650000Y-129845000D03*
X116650000Y-129155000D03*
%TD*%
D21*
%TO.C,LEDBLUE1*%
X111830000Y-119700000D03*
X112800000Y-119700000D03*
%TD*%
D22*
%TO.C,C2*%
X118095000Y-107925000D03*
X119055000Y-107925000D03*
%TD*%
D13*
%TO.C,C49*%
X130745000Y-110750000D03*
X130055000Y-110750000D03*
%TD*%
D15*
%TO.C,R33*%
X125200000Y-115545000D03*
X125200000Y-114855000D03*
%TD*%
D23*
%TO.C,IC5*%
X120100000Y-103750000D03*
X119150000Y-103750000D03*
X118200000Y-103750000D03*
X118200000Y-106650000D03*
X119150000Y-106650000D03*
X120100000Y-106650000D03*
D24*
X119150000Y-105200000D03*
%TD*%
D13*
%TO.C,C16*%
X117645000Y-114250000D03*
X116955000Y-114250000D03*
%TD*%
D21*
%TO.C,LEDGREEN1*%
X111835000Y-120660000D03*
X112805000Y-120660000D03*
%TD*%
D15*
%TO.C,R37*%
X106800000Y-102800000D03*
X106800000Y-102110000D03*
%TD*%
%TO.C,C29*%
X104300000Y-103795000D03*
X104300000Y-103105000D03*
%TD*%
D10*
%TO.C,R9*%
X129300000Y-117955000D03*
X129300000Y-118645000D03*
%TD*%
%TO.C,R12*%
X116650000Y-121505000D03*
X116650000Y-122195000D03*
%TD*%
D25*
%TO.C,J2*%
X118850000Y-124200000D03*
X117750000Y-124200000D03*
X116650000Y-124200000D03*
X115550000Y-124200000D03*
X114450000Y-124200000D03*
X113350000Y-124200000D03*
X112250000Y-124200000D03*
X111150000Y-124200000D03*
D26*
X110000000Y-126680000D03*
D27*
X120475000Y-125925000D03*
D28*
X120700000Y-127175000D03*
D29*
X119775000Y-128150000D03*
%TD*%
D30*
%TO.C,LEDRED4*%
X124100000Y-121935000D03*
X124100000Y-120965000D03*
%TD*%
D31*
%TO.C,C23*%
X129600000Y-124850000D03*
X129600000Y-123890000D03*
%TD*%
D10*
%TO.C,R45*%
X120400000Y-99885000D03*
X120400000Y-100575000D03*
%TD*%
D15*
%TO.C,R27*%
X111150000Y-129845000D03*
X111150000Y-129155000D03*
%TD*%
D21*
%TO.C,LEDRED3*%
X118165000Y-109650000D03*
X119135000Y-109650000D03*
%TD*%
D10*
%TO.C,C48*%
X123675000Y-108455000D03*
X123675000Y-109145000D03*
%TD*%
D16*
%TO.C,D10*%
X103360000Y-109400000D03*
X105640000Y-109400000D03*
%TD*%
D11*
%TO.C,R3*%
X99835000Y-109550000D03*
X100525000Y-109550000D03*
%TD*%
%TO.C,R8*%
X121485000Y-107350000D03*
X122175000Y-107350000D03*
%TD*%
D19*
%TO.C,+5V2*%
X104800000Y-99950000D03*
%TD*%
D32*
%TO.C,C47*%
X103450000Y-111200000D03*
X105350000Y-111200000D03*
%TD*%
D10*
%TO.C,R44*%
X119500000Y-99885000D03*
X119500000Y-100575000D03*
%TD*%
D11*
%TO.C,R1*%
X104855000Y-118430000D03*
X105545000Y-118430000D03*
%TD*%
D13*
%TO.C,R50*%
X130745000Y-107350000D03*
X130055000Y-107350000D03*
%TD*%
D11*
%TO.C,R61*%
X104880000Y-122700000D03*
X105570000Y-122700000D03*
%TD*%
D33*
%TO.C,C21*%
X129010000Y-120900000D03*
X128050000Y-120900000D03*
%TD*%
D11*
%TO.C,C27*%
X121485000Y-106650000D03*
X122175000Y-106650000D03*
%TD*%
D10*
%TO.C,R63*%
X121900000Y-129800000D03*
X121900000Y-130490000D03*
%TD*%
D13*
%TO.C,R5*%
X114305000Y-120630000D03*
X113615000Y-120630000D03*
%TD*%
D10*
%TO.C,R59*%
X125100000Y-108455000D03*
X125100000Y-109145000D03*
%TD*%
D34*
%TO.C,U1*%
X115200000Y-117700000D03*
X114400000Y-117700000D03*
X113600000Y-117700000D03*
X112800000Y-117700000D03*
X112000000Y-117700000D03*
X111200000Y-117700000D03*
X110400000Y-117700000D03*
X109600000Y-117700000D03*
X108800000Y-117700000D03*
X108000000Y-117700000D03*
X115200000Y-116900000D03*
X114400000Y-116900000D03*
X113600000Y-116900000D03*
X112800000Y-116900000D03*
X112000000Y-116900000D03*
X111200000Y-116900000D03*
X110400000Y-116900000D03*
X109600000Y-116900000D03*
X108800000Y-116900000D03*
X108000000Y-116900000D03*
X115200000Y-116100000D03*
X114400000Y-116100000D03*
X113600000Y-116100000D03*
X112800000Y-116100000D03*
X112000000Y-116100000D03*
X111200000Y-116100000D03*
X110400000Y-116100000D03*
X109600000Y-116100000D03*
X108800000Y-116100000D03*
X108000000Y-116100000D03*
X115200000Y-115300000D03*
X114400000Y-115300000D03*
X113600000Y-115300000D03*
X112800000Y-115300000D03*
X112000000Y-115300000D03*
X111200000Y-115300000D03*
X110400000Y-115300000D03*
X109600000Y-115300000D03*
X108800000Y-115300000D03*
X108000000Y-115300000D03*
X115200000Y-114500000D03*
X114400000Y-114500000D03*
X113600000Y-114500000D03*
X112800000Y-114500000D03*
X112000000Y-114500000D03*
X111200000Y-114500000D03*
X110400000Y-114500000D03*
X109600000Y-114500000D03*
X108800000Y-114500000D03*
X108000000Y-114500000D03*
X115200000Y-113700000D03*
X114400000Y-113700000D03*
X113600000Y-113700000D03*
X112800000Y-113700000D03*
X112000000Y-113700000D03*
X111200000Y-113700000D03*
X110400000Y-113700000D03*
X109600000Y-113700000D03*
X108800000Y-113700000D03*
X108000000Y-113700000D03*
X115200000Y-112900000D03*
X114400000Y-112900000D03*
X113600000Y-112900000D03*
X112800000Y-112900000D03*
X112000000Y-112900000D03*
X111200000Y-112900000D03*
X110400000Y-112900000D03*
X109600000Y-112900000D03*
X108800000Y-112900000D03*
X108000000Y-112900000D03*
X115200000Y-112100000D03*
X114400000Y-112100000D03*
X113600000Y-112100000D03*
X112800000Y-112100000D03*
X112000000Y-112100000D03*
X111200000Y-112100000D03*
X110400000Y-112100000D03*
X109600000Y-112100000D03*
X108800000Y-112100000D03*
X108000000Y-112100000D03*
X115200000Y-111300000D03*
X114400000Y-111300000D03*
X113600000Y-111300000D03*
X112800000Y-111300000D03*
X112000000Y-111300000D03*
X111200000Y-111300000D03*
X110400000Y-111300000D03*
X109600000Y-111300000D03*
X108800000Y-111300000D03*
X108000000Y-111300000D03*
X115200000Y-110500000D03*
X114400000Y-110500000D03*
X113600000Y-110500000D03*
X112800000Y-110500000D03*
X112000000Y-110500000D03*
X111200000Y-110500000D03*
X110400000Y-110500000D03*
X109600000Y-110500000D03*
X108800000Y-110500000D03*
X108000000Y-110500000D03*
%TD*%
D35*
%TO.C,J3*%
X126950000Y-126535000D03*
D36*
X126950000Y-112035000D03*
D37*
X122650000Y-119285000D03*
X131250000Y-119285000D03*
%TD*%
D38*
%TO.C,IC6*%
X105900000Y-104300000D03*
X105900000Y-104800000D03*
X105900000Y-105300000D03*
X105900000Y-105800000D03*
X105900000Y-106300000D03*
X105900000Y-106800000D03*
X105900000Y-107300000D03*
D39*
X106500000Y-107900000D03*
X107000000Y-107900000D03*
X107500000Y-107900000D03*
X108000000Y-107900000D03*
X108500000Y-107900000D03*
X109000000Y-107900000D03*
X109500000Y-107900000D03*
D38*
X110100000Y-107300000D03*
X110100000Y-106800000D03*
X110100000Y-106300000D03*
X110100000Y-105800000D03*
X110100000Y-105300000D03*
X110100000Y-104800000D03*
X110100000Y-104300000D03*
D39*
X109500000Y-103700000D03*
X109000000Y-103700000D03*
X108500000Y-103700000D03*
X108000000Y-103700000D03*
X107500000Y-103700000D03*
X107000000Y-103700000D03*
X106500000Y-103700000D03*
%TD*%
D19*
%TO.C,CAM2*%
X108600000Y-99950000D03*
%TD*%
D15*
%TO.C,R36*%
X107500000Y-102800000D03*
X107500000Y-102110000D03*
%TD*%
D19*
%TO.C,+5V1*%
X110450000Y-99950000D03*
%TD*%
D13*
%TO.C,R48*%
X130745000Y-109150000D03*
X130055000Y-109150000D03*
%TD*%
D40*
%TO.C,C3*%
X124150000Y-123820000D03*
X124150000Y-124780000D03*
%TD*%
D10*
%TO.C,C41*%
X109600000Y-102110000D03*
X109600000Y-102800000D03*
%TD*%
D11*
%TO.C,R15*%
X127455000Y-116950000D03*
X128145000Y-116950000D03*
%TD*%
D41*
%TO.C,IC7*%
X125450000Y-122400000D03*
X125450000Y-123350000D03*
X125450000Y-124300000D03*
X128350000Y-124300000D03*
X128350000Y-123350000D03*
X128350000Y-122400000D03*
D42*
X126900000Y-123350000D03*
%TD*%
D13*
%TO.C,R4*%
X117645000Y-114950000D03*
X116955000Y-114950000D03*
%TD*%
D10*
%TO.C,R14*%
X117600000Y-99935000D03*
X117600000Y-100625000D03*
%TD*%
D33*
%TO.C,C36*%
X103680000Y-106750000D03*
X102720000Y-106750000D03*
%TD*%
D15*
%TO.C,R56*%
X103350000Y-128690000D03*
X103350000Y-128000000D03*
%TD*%
D31*
%TO.C,C37*%
X115700000Y-122180000D03*
X115700000Y-121220000D03*
%TD*%
D38*
%TO.C,IC1*%
X125750000Y-118200000D03*
X125750000Y-118700000D03*
X125750000Y-119200000D03*
X125750000Y-119700000D03*
D39*
X126400000Y-119850000D03*
X126900000Y-119850000D03*
X127400000Y-119850000D03*
D38*
X128050000Y-119700000D03*
X128050000Y-119200000D03*
X128050000Y-118700000D03*
X128050000Y-118200000D03*
D39*
X127400000Y-118050000D03*
X126900000Y-118050000D03*
X126400000Y-118050000D03*
%TD*%
D43*
%TO.C,IC4*%
X126225000Y-116075000D03*
X126225000Y-115425000D03*
X126225000Y-114775000D03*
X126225000Y-114125000D03*
X127675000Y-114125000D03*
X127675000Y-114775000D03*
X127675000Y-115425000D03*
X127675000Y-116075000D03*
%TD*%
D15*
%TO.C,R38*%
X106100000Y-102800000D03*
X106100000Y-102110000D03*
%TD*%
D44*
%TO.C,Q4*%
X101300000Y-105250000D03*
X99400000Y-105250000D03*
X100350000Y-107550000D03*
%TD*%
D13*
%TO.C,C43*%
X114645000Y-100550000D03*
X113955000Y-100550000D03*
%TD*%
%TO.C,R29*%
X126590000Y-117000000D03*
X125900000Y-117000000D03*
%TD*%
D45*
%TO.C,Q3*%
X123250000Y-128450000D03*
X123250000Y-130350000D03*
X125550000Y-129400000D03*
%TD*%
D15*
%TO.C,R16*%
X124300000Y-119645000D03*
X124300000Y-118955000D03*
%TD*%
D46*
%TO.C,J1*%
X103400000Y-117490000D03*
X103400000Y-118290000D03*
D47*
X103400000Y-119440000D03*
X103400000Y-120440000D03*
X103400000Y-120940000D03*
X103400000Y-121940000D03*
D46*
X103400000Y-123090000D03*
X103400000Y-123890000D03*
X103400000Y-123890000D03*
X103400000Y-123090000D03*
D47*
X103400000Y-122440000D03*
X103400000Y-121440000D03*
X103400000Y-119940000D03*
X103400000Y-118940000D03*
D46*
X103400000Y-118290000D03*
X103400000Y-117490000D03*
D48*
X102825000Y-115580000D03*
X98895000Y-115580000D03*
X102825000Y-125800000D03*
X98895000Y-125800000D03*
%TD*%
D15*
%TO.C,C38*%
X114800000Y-122145000D03*
X114800000Y-121455000D03*
%TD*%
D13*
%TO.C,C30*%
X103545000Y-105200000D03*
X102855000Y-105200000D03*
%TD*%
D11*
%TO.C,C28*%
X128635000Y-116100000D03*
X129325000Y-116100000D03*
%TD*%
D15*
%TO.C,R18*%
X108900000Y-102800000D03*
X108900000Y-102110000D03*
%TD*%
D49*
%TO.C,C51*%
X127100000Y-103700000D03*
X127100000Y-105600000D03*
%TD*%
D10*
%TO.C,R39*%
X110350000Y-102105000D03*
X110350000Y-102795000D03*
%TD*%
D12*
%TO.C,SWCLK1*%
X106550000Y-126850000D03*
%TD*%
D11*
%TO.C,C39*%
X128650000Y-114850000D03*
X129340000Y-114850000D03*
%TD*%
D13*
%TO.C,R52*%
X130745000Y-105550000D03*
X130055000Y-105550000D03*
%TD*%
D19*
%TO.C,GND15*%
X127050000Y-107400000D03*
%TD*%
D10*
%TO.C,R46*%
X121350000Y-99905000D03*
X121350000Y-100595000D03*
%TD*%
%TO.C,R20*%
X118850000Y-121505000D03*
X118850000Y-122195000D03*
%TD*%
D15*
%TO.C,R11*%
X118850000Y-129845000D03*
X118850000Y-129155000D03*
%TD*%
D22*
%TO.C,C1*%
X119020000Y-102550000D03*
X119980000Y-102550000D03*
%TD*%
D11*
%TO.C,R34*%
X126205000Y-113300000D03*
X126895000Y-113300000D03*
%TD*%
D50*
%TO.C,D3*%
X124400000Y-102450000D03*
X124400000Y-106550000D03*
%TD*%
D51*
%TO.C,S3*%
X101850000Y-110425000D03*
X101850000Y-113575000D03*
X100150000Y-110425000D03*
X100150000Y-113575000D03*
D52*
X101000000Y-110275000D03*
X101000000Y-113725000D03*
%TD*%
D15*
%TO.C,R35*%
X108200000Y-102800000D03*
X108200000Y-102110000D03*
%TD*%
D13*
%TO.C,C35*%
X103545000Y-105900000D03*
X102855000Y-105900000D03*
%TD*%
%TO.C,R21*%
X125645000Y-120850000D03*
X124955000Y-120850000D03*
%TD*%
D11*
%TO.C,C22*%
X126355000Y-120850000D03*
X127045000Y-120850000D03*
%TD*%
D19*
%TO.C,LEDTIM1*%
X104600000Y-129800000D03*
%TD*%
D10*
%TO.C,C42*%
X114000000Y-106455000D03*
X114000000Y-107145000D03*
%TD*%
D13*
%TO.C,R7*%
X122175000Y-105950000D03*
X121485000Y-105950000D03*
%TD*%
D10*
%TO.C,R62*%
X121900000Y-128305000D03*
X121900000Y-128995000D03*
%TD*%
%TO.C,R28*%
X111150000Y-121505000D03*
X111150000Y-122195000D03*
%TD*%
D19*
%TO.C,CAM1*%
X106700000Y-99950000D03*
%TD*%
%TO.C,GND16*%
X106800000Y-129800000D03*
%TD*%
D11*
%TO.C,R10*%
X105255000Y-123400000D03*
X105945000Y-123400000D03*
%TD*%
D13*
%TO.C,R53*%
X130745000Y-104650000D03*
X130055000Y-104650000D03*
%TD*%
D53*
%TO.C,D13*%
X105350000Y-120350000D03*
X105350000Y-121000000D03*
X105350000Y-121650000D03*
X107350000Y-121650000D03*
X107350000Y-121000000D03*
X107350000Y-120350000D03*
%TD*%
D13*
%TO.C,R55*%
X130745000Y-102850000D03*
X130055000Y-102850000D03*
%TD*%
%TO.C,R17*%
X101395000Y-103950000D03*
X100705000Y-103950000D03*
%TD*%
M02*
