%TF.GenerationSoftware,KiCad,Pcbnew,9.0.7*%
%TF.CreationDate,2026-03-18T15:22:42+01:00*%
%TF.ProjectId,FC_H7_MINI,46435f48-375f-44d4-994e-492e6b696361,rev?*%
%TF.SameCoordinates,Original*%
%TF.FileFunction,Soldermask,Bot*%
%TF.FilePolarity,Negative*%
%FSLAX46Y46*%
G04 Gerber Fmt 4.6, Leading zero omitted, Abs format (unit mm)*
G04 Created by KiCad (PCBNEW 9.0.7) date 2026-03-18 15:22:42*
%MOMM*%
%LPD*%
G01*
G04 APERTURE LIST*
G04 Aperture macros list*
%AMRoundRect*
0 Rectangle with rounded corners*
0 $1 Rounding radius*
0 $2 $3 $4 $5 $6 $7 $8 $9 X,Y pos of 4 corners*
0 Add a 4 corners polygon primitive as box body*
4,1,4,$2,$3,$4,$5,$6,$7,$8,$9,$2,$3,0*
0 Add four circle primitives for the rounded corners*
1,1,$1+$1,$2,$3*
1,1,$1+$1,$4,$5*
1,1,$1+$1,$6,$7*
1,1,$1+$1,$8,$9*
0 Add four rect primitives between the rounded corners*
20,1,$1+$1,$2,$3,$4,$5,0*
20,1,$1+$1,$4,$5,$6,$7,0*
20,1,$1+$1,$6,$7,$8,$9,0*
20,1,$1+$1,$8,$9,$2,$3,0*%
G04 Aperture macros list end*
%ADD10C,0.650000*%
%ADD11O,2.100000X1.000000*%
%ADD12O,1.800000X1.000000*%
%ADD13R,1.500000X1.500000*%
%ADD14C,0.800000*%
%ADD15C,6.400000*%
%ADD16RoundRect,0.225000X-0.525000X-0.525000X0.525000X-0.525000X0.525000X0.525000X-0.525000X0.525000X0*%
%ADD17C,1.000000*%
%ADD18RoundRect,0.225000X-0.525000X0.525000X-0.525000X-0.525000X0.525000X-0.525000X0.525000X0.525000X0*%
%ADD19RoundRect,0.225000X0.525000X0.525000X-0.525000X0.525000X-0.525000X-0.525000X0.525000X-0.525000X0*%
G04 APERTURE END LIST*
D10*
%TO.C,J1*%
X80615000Y-87110000D03*
X80615000Y-92890000D03*
D11*
X81115000Y-85680000D03*
D12*
X76935000Y-85680000D03*
D11*
X81115000Y-94320000D03*
D12*
X76935000Y-94320000D03*
%TD*%
D13*
%TO.C,M3*%
X90000000Y-74500000D03*
%TD*%
%TO.C,GND9*%
X92300000Y-105500000D03*
%TD*%
%TO.C,Rx4*%
X90000000Y-105500000D03*
%TD*%
%TO.C,5v1*%
X83100000Y-105500000D03*
%TD*%
%TO.C,ADC_CURR1*%
X94600000Y-74500000D03*
%TD*%
%TO.C,M2*%
X87700000Y-74500000D03*
%TD*%
%TO.C,Tx3*%
X99200000Y-74500000D03*
%TD*%
%TO.C,VBAT+1*%
X83100000Y-74500000D03*
%TD*%
%TO.C,tx4*%
X87700000Y-105500000D03*
%TD*%
%TO.C,M4*%
X92300000Y-74500000D03*
%TD*%
%TO.C,rx1*%
X94600000Y-105500000D03*
%TD*%
%TO.C,M1*%
X85400000Y-74500000D03*
%TD*%
%TO.C,gnd3*%
X85400000Y-105500000D03*
%TD*%
%TO.C,gnd1*%
X80800000Y-74500000D03*
%TD*%
D14*
%TO.C,Mounting_hole4*%
X77600000Y-100000000D03*
X78302944Y-98302944D03*
X78302944Y-101697056D03*
X80000000Y-97600000D03*
D15*
X80000000Y-100000000D03*
D14*
X80000000Y-102400000D03*
X81697056Y-98302944D03*
X81697056Y-101697056D03*
X82400000Y-100000000D03*
%TD*%
D13*
%TO.C,tx1*%
X96900000Y-105500000D03*
%TD*%
D14*
%TO.C,Mounting_hole2*%
X77600000Y-80000000D03*
X78302944Y-78302944D03*
X78302944Y-81697056D03*
X80000000Y-77600000D03*
D15*
X80000000Y-80000000D03*
D14*
X80000000Y-82400000D03*
X81697056Y-78302944D03*
X81697056Y-81697056D03*
X82400000Y-80000000D03*
%TD*%
%TO.C,Mounting_hole1*%
X97600000Y-100000000D03*
X98302944Y-98302944D03*
X98302944Y-101697056D03*
X100000000Y-97600000D03*
D15*
X100000000Y-100000000D03*
D14*
X100000000Y-102400000D03*
X101697056Y-98302944D03*
X101697056Y-101697056D03*
X102400000Y-100000000D03*
%TD*%
D13*
%TO.C,Rx3*%
X96900000Y-74500000D03*
%TD*%
D14*
%TO.C,Mounting_hole3*%
X97600000Y-80000000D03*
X98302944Y-78302944D03*
X98302944Y-81697056D03*
X100000000Y-77600000D03*
D15*
X100000000Y-80000000D03*
D14*
X100000000Y-82400000D03*
X101697056Y-78302944D03*
X101697056Y-81697056D03*
X102400000Y-80000000D03*
%TD*%
D16*
%TO.C,+4.5V2*%
X85000000Y-101400000D03*
%TD*%
D17*
%TO.C,SWCLK1*%
X88000000Y-94300000D03*
%TD*%
D18*
%TO.C,LED1*%
X89000000Y-99400000D03*
%TD*%
D16*
%TO.C,GND2*%
X87000000Y-101400000D03*
%TD*%
D19*
%TO.C,RX2*%
X95000000Y-101410000D03*
%TD*%
%TO.C,USBDM1*%
X79100000Y-88800000D03*
%TD*%
%TO.C,TX2*%
X93000000Y-101390000D03*
%TD*%
D18*
%TO.C,+5V2*%
X85000000Y-99400000D03*
%TD*%
%TO.C,BUZ-1*%
X91000000Y-99400000D03*
%TD*%
D19*
%TO.C,USB5V1*%
X79100000Y-86300000D03*
%TD*%
D18*
%TO.C,+5V1*%
X93000000Y-99400000D03*
%TD*%
D19*
%TO.C,USBGND1*%
X79100000Y-93800000D03*
%TD*%
D18*
%TO.C,GND4*%
X87000000Y-99400000D03*
%TD*%
D19*
%TO.C,PIO1*%
X95000000Y-99400000D03*
%TD*%
%TO.C,SDA1*%
X91000000Y-101390000D03*
%TD*%
%TO.C,SCL1*%
X89000000Y-101400000D03*
%TD*%
D17*
%TO.C,SWDIO1*%
X88000000Y-95700000D03*
%TD*%
D19*
%TO.C,USBDP1*%
X79100000Y-91300000D03*
%TD*%
M02*
